<?xml version="1.0" encoding="utf-8" standalone="no"?>
<!DOCTYPE svg PUBLIC "-//W3C//DTD SVG 1.1//EN"
  "http://www.w3.org/Graphics/SVG/1.1/DTD/svg11.dtd">
<svg xmlns:xlink="http://www.w3.org/1999/xlink" width="460.8pt" height="345.6pt" viewBox="0 0 460.8 345.6" xmlns="http://www.w3.org/2000/svg" version="1.1">
 <metadata>
  <rdf:RDF xmlns:dc="http://purl.org/dc/elements/1.1/" xmlns:cc="http://creativecommons.org/ns#" xmlns:rdf="http://www.w3.org/1999/02/22-rdf-syntax-ns#">
   <cc:Work>
    <dc:type rdf:resource="http://purl.org/dc/dcmitype/StillImage"/>
    <dc:date>2024-11-18T12:33:58.702927</dc:date>
    <dc:format>image/svg+xml</dc:format>
    <dc:creator>
     <cc:Agent>
      <dc:title>Matplotlib v3.9.2, https://matplotlib.org/</dc:title>
     </cc:Agent>
    </dc:creator>
   </cc:Work>
  </rdf:RDF>
 </metadata>
 <defs>
  <style type="text/css">*{stroke-linejoin: round; stroke-linecap: butt}</style>
 </defs>
 <g id="figure_1">
  <g id="patch_1">
   <path d="M 0 345.6 
L 460.8 345.6 
L 460.8 0 
L 0 0 
z
" style="fill: #ffffff"/>
  </g>
  <g id="axes_1">
   <g id="patch_2">
    <path d="M 57.6 307.584 
L 414.72 307.584 
L 414.72 41.472 
L 57.6 41.472 
z
" style="fill: #ffffff"/>
   </g>
   <g id="PolyCollection_1">
    <defs>
     <path id="md10e4fc380" d="M 57.6 -38.016 
L 57.6 -38.016 
L 62.223782 -40.395827 
L 66.847563 -42.775654 
L 71.471345 -45.15548 
L 76.095126 -47.535307 
L 80.718908 -49.915134 
L 85.34269 -52.294961 
L 89.966471 -54.674787 
L 94.590253 -57.054614 
L 99.214034 -59.434441 
L 103.837816 -61.814268 
L 108.461597 -64.194095 
L 113.085379 -66.573921 
L 117.709161 -68.953748 
L 122.332942 -71.333575 
L 126.956724 -73.713402 
L 131.580505 -76.093228 
L 136.204287 -78.473055 
L 140.828069 -80.852882 
L 145.45185 -83.232709 
L 150.075632 -85.612536 
L 154.699413 -87.992362 
L 159.323195 -90.372189 
L 163.946977 -92.752016 
L 168.570758 -95.131843 
L 173.19454 -97.511669 
L 177.818321 -99.891496 
L 182.442103 -102.271323 
L 187.065884 -104.65115 
L 191.689666 -107.030977 
L 196.313448 -109.410803 
L 200.937229 -111.79063 
L 205.561011 -114.170457 
L 210.184792 -116.550284 
L 214.808574 -118.930111 
L 219.432356 -121.309937 
L 224.056137 -123.689764 
L 228.679919 -126.069591 
L 233.3037 -128.449418 
L 237.927482 -130.829244 
L 242.551264 -133.209071 
L 247.175045 -135.588898 
L 251.798827 -137.968725 
L 256.422608 -140.348552 
L 261.04639 -142.728378 
L 265.670171 -145.108205 
L 270.293953 -147.488032 
L 274.917735 -149.867859 
L 279.541516 -152.247685 
L 284.165298 -154.627512 
L 288.789079 -157.007339 
L 293.412861 -159.387166 
L 298.036643 -161.766993 
L 302.660424 -164.146819 
L 307.284206 -166.526646 
L 311.907987 -168.906473 
L 316.531769 -171.2863 
L 321.15555 -173.666126 
L 325.779332 -176.045953 
L 330.403114 -178.42578 
L 335.026895 -180.805607 
L 339.650677 -183.185434 
L 344.274458 -185.56526 
L 348.89824 -187.945087 
L 353.522022 -190.324914 
L 358.145803 -192.704741 
L 362.769585 -195.084567 
L 367.393366 -197.464394 
L 372.017148 -199.844221 
L 376.64093 -202.224048 
L 381.264711 -204.603875 
L 385.888493 -206.983701 
L 390.512274 -209.363528 
L 395.136056 -211.743355 
L 399.759837 -214.123182 
L 404.383619 -216.503008 
L 409.007401 -218.882835 
L 413.631182 -221.262662 
L 418.254964 -223.642489 
L 422.878745 -226.022316 
L 427.502527 -228.402142 
L 432.126309 -230.781969 
L 436.75009 -233.161796 
L 441.373872 -235.541623 
L 445.997653 -237.92145 
L 450.621435 -240.301276 
L 455.245217 -242.681103 
L 459.868998 -245.06093 
L 464.49278 -247.440757 
L 469.116561 -249.820583 
L 473.740343 -252.20041 
L 478.364124 -254.580237 
L 482.987906 -256.960064 
L 487.611688 -259.339891 
L 492.235469 -261.719717 
L 496.859251 -264.099544 
L 501.483032 -266.479371 
L 506.106814 -268.859198 
L 510.730596 -271.239024 
L 515.354377 -273.618851 
L 515.354377 -330.268879 
L 515.354377 -330.268879 
L 510.730596 -327.31683 
L 506.106814 -324.364781 
L 501.483032 -321.412731 
L 496.859251 -318.460682 
L 492.235469 -315.508633 
L 487.611688 -312.556583 
L 482.987906 -309.604534 
L 478.364124 -306.652485 
L 473.740343 -303.700436 
L 469.116561 -300.748386 
L 464.49278 -297.796337 
L 459.868998 -294.844288 
L 455.245217 -291.892238 
L 450.621435 -288.940189 
L 445.997653 -285.98814 
L 441.373872 -283.036091 
L 436.75009 -280.084041 
L 432.126309 -277.131992 
L 427.502527 -274.179943 
L 422.878745 -271.227893 
L 418.254964 -268.275844 
L 413.631182 -265.323795 
L 409.007401 -262.371746 
L 404.383619 -259.419696 
L 399.759837 -256.467647 
L 395.136056 -253.515598 
L 390.512274 -250.563548 
L 385.888493 -247.611499 
L 381.264711 -244.65945 
L 376.64093 -241.707401 
L 372.017148 -238.755351 
L 367.393366 -235.803302 
L 362.769585 -232.851253 
L 358.145803 -229.899203 
L 353.522022 -226.947154 
L 348.89824 -223.995105 
L 344.274458 -221.043056 
L 339.650677 -218.091006 
L 335.026895 -215.138957 
L 330.403114 -212.186908 
L 325.779332 -209.234858 
L 321.15555 -206.282809 
L 316.531769 -203.33076 
L 311.907987 -200.378711 
L 307.284206 -197.426661 
L 302.660424 -194.474612 
L 298.036643 -191.522563 
L 293.412861 -188.570513 
L 288.789079 -185.618464 
L 284.165298 -182.666415 
L 279.541516 -179.714366 
L 274.917735 -176.762316 
L 270.293953 -173.810267 
L 265.670171 -170.858218 
L 261.04639 -167.906168 
L 256.422608 -164.954119 
L 251.798827 -162.00207 
L 247.175045 -159.050021 
L 242.551264 -156.097971 
L 237.927482 -153.145922 
L 233.3037 -150.193873 
L 228.679919 -147.241824 
L 224.056137 -144.289774 
L 219.432356 -141.337725 
L 214.808574 -138.385676 
L 210.184792 -135.433626 
L 205.561011 -132.481577 
L 200.937229 -129.529528 
L 196.313448 -126.577479 
L 191.689666 -123.625429 
L 187.065884 -120.67338 
L 182.442103 -117.721331 
L 177.818321 -114.769281 
L 173.19454 -111.817232 
L 168.570758 -108.865183 
L 163.946977 -105.913134 
L 159.323195 -102.961084 
L 154.699413 -100.009035 
L 150.075632 -97.056986 
L 145.45185 -94.104936 
L 140.828069 -91.152887 
L 136.204287 -88.200838 
L 131.580505 -85.248789 
L 126.956724 -82.296739 
L 122.332942 -79.34469 
L 117.709161 -76.392641 
L 113.085379 -73.440591 
L 108.461597 -70.488542 
L 103.837816 -67.536493 
L 99.214034 -64.584444 
L 94.590253 -61.632394 
L 89.966471 -58.680345 
L 85.34269 -55.728296 
L 80.718908 -52.776246 
L 76.095126 -49.824197 
L 71.471345 -46.872148 
L 66.847563 -43.920099 
L 62.223782 -40.968049 
L 57.6 -38.016 
z
" style="stroke: #808080; stroke-opacity: 0.3"/>
    </defs>
    <g clip-path="url(#p81c70fb537)">
     <use xlink:href="#md10e4fc380" x="0" y="345.6" style="fill: #808080; fill-opacity: 0.3; stroke: #808080; stroke-opacity: 0.3"/>
    </g>
   </g>
   <g id="PolyCollection_2">
    <defs>
     <path id="mfc84b4dcd0" d="M 57.6 -38.016 
L 57.6 -38.016 
L 62.223782 -39.368077 
L 66.847563 -40.720154 
L 71.471345 -42.072231 
L 76.095126 -43.424307 
L 80.718908 -44.776384 
L 85.34269 -46.128461 
L 89.966471 -47.480538 
L 94.590253 -48.832615 
L 99.214034 -50.184692 
L 103.837816 -51.536769 
L 108.461597 -52.888846 
L 113.085379 -54.240922 
L 117.709161 -55.592999 
L 122.332942 -56.945076 
L 126.956724 -58.297153 
L 131.580505 -59.64923 
L 136.204287 -61.001307 
L 140.828069 -62.353384 
L 145.45185 -63.705461 
L 150.075632 -65.057537 
L 154.699413 -66.409614 
L 159.323195 -67.761691 
L 163.946977 -69.113768 
L 168.570758 -70.465845 
L 173.19454 -71.817922 
L 177.818321 -73.169999 
L 182.442103 -74.522075 
L 187.065884 -75.874152 
L 191.689666 -77.226229 
L 196.313448 -78.578306 
L 200.937229 -79.930383 
L 205.561011 -81.28246 
L 210.184792 -82.634537 
L 214.808574 -83.986614 
L 219.432356 -85.33869 
L 224.056137 -86.690767 
L 228.679919 -88.042844 
L 233.3037 -89.394921 
L 237.927482 -90.746998 
L 242.551264 -92.099075 
L 247.175045 -93.451152 
L 251.798827 -94.803229 
L 256.422608 -96.155305 
L 261.04639 -97.507382 
L 265.670171 -98.859459 
L 270.293953 -100.211536 
L 274.917735 -101.563613 
L 279.541516 -102.91569 
L 284.165298 -104.267767 
L 288.789079 -105.619844 
L 293.412861 -106.97192 
L 298.036643 -108.323997 
L 302.660424 -109.676074 
L 307.284206 -111.028151 
L 311.907987 -112.380228 
L 316.531769 -113.732305 
L 321.15555 -115.084382 
L 325.779332 -116.436458 
L 330.403114 -117.788535 
L 335.026895 -119.140612 
L 339.650677 -120.492689 
L 344.274458 -121.844766 
L 348.89824 -123.196843 
L 353.522022 -124.54892 
L 358.145803 -125.900997 
L 362.769585 -127.253073 
L 367.393366 -128.60515 
L 372.017148 -129.957227 
L 376.64093 -131.309304 
L 381.264711 -132.661381 
L 385.888493 -134.013458 
L 390.512274 -135.365535 
L 395.136056 -136.717612 
L 399.759837 -138.069688 
L 404.383619 -139.421765 
L 409.007401 -140.773842 
L 413.631182 -142.125919 
L 418.254964 -143.477996 
L 422.878745 -144.830073 
L 427.502527 -146.18215 
L 432.126309 -147.534226 
L 436.75009 -148.886303 
L 441.373872 -150.23838 
L 445.997653 -151.590457 
L 450.621435 -152.942534 
L 455.245217 -154.294611 
L 459.868998 -155.646688 
L 464.49278 -156.998765 
L 469.116561 -158.350841 
L 473.740343 -159.702918 
L 478.364124 -161.054995 
L 482.987906 -162.407072 
L 487.611688 -163.759149 
L 492.235469 -165.111226 
L 496.859251 -166.463303 
L 501.483032 -167.81538 
L 506.106814 -169.167456 
L 510.730596 -170.519533 
L 515.354377 -171.87161 
L 515.354377 -208.055588 
L 515.354377 -208.055588 
L 510.730596 -206.338016 
L 506.106814 -204.620444 
L 501.483032 -202.902873 
L 496.859251 -201.185301 
L 492.235469 -199.46773 
L 487.611688 -197.750158 
L 482.987906 -196.032586 
L 478.364124 -194.315015 
L 473.740343 -192.597443 
L 469.116561 -190.879872 
L 464.49278 -189.1623 
L 459.868998 -187.444728 
L 455.245217 -185.727157 
L 450.621435 -184.009585 
L 445.997653 -182.292014 
L 441.373872 -180.574442 
L 436.75009 -178.85687 
L 432.126309 -177.139299 
L 427.502527 -175.421727 
L 422.878745 -173.704156 
L 418.254964 -171.986584 
L 413.631182 -170.269013 
L 409.007401 -168.551441 
L 404.383619 -166.833869 
L 399.759837 -165.116298 
L 395.136056 -163.398726 
L 390.512274 -161.681155 
L 385.888493 -159.963583 
L 381.264711 -158.246011 
L 376.64093 -156.52844 
L 372.017148 -154.810868 
L 367.393366 -153.093297 
L 362.769585 -151.375725 
L 358.145803 -149.658153 
L 353.522022 -147.940582 
L 348.89824 -146.22301 
L 344.274458 -144.505439 
L 339.650677 -142.787867 
L 335.026895 -141.070295 
L 330.403114 -139.352724 
L 325.779332 -137.635152 
L 321.15555 -135.917581 
L 316.531769 -134.200009 
L 311.907987 -132.482438 
L 307.284206 -130.764866 
L 302.660424 -129.047294 
L 298.036643 -127.329723 
L 293.412861 -125.612151 
L 288.789079 -123.89458 
L 284.165298 -122.177008 
L 279.541516 -120.459436 
L 274.917735 -118.741865 
L 270.293953 -117.024293 
L 265.670171 -115.306722 
L 261.04639 -113.58915 
L 256.422608 -111.871578 
L 251.798827 -110.154007 
L 247.175045 -108.436435 
L 242.551264 -106.718864 
L 237.927482 -105.001292 
L 233.3037 -103.28372 
L 228.679919 -101.566149 
L 224.056137 -99.848577 
L 219.432356 -98.131006 
L 214.808574 -96.413434 
L 210.184792 -94.695863 
L 205.561011 -92.978291 
L 200.937229 -91.260719 
L 196.313448 -89.543148 
L 191.689666 -87.825576 
L 187.065884 -86.108005 
L 182.442103 -84.390433 
L 177.818321 -82.672861 
L 173.19454 -80.95529 
L 168.570758 -79.237718 
L 163.946977 -77.520147 
L 159.323195 -75.802575 
L 154.699413 -74.085003 
L 150.075632 -72.367432 
L 145.45185 -70.64986 
L 140.828069 -68.932289 
L 136.204287 -67.214717 
L 131.580505 -65.497145 
L 126.956724 -63.779574 
L 122.332942 -62.062002 
L 117.709161 -60.344431 
L 113.085379 -58.626859 
L 108.461597 -56.909288 
L 103.837816 -55.191716 
L 99.214034 -53.474144 
L 94.590253 -51.756573 
L 89.966471 -50.039001 
L 85.34269 -48.32143 
L 80.718908 -46.603858 
L 76.095126 -44.886286 
L 71.471345 -43.168715 
L 66.847563 -41.451143 
L 62.223782 -39.733572 
L 57.6 -38.016 
z
" style="stroke: #808080; stroke-opacity: 0.3"/>
    </defs>
    <g clip-path="url(#p81c70fb537)">
     <use xlink:href="#mfc84b4dcd0" x="0" y="345.6" style="fill: #808080; fill-opacity: 0.3; stroke: #808080; stroke-opacity: 0.3"/>
    </g>
   </g>
   <g id="matplotlib.axis_1">
    <g id="xtick_1">
     <g id="line2d_1">
      <path d="M 57.6 307.584 
L 57.6 41.472 
" clip-path="url(#p81c70fb537)" style="fill: none; stroke: #b0b0b0; stroke-width: 0.8; stroke-linecap: square"/>
     </g>
     <g id="line2d_2">
      <defs>
       <path id="mcbb7ccfb4f" d="M 0 0 
L 0 3.5 
" style="stroke: #000000; stroke-width: 0.8"/>
      </defs>
      <g>
       <use xlink:href="#mcbb7ccfb4f" x="57.6" y="307.584" style="stroke: #000000; stroke-width: 0.8"/>
      </g>
     </g>
     <g id="text_1">
      <!-- 0 -->
      <g transform="translate(54.41875 322.182437) scale(0.1 -0.1)">
       <defs>
        <path id="DejaVuSans-30" d="M 2034 4250 
Q 1547 4250 1301 3770 
Q 1056 3291 1056 2328 
Q 1056 1369 1301 889 
Q 1547 409 2034 409 
Q 2525 409 2770 889 
Q 3016 1369 3016 2328 
Q 3016 3291 2770 3770 
Q 2525 4250 2034 4250 
z
M 2034 4750 
Q 2819 4750 3233 4129 
Q 3647 3509 3647 2328 
Q 3647 1150 3233 529 
Q 2819 -91 2034 -91 
Q 1250 -91 836 529 
Q 422 1150 422 2328 
Q 422 3509 836 4129 
Q 1250 4750 2034 4750 
z
" transform="scale(0.015625)"/>
       </defs>
       <use xlink:href="#DejaVuSans-30"/>
      </g>
     </g>
    </g>
    <g id="xtick_2">
     <g id="line2d_3">
      <path d="M 117.12 307.584 
L 117.12 41.472 
" clip-path="url(#p81c70fb537)" style="fill: none; stroke: #b0b0b0; stroke-width: 0.8; stroke-linecap: square"/>
     </g>
     <g id="line2d_4">
      <g>
       <use xlink:href="#mcbb7ccfb4f" x="117.12" y="307.584" style="stroke: #000000; stroke-width: 0.8"/>
      </g>
     </g>
     <g id="text_2">
      <!-- 20 -->
      <g transform="translate(110.7575 322.182437) scale(0.1 -0.1)">
       <defs>
        <path id="DejaVuSans-32" d="M 1228 531 
L 3431 531 
L 3431 0 
L 469 0 
L 469 531 
Q 828 903 1448 1529 
Q 2069 2156 2228 2338 
Q 2531 2678 2651 2914 
Q 2772 3150 2772 3378 
Q 2772 3750 2511 3984 
Q 2250 4219 1831 4219 
Q 1534 4219 1204 4116 
Q 875 4013 500 3803 
L 500 4441 
Q 881 4594 1212 4672 
Q 1544 4750 1819 4750 
Q 2544 4750 2975 4387 
Q 3406 4025 3406 3419 
Q 3406 3131 3298 2873 
Q 3191 2616 2906 2266 
Q 2828 2175 2409 1742 
Q 1991 1309 1228 531 
z
" transform="scale(0.015625)"/>
       </defs>
       <use xlink:href="#DejaVuSans-32"/>
       <use xlink:href="#DejaVuSans-30" x="63.623047"/>
      </g>
     </g>
    </g>
    <g id="xtick_3">
     <g id="line2d_5">
      <path d="M 176.64 307.584 
L 176.64 41.472 
" clip-path="url(#p81c70fb537)" style="fill: none; stroke: #b0b0b0; stroke-width: 0.8; stroke-linecap: square"/>
     </g>
     <g id="line2d_6">
      <g>
       <use xlink:href="#mcbb7ccfb4f" x="176.64" y="307.584" style="stroke: #000000; stroke-width: 0.8"/>
      </g>
     </g>
     <g id="text_3">
      <!-- 40 -->
      <g transform="translate(170.2775 322.182437) scale(0.1 -0.1)">
       <defs>
        <path id="DejaVuSans-34" d="M 2419 4116 
L 825 1625 
L 2419 1625 
L 2419 4116 
z
M 2253 4666 
L 3047 4666 
L 3047 1625 
L 3713 1625 
L 3713 1100 
L 3047 1100 
L 3047 0 
L 2419 0 
L 2419 1100 
L 313 1100 
L 313 1709 
L 2253 4666 
z
" transform="scale(0.015625)"/>
       </defs>
       <use xlink:href="#DejaVuSans-34"/>
       <use xlink:href="#DejaVuSans-30" x="63.623047"/>
      </g>
     </g>
    </g>
    <g id="xtick_4">
     <g id="line2d_7">
      <path d="M 236.16 307.584 
L 236.16 41.472 
" clip-path="url(#p81c70fb537)" style="fill: none; stroke: #b0b0b0; stroke-width: 0.8; stroke-linecap: square"/>
     </g>
     <g id="line2d_8">
      <g>
       <use xlink:href="#mcbb7ccfb4f" x="236.16" y="307.584" style="stroke: #000000; stroke-width: 0.8"/>
      </g>
     </g>
     <g id="text_4">
      <!-- 60 -->
      <g transform="translate(229.7975 322.182437) scale(0.1 -0.1)">
       <defs>
        <path id="DejaVuSans-36" d="M 2113 2584 
Q 1688 2584 1439 2293 
Q 1191 2003 1191 1497 
Q 1191 994 1439 701 
Q 1688 409 2113 409 
Q 2538 409 2786 701 
Q 3034 994 3034 1497 
Q 3034 2003 2786 2293 
Q 2538 2584 2113 2584 
z
M 3366 4563 
L 3366 3988 
Q 3128 4100 2886 4159 
Q 2644 4219 2406 4219 
Q 1781 4219 1451 3797 
Q 1122 3375 1075 2522 
Q 1259 2794 1537 2939 
Q 1816 3084 2150 3084 
Q 2853 3084 3261 2657 
Q 3669 2231 3669 1497 
Q 3669 778 3244 343 
Q 2819 -91 2113 -91 
Q 1303 -91 875 529 
Q 447 1150 447 2328 
Q 447 3434 972 4092 
Q 1497 4750 2381 4750 
Q 2619 4750 2861 4703 
Q 3103 4656 3366 4563 
z
" transform="scale(0.015625)"/>
       </defs>
       <use xlink:href="#DejaVuSans-36"/>
       <use xlink:href="#DejaVuSans-30" x="63.623047"/>
      </g>
     </g>
    </g>
    <g id="xtick_5">
     <g id="line2d_9">
      <path d="M 295.68 307.584 
L 295.68 41.472 
" clip-path="url(#p81c70fb537)" style="fill: none; stroke: #b0b0b0; stroke-width: 0.8; stroke-linecap: square"/>
     </g>
     <g id="line2d_10">
      <g>
       <use xlink:href="#mcbb7ccfb4f" x="295.68" y="307.584" style="stroke: #000000; stroke-width: 0.8"/>
      </g>
     </g>
     <g id="text_5">
      <!-- 80 -->
      <g transform="translate(289.3175 322.182437) scale(0.1 -0.1)">
       <defs>
        <path id="DejaVuSans-38" d="M 2034 2216 
Q 1584 2216 1326 1975 
Q 1069 1734 1069 1313 
Q 1069 891 1326 650 
Q 1584 409 2034 409 
Q 2484 409 2743 651 
Q 3003 894 3003 1313 
Q 3003 1734 2745 1975 
Q 2488 2216 2034 2216 
z
M 1403 2484 
Q 997 2584 770 2862 
Q 544 3141 544 3541 
Q 544 4100 942 4425 
Q 1341 4750 2034 4750 
Q 2731 4750 3128 4425 
Q 3525 4100 3525 3541 
Q 3525 3141 3298 2862 
Q 3072 2584 2669 2484 
Q 3125 2378 3379 2068 
Q 3634 1759 3634 1313 
Q 3634 634 3220 271 
Q 2806 -91 2034 -91 
Q 1263 -91 848 271 
Q 434 634 434 1313 
Q 434 1759 690 2068 
Q 947 2378 1403 2484 
z
M 1172 3481 
Q 1172 3119 1398 2916 
Q 1625 2713 2034 2713 
Q 2441 2713 2670 2916 
Q 2900 3119 2900 3481 
Q 2900 3844 2670 4047 
Q 2441 4250 2034 4250 
Q 1625 4250 1398 4047 
Q 1172 3844 1172 3481 
z
" transform="scale(0.015625)"/>
       </defs>
       <use xlink:href="#DejaVuSans-38"/>
       <use xlink:href="#DejaVuSans-30" x="63.623047"/>
      </g>
     </g>
    </g>
    <g id="xtick_6">
     <g id="line2d_11">
      <path d="M 355.2 307.584 
L 355.2 41.472 
" clip-path="url(#p81c70fb537)" style="fill: none; stroke: #b0b0b0; stroke-width: 0.8; stroke-linecap: square"/>
     </g>
     <g id="line2d_12">
      <g>
       <use xlink:href="#mcbb7ccfb4f" x="355.2" y="307.584" style="stroke: #000000; stroke-width: 0.8"/>
      </g>
     </g>
     <g id="text_6">
      <!-- 100 -->
      <g transform="translate(345.65625 322.182437) scale(0.1 -0.1)">
       <defs>
        <path id="DejaVuSans-31" d="M 794 531 
L 1825 531 
L 1825 4091 
L 703 3866 
L 703 4441 
L 1819 4666 
L 2450 4666 
L 2450 531 
L 3481 531 
L 3481 0 
L 794 0 
L 794 531 
z
" transform="scale(0.015625)"/>
       </defs>
       <use xlink:href="#DejaVuSans-31"/>
       <use xlink:href="#DejaVuSans-30" x="63.623047"/>
       <use xlink:href="#DejaVuSans-30" x="127.246094"/>
      </g>
     </g>
    </g>
    <g id="xtick_7">
     <g id="line2d_13">
      <path d="M 414.72 307.584 
L 414.72 41.472 
" clip-path="url(#p81c70fb537)" style="fill: none; stroke: #b0b0b0; stroke-width: 0.8; stroke-linecap: square"/>
     </g>
     <g id="line2d_14">
      <g>
       <use xlink:href="#mcbb7ccfb4f" x="414.72" y="307.584" style="stroke: #000000; stroke-width: 0.8"/>
      </g>
     </g>
     <g id="text_7">
      <!-- 120 -->
      <g transform="translate(405.17625 322.182437) scale(0.1 -0.1)">
       <use xlink:href="#DejaVuSans-31"/>
       <use xlink:href="#DejaVuSans-32" x="63.623047"/>
       <use xlink:href="#DejaVuSans-30" x="127.246094"/>
      </g>
     </g>
    </g>
    <g id="text_8">
     <!-- Normal Force (N) -->
     <g transform="translate(193.725625 335.860562) scale(0.1 -0.1)">
      <defs>
       <path id="DejaVuSans-4e" d="M 628 4666 
L 1478 4666 
L 3547 763 
L 3547 4666 
L 4159 4666 
L 4159 0 
L 3309 0 
L 1241 3903 
L 1241 0 
L 628 0 
L 628 4666 
z
" transform="scale(0.015625)"/>
       <path id="DejaVuSans-6f" d="M 1959 3097 
Q 1497 3097 1228 2736 
Q 959 2375 959 1747 
Q 959 1119 1226 758 
Q 1494 397 1959 397 
Q 2419 397 2687 759 
Q 2956 1122 2956 1747 
Q 2956 2369 2687 2733 
Q 2419 3097 1959 3097 
z
M 1959 3584 
Q 2709 3584 3137 3096 
Q 3566 2609 3566 1747 
Q 3566 888 3137 398 
Q 2709 -91 1959 -91 
Q 1206 -91 779 398 
Q 353 888 353 1747 
Q 353 2609 779 3096 
Q 1206 3584 1959 3584 
z
" transform="scale(0.015625)"/>
       <path id="DejaVuSans-72" d="M 2631 2963 
Q 2534 3019 2420 3045 
Q 2306 3072 2169 3072 
Q 1681 3072 1420 2755 
Q 1159 2438 1159 1844 
L 1159 0 
L 581 0 
L 581 3500 
L 1159 3500 
L 1159 2956 
Q 1341 3275 1631 3429 
Q 1922 3584 2338 3584 
Q 2397 3584 2469 3576 
Q 2541 3569 2628 3553 
L 2631 2963 
z
" transform="scale(0.015625)"/>
       <path id="DejaVuSans-6d" d="M 3328 2828 
Q 3544 3216 3844 3400 
Q 4144 3584 4550 3584 
Q 5097 3584 5394 3201 
Q 5691 2819 5691 2113 
L 5691 0 
L 5113 0 
L 5113 2094 
Q 5113 2597 4934 2840 
Q 4756 3084 4391 3084 
Q 3944 3084 3684 2787 
Q 3425 2491 3425 1978 
L 3425 0 
L 2847 0 
L 2847 2094 
Q 2847 2600 2669 2842 
Q 2491 3084 2119 3084 
Q 1678 3084 1418 2786 
Q 1159 2488 1159 1978 
L 1159 0 
L 581 0 
L 581 3500 
L 1159 3500 
L 1159 2956 
Q 1356 3278 1631 3431 
Q 1906 3584 2284 3584 
Q 2666 3584 2933 3390 
Q 3200 3197 3328 2828 
z
" transform="scale(0.015625)"/>
       <path id="DejaVuSans-61" d="M 2194 1759 
Q 1497 1759 1228 1600 
Q 959 1441 959 1056 
Q 959 750 1161 570 
Q 1363 391 1709 391 
Q 2188 391 2477 730 
Q 2766 1069 2766 1631 
L 2766 1759 
L 2194 1759 
z
M 3341 1997 
L 3341 0 
L 2766 0 
L 2766 531 
Q 2569 213 2275 61 
Q 1981 -91 1556 -91 
Q 1019 -91 701 211 
Q 384 513 384 1019 
Q 384 1609 779 1909 
Q 1175 2209 1959 2209 
L 2766 2209 
L 2766 2266 
Q 2766 2663 2505 2880 
Q 2244 3097 1772 3097 
Q 1472 3097 1187 3025 
Q 903 2953 641 2809 
L 641 3341 
Q 956 3463 1253 3523 
Q 1550 3584 1831 3584 
Q 2591 3584 2966 3190 
Q 3341 2797 3341 1997 
z
" transform="scale(0.015625)"/>
       <path id="DejaVuSans-6c" d="M 603 4863 
L 1178 4863 
L 1178 0 
L 603 0 
L 603 4863 
z
" transform="scale(0.015625)"/>
       <path id="DejaVuSans-20" transform="scale(0.015625)"/>
       <path id="DejaVuSans-46" d="M 628 4666 
L 3309 4666 
L 3309 4134 
L 1259 4134 
L 1259 2759 
L 3109 2759 
L 3109 2228 
L 1259 2228 
L 1259 0 
L 628 0 
L 628 4666 
z
" transform="scale(0.015625)"/>
       <path id="DejaVuSans-63" d="M 3122 3366 
L 3122 2828 
Q 2878 2963 2633 3030 
Q 2388 3097 2138 3097 
Q 1578 3097 1268 2742 
Q 959 2388 959 1747 
Q 959 1106 1268 751 
Q 1578 397 2138 397 
Q 2388 397 2633 464 
Q 2878 531 3122 666 
L 3122 134 
Q 2881 22 2623 -34 
Q 2366 -91 2075 -91 
Q 1284 -91 818 406 
Q 353 903 353 1747 
Q 353 2603 823 3093 
Q 1294 3584 2113 3584 
Q 2378 3584 2631 3529 
Q 2884 3475 3122 3366 
z
" transform="scale(0.015625)"/>
       <path id="DejaVuSans-65" d="M 3597 1894 
L 3597 1613 
L 953 1613 
Q 991 1019 1311 708 
Q 1631 397 2203 397 
Q 2534 397 2845 478 
Q 3156 559 3463 722 
L 3463 178 
Q 3153 47 2828 -22 
Q 2503 -91 2169 -91 
Q 1331 -91 842 396 
Q 353 884 353 1716 
Q 353 2575 817 3079 
Q 1281 3584 2069 3584 
Q 2775 3584 3186 3129 
Q 3597 2675 3597 1894 
z
M 3022 2063 
Q 3016 2534 2758 2815 
Q 2500 3097 2075 3097 
Q 1594 3097 1305 2825 
Q 1016 2553 972 2059 
L 3022 2063 
z
" transform="scale(0.015625)"/>
       <path id="DejaVuSans-28" d="M 1984 4856 
Q 1566 4138 1362 3434 
Q 1159 2731 1159 2009 
Q 1159 1288 1364 580 
Q 1569 -128 1984 -844 
L 1484 -844 
Q 1016 -109 783 600 
Q 550 1309 550 2009 
Q 550 2706 781 3412 
Q 1013 4119 1484 4856 
L 1984 4856 
z
" transform="scale(0.015625)"/>
       <path id="DejaVuSans-29" d="M 513 4856 
L 1013 4856 
Q 1481 4119 1714 3412 
Q 1947 2706 1947 2009 
Q 1947 1309 1714 600 
Q 1481 -109 1013 -844 
L 513 -844 
Q 928 -128 1133 580 
Q 1338 1288 1338 2009 
Q 1338 2731 1133 3434 
Q 928 4138 513 4856 
z
" transform="scale(0.015625)"/>
      </defs>
      <use xlink:href="#DejaVuSans-4e"/>
      <use xlink:href="#DejaVuSans-6f" x="74.804688"/>
      <use xlink:href="#DejaVuSans-72" x="135.986328"/>
      <use xlink:href="#DejaVuSans-6d" x="175.349609"/>
      <use xlink:href="#DejaVuSans-61" x="272.761719"/>
      <use xlink:href="#DejaVuSans-6c" x="334.041016"/>
      <use xlink:href="#DejaVuSans-20" x="361.824219"/>
      <use xlink:href="#DejaVuSans-46" x="393.611328"/>
      <use xlink:href="#DejaVuSans-6f" x="447.505859"/>
      <use xlink:href="#DejaVuSans-72" x="508.6875"/>
      <use xlink:href="#DejaVuSans-63" x="547.550781"/>
      <use xlink:href="#DejaVuSans-65" x="602.53125"/>
      <use xlink:href="#DejaVuSans-20" x="664.054688"/>
      <use xlink:href="#DejaVuSans-28" x="695.841797"/>
      <use xlink:href="#DejaVuSans-4e" x="734.855469"/>
      <use xlink:href="#DejaVuSans-29" x="809.660156"/>
     </g>
    </g>
   </g>
   <g id="matplotlib.axis_2">
    <g id="ytick_1">
     <g id="line2d_15">
      <path d="M 57.6 307.584 
L 414.72 307.584 
" clip-path="url(#p81c70fb537)" style="fill: none; stroke: #b0b0b0; stroke-width: 0.8; stroke-linecap: square"/>
     </g>
     <g id="line2d_16">
      <defs>
       <path id="mb68b2d3a36" d="M 0 0 
L -3.5 0 
" style="stroke: #000000; stroke-width: 0.8"/>
      </defs>
      <g>
       <use xlink:href="#mb68b2d3a36" x="57.6" y="307.584" style="stroke: #000000; stroke-width: 0.8"/>
      </g>
     </g>
     <g id="text_9">
      <!-- 0 -->
      <g transform="translate(44.2375 311.383219) scale(0.1 -0.1)">
       <use xlink:href="#DejaVuSans-30"/>
      </g>
     </g>
    </g>
    <g id="ytick_2">
     <g id="line2d_17">
      <path d="M 57.6 254.3616 
L 414.72 254.3616 
" clip-path="url(#p81c70fb537)" style="fill: none; stroke: #b0b0b0; stroke-width: 0.8; stroke-linecap: square"/>
     </g>
     <g id="line2d_18">
      <g>
       <use xlink:href="#mb68b2d3a36" x="57.6" y="254.3616" style="stroke: #000000; stroke-width: 0.8"/>
      </g>
     </g>
     <g id="text_10">
      <!-- 10 -->
      <g transform="translate(37.875 258.160819) scale(0.1 -0.1)">
       <use xlink:href="#DejaVuSans-31"/>
       <use xlink:href="#DejaVuSans-30" x="63.623047"/>
      </g>
     </g>
    </g>
    <g id="ytick_3">
     <g id="line2d_19">
      <path d="M 57.6 201.1392 
L 414.72 201.1392 
" clip-path="url(#p81c70fb537)" style="fill: none; stroke: #b0b0b0; stroke-width: 0.8; stroke-linecap: square"/>
     </g>
     <g id="line2d_20">
      <g>
       <use xlink:href="#mb68b2d3a36" x="57.6" y="201.1392" style="stroke: #000000; stroke-width: 0.8"/>
      </g>
     </g>
     <g id="text_11">
      <!-- 20 -->
      <g transform="translate(37.875 204.938419) scale(0.1 -0.1)">
       <use xlink:href="#DejaVuSans-32"/>
       <use xlink:href="#DejaVuSans-30" x="63.623047"/>
      </g>
     </g>
    </g>
    <g id="ytick_4">
     <g id="line2d_21">
      <path d="M 57.6 147.9168 
L 414.72 147.9168 
" clip-path="url(#p81c70fb537)" style="fill: none; stroke: #b0b0b0; stroke-width: 0.8; stroke-linecap: square"/>
     </g>
     <g id="line2d_22">
      <g>
       <use xlink:href="#mb68b2d3a36" x="57.6" y="147.9168" style="stroke: #000000; stroke-width: 0.8"/>
      </g>
     </g>
     <g id="text_12">
      <!-- 30 -->
      <g transform="translate(37.875 151.716019) scale(0.1 -0.1)">
       <defs>
        <path id="DejaVuSans-33" d="M 2597 2516 
Q 3050 2419 3304 2112 
Q 3559 1806 3559 1356 
Q 3559 666 3084 287 
Q 2609 -91 1734 -91 
Q 1441 -91 1130 -33 
Q 819 25 488 141 
L 488 750 
Q 750 597 1062 519 
Q 1375 441 1716 441 
Q 2309 441 2620 675 
Q 2931 909 2931 1356 
Q 2931 1769 2642 2001 
Q 2353 2234 1838 2234 
L 1294 2234 
L 1294 2753 
L 1863 2753 
Q 2328 2753 2575 2939 
Q 2822 3125 2822 3475 
Q 2822 3834 2567 4026 
Q 2313 4219 1838 4219 
Q 1578 4219 1281 4162 
Q 984 4106 628 3988 
L 628 4550 
Q 988 4650 1302 4700 
Q 1616 4750 1894 4750 
Q 2613 4750 3031 4423 
Q 3450 4097 3450 3541 
Q 3450 3153 3228 2886 
Q 3006 2619 2597 2516 
z
" transform="scale(0.015625)"/>
       </defs>
       <use xlink:href="#DejaVuSans-33"/>
       <use xlink:href="#DejaVuSans-30" x="63.623047"/>
      </g>
     </g>
    </g>
    <g id="ytick_5">
     <g id="line2d_23">
      <path d="M 57.6 94.6944 
L 414.72 94.6944 
" clip-path="url(#p81c70fb537)" style="fill: none; stroke: #b0b0b0; stroke-width: 0.8; stroke-linecap: square"/>
     </g>
     <g id="line2d_24">
      <g>
       <use xlink:href="#mb68b2d3a36" x="57.6" y="94.6944" style="stroke: #000000; stroke-width: 0.8"/>
      </g>
     </g>
     <g id="text_13">
      <!-- 40 -->
      <g transform="translate(37.875 98.493619) scale(0.1 -0.1)">
       <use xlink:href="#DejaVuSans-34"/>
       <use xlink:href="#DejaVuSans-30" x="63.623047"/>
      </g>
     </g>
    </g>
    <g id="ytick_6">
     <g id="line2d_25">
      <path d="M 57.6 41.472 
L 414.72 41.472 
" clip-path="url(#p81c70fb537)" style="fill: none; stroke: #b0b0b0; stroke-width: 0.8; stroke-linecap: square"/>
     </g>
     <g id="line2d_26">
      <g>
       <use xlink:href="#mb68b2d3a36" x="57.6" y="41.472" style="stroke: #000000; stroke-width: 0.8"/>
      </g>
     </g>
     <g id="text_14">
      <!-- 50 -->
      <g transform="translate(37.875 45.271219) scale(0.1 -0.1)">
       <defs>
        <path id="DejaVuSans-35" d="M 691 4666 
L 3169 4666 
L 3169 4134 
L 1269 4134 
L 1269 2991 
Q 1406 3038 1543 3061 
Q 1681 3084 1819 3084 
Q 2600 3084 3056 2656 
Q 3513 2228 3513 1497 
Q 3513 744 3044 326 
Q 2575 -91 1722 -91 
Q 1428 -91 1123 -41 
Q 819 9 494 109 
L 494 744 
Q 775 591 1075 516 
Q 1375 441 1709 441 
Q 2250 441 2565 725 
Q 2881 1009 2881 1497 
Q 2881 1984 2565 2268 
Q 2250 2553 1709 2553 
Q 1456 2553 1204 2497 
Q 953 2441 691 2322 
L 691 4666 
z
" transform="scale(0.015625)"/>
       </defs>
       <use xlink:href="#DejaVuSans-35"/>
       <use xlink:href="#DejaVuSans-30" x="63.623047"/>
      </g>
     </g>
    </g>
    <g id="text_15">
     <!-- Friction Force (N) -->
     <g transform="translate(31.795312 217.155344) rotate(-90) scale(0.1 -0.1)">
      <defs>
       <path id="DejaVuSans-69" d="M 603 3500 
L 1178 3500 
L 1178 0 
L 603 0 
L 603 3500 
z
M 603 4863 
L 1178 4863 
L 1178 4134 
L 603 4134 
L 603 4863 
z
" transform="scale(0.015625)"/>
       <path id="DejaVuSans-74" d="M 1172 4494 
L 1172 3500 
L 2356 3500 
L 2356 3053 
L 1172 3053 
L 1172 1153 
Q 1172 725 1289 603 
Q 1406 481 1766 481 
L 2356 481 
L 2356 0 
L 1766 0 
Q 1100 0 847 248 
Q 594 497 594 1153 
L 594 3053 
L 172 3053 
L 172 3500 
L 594 3500 
L 594 4494 
L 1172 4494 
z
" transform="scale(0.015625)"/>
       <path id="DejaVuSans-6e" d="M 3513 2113 
L 3513 0 
L 2938 0 
L 2938 2094 
Q 2938 2591 2744 2837 
Q 2550 3084 2163 3084 
Q 1697 3084 1428 2787 
Q 1159 2491 1159 1978 
L 1159 0 
L 581 0 
L 581 3500 
L 1159 3500 
L 1159 2956 
Q 1366 3272 1645 3428 
Q 1925 3584 2291 3584 
Q 2894 3584 3203 3211 
Q 3513 2838 3513 2113 
z
" transform="scale(0.015625)"/>
      </defs>
      <use xlink:href="#DejaVuSans-46"/>
      <use xlink:href="#DejaVuSans-72" x="50.269531"/>
      <use xlink:href="#DejaVuSans-69" x="91.382812"/>
      <use xlink:href="#DejaVuSans-63" x="119.166016"/>
      <use xlink:href="#DejaVuSans-74" x="174.146484"/>
      <use xlink:href="#DejaVuSans-69" x="213.355469"/>
      <use xlink:href="#DejaVuSans-6f" x="241.138672"/>
      <use xlink:href="#DejaVuSans-6e" x="302.320312"/>
      <use xlink:href="#DejaVuSans-20" x="365.699219"/>
      <use xlink:href="#DejaVuSans-46" x="397.486328"/>
      <use xlink:href="#DejaVuSans-6f" x="451.380859"/>
      <use xlink:href="#DejaVuSans-72" x="512.5625"/>
      <use xlink:href="#DejaVuSans-63" x="551.425781"/>
      <use xlink:href="#DejaVuSans-65" x="606.40625"/>
      <use xlink:href="#DejaVuSans-20" x="667.929688"/>
      <use xlink:href="#DejaVuSans-28" x="699.716797"/>
      <use xlink:href="#DejaVuSans-4e" x="738.730469"/>
      <use xlink:href="#DejaVuSans-29" x="813.535156"/>
     </g>
    </g>
   </g>
   <g id="LineCollection_1">
    <path d="M 73.684684 300.035913 
L 73.684684 297.594054 
" clip-path="url(#p81c70fb537)" style="fill: none; stroke: #ff0000; stroke-width: 1.5"/>
    <path d="M 85.24808 296.246322 
L 85.24808 293.854272 
" clip-path="url(#p81c70fb537)" style="fill: none; stroke: #ff0000; stroke-width: 1.5"/>
    <path d="M 218.227134 201.019216 
L 218.227134 182.836933 
" clip-path="url(#p81c70fb537)" style="fill: none; stroke: #ff0000; stroke-width: 1.5"/>
    <path d="M 362.769585 158.353128 
L 362.769585 128.497939 
" clip-path="url(#p81c70fb537)" style="fill: none; stroke: #ff0000; stroke-width: 1.5"/>
   </g>
   <g id="line2d_27">
    <path d="M 57.6 307.584 
L 62.223782 304.918062 
L 66.847563 302.252124 
L 71.471345 299.586186 
L 76.095126 296.920248 
L 80.718908 294.25431 
L 85.34269 291.588372 
L 89.966471 288.922434 
L 94.590253 286.256496 
L 99.214034 283.590558 
L 103.837816 280.92462 
L 108.461597 278.258682 
L 113.085379 275.592744 
L 117.709161 272.926806 
L 122.332942 270.260868 
L 126.956724 267.59493 
L 131.580505 264.928991 
L 136.204287 262.263053 
L 140.828069 259.597115 
L 145.45185 256.931177 
L 150.075632 254.265239 
L 154.699413 251.599301 
L 159.323195 248.933363 
L 163.946977 246.267425 
L 168.570758 243.601487 
L 173.19454 240.935549 
L 177.818321 238.269611 
L 182.442103 235.603673 
L 187.065884 232.937735 
L 191.689666 230.271797 
L 196.313448 227.605859 
L 200.937229 224.939921 
L 205.561011 222.273983 
L 210.184792 219.608045 
L 214.808574 216.942107 
L 219.432356 214.276169 
L 224.056137 211.610231 
L 228.679919 208.944293 
L 233.3037 206.278355 
L 237.927482 203.612417 
L 242.551264 200.946479 
L 247.175045 198.280541 
L 251.798827 195.614603 
L 256.422608 192.948665 
L 261.04639 190.282727 
L 265.670171 187.616789 
L 270.293953 184.950851 
L 274.917735 182.284912 
L 279.541516 179.618974 
L 284.165298 176.953036 
L 288.789079 174.287098 
L 293.412861 171.62116 
L 298.036643 168.955222 
L 302.660424 166.289284 
L 307.284206 163.623346 
L 311.907987 160.957408 
L 316.531769 158.29147 
L 321.15555 155.625532 
L 325.779332 152.959594 
L 330.403114 150.293656 
L 335.026895 147.627718 
L 339.650677 144.96178 
L 344.274458 142.295842 
L 348.89824 139.629904 
L 353.522022 136.963966 
L 358.145803 134.298028 
L 362.769585 131.63209 
L 367.393366 128.966152 
L 372.017148 126.300214 
L 376.64093 123.634276 
L 381.264711 120.968338 
L 385.888493 118.3024 
L 390.512274 115.636462 
L 395.136056 112.970524 
L 399.759837 110.304586 
L 404.383619 107.638648 
L 409.007401 104.97271 
L 413.631182 102.306772 
L 418.254964 99.640834 
L 422.878745 96.974895 
L 427.502527 94.308957 
L 432.126309 91.643019 
L 436.75009 88.977081 
L 441.373872 86.311143 
L 445.997653 83.645205 
L 450.621435 80.979267 
L 455.245217 78.313329 
L 459.868998 75.647391 
L 461.8 74.534032 
" clip-path="url(#p81c70fb537)" style="fill: none; stroke: #ff0000; stroke-width: 1.5; stroke-linecap: square"/>
   </g>
   <g id="line2d_28">
    <path d="M 57.6 307.584 
L 62.223782 304.631951 
L 66.847563 301.679901 
L 71.471345 298.727852 
L 76.095126 295.775803 
L 80.718908 292.823754 
L 85.34269 289.871704 
L 89.966471 286.919655 
L 94.590253 283.967606 
L 99.214034 281.015556 
L 103.837816 278.063507 
L 108.461597 275.111458 
L 113.085379 272.159409 
L 117.709161 269.207359 
L 122.332942 266.25531 
L 126.956724 263.303261 
L 131.580505 260.351211 
L 136.204287 257.399162 
L 140.828069 254.447113 
L 145.45185 251.495064 
L 150.075632 248.543014 
L 154.699413 245.590965 
L 159.323195 242.638916 
L 163.946977 239.686866 
L 168.570758 236.734817 
L 173.19454 233.782768 
L 177.818321 230.830719 
L 182.442103 227.878669 
L 187.065884 224.92662 
L 191.689666 221.974571 
L 196.313448 219.022521 
L 200.937229 216.070472 
L 205.561011 213.118423 
L 210.184792 210.166374 
L 214.808574 207.214324 
L 219.432356 204.262275 
L 224.056137 201.310226 
L 228.679919 198.358176 
L 233.3037 195.406127 
L 237.927482 192.454078 
L 242.551264 189.502029 
L 247.175045 186.549979 
L 251.798827 183.59793 
L 256.422608 180.645881 
L 261.04639 177.693832 
L 265.670171 174.741782 
L 270.293953 171.789733 
L 274.917735 168.837684 
L 279.541516 165.885634 
L 284.165298 162.933585 
L 288.789079 159.981536 
L 293.412861 157.029487 
L 298.036643 154.077437 
L 302.660424 151.125388 
L 307.284206 148.173339 
L 311.907987 145.221289 
L 316.531769 142.26924 
L 321.15555 139.317191 
L 325.779332 136.365142 
L 330.403114 133.413092 
L 335.026895 130.461043 
L 339.650677 127.508994 
L 344.274458 124.556944 
L 348.89824 121.604895 
L 353.522022 118.652846 
L 358.145803 115.700797 
L 362.769585 112.748747 
L 367.393366 109.796698 
L 372.017148 106.844649 
L 376.64093 103.892599 
L 381.264711 100.94055 
L 385.888493 97.988501 
L 390.512274 95.036452 
L 395.136056 92.084402 
L 399.759837 89.132353 
L 404.383619 86.180304 
L 409.007401 83.228254 
L 413.631182 80.276205 
L 418.254964 77.324156 
L 422.878745 74.372107 
L 427.502527 71.420057 
L 432.126309 68.468008 
L 436.75009 65.515959 
L 441.373872 62.563909 
L 445.997653 59.61186 
L 450.621435 56.659811 
L 455.245217 53.707762 
L 459.868998 50.755712 
L 461.8 49.522866 
" clip-path="url(#p81c70fb537)" style="fill: none; stroke-dasharray: 2.96,1.28; stroke-dashoffset: 0; stroke: #0000ff; stroke-width: 0.8"/>
   </g>
   <g id="line2d_29">
    <path d="M 57.6 307.584 
L 62.223782 305.204173 
L 66.847563 302.824346 
L 71.471345 300.44452 
L 76.095126 298.064693 
L 80.718908 295.684866 
L 85.34269 293.305039 
L 89.966471 290.925213 
L 94.590253 288.545386 
L 99.214034 286.165559 
L 103.837816 283.785732 
L 108.461597 281.405905 
L 113.085379 279.026079 
L 117.709161 276.646252 
L 122.332942 274.266425 
L 126.956724 271.886598 
L 131.580505 269.506772 
L 136.204287 267.126945 
L 140.828069 264.747118 
L 145.45185 262.367291 
L 150.075632 259.987464 
L 154.699413 257.607638 
L 159.323195 255.227811 
L 163.946977 252.847984 
L 168.570758 250.468157 
L 173.19454 248.088331 
L 177.818321 245.708504 
L 182.442103 243.328677 
L 187.065884 240.94885 
L 191.689666 238.569023 
L 196.313448 236.189197 
L 200.937229 233.80937 
L 205.561011 231.429543 
L 210.184792 229.049716 
L 214.808574 226.669889 
L 219.432356 224.290063 
L 224.056137 221.910236 
L 228.679919 219.530409 
L 233.3037 217.150582 
L 237.927482 214.770756 
L 242.551264 212.390929 
L 247.175045 210.011102 
L 251.798827 207.631275 
L 256.422608 205.251448 
L 261.04639 202.871622 
L 265.670171 200.491795 
L 270.293953 198.111968 
L 274.917735 195.732141 
L 279.541516 193.352315 
L 284.165298 190.972488 
L 288.789079 188.592661 
L 293.412861 186.212834 
L 298.036643 183.833007 
L 302.660424 181.453181 
L 307.284206 179.073354 
L 311.907987 176.693527 
L 316.531769 174.3137 
L 321.15555 171.933874 
L 325.779332 169.554047 
L 330.403114 167.17422 
L 335.026895 164.794393 
L 339.650677 162.414566 
L 344.274458 160.03474 
L 348.89824 157.654913 
L 353.522022 155.275086 
L 358.145803 152.895259 
L 362.769585 150.515433 
L 367.393366 148.135606 
L 372.017148 145.755779 
L 376.64093 143.375952 
L 381.264711 140.996125 
L 385.888493 138.616299 
L 390.512274 136.236472 
L 395.136056 133.856645 
L 399.759837 131.476818 
L 404.383619 129.096992 
L 409.007401 126.717165 
L 413.631182 124.337338 
L 418.254964 121.957511 
L 422.878745 119.577684 
L 427.502527 117.197858 
L 432.126309 114.818031 
L 436.75009 112.438204 
L 441.373872 110.058377 
L 445.997653 107.67855 
L 450.621435 105.298724 
L 455.245217 102.918897 
L 459.868998 100.53907 
L 461.8 99.545198 
" clip-path="url(#p81c70fb537)" style="fill: none; stroke-dasharray: 2.96,1.28; stroke-dashoffset: 0; stroke: #0000ff; stroke-width: 0.8"/>
   </g>
   <g id="LineCollection_2">
    <path d="M 73.684684 303.144473 
L 73.684684 302.668438 
" clip-path="url(#p81c70fb537)" style="fill: none; stroke: #008000; stroke-width: 1.5"/>
    <path d="M 85.24808 300.709959 
L 85.24808 299.702475 
" clip-path="url(#p81c70fb537)" style="fill: none; stroke: #008000; stroke-width: 1.5"/>
    <path d="M 218.227134 238.166086 
L 218.227134 227.868426 
" clip-path="url(#p81c70fb537)" style="fill: none; stroke: #008000; stroke-width: 1.5"/>
    <path d="M 362.769585 222.725286 
L 362.769585 211.81794 
" clip-path="url(#p81c70fb537)" style="fill: none; stroke: #008000; stroke-width: 1.5"/>
   </g>
   <g id="line2d_30">
    <path d="M 57.6 307.584 
L 62.223782 306.049176 
L 66.847563 304.514352 
L 71.471345 302.979527 
L 76.095126 301.444703 
L 80.718908 299.909879 
L 85.34269 298.375055 
L 89.966471 296.84023 
L 94.590253 295.305406 
L 99.214034 293.770582 
L 103.837816 292.235758 
L 108.461597 290.700933 
L 113.085379 289.166109 
L 117.709161 287.631285 
L 122.332942 286.096461 
L 126.956724 284.561637 
L 131.580505 283.026812 
L 136.204287 281.491988 
L 140.828069 279.957164 
L 145.45185 278.42234 
L 150.075632 276.887515 
L 154.699413 275.352691 
L 159.323195 273.817867 
L 163.946977 272.283043 
L 168.570758 270.748218 
L 173.19454 269.213394 
L 177.818321 267.67857 
L 182.442103 266.143746 
L 187.065884 264.608922 
L 191.689666 263.074097 
L 196.313448 261.539273 
L 200.937229 260.004449 
L 205.561011 258.469625 
L 210.184792 256.9348 
L 214.808574 255.399976 
L 219.432356 253.865152 
L 224.056137 252.330328 
L 228.679919 250.795503 
L 233.3037 249.260679 
L 237.927482 247.725855 
L 242.551264 246.191031 
L 247.175045 244.656207 
L 251.798827 243.121382 
L 256.422608 241.586558 
L 261.04639 240.051734 
L 265.670171 238.51691 
L 270.293953 236.982085 
L 274.917735 235.447261 
L 279.541516 233.912437 
L 284.165298 232.377613 
L 288.789079 230.842788 
L 293.412861 229.307964 
L 298.036643 227.77314 
L 302.660424 226.238316 
L 307.284206 224.703492 
L 311.907987 223.168667 
L 316.531769 221.633843 
L 321.15555 220.099019 
L 325.779332 218.564195 
L 330.403114 217.02937 
L 335.026895 215.494546 
L 339.650677 213.959722 
L 344.274458 212.424898 
L 348.89824 210.890073 
L 353.522022 209.355249 
L 358.145803 207.820425 
L 362.769585 206.285601 
L 367.393366 204.750777 
L 372.017148 203.215952 
L 376.64093 201.681128 
L 381.264711 200.146304 
L 385.888493 198.61148 
L 390.512274 197.076655 
L 395.136056 195.541831 
L 399.759837 194.007007 
L 404.383619 192.472183 
L 409.007401 190.937358 
L 413.631182 189.402534 
L 418.254964 187.86771 
L 422.878745 186.332886 
L 427.502527 184.798062 
L 432.126309 183.263237 
L 436.75009 181.728413 
L 441.373872 180.193589 
L 445.997653 178.658765 
L 450.621435 177.12394 
L 455.245217 175.589116 
L 459.868998 174.054292 
L 461.8 173.413313 
" clip-path="url(#p81c70fb537)" style="fill: none; stroke: #008000; stroke-width: 1.5; stroke-linecap: square"/>
   </g>
   <g id="line2d_31">
    <path d="M 57.6 307.584 
L 62.223782 305.866428 
L 66.847563 304.148857 
L 71.471345 302.431285 
L 76.095126 300.713714 
L 80.718908 298.996142 
L 85.34269 297.27857 
L 89.966471 295.560999 
L 94.590253 293.843427 
L 99.214034 292.125856 
L 103.837816 290.408284 
L 108.461597 288.690712 
L 113.085379 286.973141 
L 117.709161 285.255569 
L 122.332942 283.537998 
L 126.956724 281.820426 
L 131.580505 280.102855 
L 136.204287 278.385283 
L 140.828069 276.667711 
L 145.45185 274.95014 
L 150.075632 273.232568 
L 154.699413 271.514997 
L 159.323195 269.797425 
L 163.946977 268.079853 
L 168.570758 266.362282 
L 173.19454 264.64471 
L 177.818321 262.927139 
L 182.442103 261.209567 
L 187.065884 259.491995 
L 191.689666 257.774424 
L 196.313448 256.056852 
L 200.937229 254.339281 
L 205.561011 252.621709 
L 210.184792 250.904137 
L 214.808574 249.186566 
L 219.432356 247.468994 
L 224.056137 245.751423 
L 228.679919 244.033851 
L 233.3037 242.31628 
L 237.927482 240.598708 
L 242.551264 238.881136 
L 247.175045 237.163565 
L 251.798827 235.445993 
L 256.422608 233.728422 
L 261.04639 232.01085 
L 265.670171 230.293278 
L 270.293953 228.575707 
L 274.917735 226.858135 
L 279.541516 225.140564 
L 284.165298 223.422992 
L 288.789079 221.70542 
L 293.412861 219.987849 
L 298.036643 218.270277 
L 302.660424 216.552706 
L 307.284206 214.835134 
L 311.907987 213.117562 
L 316.531769 211.399991 
L 321.15555 209.682419 
L 325.779332 207.964848 
L 330.403114 206.247276 
L 335.026895 204.529705 
L 339.650677 202.812133 
L 344.274458 201.094561 
L 348.89824 199.37699 
L 353.522022 197.659418 
L 358.145803 195.941847 
L 362.769585 194.224275 
L 367.393366 192.506703 
L 372.017148 190.789132 
L 376.64093 189.07156 
L 381.264711 187.353989 
L 385.888493 185.636417 
L 390.512274 183.918845 
L 395.136056 182.201274 
L 399.759837 180.483702 
L 404.383619 178.766131 
L 409.007401 177.048559 
L 413.631182 175.330987 
L 418.254964 173.613416 
L 422.878745 171.895844 
L 427.502527 170.178273 
L 432.126309 168.460701 
L 436.75009 166.74313 
L 441.373872 165.025558 
L 445.997653 163.307986 
L 450.621435 161.590415 
L 455.245217 159.872843 
L 459.868998 158.155272 
L 461.8 157.437973 
" clip-path="url(#p81c70fb537)" style="fill: none; stroke-dasharray: 2.96,1.28; stroke-dashoffset: 0; stroke: #0000ff; stroke-width: 0.8"/>
   </g>
   <g id="line2d_32">
    <path d="M 57.6 307.584 
L 62.223782 306.231923 
L 66.847563 304.879846 
L 71.471345 303.527769 
L 76.095126 302.175693 
L 80.718908 300.823616 
L 85.34269 299.471539 
L 89.966471 298.119462 
L 94.590253 296.767385 
L 99.214034 295.415308 
L 103.837816 294.063231 
L 108.461597 292.711154 
L 113.085379 291.359078 
L 117.709161 290.007001 
L 122.332942 288.654924 
L 126.956724 287.302847 
L 131.580505 285.95077 
L 136.204287 284.598693 
L 140.828069 283.246616 
L 145.45185 281.894539 
L 150.075632 280.542463 
L 154.699413 279.190386 
L 159.323195 277.838309 
L 163.946977 276.486232 
L 168.570758 275.134155 
L 173.19454 273.782078 
L 177.818321 272.430001 
L 182.442103 271.077925 
L 187.065884 269.725848 
L 191.689666 268.373771 
L 196.313448 267.021694 
L 200.937229 265.669617 
L 205.561011 264.31754 
L 210.184792 262.965463 
L 214.808574 261.613386 
L 219.432356 260.26131 
L 224.056137 258.909233 
L 228.679919 257.557156 
L 233.3037 256.205079 
L 237.927482 254.853002 
L 242.551264 253.500925 
L 247.175045 252.148848 
L 251.798827 250.796771 
L 256.422608 249.444695 
L 261.04639 248.092618 
L 265.670171 246.740541 
L 270.293953 245.388464 
L 274.917735 244.036387 
L 279.541516 242.68431 
L 284.165298 241.332233 
L 288.789079 239.980156 
L 293.412861 238.62808 
L 298.036643 237.276003 
L 302.660424 235.923926 
L 307.284206 234.571849 
L 311.907987 233.219772 
L 316.531769 231.867695 
L 321.15555 230.515618 
L 325.779332 229.163542 
L 330.403114 227.811465 
L 335.026895 226.459388 
L 339.650677 225.107311 
L 344.274458 223.755234 
L 348.89824 222.403157 
L 353.522022 221.05108 
L 358.145803 219.699003 
L 362.769585 218.346927 
L 367.393366 216.99485 
L 372.017148 215.642773 
L 376.64093 214.290696 
L 381.264711 212.938619 
L 385.888493 211.586542 
L 390.512274 210.234465 
L 395.136056 208.882388 
L 399.759837 207.530312 
L 404.383619 206.178235 
L 409.007401 204.826158 
L 413.631182 203.474081 
L 418.254964 202.122004 
L 422.878745 200.769927 
L 427.502527 199.41785 
L 432.126309 198.065774 
L 436.75009 196.713697 
L 441.373872 195.36162 
L 445.997653 194.009543 
L 450.621435 192.657466 
L 455.245217 191.305389 
L 459.868998 189.953312 
L 461.8 189.388653 
" clip-path="url(#p81c70fb537)" style="fill: none; stroke-dasharray: 2.96,1.28; stroke-dashoffset: 0; stroke: #0000ff; stroke-width: 0.8"/>
   </g>
   <g id="line2d_33">
    <defs>
     <path id="maf1d250b6f" d="M 0 1.5 
C 0.397805 1.5 0.77937 1.341951 1.06066 1.06066 
C 1.341951 0.77937 1.5 0.397805 1.5 0 
C 1.5 -0.397805 1.341951 -0.77937 1.06066 -1.06066 
C 0.77937 -1.341951 0.397805 -1.5 0 -1.5 
C -0.397805 -1.5 -0.77937 -1.341951 -1.06066 -1.06066 
C -1.341951 -0.77937 -1.5 -0.397805 -1.5 0 
C -1.5 0.397805 -1.341951 0.77937 -1.06066 1.06066 
C -0.77937 1.341951 -0.397805 1.5 0 1.5 
z
" style="stroke: #ff0000"/>
    </defs>
    <g clip-path="url(#p81c70fb537)">
     <use xlink:href="#maf1d250b6f" x="73.684684" y="298.814984" style="fill: #ff0000; stroke: #ff0000"/>
     <use xlink:href="#maf1d250b6f" x="85.24808" y="295.050297" style="fill: #ff0000; stroke: #ff0000"/>
     <use xlink:href="#maf1d250b6f" x="218.227134" y="191.928074" style="fill: #ff0000; stroke: #ff0000"/>
     <use xlink:href="#maf1d250b6f" x="362.769585" y="143.425533" style="fill: #ff0000; stroke: #ff0000"/>
    </g>
   </g>
   <g id="line2d_34">
    <defs>
     <path id="mb8c75fc5d4" d="M 0 1.5 
C 0.397805 1.5 0.77937 1.341951 1.06066 1.06066 
C 1.341951 0.77937 1.5 0.397805 1.5 0 
C 1.5 -0.397805 1.341951 -0.77937 1.06066 -1.06066 
C 0.77937 -1.341951 0.397805 -1.5 0 -1.5 
C -0.397805 -1.5 -0.77937 -1.341951 -1.06066 -1.06066 
C -1.341951 -0.77937 -1.5 -0.397805 -1.5 0 
C -1.5 0.397805 -1.341951 0.77937 -1.06066 1.06066 
C -0.77937 1.341951 -0.397805 1.5 0 1.5 
z
" style="stroke: #008000"/>
    </defs>
    <g clip-path="url(#p81c70fb537)">
     <use xlink:href="#mb8c75fc5d4" x="73.684684" y="302.906456" style="fill: #008000; stroke: #008000"/>
     <use xlink:href="#mb8c75fc5d4" x="85.24808" y="300.206217" style="fill: #008000; stroke: #008000"/>
     <use xlink:href="#mb8c75fc5d4" x="218.227134" y="233.017256" style="fill: #008000; stroke: #008000"/>
     <use xlink:href="#mb8c75fc5d4" x="362.769585" y="217.271613" style="fill: #008000; stroke: #008000"/>
    </g>
   </g>
   <g id="patch_3">
    <path d="M 57.6 307.584 
L 57.6 41.472 
" style="fill: none; stroke: #000000; stroke-width: 0.8; stroke-linejoin: miter; stroke-linecap: square"/>
   </g>
   <g id="patch_4">
    <path d="M 414.72 307.584 
L 414.72 41.472 
" style="fill: none; stroke: #000000; stroke-width: 0.8; stroke-linejoin: miter; stroke-linecap: square"/>
   </g>
   <g id="patch_5">
    <path d="M 57.6 307.584 
L 414.72 307.584 
" style="fill: none; stroke: #000000; stroke-width: 0.8; stroke-linejoin: miter; stroke-linecap: square"/>
   </g>
   <g id="patch_6">
    <path d="M 57.6 41.472 
L 414.72 41.472 
" style="fill: none; stroke: #000000; stroke-width: 0.8; stroke-linejoin: miter; stroke-linecap: square"/>
   </g>
   <g id="legend_1">
    <g id="patch_7">
     <path d="M 63.431 115.699068 
L 166.897409 115.699068 
Q 168.563409 115.699068 168.563409 114.033068 
L 168.563409 47.303 
Q 168.563409 45.637 166.897409 45.637 
L 63.431 45.637 
Q 61.765 45.637 61.765 47.303 
L 61.765 114.033068 
Q 61.765 115.699068 63.431 115.699068 
z
" style="fill: #ffffff; opacity: 0.8; stroke: #cccccc; stroke-linejoin: miter"/>
    </g>
    <g id="line2d_35">
     <path d="M 65.097 57.913077 
L 73.427 57.913077 
L 81.757 57.913077 
" style="fill: none; stroke: #ff0000; stroke-width: 1.5; stroke-linecap: square"/>
    </g>
    <g id="text_16">
     <!-- Static Force Fit -->
     <g transform="translate(88.421 55.298498) scale(0.0833 -0.0833)">
      <defs>
       <path id="DejaVuSans-53" d="M 3425 4513 
L 3425 3897 
Q 3066 4069 2747 4153 
Q 2428 4238 2131 4238 
Q 1616 4238 1336 4038 
Q 1056 3838 1056 3469 
Q 1056 3159 1242 3001 
Q 1428 2844 1947 2747 
L 2328 2669 
Q 3034 2534 3370 2195 
Q 3706 1856 3706 1288 
Q 3706 609 3251 259 
Q 2797 -91 1919 -91 
Q 1588 -91 1214 -16 
Q 841 59 441 206 
L 441 856 
Q 825 641 1194 531 
Q 1563 422 1919 422 
Q 2459 422 2753 634 
Q 3047 847 3047 1241 
Q 3047 1584 2836 1778 
Q 2625 1972 2144 2069 
L 1759 2144 
Q 1053 2284 737 2584 
Q 422 2884 422 3419 
Q 422 4038 858 4394 
Q 1294 4750 2059 4750 
Q 2388 4750 2728 4690 
Q 3069 4631 3425 4513 
z
" transform="scale(0.015625)"/>
      </defs>
      <use xlink:href="#DejaVuSans-53"/>
      <use xlink:href="#DejaVuSans-74" x="63.476562"/>
      <use xlink:href="#DejaVuSans-61" x="102.685547"/>
      <use xlink:href="#DejaVuSans-74" x="163.964844"/>
      <use xlink:href="#DejaVuSans-69" x="203.173828"/>
      <use xlink:href="#DejaVuSans-63" x="230.957031"/>
      <use xlink:href="#DejaVuSans-20" x="285.9375"/>
      <use xlink:href="#DejaVuSans-46" x="317.724609"/>
      <use xlink:href="#DejaVuSans-6f" x="371.619141"/>
      <use xlink:href="#DejaVuSans-72" x="432.800781"/>
      <use xlink:href="#DejaVuSans-63" x="471.664062"/>
      <use xlink:href="#DejaVuSans-65" x="526.644531"/>
      <use xlink:href="#DejaVuSans-20" x="588.167969"/>
      <use xlink:href="#DejaVuSans-46" x="619.955078"/>
      <use xlink:href="#DejaVuSans-69" x="670.224609"/>
      <use xlink:href="#DejaVuSans-74" x="698.007812"/>
     </g>
     <!-- y=0.32  0.0346x -->
     <g transform="translate(88.421 64.626276) scale(0.0833 -0.0833)">
      <defs>
       <path id="DejaVuSans-79" d="M 2059 -325 
Q 1816 -950 1584 -1140 
Q 1353 -1331 966 -1331 
L 506 -1331 
L 506 -850 
L 844 -850 
Q 1081 -850 1212 -737 
Q 1344 -625 1503 -206 
L 1606 56 
L 191 3500 
L 800 3500 
L 1894 763 
L 2988 3500 
L 3597 3500 
L 2059 -325 
z
" transform="scale(0.015625)"/>
       <path id="DejaVuSans-3d" d="M 678 2906 
L 4684 2906 
L 4684 2381 
L 678 2381 
L 678 2906 
z
M 678 1631 
L 4684 1631 
L 4684 1100 
L 678 1100 
L 678 1631 
z
" transform="scale(0.015625)"/>
       <path id="DejaVuSans-2e" d="M 684 794 
L 1344 794 
L 1344 0 
L 684 0 
L 684 794 
z
" transform="scale(0.015625)"/>
       <path id="DejaVuSans-b1" d="M 2944 4013 
L 2944 2803 
L 4684 2803 
L 4684 2272 
L 2944 2272 
L 2944 1063 
L 2419 1063 
L 2419 2272 
L 678 2272 
L 678 2803 
L 2419 2803 
L 2419 4013 
L 2944 4013 
z
M 678 531 
L 4684 531 
L 4684 0 
L 678 0 
L 678 531 
z
" transform="scale(0.015625)"/>
       <path id="DejaVuSans-78" d="M 3513 3500 
L 2247 1797 
L 3578 0 
L 2900 0 
L 1881 1375 
L 863 0 
L 184 0 
L 1544 1831 
L 300 3500 
L 978 3500 
L 1906 2253 
L 2834 3500 
L 3513 3500 
z
" transform="scale(0.015625)"/>
      </defs>
      <use xlink:href="#DejaVuSans-79"/>
      <use xlink:href="#DejaVuSans-3d" x="59.179688"/>
      <use xlink:href="#DejaVuSans-30" x="142.96875"/>
      <use xlink:href="#DejaVuSans-2e" x="206.591797"/>
      <use xlink:href="#DejaVuSans-33" x="238.378906"/>
      <use xlink:href="#DejaVuSans-32" x="302.001953"/>
      <use xlink:href="#DejaVuSans-20" x="365.625"/>
      <use xlink:href="#DejaVuSans-b1" x="397.412109"/>
      <use xlink:href="#DejaVuSans-20" x="481.201172"/>
      <use xlink:href="#DejaVuSans-30" x="512.988281"/>
      <use xlink:href="#DejaVuSans-2e" x="576.611328"/>
      <use xlink:href="#DejaVuSans-30" x="608.398438"/>
      <use xlink:href="#DejaVuSans-33" x="672.021484"/>
      <use xlink:href="#DejaVuSans-34" x="735.644531"/>
      <use xlink:href="#DejaVuSans-36" x="799.267578"/>
      <use xlink:href="#DejaVuSans-78" x="862.890625"/>
     </g>
    </g>
    <g id="line2d_36">
     <path d="M 65.097 79.467733 
L 73.427 79.467733 
L 81.757 79.467733 
" style="fill: none; stroke: #008000; stroke-width: 1.5; stroke-linecap: square"/>
    </g>
    <g id="text_17">
     <!-- Kinetic Force Fit -->
     <g transform="translate(88.421 76.853154) scale(0.0833 -0.0833)">
      <defs>
       <path id="DejaVuSans-4b" d="M 628 4666 
L 1259 4666 
L 1259 2694 
L 3353 4666 
L 4166 4666 
L 1850 2491 
L 4331 0 
L 3500 0 
L 1259 2247 
L 1259 0 
L 628 0 
L 628 4666 
z
" transform="scale(0.015625)"/>
      </defs>
      <use xlink:href="#DejaVuSans-4b"/>
      <use xlink:href="#DejaVuSans-69" x="65.576172"/>
      <use xlink:href="#DejaVuSans-6e" x="93.359375"/>
      <use xlink:href="#DejaVuSans-65" x="156.738281"/>
      <use xlink:href="#DejaVuSans-74" x="218.261719"/>
      <use xlink:href="#DejaVuSans-69" x="257.470703"/>
      <use xlink:href="#DejaVuSans-63" x="285.253906"/>
      <use xlink:href="#DejaVuSans-20" x="340.234375"/>
      <use xlink:href="#DejaVuSans-46" x="372.021484"/>
      <use xlink:href="#DejaVuSans-6f" x="425.916016"/>
      <use xlink:href="#DejaVuSans-72" x="487.097656"/>
      <use xlink:href="#DejaVuSans-63" x="525.960938"/>
      <use xlink:href="#DejaVuSans-65" x="580.941406"/>
      <use xlink:href="#DejaVuSans-20" x="642.464844"/>
      <use xlink:href="#DejaVuSans-46" x="674.251953"/>
      <use xlink:href="#DejaVuSans-69" x="724.521484"/>
      <use xlink:href="#DejaVuSans-74" x="752.304688"/>
     </g>
     <!-- y=0.19  0.0221x -->
     <g transform="translate(88.421 86.180932) scale(0.0833 -0.0833)">
      <defs>
       <path id="DejaVuSans-39" d="M 703 97 
L 703 672 
Q 941 559 1184 500 
Q 1428 441 1663 441 
Q 2288 441 2617 861 
Q 2947 1281 2994 2138 
Q 2813 1869 2534 1725 
Q 2256 1581 1919 1581 
Q 1219 1581 811 2004 
Q 403 2428 403 3163 
Q 403 3881 828 4315 
Q 1253 4750 1959 4750 
Q 2769 4750 3195 4129 
Q 3622 3509 3622 2328 
Q 3622 1225 3098 567 
Q 2575 -91 1691 -91 
Q 1453 -91 1209 -44 
Q 966 3 703 97 
z
M 1959 2075 
Q 2384 2075 2632 2365 
Q 2881 2656 2881 3163 
Q 2881 3666 2632 3958 
Q 2384 4250 1959 4250 
Q 1534 4250 1286 3958 
Q 1038 3666 1038 3163 
Q 1038 2656 1286 2365 
Q 1534 2075 1959 2075 
z
" transform="scale(0.015625)"/>
      </defs>
      <use xlink:href="#DejaVuSans-79"/>
      <use xlink:href="#DejaVuSans-3d" x="59.179688"/>
      <use xlink:href="#DejaVuSans-30" x="142.96875"/>
      <use xlink:href="#DejaVuSans-2e" x="206.591797"/>
      <use xlink:href="#DejaVuSans-31" x="238.378906"/>
      <use xlink:href="#DejaVuSans-39" x="302.001953"/>
      <use xlink:href="#DejaVuSans-20" x="365.625"/>
      <use xlink:href="#DejaVuSans-b1" x="397.412109"/>
      <use xlink:href="#DejaVuSans-20" x="481.201172"/>
      <use xlink:href="#DejaVuSans-30" x="512.988281"/>
      <use xlink:href="#DejaVuSans-2e" x="576.611328"/>
      <use xlink:href="#DejaVuSans-30" x="608.398438"/>
      <use xlink:href="#DejaVuSans-32" x="672.021484"/>
      <use xlink:href="#DejaVuSans-32" x="735.644531"/>
      <use xlink:href="#DejaVuSans-31" x="799.267578"/>
      <use xlink:href="#DejaVuSans-78" x="862.890625"/>
     </g>
    </g>
    <g id="LineCollection_3">
     <path d="M 73.427 99.65731 
L 73.427 91.32731 
" style="fill: none; stroke: #ff0000; stroke-width: 1.5"/>
    </g>
    <g id="line2d_37"/>
    <g id="line2d_38">
     <g>
      <use xlink:href="#maf1d250b6f" x="73.427" y="95.49231" style="fill: #ff0000; stroke: #ff0000"/>
     </g>
    </g>
    <g id="text_18">
     <!-- Static Force Data -->
     <g transform="translate(88.421 98.40781) scale(0.0833 -0.0833)">
      <defs>
       <path id="DejaVuSans-44" d="M 1259 4147 
L 1259 519 
L 2022 519 
Q 2988 519 3436 956 
Q 3884 1394 3884 2338 
Q 3884 3275 3436 3711 
Q 2988 4147 2022 4147 
L 1259 4147 
z
M 628 4666 
L 1925 4666 
Q 3281 4666 3915 4102 
Q 4550 3538 4550 2338 
Q 4550 1131 3912 565 
Q 3275 0 1925 0 
L 628 0 
L 628 4666 
z
" transform="scale(0.015625)"/>
      </defs>
      <use xlink:href="#DejaVuSans-53"/>
      <use xlink:href="#DejaVuSans-74" x="63.476562"/>
      <use xlink:href="#DejaVuSans-61" x="102.685547"/>
      <use xlink:href="#DejaVuSans-74" x="163.964844"/>
      <use xlink:href="#DejaVuSans-69" x="203.173828"/>
      <use xlink:href="#DejaVuSans-63" x="230.957031"/>
      <use xlink:href="#DejaVuSans-20" x="285.9375"/>
      <use xlink:href="#DejaVuSans-46" x="317.724609"/>
      <use xlink:href="#DejaVuSans-6f" x="371.619141"/>
      <use xlink:href="#DejaVuSans-72" x="432.800781"/>
      <use xlink:href="#DejaVuSans-63" x="471.664062"/>
      <use xlink:href="#DejaVuSans-65" x="526.644531"/>
      <use xlink:href="#DejaVuSans-20" x="588.167969"/>
      <use xlink:href="#DejaVuSans-44" x="619.955078"/>
      <use xlink:href="#DejaVuSans-61" x="696.957031"/>
      <use xlink:href="#DejaVuSans-74" x="758.236328"/>
      <use xlink:href="#DejaVuSans-61" x="797.445312"/>
     </g>
    </g>
    <g id="LineCollection_4">
     <path d="M 73.427 111.884188 
L 73.427 103.554188 
" style="fill: none; stroke: #008000; stroke-width: 1.5"/>
    </g>
    <g id="line2d_39"/>
    <g id="line2d_40">
     <g>
      <use xlink:href="#mb8c75fc5d4" x="73.427" y="107.719188" style="fill: #008000; stroke: #008000"/>
     </g>
    </g>
    <g id="text_19">
     <!-- Kinetic Force Data -->
     <g transform="translate(88.421 110.634688) scale(0.0833 -0.0833)">
      <use xlink:href="#DejaVuSans-4b"/>
      <use xlink:href="#DejaVuSans-69" x="65.576172"/>
      <use xlink:href="#DejaVuSans-6e" x="93.359375"/>
      <use xlink:href="#DejaVuSans-65" x="156.738281"/>
      <use xlink:href="#DejaVuSans-74" x="218.261719"/>
      <use xlink:href="#DejaVuSans-69" x="257.470703"/>
      <use xlink:href="#DejaVuSans-63" x="285.253906"/>
      <use xlink:href="#DejaVuSans-20" x="340.234375"/>
      <use xlink:href="#DejaVuSans-46" x="372.021484"/>
      <use xlink:href="#DejaVuSans-6f" x="425.916016"/>
      <use xlink:href="#DejaVuSans-72" x="487.097656"/>
      <use xlink:href="#DejaVuSans-63" x="525.960938"/>
      <use xlink:href="#DejaVuSans-65" x="580.941406"/>
      <use xlink:href="#DejaVuSans-20" x="642.464844"/>
      <use xlink:href="#DejaVuSans-44" x="674.251953"/>
      <use xlink:href="#DejaVuSans-61" x="751.253906"/>
      <use xlink:href="#DejaVuSans-74" x="812.533203"/>
      <use xlink:href="#DejaVuSans-61" x="851.742188"/>
     </g>
    </g>
   </g>
  </g>
 </g>
 <defs>
  <clipPath id="p81c70fb537">
   <rect x="57.6" y="41.472" width="357.12" height="266.112"/>
  </clipPath>
 </defs>
</svg>
