<?xml version="1.0" encoding="utf-8" standalone="no"?>
<!DOCTYPE svg PUBLIC "-//W3C//DTD SVG 1.1//EN"
  "http://www.w3.org/Graphics/SVG/1.1/DTD/svg11.dtd">
<svg xmlns:xlink="http://www.w3.org/1999/xlink" width="460.8pt" height="345.6pt" viewBox="0 0 460.8 345.6" xmlns="http://www.w3.org/2000/svg" version="1.1">
 <metadata>
  <rdf:RDF xmlns:dc="http://purl.org/dc/elements/1.1/" xmlns:cc="http://creativecommons.org/ns#" xmlns:rdf="http://www.w3.org/1999/02/22-rdf-syntax-ns#">
   <cc:Work>
    <dc:type rdf:resource="http://purl.org/dc/dcmitype/StillImage"/>
    <dc:date>2024-11-18T12:30:20.961826</dc:date>
    <dc:format>image/svg+xml</dc:format>
    <dc:creator>
     <cc:Agent>
      <dc:title>Matplotlib v3.9.2, https://matplotlib.org/</dc:title>
     </cc:Agent>
    </dc:creator>
   </cc:Work>
  </rdf:RDF>
 </metadata>
 <defs>
  <style type="text/css">*{stroke-linejoin: round; stroke-linecap: butt}</style>
 </defs>
 <g id="figure_1">
  <g id="patch_1">
   <path d="M 0 345.6 
L 460.8 345.6 
L 460.8 0 
L 0 0 
z
" style="fill: #ffffff"/>
  </g>
  <g id="axes_1">
   <g id="patch_2">
    <path d="M 57.6 307.584 
L 414.72 307.584 
L 414.72 41.472 
L 57.6 41.472 
z
" style="fill: #ffffff"/>
   </g>
   <g id="PolyCollection_1">
    <path d="M 57.6 307.584 
L 57.6 307.584 
L 62.267633 304.065336 
L 66.935266 300.546672 
L 71.6029 297.028009 
L 76.270533 293.509345 
L 80.938166 289.990681 
L 85.605799 286.472017 
L 90.273432 282.953353 
L 94.941065 279.434689 
L 99.608699 275.916026 
L 104.276332 272.397362 
L 108.943965 268.878698 
L 113.611598 265.360034 
L 118.279231 261.84137 
L 122.946865 258.322706 
L 127.614498 254.804043 
L 132.282131 251.285379 
L 136.949764 247.766715 
L 141.617397 244.248051 
L 146.28503 240.729387 
L 150.952664 237.210724 
L 155.620297 233.69206 
L 160.28793 230.173396 
L 164.955563 226.654732 
L 169.623196 223.136068 
L 174.290829 219.617404 
L 178.958463 216.098741 
L 183.626096 212.580077 
L 188.293729 209.061413 
L 192.961362 205.542749 
L 197.628995 202.024085 
L 202.296629 198.505421 
L 206.964262 194.986758 
L 211.631895 191.468094 
L 216.299528 187.94943 
L 220.967161 184.430766 
L 225.634794 180.912102 
L 230.302428 177.393439 
L 234.970061 173.874775 
L 239.637694 170.356111 
L 244.305327 166.837447 
L 248.97296 163.318783 
L 253.640594 159.800119 
L 258.308227 156.281456 
L 262.97586 152.762792 
L 267.643493 149.244128 
L 272.311126 145.725464 
L 276.978759 142.2068 
L 281.646393 138.688136 
L 286.314026 135.169473 
L 290.981659 131.650809 
L 295.649292 128.132145 
L 300.316925 124.613481 
L 304.984558 121.094817 
L 309.652192 117.576153 
L 314.319825 114.05749 
L 318.987458 110.538826 
L 323.655091 107.020162 
L 328.322724 103.501498 
L 332.990358 99.982834 
L 337.657991 96.464171 
L 342.325624 92.945507 
L 346.993257 89.426843 
L 351.66089 85.908179 
L 356.328523 82.389515 
L 360.996157 78.870851 
L 365.66379 75.352188 
L 370.331423 71.833524 
L 374.999056 68.31486 
L 379.666689 64.796196 
L 384.334323 61.277532 
L 389.001956 57.758868 
L 393.669589 54.240205 
L 398.337222 50.721541 
L 403.004855 47.202877 
L 407.672488 43.684213 
L 412.340122 40.165549 
L 417.007755 36.646886 
L 421.675388 33.128222 
L 426.343021 29.609558 
L 431.010654 26.090894 
L 435.678287 22.57223 
L 440.345921 19.053566 
L 445.013554 15.534903 
L 449.681187 12.016239 
L 454.34882 8.497575 
L 459.016453 4.978911 
L 463.684087 1.460247 
L 468.35172 -2.058417 
L 473.019353 -5.57708 
L 477.686986 -9.095744 
L 482.354619 -12.614408 
L 487.022252 -16.133072 
L 491.689886 -19.651736 
L 496.357519 -23.170399 
L 501.025152 -26.689063 
L 505.692785 -30.207727 
L 510.360418 -33.726391 
L 515.028052 -37.245055 
L 519.695685 -40.763719 
L 519.695685 -97.951011 
L 519.695685 -97.951011 
L 515.028052 -93.854698 
L 510.360418 -89.758385 
L 505.692785 -85.662071 
L 501.025152 -81.565758 
L 496.357519 -77.469445 
L 491.689886 -73.373132 
L 487.022252 -69.276818 
L 482.354619 -65.180505 
L 477.686986 -61.084192 
L 473.019353 -56.987879 
L 468.35172 -52.891565 
L 463.684087 -48.795252 
L 459.016453 -44.698939 
L 454.34882 -40.602626 
L 449.681187 -36.506312 
L 445.013554 -32.409999 
L 440.345921 -28.313686 
L 435.678287 -24.217373 
L 431.010654 -20.121059 
L 426.343021 -16.024746 
L 421.675388 -11.928433 
L 417.007755 -7.83212 
L 412.340122 -3.735806 
L 407.672488 0.360507 
L 403.004855 4.45682 
L 398.337222 8.553133 
L 393.669589 12.649447 
L 389.001956 16.74576 
L 384.334323 20.842073 
L 379.666689 24.938386 
L 374.999056 29.034699 
L 370.331423 33.131013 
L 365.66379 37.227326 
L 360.996157 41.323639 
L 356.328523 45.419952 
L 351.66089 49.516266 
L 346.993257 53.612579 
L 342.325624 57.708892 
L 337.657991 61.805205 
L 332.990358 65.901519 
L 328.322724 69.997832 
L 323.655091 74.094145 
L 318.987458 78.190458 
L 314.319825 82.286772 
L 309.652192 86.383085 
L 304.984558 90.479398 
L 300.316925 94.575711 
L 295.649292 98.672025 
L 290.981659 102.768338 
L 286.314026 106.864651 
L 281.646393 110.960964 
L 276.978759 115.057278 
L 272.311126 119.153591 
L 267.643493 123.249904 
L 262.97586 127.346217 
L 258.308227 131.442531 
L 253.640594 135.538844 
L 248.97296 139.635157 
L 244.305327 143.73147 
L 239.637694 147.827784 
L 234.970061 151.924097 
L 230.302428 156.02041 
L 225.634794 160.116723 
L 220.967161 164.213037 
L 216.299528 168.30935 
L 211.631895 172.405663 
L 206.964262 176.501976 
L 202.296629 180.598289 
L 197.628995 184.694603 
L 192.961362 188.790916 
L 188.293729 192.887229 
L 183.626096 196.983542 
L 178.958463 201.079856 
L 174.290829 205.176169 
L 169.623196 209.272482 
L 164.955563 213.368795 
L 160.28793 217.465109 
L 155.620297 221.561422 
L 150.952664 225.657735 
L 146.28503 229.754048 
L 141.617397 233.850362 
L 136.949764 237.946675 
L 132.282131 242.042988 
L 127.614498 246.139301 
L 122.946865 250.235615 
L 118.279231 254.331928 
L 113.611598 258.428241 
L 108.943965 262.524554 
L 104.276332 266.620868 
L 99.608699 270.717181 
L 94.941065 274.813494 
L 90.273432 278.909807 
L 85.605799 283.006121 
L 80.938166 287.102434 
L 76.270533 291.198747 
L 71.6029 295.29506 
L 66.935266 299.391374 
L 62.267633 303.487687 
L 57.6 307.584 
z
" clip-path="url(#p9b227c93e6)" style="fill: #808080; fill-opacity: 0.3; stroke: #808080; stroke-opacity: 0.3"/>
   </g>
   <g id="PolyCollection_2">
    <path d="M 57.6 307.584 
L 57.6 307.584 
L 62.267633 305.092106 
L 66.935266 302.600212 
L 71.6029 300.108317 
L 76.270533 297.616423 
L 80.938166 295.124529 
L 85.605799 292.632635 
L 90.273432 290.140741 
L 94.941065 287.648846 
L 99.608699 285.156952 
L 104.276332 282.665058 
L 108.943965 280.173164 
L 113.611598 277.681269 
L 118.279231 275.189375 
L 122.946865 272.697481 
L 127.614498 270.205587 
L 132.282131 267.713693 
L 136.949764 265.221798 
L 141.617397 262.729904 
L 146.28503 260.23801 
L 150.952664 257.746116 
L 155.620297 255.254222 
L 160.28793 252.762327 
L 164.955563 250.270433 
L 169.623196 247.778539 
L 174.290829 245.286645 
L 178.958463 242.794751 
L 183.626096 240.302856 
L 188.293729 237.810962 
L 192.961362 235.319068 
L 197.628995 232.827174 
L 202.296629 230.335279 
L 206.964262 227.843385 
L 211.631895 225.351491 
L 216.299528 222.859597 
L 220.967161 220.367703 
L 225.634794 217.875808 
L 230.302428 215.383914 
L 234.970061 212.89202 
L 239.637694 210.400126 
L 244.305327 207.908232 
L 248.97296 205.416337 
L 253.640594 202.924443 
L 258.308227 200.432549 
L 262.97586 197.940655 
L 267.643493 195.448761 
L 272.311126 192.956866 
L 276.978759 190.464972 
L 281.646393 187.973078 
L 286.314026 185.481184 
L 290.981659 182.98929 
L 295.649292 180.497395 
L 300.316925 178.005501 
L 304.984558 175.513607 
L 309.652192 173.021713 
L 314.319825 170.529818 
L 318.987458 168.037924 
L 323.655091 165.54603 
L 328.322724 163.054136 
L 332.990358 160.562242 
L 337.657991 158.070347 
L 342.325624 155.578453 
L 346.993257 153.086559 
L 351.66089 150.594665 
L 356.328523 148.102771 
L 360.996157 145.610876 
L 365.66379 143.118982 
L 370.331423 140.627088 
L 374.999056 138.135194 
L 379.666689 135.6433 
L 384.334323 133.151405 
L 389.001956 130.659511 
L 393.669589 128.167617 
L 398.337222 125.675723 
L 403.004855 123.183828 
L 407.672488 120.691934 
L 412.340122 118.20004 
L 417.007755 115.708146 
L 421.675388 113.216252 
L 426.343021 110.724357 
L 431.010654 108.232463 
L 435.678287 105.740569 
L 440.345921 103.248675 
L 445.013554 100.756781 
L 449.681187 98.264886 
L 454.34882 95.772992 
L 459.016453 93.281098 
L 463.684087 90.789204 
L 468.35172 88.29731 
L 473.019353 85.805415 
L 477.686986 83.313521 
L 482.354619 80.821627 
L 487.022252 78.329733 
L 491.689886 75.837838 
L 496.357519 73.345944 
L 501.025152 70.85405 
L 505.692785 68.362156 
L 510.360418 65.870262 
L 515.028052 63.378367 
L 519.695685 60.886473 
L 519.695685 24.35933 
L 519.695685 24.35933 
L 515.028052 27.220185 
L 510.360418 30.08104 
L 505.692785 32.941896 
L 501.025152 35.802751 
L 496.357519 38.663606 
L 491.689886 41.524461 
L 487.022252 44.385317 
L 482.354619 47.246172 
L 477.686986 50.107027 
L 473.019353 52.967882 
L 468.35172 55.828738 
L 463.684087 58.689593 
L 459.016453 61.550448 
L 454.34882 64.411303 
L 449.681187 67.272159 
L 445.013554 70.133014 
L 440.345921 72.993869 
L 435.678287 75.854724 
L 431.010654 78.71558 
L 426.343021 81.576435 
L 421.675388 84.43729 
L 417.007755 87.298145 
L 412.340122 90.159001 
L 407.672488 93.019856 
L 403.004855 95.880711 
L 398.337222 98.741566 
L 393.669589 101.602422 
L 389.001956 104.463277 
L 384.334323 107.324132 
L 379.666689 110.184987 
L 374.999056 113.045843 
L 370.331423 115.906698 
L 365.66379 118.767553 
L 360.996157 121.628408 
L 356.328523 124.489264 
L 351.66089 127.350119 
L 346.993257 130.210974 
L 342.325624 133.071829 
L 337.657991 135.932685 
L 332.990358 138.79354 
L 328.322724 141.654395 
L 323.655091 144.51525 
L 318.987458 147.376106 
L 314.319825 150.236961 
L 309.652192 153.097816 
L 304.984558 155.958672 
L 300.316925 158.819527 
L 295.649292 161.680382 
L 290.981659 164.541237 
L 286.314026 167.402093 
L 281.646393 170.262948 
L 276.978759 173.123803 
L 272.311126 175.984658 
L 267.643493 178.845514 
L 262.97586 181.706369 
L 258.308227 184.567224 
L 253.640594 187.428079 
L 248.97296 190.288935 
L 244.305327 193.14979 
L 239.637694 196.010645 
L 234.970061 198.8715 
L 230.302428 201.732356 
L 225.634794 204.593211 
L 220.967161 207.454066 
L 216.299528 210.314921 
L 211.631895 213.175777 
L 206.964262 216.036632 
L 202.296629 218.897487 
L 197.628995 221.758342 
L 192.961362 224.619198 
L 188.293729 227.480053 
L 183.626096 230.340908 
L 178.958463 233.201763 
L 174.290829 236.062619 
L 169.623196 238.923474 
L 164.955563 241.784329 
L 160.28793 244.645184 
L 155.620297 247.50604 
L 150.952664 250.366895 
L 146.28503 253.22775 
L 141.617397 256.088605 
L 136.949764 258.949461 
L 132.282131 261.810316 
L 127.614498 264.671171 
L 122.946865 267.532026 
L 118.279231 270.392882 
L 113.611598 273.253737 
L 108.943965 276.114592 
L 104.276332 278.975447 
L 99.608699 281.836303 
L 94.941065 284.697158 
L 90.273432 287.558013 
L 85.605799 290.418868 
L 80.938166 293.279724 
L 76.270533 296.140579 
L 71.6029 299.001434 
L 66.935266 301.862289 
L 62.267633 304.723145 
L 57.6 307.584 
z
" clip-path="url(#p9b227c93e6)" style="fill: #808080; fill-opacity: 0.3; stroke: #808080; stroke-opacity: 0.3"/>
   </g>
   <g id="matplotlib.axis_1">
    <g id="xtick_1">
     <g id="line2d_1">
      <path d="M 57.6 307.584 
L 57.6 41.472 
" clip-path="url(#p9b227c93e6)" style="fill: none; stroke: #b0b0b0; stroke-width: 0.8; stroke-linecap: square"/>
     </g>
     <g id="line2d_2">
      <defs>
       <path id="medd7cff6e9" d="M 0 0 
L 0 3.5 
" style="stroke: #000000; stroke-width: 0.8"/>
      </defs>
      <g>
       <use xlink:href="#medd7cff6e9" x="57.6" y="307.584" style="stroke: #000000; stroke-width: 0.8"/>
      </g>
     </g>
     <g id="text_1">
      <!-- 0 -->
      <g transform="translate(54.41875 322.182437) scale(0.1 -0.1)">
       <defs>
        <path id="DejaVuSans-30" d="M 2034 4250 
Q 1547 4250 1301 3770 
Q 1056 3291 1056 2328 
Q 1056 1369 1301 889 
Q 1547 409 2034 409 
Q 2525 409 2770 889 
Q 3016 1369 3016 2328 
Q 3016 3291 2770 3770 
Q 2525 4250 2034 4250 
z
M 2034 4750 
Q 2819 4750 3233 4129 
Q 3647 3509 3647 2328 
Q 3647 1150 3233 529 
Q 2819 -91 2034 -91 
Q 1250 -91 836 529 
Q 422 1150 422 2328 
Q 422 3509 836 4129 
Q 1250 4750 2034 4750 
z
" transform="scale(0.015625)"/>
       </defs>
       <use xlink:href="#DejaVuSans-30"/>
      </g>
     </g>
    </g>
    <g id="xtick_2">
     <g id="line2d_3">
      <path d="M 117.12 307.584 
L 117.12 41.472 
" clip-path="url(#p9b227c93e6)" style="fill: none; stroke: #b0b0b0; stroke-width: 0.8; stroke-linecap: square"/>
     </g>
     <g id="line2d_4">
      <g>
       <use xlink:href="#medd7cff6e9" x="117.12" y="307.584" style="stroke: #000000; stroke-width: 0.8"/>
      </g>
     </g>
     <g id="text_2">
      <!-- 20 -->
      <g transform="translate(110.7575 322.182437) scale(0.1 -0.1)">
       <defs>
        <path id="DejaVuSans-32" d="M 1228 531 
L 3431 531 
L 3431 0 
L 469 0 
L 469 531 
Q 828 903 1448 1529 
Q 2069 2156 2228 2338 
Q 2531 2678 2651 2914 
Q 2772 3150 2772 3378 
Q 2772 3750 2511 3984 
Q 2250 4219 1831 4219 
Q 1534 4219 1204 4116 
Q 875 4013 500 3803 
L 500 4441 
Q 881 4594 1212 4672 
Q 1544 4750 1819 4750 
Q 2544 4750 2975 4387 
Q 3406 4025 3406 3419 
Q 3406 3131 3298 2873 
Q 3191 2616 2906 2266 
Q 2828 2175 2409 1742 
Q 1991 1309 1228 531 
z
" transform="scale(0.015625)"/>
       </defs>
       <use xlink:href="#DejaVuSans-32"/>
       <use xlink:href="#DejaVuSans-30" x="63.623047"/>
      </g>
     </g>
    </g>
    <g id="xtick_3">
     <g id="line2d_5">
      <path d="M 176.64 307.584 
L 176.64 41.472 
" clip-path="url(#p9b227c93e6)" style="fill: none; stroke: #b0b0b0; stroke-width: 0.8; stroke-linecap: square"/>
     </g>
     <g id="line2d_6">
      <g>
       <use xlink:href="#medd7cff6e9" x="176.64" y="307.584" style="stroke: #000000; stroke-width: 0.8"/>
      </g>
     </g>
     <g id="text_3">
      <!-- 40 -->
      <g transform="translate(170.2775 322.182437) scale(0.1 -0.1)">
       <defs>
        <path id="DejaVuSans-34" d="M 2419 4116 
L 825 1625 
L 2419 1625 
L 2419 4116 
z
M 2253 4666 
L 3047 4666 
L 3047 1625 
L 3713 1625 
L 3713 1100 
L 3047 1100 
L 3047 0 
L 2419 0 
L 2419 1100 
L 313 1100 
L 313 1709 
L 2253 4666 
z
" transform="scale(0.015625)"/>
       </defs>
       <use xlink:href="#DejaVuSans-34"/>
       <use xlink:href="#DejaVuSans-30" x="63.623047"/>
      </g>
     </g>
    </g>
    <g id="xtick_4">
     <g id="line2d_7">
      <path d="M 236.16 307.584 
L 236.16 41.472 
" clip-path="url(#p9b227c93e6)" style="fill: none; stroke: #b0b0b0; stroke-width: 0.8; stroke-linecap: square"/>
     </g>
     <g id="line2d_8">
      <g>
       <use xlink:href="#medd7cff6e9" x="236.16" y="307.584" style="stroke: #000000; stroke-width: 0.8"/>
      </g>
     </g>
     <g id="text_4">
      <!-- 60 -->
      <g transform="translate(229.7975 322.182437) scale(0.1 -0.1)">
       <defs>
        <path id="DejaVuSans-36" d="M 2113 2584 
Q 1688 2584 1439 2293 
Q 1191 2003 1191 1497 
Q 1191 994 1439 701 
Q 1688 409 2113 409 
Q 2538 409 2786 701 
Q 3034 994 3034 1497 
Q 3034 2003 2786 2293 
Q 2538 2584 2113 2584 
z
M 3366 4563 
L 3366 3988 
Q 3128 4100 2886 4159 
Q 2644 4219 2406 4219 
Q 1781 4219 1451 3797 
Q 1122 3375 1075 2522 
Q 1259 2794 1537 2939 
Q 1816 3084 2150 3084 
Q 2853 3084 3261 2657 
Q 3669 2231 3669 1497 
Q 3669 778 3244 343 
Q 2819 -91 2113 -91 
Q 1303 -91 875 529 
Q 447 1150 447 2328 
Q 447 3434 972 4092 
Q 1497 4750 2381 4750 
Q 2619 4750 2861 4703 
Q 3103 4656 3366 4563 
z
" transform="scale(0.015625)"/>
       </defs>
       <use xlink:href="#DejaVuSans-36"/>
       <use xlink:href="#DejaVuSans-30" x="63.623047"/>
      </g>
     </g>
    </g>
    <g id="xtick_5">
     <g id="line2d_9">
      <path d="M 295.68 307.584 
L 295.68 41.472 
" clip-path="url(#p9b227c93e6)" style="fill: none; stroke: #b0b0b0; stroke-width: 0.8; stroke-linecap: square"/>
     </g>
     <g id="line2d_10">
      <g>
       <use xlink:href="#medd7cff6e9" x="295.68" y="307.584" style="stroke: #000000; stroke-width: 0.8"/>
      </g>
     </g>
     <g id="text_5">
      <!-- 80 -->
      <g transform="translate(289.3175 322.182437) scale(0.1 -0.1)">
       <defs>
        <path id="DejaVuSans-38" d="M 2034 2216 
Q 1584 2216 1326 1975 
Q 1069 1734 1069 1313 
Q 1069 891 1326 650 
Q 1584 409 2034 409 
Q 2484 409 2743 651 
Q 3003 894 3003 1313 
Q 3003 1734 2745 1975 
Q 2488 2216 2034 2216 
z
M 1403 2484 
Q 997 2584 770 2862 
Q 544 3141 544 3541 
Q 544 4100 942 4425 
Q 1341 4750 2034 4750 
Q 2731 4750 3128 4425 
Q 3525 4100 3525 3541 
Q 3525 3141 3298 2862 
Q 3072 2584 2669 2484 
Q 3125 2378 3379 2068 
Q 3634 1759 3634 1313 
Q 3634 634 3220 271 
Q 2806 -91 2034 -91 
Q 1263 -91 848 271 
Q 434 634 434 1313 
Q 434 1759 690 2068 
Q 947 2378 1403 2484 
z
M 1172 3481 
Q 1172 3119 1398 2916 
Q 1625 2713 2034 2713 
Q 2441 2713 2670 2916 
Q 2900 3119 2900 3481 
Q 2900 3844 2670 4047 
Q 2441 4250 2034 4250 
Q 1625 4250 1398 4047 
Q 1172 3844 1172 3481 
z
" transform="scale(0.015625)"/>
       </defs>
       <use xlink:href="#DejaVuSans-38"/>
       <use xlink:href="#DejaVuSans-30" x="63.623047"/>
      </g>
     </g>
    </g>
    <g id="xtick_6">
     <g id="line2d_11">
      <path d="M 355.2 307.584 
L 355.2 41.472 
" clip-path="url(#p9b227c93e6)" style="fill: none; stroke: #b0b0b0; stroke-width: 0.8; stroke-linecap: square"/>
     </g>
     <g id="line2d_12">
      <g>
       <use xlink:href="#medd7cff6e9" x="355.2" y="307.584" style="stroke: #000000; stroke-width: 0.8"/>
      </g>
     </g>
     <g id="text_6">
      <!-- 100 -->
      <g transform="translate(345.65625 322.182437) scale(0.1 -0.1)">
       <defs>
        <path id="DejaVuSans-31" d="M 794 531 
L 1825 531 
L 1825 4091 
L 703 3866 
L 703 4441 
L 1819 4666 
L 2450 4666 
L 2450 531 
L 3481 531 
L 3481 0 
L 794 0 
L 794 531 
z
" transform="scale(0.015625)"/>
       </defs>
       <use xlink:href="#DejaVuSans-31"/>
       <use xlink:href="#DejaVuSans-30" x="63.623047"/>
       <use xlink:href="#DejaVuSans-30" x="127.246094"/>
      </g>
     </g>
    </g>
    <g id="xtick_7">
     <g id="line2d_13">
      <path d="M 414.72 307.584 
L 414.72 41.472 
" clip-path="url(#p9b227c93e6)" style="fill: none; stroke: #b0b0b0; stroke-width: 0.8; stroke-linecap: square"/>
     </g>
     <g id="line2d_14">
      <g>
       <use xlink:href="#medd7cff6e9" x="414.72" y="307.584" style="stroke: #000000; stroke-width: 0.8"/>
      </g>
     </g>
     <g id="text_7">
      <!-- 120 -->
      <g transform="translate(405.17625 322.182437) scale(0.1 -0.1)">
       <use xlink:href="#DejaVuSans-31"/>
       <use xlink:href="#DejaVuSans-32" x="63.623047"/>
       <use xlink:href="#DejaVuSans-30" x="127.246094"/>
      </g>
     </g>
    </g>
    <g id="text_8">
     <!-- Force of Gravity (N) -->
     <g transform="translate(187.146719 335.860562) scale(0.1 -0.1)">
      <defs>
       <path id="DejaVuSans-46" d="M 628 4666 
L 3309 4666 
L 3309 4134 
L 1259 4134 
L 1259 2759 
L 3109 2759 
L 3109 2228 
L 1259 2228 
L 1259 0 
L 628 0 
L 628 4666 
z
" transform="scale(0.015625)"/>
       <path id="DejaVuSans-6f" d="M 1959 3097 
Q 1497 3097 1228 2736 
Q 959 2375 959 1747 
Q 959 1119 1226 758 
Q 1494 397 1959 397 
Q 2419 397 2687 759 
Q 2956 1122 2956 1747 
Q 2956 2369 2687 2733 
Q 2419 3097 1959 3097 
z
M 1959 3584 
Q 2709 3584 3137 3096 
Q 3566 2609 3566 1747 
Q 3566 888 3137 398 
Q 2709 -91 1959 -91 
Q 1206 -91 779 398 
Q 353 888 353 1747 
Q 353 2609 779 3096 
Q 1206 3584 1959 3584 
z
" transform="scale(0.015625)"/>
       <path id="DejaVuSans-72" d="M 2631 2963 
Q 2534 3019 2420 3045 
Q 2306 3072 2169 3072 
Q 1681 3072 1420 2755 
Q 1159 2438 1159 1844 
L 1159 0 
L 581 0 
L 581 3500 
L 1159 3500 
L 1159 2956 
Q 1341 3275 1631 3429 
Q 1922 3584 2338 3584 
Q 2397 3584 2469 3576 
Q 2541 3569 2628 3553 
L 2631 2963 
z
" transform="scale(0.015625)"/>
       <path id="DejaVuSans-63" d="M 3122 3366 
L 3122 2828 
Q 2878 2963 2633 3030 
Q 2388 3097 2138 3097 
Q 1578 3097 1268 2742 
Q 959 2388 959 1747 
Q 959 1106 1268 751 
Q 1578 397 2138 397 
Q 2388 397 2633 464 
Q 2878 531 3122 666 
L 3122 134 
Q 2881 22 2623 -34 
Q 2366 -91 2075 -91 
Q 1284 -91 818 406 
Q 353 903 353 1747 
Q 353 2603 823 3093 
Q 1294 3584 2113 3584 
Q 2378 3584 2631 3529 
Q 2884 3475 3122 3366 
z
" transform="scale(0.015625)"/>
       <path id="DejaVuSans-65" d="M 3597 1894 
L 3597 1613 
L 953 1613 
Q 991 1019 1311 708 
Q 1631 397 2203 397 
Q 2534 397 2845 478 
Q 3156 559 3463 722 
L 3463 178 
Q 3153 47 2828 -22 
Q 2503 -91 2169 -91 
Q 1331 -91 842 396 
Q 353 884 353 1716 
Q 353 2575 817 3079 
Q 1281 3584 2069 3584 
Q 2775 3584 3186 3129 
Q 3597 2675 3597 1894 
z
M 3022 2063 
Q 3016 2534 2758 2815 
Q 2500 3097 2075 3097 
Q 1594 3097 1305 2825 
Q 1016 2553 972 2059 
L 3022 2063 
z
" transform="scale(0.015625)"/>
       <path id="DejaVuSans-20" transform="scale(0.015625)"/>
       <path id="DejaVuSans-66" d="M 2375 4863 
L 2375 4384 
L 1825 4384 
Q 1516 4384 1395 4259 
Q 1275 4134 1275 3809 
L 1275 3500 
L 2222 3500 
L 2222 3053 
L 1275 3053 
L 1275 0 
L 697 0 
L 697 3053 
L 147 3053 
L 147 3500 
L 697 3500 
L 697 3744 
Q 697 4328 969 4595 
Q 1241 4863 1831 4863 
L 2375 4863 
z
" transform="scale(0.015625)"/>
       <path id="DejaVuSans-47" d="M 3809 666 
L 3809 1919 
L 2778 1919 
L 2778 2438 
L 4434 2438 
L 4434 434 
Q 4069 175 3628 42 
Q 3188 -91 2688 -91 
Q 1594 -91 976 548 
Q 359 1188 359 2328 
Q 359 3472 976 4111 
Q 1594 4750 2688 4750 
Q 3144 4750 3555 4637 
Q 3966 4525 4313 4306 
L 4313 3634 
Q 3963 3931 3569 4081 
Q 3175 4231 2741 4231 
Q 1884 4231 1454 3753 
Q 1025 3275 1025 2328 
Q 1025 1384 1454 906 
Q 1884 428 2741 428 
Q 3075 428 3337 486 
Q 3600 544 3809 666 
z
" transform="scale(0.015625)"/>
       <path id="DejaVuSans-61" d="M 2194 1759 
Q 1497 1759 1228 1600 
Q 959 1441 959 1056 
Q 959 750 1161 570 
Q 1363 391 1709 391 
Q 2188 391 2477 730 
Q 2766 1069 2766 1631 
L 2766 1759 
L 2194 1759 
z
M 3341 1997 
L 3341 0 
L 2766 0 
L 2766 531 
Q 2569 213 2275 61 
Q 1981 -91 1556 -91 
Q 1019 -91 701 211 
Q 384 513 384 1019 
Q 384 1609 779 1909 
Q 1175 2209 1959 2209 
L 2766 2209 
L 2766 2266 
Q 2766 2663 2505 2880 
Q 2244 3097 1772 3097 
Q 1472 3097 1187 3025 
Q 903 2953 641 2809 
L 641 3341 
Q 956 3463 1253 3523 
Q 1550 3584 1831 3584 
Q 2591 3584 2966 3190 
Q 3341 2797 3341 1997 
z
" transform="scale(0.015625)"/>
       <path id="DejaVuSans-76" d="M 191 3500 
L 800 3500 
L 1894 563 
L 2988 3500 
L 3597 3500 
L 2284 0 
L 1503 0 
L 191 3500 
z
" transform="scale(0.015625)"/>
       <path id="DejaVuSans-69" d="M 603 3500 
L 1178 3500 
L 1178 0 
L 603 0 
L 603 3500 
z
M 603 4863 
L 1178 4863 
L 1178 4134 
L 603 4134 
L 603 4863 
z
" transform="scale(0.015625)"/>
       <path id="DejaVuSans-74" d="M 1172 4494 
L 1172 3500 
L 2356 3500 
L 2356 3053 
L 1172 3053 
L 1172 1153 
Q 1172 725 1289 603 
Q 1406 481 1766 481 
L 2356 481 
L 2356 0 
L 1766 0 
Q 1100 0 847 248 
Q 594 497 594 1153 
L 594 3053 
L 172 3053 
L 172 3500 
L 594 3500 
L 594 4494 
L 1172 4494 
z
" transform="scale(0.015625)"/>
       <path id="DejaVuSans-79" d="M 2059 -325 
Q 1816 -950 1584 -1140 
Q 1353 -1331 966 -1331 
L 506 -1331 
L 506 -850 
L 844 -850 
Q 1081 -850 1212 -737 
Q 1344 -625 1503 -206 
L 1606 56 
L 191 3500 
L 800 3500 
L 1894 763 
L 2988 3500 
L 3597 3500 
L 2059 -325 
z
" transform="scale(0.015625)"/>
       <path id="DejaVuSans-28" d="M 1984 4856 
Q 1566 4138 1362 3434 
Q 1159 2731 1159 2009 
Q 1159 1288 1364 580 
Q 1569 -128 1984 -844 
L 1484 -844 
Q 1016 -109 783 600 
Q 550 1309 550 2009 
Q 550 2706 781 3412 
Q 1013 4119 1484 4856 
L 1984 4856 
z
" transform="scale(0.015625)"/>
       <path id="DejaVuSans-4e" d="M 628 4666 
L 1478 4666 
L 3547 763 
L 3547 4666 
L 4159 4666 
L 4159 0 
L 3309 0 
L 1241 3903 
L 1241 0 
L 628 0 
L 628 4666 
z
" transform="scale(0.015625)"/>
       <path id="DejaVuSans-29" d="M 513 4856 
L 1013 4856 
Q 1481 4119 1714 3412 
Q 1947 2706 1947 2009 
Q 1947 1309 1714 600 
Q 1481 -109 1013 -844 
L 513 -844 
Q 928 -128 1133 580 
Q 1338 1288 1338 2009 
Q 1338 2731 1133 3434 
Q 928 4138 513 4856 
z
" transform="scale(0.015625)"/>
      </defs>
      <use xlink:href="#DejaVuSans-46"/>
      <use xlink:href="#DejaVuSans-6f" x="53.894531"/>
      <use xlink:href="#DejaVuSans-72" x="115.076172"/>
      <use xlink:href="#DejaVuSans-63" x="153.939453"/>
      <use xlink:href="#DejaVuSans-65" x="208.919922"/>
      <use xlink:href="#DejaVuSans-20" x="270.443359"/>
      <use xlink:href="#DejaVuSans-6f" x="302.230469"/>
      <use xlink:href="#DejaVuSans-66" x="363.412109"/>
      <use xlink:href="#DejaVuSans-20" x="398.617188"/>
      <use xlink:href="#DejaVuSans-47" x="430.404297"/>
      <use xlink:href="#DejaVuSans-72" x="507.894531"/>
      <use xlink:href="#DejaVuSans-61" x="549.007812"/>
      <use xlink:href="#DejaVuSans-76" x="610.287109"/>
      <use xlink:href="#DejaVuSans-69" x="669.466797"/>
      <use xlink:href="#DejaVuSans-74" x="697.25"/>
      <use xlink:href="#DejaVuSans-79" x="736.458984"/>
      <use xlink:href="#DejaVuSans-20" x="795.638672"/>
      <use xlink:href="#DejaVuSans-28" x="827.425781"/>
      <use xlink:href="#DejaVuSans-4e" x="866.439453"/>
      <use xlink:href="#DejaVuSans-29" x="941.244141"/>
     </g>
    </g>
   </g>
   <g id="matplotlib.axis_2">
    <g id="ytick_1">
     <g id="line2d_15">
      <path d="M 57.6 307.584 
L 414.72 307.584 
" clip-path="url(#p9b227c93e6)" style="fill: none; stroke: #b0b0b0; stroke-width: 0.8; stroke-linecap: square"/>
     </g>
     <g id="line2d_16">
      <defs>
       <path id="mb115f3db18" d="M 0 0 
L -3.5 0 
" style="stroke: #000000; stroke-width: 0.8"/>
      </defs>
      <g>
       <use xlink:href="#mb115f3db18" x="57.6" y="307.584" style="stroke: #000000; stroke-width: 0.8"/>
      </g>
     </g>
     <g id="text_9">
      <!-- 0 -->
      <g transform="translate(44.2375 311.383219) scale(0.1 -0.1)">
       <use xlink:href="#DejaVuSans-30"/>
      </g>
     </g>
    </g>
    <g id="ytick_2">
     <g id="line2d_17">
      <path d="M 57.6 254.3616 
L 414.72 254.3616 
" clip-path="url(#p9b227c93e6)" style="fill: none; stroke: #b0b0b0; stroke-width: 0.8; stroke-linecap: square"/>
     </g>
     <g id="line2d_18">
      <g>
       <use xlink:href="#mb115f3db18" x="57.6" y="254.3616" style="stroke: #000000; stroke-width: 0.8"/>
      </g>
     </g>
     <g id="text_10">
      <!-- 10 -->
      <g transform="translate(37.875 258.160819) scale(0.1 -0.1)">
       <use xlink:href="#DejaVuSans-31"/>
       <use xlink:href="#DejaVuSans-30" x="63.623047"/>
      </g>
     </g>
    </g>
    <g id="ytick_3">
     <g id="line2d_19">
      <path d="M 57.6 201.1392 
L 414.72 201.1392 
" clip-path="url(#p9b227c93e6)" style="fill: none; stroke: #b0b0b0; stroke-width: 0.8; stroke-linecap: square"/>
     </g>
     <g id="line2d_20">
      <g>
       <use xlink:href="#mb115f3db18" x="57.6" y="201.1392" style="stroke: #000000; stroke-width: 0.8"/>
      </g>
     </g>
     <g id="text_11">
      <!-- 20 -->
      <g transform="translate(37.875 204.938419) scale(0.1 -0.1)">
       <use xlink:href="#DejaVuSans-32"/>
       <use xlink:href="#DejaVuSans-30" x="63.623047"/>
      </g>
     </g>
    </g>
    <g id="ytick_4">
     <g id="line2d_21">
      <path d="M 57.6 147.9168 
L 414.72 147.9168 
" clip-path="url(#p9b227c93e6)" style="fill: none; stroke: #b0b0b0; stroke-width: 0.8; stroke-linecap: square"/>
     </g>
     <g id="line2d_22">
      <g>
       <use xlink:href="#mb115f3db18" x="57.6" y="147.9168" style="stroke: #000000; stroke-width: 0.8"/>
      </g>
     </g>
     <g id="text_12">
      <!-- 30 -->
      <g transform="translate(37.875 151.716019) scale(0.1 -0.1)">
       <defs>
        <path id="DejaVuSans-33" d="M 2597 2516 
Q 3050 2419 3304 2112 
Q 3559 1806 3559 1356 
Q 3559 666 3084 287 
Q 2609 -91 1734 -91 
Q 1441 -91 1130 -33 
Q 819 25 488 141 
L 488 750 
Q 750 597 1062 519 
Q 1375 441 1716 441 
Q 2309 441 2620 675 
Q 2931 909 2931 1356 
Q 2931 1769 2642 2001 
Q 2353 2234 1838 2234 
L 1294 2234 
L 1294 2753 
L 1863 2753 
Q 2328 2753 2575 2939 
Q 2822 3125 2822 3475 
Q 2822 3834 2567 4026 
Q 2313 4219 1838 4219 
Q 1578 4219 1281 4162 
Q 984 4106 628 3988 
L 628 4550 
Q 988 4650 1302 4700 
Q 1616 4750 1894 4750 
Q 2613 4750 3031 4423 
Q 3450 4097 3450 3541 
Q 3450 3153 3228 2886 
Q 3006 2619 2597 2516 
z
" transform="scale(0.015625)"/>
       </defs>
       <use xlink:href="#DejaVuSans-33"/>
       <use xlink:href="#DejaVuSans-30" x="63.623047"/>
      </g>
     </g>
    </g>
    <g id="ytick_5">
     <g id="line2d_23">
      <path d="M 57.6 94.6944 
L 414.72 94.6944 
" clip-path="url(#p9b227c93e6)" style="fill: none; stroke: #b0b0b0; stroke-width: 0.8; stroke-linecap: square"/>
     </g>
     <g id="line2d_24">
      <g>
       <use xlink:href="#mb115f3db18" x="57.6" y="94.6944" style="stroke: #000000; stroke-width: 0.8"/>
      </g>
     </g>
     <g id="text_13">
      <!-- 40 -->
      <g transform="translate(37.875 98.493619) scale(0.1 -0.1)">
       <use xlink:href="#DejaVuSans-34"/>
       <use xlink:href="#DejaVuSans-30" x="63.623047"/>
      </g>
     </g>
    </g>
    <g id="ytick_6">
     <g id="line2d_25">
      <path d="M 57.6 41.472 
L 414.72 41.472 
" clip-path="url(#p9b227c93e6)" style="fill: none; stroke: #b0b0b0; stroke-width: 0.8; stroke-linecap: square"/>
     </g>
     <g id="line2d_26">
      <g>
       <use xlink:href="#mb115f3db18" x="57.6" y="41.472" style="stroke: #000000; stroke-width: 0.8"/>
      </g>
     </g>
     <g id="text_14">
      <!-- 50 -->
      <g transform="translate(37.875 45.271219) scale(0.1 -0.1)">
       <defs>
        <path id="DejaVuSans-35" d="M 691 4666 
L 3169 4666 
L 3169 4134 
L 1269 4134 
L 1269 2991 
Q 1406 3038 1543 3061 
Q 1681 3084 1819 3084 
Q 2600 3084 3056 2656 
Q 3513 2228 3513 1497 
Q 3513 744 3044 326 
Q 2575 -91 1722 -91 
Q 1428 -91 1123 -41 
Q 819 9 494 109 
L 494 744 
Q 775 591 1075 516 
Q 1375 441 1709 441 
Q 2250 441 2565 725 
Q 2881 1009 2881 1497 
Q 2881 1984 2565 2268 
Q 2250 2553 1709 2553 
Q 1456 2553 1204 2497 
Q 953 2441 691 2322 
L 691 4666 
z
" transform="scale(0.015625)"/>
       </defs>
       <use xlink:href="#DejaVuSans-35"/>
       <use xlink:href="#DejaVuSans-30" x="63.623047"/>
      </g>
     </g>
    </g>
    <g id="text_15">
     <!-- Pull Force (N) -->
     <g transform="translate(31.795312 207.745187) rotate(-90) scale(0.1 -0.1)">
      <defs>
       <path id="DejaVuSans-50" d="M 1259 4147 
L 1259 2394 
L 2053 2394 
Q 2494 2394 2734 2622 
Q 2975 2850 2975 3272 
Q 2975 3691 2734 3919 
Q 2494 4147 2053 4147 
L 1259 4147 
z
M 628 4666 
L 2053 4666 
Q 2838 4666 3239 4311 
Q 3641 3956 3641 3272 
Q 3641 2581 3239 2228 
Q 2838 1875 2053 1875 
L 1259 1875 
L 1259 0 
L 628 0 
L 628 4666 
z
" transform="scale(0.015625)"/>
       <path id="DejaVuSans-75" d="M 544 1381 
L 544 3500 
L 1119 3500 
L 1119 1403 
Q 1119 906 1312 657 
Q 1506 409 1894 409 
Q 2359 409 2629 706 
Q 2900 1003 2900 1516 
L 2900 3500 
L 3475 3500 
L 3475 0 
L 2900 0 
L 2900 538 
Q 2691 219 2414 64 
Q 2138 -91 1772 -91 
Q 1169 -91 856 284 
Q 544 659 544 1381 
z
M 1991 3584 
L 1991 3584 
z
" transform="scale(0.015625)"/>
       <path id="DejaVuSans-6c" d="M 603 4863 
L 1178 4863 
L 1178 0 
L 603 0 
L 603 4863 
z
" transform="scale(0.015625)"/>
      </defs>
      <use xlink:href="#DejaVuSans-50"/>
      <use xlink:href="#DejaVuSans-75" x="58.552734"/>
      <use xlink:href="#DejaVuSans-6c" x="121.931641"/>
      <use xlink:href="#DejaVuSans-6c" x="149.714844"/>
      <use xlink:href="#DejaVuSans-20" x="177.498047"/>
      <use xlink:href="#DejaVuSans-46" x="209.285156"/>
      <use xlink:href="#DejaVuSans-6f" x="263.179688"/>
      <use xlink:href="#DejaVuSans-72" x="324.361328"/>
      <use xlink:href="#DejaVuSans-63" x="363.224609"/>
      <use xlink:href="#DejaVuSans-65" x="418.205078"/>
      <use xlink:href="#DejaVuSans-20" x="479.728516"/>
      <use xlink:href="#DejaVuSans-28" x="511.515625"/>
      <use xlink:href="#DejaVuSans-4e" x="550.529297"/>
      <use xlink:href="#DejaVuSans-29" x="625.333984"/>
     </g>
    </g>
   </g>
   <g id="LineCollection_1">
    <path d="M 73.83723 296.064817 
L 73.83723 293.622959 
" clip-path="url(#p9b227c93e6)" style="fill: none; stroke: #ff0000; stroke-width: 1.5"/>
    <path d="M 85.510292 289.420377 
L 85.510292 287.028327 
" clip-path="url(#p9b227c93e6)" style="fill: none; stroke: #ff0000; stroke-width: 1.5"/>
    <path d="M 219.75051 161.362501 
L 219.75051 143.180219 
" clip-path="url(#p9b227c93e6)" style="fill: none; stroke: #ff0000; stroke-width: 1.5"/>
    <path d="M 365.66379 83.010794 
L 365.66379 53.155606 
" clip-path="url(#p9b227c93e6)" style="fill: none; stroke: #ff0000; stroke-width: 1.5"/>
   </g>
   <g id="line2d_27">
    <path d="M 57.6 307.584 
L 62.267633 303.776511 
L 66.935266 299.969023 
L 71.6029 296.161534 
L 76.270533 292.354046 
L 80.938166 288.546557 
L 85.605799 284.739069 
L 90.273432 280.93158 
L 94.941065 277.124092 
L 99.608699 273.316603 
L 104.276332 269.509115 
L 108.943965 265.701626 
L 113.611598 261.894138 
L 118.279231 258.086649 
L 122.946865 254.279161 
L 127.614498 250.471672 
L 132.282131 246.664183 
L 136.949764 242.856695 
L 141.617397 239.049206 
L 146.28503 235.241718 
L 150.952664 231.434229 
L 155.620297 227.626741 
L 160.28793 223.819252 
L 164.955563 220.011764 
L 169.623196 216.204275 
L 174.290829 212.396787 
L 178.958463 208.589298 
L 183.626096 204.78181 
L 188.293729 200.974321 
L 192.961362 197.166833 
L 197.628995 193.359344 
L 202.296629 189.551855 
L 206.964262 185.744367 
L 211.631895 181.936878 
L 216.299528 178.12939 
L 220.967161 174.321901 
L 225.634794 170.514413 
L 230.302428 166.706924 
L 234.970061 162.899436 
L 239.637694 159.091947 
L 244.305327 155.284459 
L 248.97296 151.47697 
L 253.640594 147.669482 
L 258.308227 143.861993 
L 262.97586 140.054505 
L 267.643493 136.247016 
L 272.311126 132.439527 
L 276.978759 128.632039 
L 281.646393 124.82455 
L 286.314026 121.017062 
L 290.981659 117.209573 
L 295.649292 113.402085 
L 300.316925 109.594596 
L 304.984558 105.787108 
L 309.652192 101.979619 
L 314.319825 98.172131 
L 318.987458 94.364642 
L 323.655091 90.557154 
L 328.322724 86.749665 
L 332.990358 82.942177 
L 337.657991 79.134688 
L 342.325624 75.327199 
L 346.993257 71.519711 
L 351.66089 67.712222 
L 356.328523 63.904734 
L 360.996157 60.097245 
L 365.66379 56.289757 
L 370.331423 52.482268 
L 374.999056 48.67478 
L 379.666689 44.867291 
L 384.334323 41.059803 
L 389.001956 37.252314 
L 393.669589 33.444826 
L 398.337222 29.637337 
L 403.004855 25.829849 
L 407.672488 22.02236 
L 412.340122 18.214871 
L 417.007755 14.407383 
L 421.675388 10.599894 
L 426.343021 6.792406 
L 431.010654 2.984917 
L 435.678287 -0.822571 
L 435.895799 -1 
" clip-path="url(#p9b227c93e6)" style="fill: none; stroke: #ff0000; stroke-width: 1.5; stroke-linecap: square"/>
   </g>
   <g id="line2d_28">
    <path d="M 57.6 307.584 
L 62.267633 303.487687 
L 66.935266 299.391374 
L 71.6029 295.29506 
L 76.270533 291.198747 
L 80.938166 287.102434 
L 85.605799 283.006121 
L 90.273432 278.909807 
L 94.941065 274.813494 
L 99.608699 270.717181 
L 104.276332 266.620868 
L 108.943965 262.524554 
L 113.611598 258.428241 
L 118.279231 254.331928 
L 122.946865 250.235615 
L 127.614498 246.139301 
L 132.282131 242.042988 
L 136.949764 237.946675 
L 141.617397 233.850362 
L 146.28503 229.754048 
L 150.952664 225.657735 
L 155.620297 221.561422 
L 160.28793 217.465109 
L 164.955563 213.368795 
L 169.623196 209.272482 
L 174.290829 205.176169 
L 178.958463 201.079856 
L 183.626096 196.983542 
L 188.293729 192.887229 
L 192.961362 188.790916 
L 197.628995 184.694603 
L 202.296629 180.598289 
L 206.964262 176.501976 
L 211.631895 172.405663 
L 216.299528 168.30935 
L 220.967161 164.213037 
L 225.634794 160.116723 
L 230.302428 156.02041 
L 234.970061 151.924097 
L 239.637694 147.827784 
L 244.305327 143.73147 
L 248.97296 139.635157 
L 253.640594 135.538844 
L 258.308227 131.442531 
L 262.97586 127.346217 
L 267.643493 123.249904 
L 272.311126 119.153591 
L 276.978759 115.057278 
L 281.646393 110.960964 
L 286.314026 106.864651 
L 290.981659 102.768338 
L 295.649292 98.672025 
L 300.316925 94.575711 
L 304.984558 90.479398 
L 309.652192 86.383085 
L 314.319825 82.286772 
L 318.987458 78.190458 
L 323.655091 74.094145 
L 328.322724 69.997832 
L 332.990358 65.901519 
L 337.657991 61.805205 
L 342.325624 57.708892 
L 346.993257 53.612579 
L 351.66089 49.516266 
L 356.328523 45.419952 
L 360.996157 41.323639 
L 365.66379 37.227326 
L 370.331423 33.131013 
L 374.999056 29.034699 
L 379.666689 24.938386 
L 384.334323 20.842073 
L 389.001956 16.74576 
L 393.669589 12.649447 
L 398.337222 8.553133 
L 403.004855 4.45682 
L 407.672488 0.360507 
L 409.222747 -1 
" clip-path="url(#p9b227c93e6)" style="fill: none; stroke-dasharray: 2.96,1.28; stroke-dashoffset: 0; stroke: #0000ff; stroke-width: 0.8"/>
   </g>
   <g id="line2d_29">
    <path d="M 57.6 307.584 
L 62.267633 304.065336 
L 66.935266 300.546672 
L 71.6029 297.028009 
L 76.270533 293.509345 
L 80.938166 289.990681 
L 85.605799 286.472017 
L 90.273432 282.953353 
L 94.941065 279.434689 
L 99.608699 275.916026 
L 104.276332 272.397362 
L 108.943965 268.878698 
L 113.611598 265.360034 
L 118.279231 261.84137 
L 122.946865 258.322706 
L 127.614498 254.804043 
L 132.282131 251.285379 
L 136.949764 247.766715 
L 141.617397 244.248051 
L 146.28503 240.729387 
L 150.952664 237.210724 
L 155.620297 233.69206 
L 160.28793 230.173396 
L 164.955563 226.654732 
L 169.623196 223.136068 
L 174.290829 219.617404 
L 178.958463 216.098741 
L 183.626096 212.580077 
L 188.293729 209.061413 
L 192.961362 205.542749 
L 197.628995 202.024085 
L 202.296629 198.505421 
L 206.964262 194.986758 
L 211.631895 191.468094 
L 216.299528 187.94943 
L 220.967161 184.430766 
L 225.634794 180.912102 
L 230.302428 177.393439 
L 234.970061 173.874775 
L 239.637694 170.356111 
L 244.305327 166.837447 
L 248.97296 163.318783 
L 253.640594 159.800119 
L 258.308227 156.281456 
L 262.97586 152.762792 
L 267.643493 149.244128 
L 272.311126 145.725464 
L 276.978759 142.2068 
L 281.646393 138.688136 
L 286.314026 135.169473 
L 290.981659 131.650809 
L 295.649292 128.132145 
L 300.316925 124.613481 
L 304.984558 121.094817 
L 309.652192 117.576153 
L 314.319825 114.05749 
L 318.987458 110.538826 
L 323.655091 107.020162 
L 328.322724 103.501498 
L 332.990358 99.982834 
L 337.657991 96.464171 
L 342.325624 92.945507 
L 346.993257 89.426843 
L 351.66089 85.908179 
L 356.328523 82.389515 
L 360.996157 78.870851 
L 365.66379 75.352188 
L 370.331423 71.833524 
L 374.999056 68.31486 
L 379.666689 64.796196 
L 384.334323 61.277532 
L 389.001956 57.758868 
L 393.669589 54.240205 
L 398.337222 50.721541 
L 403.004855 47.202877 
L 407.672488 43.684213 
L 412.340122 40.165549 
L 417.007755 36.646886 
L 421.675388 33.128222 
L 426.343021 29.609558 
L 431.010654 26.090894 
L 435.678287 22.57223 
L 440.345921 19.053566 
L 445.013554 15.534903 
L 449.681187 12.016239 
L 454.34882 8.497575 
L 459.016453 4.978911 
L 461.8 2.880553 
" clip-path="url(#p9b227c93e6)" style="fill: none; stroke-dasharray: 2.96,1.28; stroke-dashoffset: 0; stroke: #0000ff; stroke-width: 0.8"/>
   </g>
   <g id="LineCollection_2">
    <path d="M 73.83723 299.173378 
L 73.83723 298.697342 
" clip-path="url(#p9b227c93e6)" style="fill: none; stroke: #008000; stroke-width: 1.5"/>
    <path d="M 85.510292 293.884014 
L 85.510292 292.87653 
" clip-path="url(#p9b227c93e6)" style="fill: none; stroke: #008000; stroke-width: 1.5"/>
    <path d="M 219.75051 198.509372 
L 219.75051 188.211711 
" clip-path="url(#p9b227c93e6)" style="fill: none; stroke: #008000; stroke-width: 1.5"/>
    <path d="M 365.66379 147.382953 
L 365.66379 136.475607 
" clip-path="url(#p9b227c93e6)" style="fill: none; stroke: #008000; stroke-width: 1.5"/>
   </g>
   <g id="line2d_30">
    <path d="M 57.6 307.584 
L 62.267633 304.907625 
L 66.935266 302.231251 
L 71.6029 299.554876 
L 76.270533 296.878501 
L 80.938166 294.202126 
L 85.605799 291.525752 
L 90.273432 288.849377 
L 94.941065 286.173002 
L 99.608699 283.496627 
L 104.276332 280.820253 
L 108.943965 278.143878 
L 113.611598 275.467503 
L 118.279231 272.791128 
L 122.946865 270.114754 
L 127.614498 267.438379 
L 132.282131 264.762004 
L 136.949764 262.08563 
L 141.617397 259.409255 
L 146.28503 256.73288 
L 150.952664 254.056505 
L 155.620297 251.380131 
L 160.28793 248.703756 
L 164.955563 246.027381 
L 169.623196 243.351006 
L 174.290829 240.674632 
L 178.958463 237.998257 
L 183.626096 235.321882 
L 188.293729 232.645507 
L 192.961362 229.969133 
L 197.628995 227.292758 
L 202.296629 224.616383 
L 206.964262 221.940009 
L 211.631895 219.263634 
L 216.299528 216.587259 
L 220.967161 213.910884 
L 225.634794 211.23451 
L 230.302428 208.558135 
L 234.970061 205.88176 
L 239.637694 203.205385 
L 244.305327 200.529011 
L 248.97296 197.852636 
L 253.640594 195.176261 
L 258.308227 192.499887 
L 262.97586 189.823512 
L 267.643493 187.147137 
L 272.311126 184.470762 
L 276.978759 181.794388 
L 281.646393 179.118013 
L 286.314026 176.441638 
L 290.981659 173.765263 
L 295.649292 171.088889 
L 300.316925 168.412514 
L 304.984558 165.736139 
L 309.652192 163.059764 
L 314.319825 160.38339 
L 318.987458 157.707015 
L 323.655091 155.03064 
L 328.322724 152.354266 
L 332.990358 149.677891 
L 337.657991 147.001516 
L 342.325624 144.325141 
L 346.993257 141.648767 
L 351.66089 138.972392 
L 356.328523 136.296017 
L 360.996157 133.619642 
L 365.66379 130.943268 
L 370.331423 128.266893 
L 374.999056 125.590518 
L 379.666689 122.914143 
L 384.334323 120.237769 
L 389.001956 117.561394 
L 393.669589 114.885019 
L 398.337222 112.208645 
L 403.004855 109.53227 
L 407.672488 106.855895 
L 412.340122 104.17952 
L 417.007755 101.503146 
L 421.675388 98.826771 
L 426.343021 96.150396 
L 431.010654 93.474021 
L 435.678287 90.797647 
L 440.345921 88.121272 
L 445.013554 85.444897 
L 449.681187 82.768522 
L 454.34882 80.092148 
L 459.016453 77.415773 
L 461.8 75.819715 
" clip-path="url(#p9b227c93e6)" style="fill: none; stroke: #008000; stroke-width: 1.5; stroke-linecap: square"/>
   </g>
   <g id="line2d_31">
    <path d="M 57.6 307.584 
L 62.267633 304.723145 
L 66.935266 301.862289 
L 71.6029 299.001434 
L 76.270533 296.140579 
L 80.938166 293.279724 
L 85.605799 290.418868 
L 90.273432 287.558013 
L 94.941065 284.697158 
L 99.608699 281.836303 
L 104.276332 278.975447 
L 108.943965 276.114592 
L 113.611598 273.253737 
L 118.279231 270.392882 
L 122.946865 267.532026 
L 127.614498 264.671171 
L 132.282131 261.810316 
L 136.949764 258.949461 
L 141.617397 256.088605 
L 146.28503 253.22775 
L 150.952664 250.366895 
L 155.620297 247.50604 
L 160.28793 244.645184 
L 164.955563 241.784329 
L 169.623196 238.923474 
L 174.290829 236.062619 
L 178.958463 233.201763 
L 183.626096 230.340908 
L 188.293729 227.480053 
L 192.961362 224.619198 
L 197.628995 221.758342 
L 202.296629 218.897487 
L 206.964262 216.036632 
L 211.631895 213.175777 
L 216.299528 210.314921 
L 220.967161 207.454066 
L 225.634794 204.593211 
L 230.302428 201.732356 
L 234.970061 198.8715 
L 239.637694 196.010645 
L 244.305327 193.14979 
L 248.97296 190.288935 
L 253.640594 187.428079 
L 258.308227 184.567224 
L 262.97586 181.706369 
L 267.643493 178.845514 
L 272.311126 175.984658 
L 276.978759 173.123803 
L 281.646393 170.262948 
L 286.314026 167.402093 
L 290.981659 164.541237 
L 295.649292 161.680382 
L 300.316925 158.819527 
L 304.984558 155.958672 
L 309.652192 153.097816 
L 314.319825 150.236961 
L 318.987458 147.376106 
L 323.655091 144.51525 
L 328.322724 141.654395 
L 332.990358 138.79354 
L 337.657991 135.932685 
L 342.325624 133.071829 
L 346.993257 130.210974 
L 351.66089 127.350119 
L 356.328523 124.489264 
L 360.996157 121.628408 
L 365.66379 118.767553 
L 370.331423 115.906698 
L 374.999056 113.045843 
L 379.666689 110.184987 
L 384.334323 107.324132 
L 389.001956 104.463277 
L 393.669589 101.602422 
L 398.337222 98.741566 
L 403.004855 95.880711 
L 407.672488 93.019856 
L 412.340122 90.159001 
L 417.007755 87.298145 
L 421.675388 84.43729 
L 426.343021 81.576435 
L 431.010654 78.71558 
L 435.678287 75.854724 
L 440.345921 72.993869 
L 445.013554 70.133014 
L 449.681187 67.272159 
L 454.34882 64.411303 
L 459.016453 61.550448 
L 461.8 59.844375 
" clip-path="url(#p9b227c93e6)" style="fill: none; stroke-dasharray: 2.96,1.28; stroke-dashoffset: 0; stroke: #0000ff; stroke-width: 0.8"/>
   </g>
   <g id="line2d_32">
    <path d="M 57.6 307.584 
L 62.267633 305.092106 
L 66.935266 302.600212 
L 71.6029 300.108317 
L 76.270533 297.616423 
L 80.938166 295.124529 
L 85.605799 292.632635 
L 90.273432 290.140741 
L 94.941065 287.648846 
L 99.608699 285.156952 
L 104.276332 282.665058 
L 108.943965 280.173164 
L 113.611598 277.681269 
L 118.279231 275.189375 
L 122.946865 272.697481 
L 127.614498 270.205587 
L 132.282131 267.713693 
L 136.949764 265.221798 
L 141.617397 262.729904 
L 146.28503 260.23801 
L 150.952664 257.746116 
L 155.620297 255.254222 
L 160.28793 252.762327 
L 164.955563 250.270433 
L 169.623196 247.778539 
L 174.290829 245.286645 
L 178.958463 242.794751 
L 183.626096 240.302856 
L 188.293729 237.810962 
L 192.961362 235.319068 
L 197.628995 232.827174 
L 202.296629 230.335279 
L 206.964262 227.843385 
L 211.631895 225.351491 
L 216.299528 222.859597 
L 220.967161 220.367703 
L 225.634794 217.875808 
L 230.302428 215.383914 
L 234.970061 212.89202 
L 239.637694 210.400126 
L 244.305327 207.908232 
L 248.97296 205.416337 
L 253.640594 202.924443 
L 258.308227 200.432549 
L 262.97586 197.940655 
L 267.643493 195.448761 
L 272.311126 192.956866 
L 276.978759 190.464972 
L 281.646393 187.973078 
L 286.314026 185.481184 
L 290.981659 182.98929 
L 295.649292 180.497395 
L 300.316925 178.005501 
L 304.984558 175.513607 
L 309.652192 173.021713 
L 314.319825 170.529818 
L 318.987458 168.037924 
L 323.655091 165.54603 
L 328.322724 163.054136 
L 332.990358 160.562242 
L 337.657991 158.070347 
L 342.325624 155.578453 
L 346.993257 153.086559 
L 351.66089 150.594665 
L 356.328523 148.102771 
L 360.996157 145.610876 
L 365.66379 143.118982 
L 370.331423 140.627088 
L 374.999056 138.135194 
L 379.666689 135.6433 
L 384.334323 133.151405 
L 389.001956 130.659511 
L 393.669589 128.167617 
L 398.337222 125.675723 
L 403.004855 123.183828 
L 407.672488 120.691934 
L 412.340122 118.20004 
L 417.007755 115.708146 
L 421.675388 113.216252 
L 426.343021 110.724357 
L 431.010654 108.232463 
L 435.678287 105.740569 
L 440.345921 103.248675 
L 445.013554 100.756781 
L 449.681187 98.264886 
L 454.34882 95.772992 
L 459.016453 93.281098 
L 461.8 91.795055 
" clip-path="url(#p9b227c93e6)" style="fill: none; stroke-dasharray: 2.96,1.28; stroke-dashoffset: 0; stroke: #0000ff; stroke-width: 0.8"/>
   </g>
   <g id="line2d_33">
    <defs>
     <path id="m299690f080" d="M 0 1.5 
C 0.397805 1.5 0.77937 1.341951 1.06066 1.06066 
C 1.341951 0.77937 1.5 0.397805 1.5 0 
C 1.5 -0.397805 1.341951 -0.77937 1.06066 -1.06066 
C 0.77937 -1.341951 0.397805 -1.5 0 -1.5 
C -0.397805 -1.5 -0.77937 -1.341951 -1.06066 -1.06066 
C -1.341951 -0.77937 -1.5 -0.397805 -1.5 0 
C -1.5 0.397805 -1.341951 0.77937 -1.06066 1.06066 
C -0.77937 1.341951 -0.397805 1.5 0 1.5 
z
" style="stroke: #ff0000"/>
    </defs>
    <g clip-path="url(#p9b227c93e6)">
     <use xlink:href="#m299690f080" x="73.83723" y="294.843888" style="fill: #ff0000; stroke: #ff0000"/>
     <use xlink:href="#m299690f080" x="85.510292" y="288.224352" style="fill: #ff0000; stroke: #ff0000"/>
     <use xlink:href="#m299690f080" x="219.75051" y="152.27136" style="fill: #ff0000; stroke: #ff0000"/>
     <use xlink:href="#m299690f080" x="365.66379" y="68.0832" style="fill: #ff0000; stroke: #ff0000"/>
    </g>
   </g>
   <g id="line2d_34">
    <defs>
     <path id="md3eb45f8e0" d="M 0 1.5 
C 0.397805 1.5 0.77937 1.341951 1.06066 1.06066 
C 1.341951 0.77937 1.5 0.397805 1.5 0 
C 1.5 -0.397805 1.341951 -0.77937 1.06066 -1.06066 
C 0.77937 -1.341951 0.397805 -1.5 0 -1.5 
C -0.397805 -1.5 -0.77937 -1.341951 -1.06066 -1.06066 
C -1.341951 -0.77937 -1.5 -0.397805 -1.5 0 
C -1.5 0.397805 -1.341951 0.77937 -1.06066 1.06066 
C -0.77937 1.341951 -0.397805 1.5 0 1.5 
z
" style="stroke: #008000"/>
    </defs>
    <g clip-path="url(#p9b227c93e6)">
     <use xlink:href="#md3eb45f8e0" x="73.83723" y="298.93536" style="fill: #008000; stroke: #008000"/>
     <use xlink:href="#md3eb45f8e0" x="85.510292" y="293.380272" style="fill: #008000; stroke: #008000"/>
     <use xlink:href="#md3eb45f8e0" x="219.75051" y="193.360542" style="fill: #008000; stroke: #008000"/>
     <use xlink:href="#md3eb45f8e0" x="365.66379" y="141.92928" style="fill: #008000; stroke: #008000"/>
    </g>
   </g>
   <g id="patch_3">
    <path d="M 57.6 307.584 
L 57.6 41.472 
" style="fill: none; stroke: #000000; stroke-width: 0.8; stroke-linejoin: miter; stroke-linecap: square"/>
   </g>
   <g id="patch_4">
    <path d="M 414.72 307.584 
L 414.72 41.472 
" style="fill: none; stroke: #000000; stroke-width: 0.8; stroke-linejoin: miter; stroke-linecap: square"/>
   </g>
   <g id="patch_5">
    <path d="M 57.6 307.584 
L 414.72 307.584 
" style="fill: none; stroke: #000000; stroke-width: 0.8; stroke-linejoin: miter; stroke-linecap: square"/>
   </g>
   <g id="patch_6">
    <path d="M 57.6 41.472 
L 414.72 41.472 
" style="fill: none; stroke: #000000; stroke-width: 0.8; stroke-linejoin: miter; stroke-linecap: square"/>
   </g>
   <g id="legend_1">
    <g id="patch_7">
     <path d="M 63.431 115.699068 
L 166.897409 115.699068 
Q 168.563409 115.699068 168.563409 114.033068 
L 168.563409 47.303 
Q 168.563409 45.637 166.897409 45.637 
L 63.431 45.637 
Q 61.765 45.637 61.765 47.303 
L 61.765 114.033068 
Q 61.765 115.699068 63.431 115.699068 
z
" style="fill: #ffffff; opacity: 0.8; stroke: #cccccc; stroke-linejoin: miter"/>
    </g>
    <g id="line2d_35">
     <path d="M 65.097 57.913077 
L 73.427 57.913077 
L 81.757 57.913077 
" style="fill: none; stroke: #ff0000; stroke-width: 1.5; stroke-linecap: square"/>
    </g>
    <g id="text_16">
     <!-- Static Force Fit -->
     <g transform="translate(88.421 55.298498) scale(0.0833 -0.0833)">
      <defs>
       <path id="DejaVuSans-53" d="M 3425 4513 
L 3425 3897 
Q 3066 4069 2747 4153 
Q 2428 4238 2131 4238 
Q 1616 4238 1336 4038 
Q 1056 3838 1056 3469 
Q 1056 3159 1242 3001 
Q 1428 2844 1947 2747 
L 2328 2669 
Q 3034 2534 3370 2195 
Q 3706 1856 3706 1288 
Q 3706 609 3251 259 
Q 2797 -91 1919 -91 
Q 1588 -91 1214 -16 
Q 841 59 441 206 
L 441 856 
Q 825 641 1194 531 
Q 1563 422 1919 422 
Q 2459 422 2753 634 
Q 3047 847 3047 1241 
Q 3047 1584 2836 1778 
Q 2625 1972 2144 2069 
L 1759 2144 
Q 1053 2284 737 2584 
Q 422 2884 422 3419 
Q 422 4038 858 4394 
Q 1294 4750 2059 4750 
Q 2388 4750 2728 4690 
Q 3069 4631 3425 4513 
z
" transform="scale(0.015625)"/>
      </defs>
      <use xlink:href="#DejaVuSans-53"/>
      <use xlink:href="#DejaVuSans-74" x="63.476562"/>
      <use xlink:href="#DejaVuSans-61" x="102.685547"/>
      <use xlink:href="#DejaVuSans-74" x="163.964844"/>
      <use xlink:href="#DejaVuSans-69" x="203.173828"/>
      <use xlink:href="#DejaVuSans-63" x="230.957031"/>
      <use xlink:href="#DejaVuSans-20" x="285.9375"/>
      <use xlink:href="#DejaVuSans-46" x="317.724609"/>
      <use xlink:href="#DejaVuSans-6f" x="371.619141"/>
      <use xlink:href="#DejaVuSans-72" x="432.800781"/>
      <use xlink:href="#DejaVuSans-63" x="471.664062"/>
      <use xlink:href="#DejaVuSans-65" x="526.644531"/>
      <use xlink:href="#DejaVuSans-20" x="588.167969"/>
      <use xlink:href="#DejaVuSans-46" x="619.955078"/>
      <use xlink:href="#DejaVuSans-69" x="670.224609"/>
      <use xlink:href="#DejaVuSans-74" x="698.007812"/>
     </g>
     <!-- y=0.46  0.0346x -->
     <g transform="translate(88.421 64.626276) scale(0.0833 -0.0833)">
      <defs>
       <path id="DejaVuSans-3d" d="M 678 2906 
L 4684 2906 
L 4684 2381 
L 678 2381 
L 678 2906 
z
M 678 1631 
L 4684 1631 
L 4684 1100 
L 678 1100 
L 678 1631 
z
" transform="scale(0.015625)"/>
       <path id="DejaVuSans-2e" d="M 684 794 
L 1344 794 
L 1344 0 
L 684 0 
L 684 794 
z
" transform="scale(0.015625)"/>
       <path id="DejaVuSans-b1" d="M 2944 4013 
L 2944 2803 
L 4684 2803 
L 4684 2272 
L 2944 2272 
L 2944 1063 
L 2419 1063 
L 2419 2272 
L 678 2272 
L 678 2803 
L 2419 2803 
L 2419 4013 
L 2944 4013 
z
M 678 531 
L 4684 531 
L 4684 0 
L 678 0 
L 678 531 
z
" transform="scale(0.015625)"/>
       <path id="DejaVuSans-78" d="M 3513 3500 
L 2247 1797 
L 3578 0 
L 2900 0 
L 1881 1375 
L 863 0 
L 184 0 
L 1544 1831 
L 300 3500 
L 978 3500 
L 1906 2253 
L 2834 3500 
L 3513 3500 
z
" transform="scale(0.015625)"/>
      </defs>
      <use xlink:href="#DejaVuSans-79"/>
      <use xlink:href="#DejaVuSans-3d" x="59.179688"/>
      <use xlink:href="#DejaVuSans-30" x="142.96875"/>
      <use xlink:href="#DejaVuSans-2e" x="206.591797"/>
      <use xlink:href="#DejaVuSans-34" x="238.378906"/>
      <use xlink:href="#DejaVuSans-36" x="302.001953"/>
      <use xlink:href="#DejaVuSans-20" x="365.625"/>
      <use xlink:href="#DejaVuSans-b1" x="397.412109"/>
      <use xlink:href="#DejaVuSans-20" x="481.201172"/>
      <use xlink:href="#DejaVuSans-30" x="512.988281"/>
      <use xlink:href="#DejaVuSans-2e" x="576.611328"/>
      <use xlink:href="#DejaVuSans-30" x="608.398438"/>
      <use xlink:href="#DejaVuSans-33" x="672.021484"/>
      <use xlink:href="#DejaVuSans-34" x="735.644531"/>
      <use xlink:href="#DejaVuSans-36" x="799.267578"/>
      <use xlink:href="#DejaVuSans-78" x="862.890625"/>
     </g>
    </g>
    <g id="line2d_36">
     <path d="M 65.097 79.467733 
L 73.427 79.467733 
L 81.757 79.467733 
" style="fill: none; stroke: #008000; stroke-width: 1.5; stroke-linecap: square"/>
    </g>
    <g id="text_17">
     <!-- Kinetic Force Fit -->
     <g transform="translate(88.421 76.853154) scale(0.0833 -0.0833)">
      <defs>
       <path id="DejaVuSans-4b" d="M 628 4666 
L 1259 4666 
L 1259 2694 
L 3353 4666 
L 4166 4666 
L 1850 2491 
L 4331 0 
L 3500 0 
L 1259 2247 
L 1259 0 
L 628 0 
L 628 4666 
z
" transform="scale(0.015625)"/>
       <path id="DejaVuSans-6e" d="M 3513 2113 
L 3513 0 
L 2938 0 
L 2938 2094 
Q 2938 2591 2744 2837 
Q 2550 3084 2163 3084 
Q 1697 3084 1428 2787 
Q 1159 2491 1159 1978 
L 1159 0 
L 581 0 
L 581 3500 
L 1159 3500 
L 1159 2956 
Q 1366 3272 1645 3428 
Q 1925 3584 2291 3584 
Q 2894 3584 3203 3211 
Q 3513 2838 3513 2113 
z
" transform="scale(0.015625)"/>
      </defs>
      <use xlink:href="#DejaVuSans-4b"/>
      <use xlink:href="#DejaVuSans-69" x="65.576172"/>
      <use xlink:href="#DejaVuSans-6e" x="93.359375"/>
      <use xlink:href="#DejaVuSans-65" x="156.738281"/>
      <use xlink:href="#DejaVuSans-74" x="218.261719"/>
      <use xlink:href="#DejaVuSans-69" x="257.470703"/>
      <use xlink:href="#DejaVuSans-63" x="285.253906"/>
      <use xlink:href="#DejaVuSans-20" x="340.234375"/>
      <use xlink:href="#DejaVuSans-46" x="372.021484"/>
      <use xlink:href="#DejaVuSans-6f" x="425.916016"/>
      <use xlink:href="#DejaVuSans-72" x="487.097656"/>
      <use xlink:href="#DejaVuSans-63" x="525.960938"/>
      <use xlink:href="#DejaVuSans-65" x="580.941406"/>
      <use xlink:href="#DejaVuSans-20" x="642.464844"/>
      <use xlink:href="#DejaVuSans-46" x="674.251953"/>
      <use xlink:href="#DejaVuSans-69" x="724.521484"/>
      <use xlink:href="#DejaVuSans-74" x="752.304688"/>
     </g>
     <!-- y=0.32  0.0221x -->
     <g transform="translate(88.421 86.180932) scale(0.0833 -0.0833)">
      <use xlink:href="#DejaVuSans-79"/>
      <use xlink:href="#DejaVuSans-3d" x="59.179688"/>
      <use xlink:href="#DejaVuSans-30" x="142.96875"/>
      <use xlink:href="#DejaVuSans-2e" x="206.591797"/>
      <use xlink:href="#DejaVuSans-33" x="238.378906"/>
      <use xlink:href="#DejaVuSans-32" x="302.001953"/>
      <use xlink:href="#DejaVuSans-20" x="365.625"/>
      <use xlink:href="#DejaVuSans-b1" x="397.412109"/>
      <use xlink:href="#DejaVuSans-20" x="481.201172"/>
      <use xlink:href="#DejaVuSans-30" x="512.988281"/>
      <use xlink:href="#DejaVuSans-2e" x="576.611328"/>
      <use xlink:href="#DejaVuSans-30" x="608.398438"/>
      <use xlink:href="#DejaVuSans-32" x="672.021484"/>
      <use xlink:href="#DejaVuSans-32" x="735.644531"/>
      <use xlink:href="#DejaVuSans-31" x="799.267578"/>
      <use xlink:href="#DejaVuSans-78" x="862.890625"/>
     </g>
    </g>
    <g id="LineCollection_3">
     <path d="M 73.427 99.65731 
L 73.427 91.32731 
" style="fill: none; stroke: #ff0000; stroke-width: 1.5"/>
    </g>
    <g id="line2d_37"/>
    <g id="line2d_38">
     <g>
      <use xlink:href="#m299690f080" x="73.427" y="95.49231" style="fill: #ff0000; stroke: #ff0000"/>
     </g>
    </g>
    <g id="text_18">
     <!-- Static Force Data -->
     <g transform="translate(88.421 98.40781) scale(0.0833 -0.0833)">
      <defs>
       <path id="DejaVuSans-44" d="M 1259 4147 
L 1259 519 
L 2022 519 
Q 2988 519 3436 956 
Q 3884 1394 3884 2338 
Q 3884 3275 3436 3711 
Q 2988 4147 2022 4147 
L 1259 4147 
z
M 628 4666 
L 1925 4666 
Q 3281 4666 3915 4102 
Q 4550 3538 4550 2338 
Q 4550 1131 3912 565 
Q 3275 0 1925 0 
L 628 0 
L 628 4666 
z
" transform="scale(0.015625)"/>
      </defs>
      <use xlink:href="#DejaVuSans-53"/>
      <use xlink:href="#DejaVuSans-74" x="63.476562"/>
      <use xlink:href="#DejaVuSans-61" x="102.685547"/>
      <use xlink:href="#DejaVuSans-74" x="163.964844"/>
      <use xlink:href="#DejaVuSans-69" x="203.173828"/>
      <use xlink:href="#DejaVuSans-63" x="230.957031"/>
      <use xlink:href="#DejaVuSans-20" x="285.9375"/>
      <use xlink:href="#DejaVuSans-46" x="317.724609"/>
      <use xlink:href="#DejaVuSans-6f" x="371.619141"/>
      <use xlink:href="#DejaVuSans-72" x="432.800781"/>
      <use xlink:href="#DejaVuSans-63" x="471.664062"/>
      <use xlink:href="#DejaVuSans-65" x="526.644531"/>
      <use xlink:href="#DejaVuSans-20" x="588.167969"/>
      <use xlink:href="#DejaVuSans-44" x="619.955078"/>
      <use xlink:href="#DejaVuSans-61" x="696.957031"/>
      <use xlink:href="#DejaVuSans-74" x="758.236328"/>
      <use xlink:href="#DejaVuSans-61" x="797.445312"/>
     </g>
    </g>
    <g id="LineCollection_4">
     <path d="M 73.427 111.884188 
L 73.427 103.554188 
" style="fill: none; stroke: #008000; stroke-width: 1.5"/>
    </g>
    <g id="line2d_39"/>
    <g id="line2d_40">
     <g>
      <use xlink:href="#md3eb45f8e0" x="73.427" y="107.719188" style="fill: #008000; stroke: #008000"/>
     </g>
    </g>
    <g id="text_19">
     <!-- Kinetic Force Data -->
     <g transform="translate(88.421 110.634688) scale(0.0833 -0.0833)">
      <use xlink:href="#DejaVuSans-4b"/>
      <use xlink:href="#DejaVuSans-69" x="65.576172"/>
      <use xlink:href="#DejaVuSans-6e" x="93.359375"/>
      <use xlink:href="#DejaVuSans-65" x="156.738281"/>
      <use xlink:href="#DejaVuSans-74" x="218.261719"/>
      <use xlink:href="#DejaVuSans-69" x="257.470703"/>
      <use xlink:href="#DejaVuSans-63" x="285.253906"/>
      <use xlink:href="#DejaVuSans-20" x="340.234375"/>
      <use xlink:href="#DejaVuSans-46" x="372.021484"/>
      <use xlink:href="#DejaVuSans-6f" x="425.916016"/>
      <use xlink:href="#DejaVuSans-72" x="487.097656"/>
      <use xlink:href="#DejaVuSans-63" x="525.960938"/>
      <use xlink:href="#DejaVuSans-65" x="580.941406"/>
      <use xlink:href="#DejaVuSans-20" x="642.464844"/>
      <use xlink:href="#DejaVuSans-44" x="674.251953"/>
      <use xlink:href="#DejaVuSans-61" x="751.253906"/>
      <use xlink:href="#DejaVuSans-74" x="812.533203"/>
      <use xlink:href="#DejaVuSans-61" x="851.742188"/>
     </g>
    </g>
   </g>
  </g>
 </g>
 <defs>
  <clipPath id="p9b227c93e6">
   <rect x="57.6" y="41.472" width="357.12" height="266.112"/>
  </clipPath>
 </defs>
</svg>
