<?xml version="1.0" encoding="utf-8" standalone="no"?>
<!DOCTYPE svg PUBLIC "-//W3C//DTD SVG 1.1//EN"
  "http://www.w3.org/Graphics/SVG/1.1/DTD/svg11.dtd">
<svg xmlns:xlink="http://www.w3.org/1999/xlink" width="460.8pt" height="345.6pt" viewBox="0 0 460.8 345.6" xmlns="http://www.w3.org/2000/svg" version="1.1">
 <metadata>
  <rdf:RDF xmlns:dc="http://purl.org/dc/elements/1.1/" xmlns:cc="http://creativecommons.org/ns#" xmlns:rdf="http://www.w3.org/1999/02/22-rdf-syntax-ns#">
   <cc:Work>
    <dc:type rdf:resource="http://purl.org/dc/dcmitype/StillImage"/>
    <dc:date>2024-11-14T20:44:52.672268</dc:date>
    <dc:format>image/svg+xml</dc:format>
    <dc:creator>
     <cc:Agent>
      <dc:title>Matplotlib v3.9.2, https://matplotlib.org/</dc:title>
     </cc:Agent>
    </dc:creator>
   </cc:Work>
  </rdf:RDF>
 </metadata>
 <defs>
  <style type="text/css">*{stroke-linejoin: round; stroke-linecap: butt}</style>
 </defs>
 <g id="figure_1">
  <g id="patch_1">
   <path d="M 0 345.6 
L 460.8 345.6 
L 460.8 0 
L 0 0 
z
" style="fill: #ffffff"/>
  </g>
  <g id="axes_1">
   <g id="patch_2">
    <path d="M 57.6 307.584 
L 414.72 307.584 
L 414.72 41.472 
L 57.6 41.472 
z
" style="fill: #ffffff"/>
   </g>
   <g id="PolyCollection_1">
    <path d="M 57.6 307.584 
L 57.6 307.584 
L 62.267633 304.378123 
L 66.935266 301.172246 
L 71.6029 297.966369 
L 76.270533 294.760492 
L 80.938166 291.554615 
L 85.605799 288.348739 
L 90.273432 285.142862 
L 94.941065 281.936985 
L 99.608699 278.731108 
L 104.276332 275.525231 
L 108.943965 272.319354 
L 113.611598 269.113477 
L 118.279231 265.9076 
L 122.946865 262.701723 
L 127.614498 259.495846 
L 132.282131 256.289969 
L 136.949764 253.084092 
L 141.617397 249.878216 
L 146.28503 246.672339 
L 150.952664 243.466462 
L 155.620297 240.260585 
L 160.28793 237.054708 
L 164.955563 233.848831 
L 169.623196 230.642954 
L 174.290829 227.437077 
L 178.958463 224.2312 
L 183.626096 221.025323 
L 188.293729 217.819446 
L 192.961362 214.613569 
L 197.628995 211.407693 
L 202.296629 208.201816 
L 206.964262 204.995939 
L 211.631895 201.790062 
L 216.299528 198.584185 
L 220.967161 195.378308 
L 225.634794 192.172431 
L 230.302428 188.966554 
L 234.970061 185.760677 
L 239.637694 182.5548 
L 244.305327 179.348923 
L 248.97296 176.143047 
L 253.640594 172.93717 
L 258.308227 169.731293 
L 262.97586 166.525416 
L 267.643493 163.319539 
L 272.311126 160.113662 
L 276.978759 156.907785 
L 281.646393 153.701908 
L 286.314026 150.496031 
L 290.981659 147.290154 
L 295.649292 144.084277 
L 300.316925 140.8784 
L 304.984558 137.672524 
L 309.652192 134.466647 
L 314.319825 131.26077 
L 318.987458 128.054893 
L 323.655091 124.849016 
L 328.322724 121.643139 
L 332.990358 118.437262 
L 337.657991 115.231385 
L 342.325624 112.025508 
L 346.993257 108.819631 
L 351.66089 105.613754 
L 356.328523 102.407877 
L 360.996157 99.202001 
L 365.66379 95.996124 
L 370.331423 92.790247 
L 374.999056 89.58437 
L 379.666689 86.378493 
L 384.334323 83.172616 
L 389.001956 79.966739 
L 393.669589 76.760862 
L 398.337222 73.554985 
L 403.004855 70.349108 
L 407.672488 67.143231 
L 412.340122 63.937354 
L 417.007755 60.731478 
L 421.675388 57.525601 
L 426.343021 54.319724 
L 431.010654 51.113847 
L 435.678287 47.90797 
L 440.345921 44.702093 
L 445.013554 41.496216 
L 449.681187 38.290339 
L 454.34882 35.084462 
L 459.016453 31.878585 
L 463.684087 28.672708 
L 468.35172 25.466832 
L 473.019353 22.260955 
L 477.686986 19.055078 
L 482.354619 15.849201 
L 487.022252 12.643324 
L 491.689886 9.437447 
L 496.357519 6.23157 
L 501.025152 3.025693 
L 505.692785 -0.180184 
L 510.360418 -3.386061 
L 515.028052 -6.591938 
L 519.695685 -9.797815 
L 519.695685 -31.28437 
L 519.695685 -31.28437 
L 515.028052 -27.861457 
L 510.360418 -24.438544 
L 505.692785 -21.015631 
L 501.025152 -17.592718 
L 496.357519 -14.169805 
L 491.689886 -10.746893 
L 487.022252 -7.32398 
L 482.354619 -3.901067 
L 477.686986 -0.478154 
L 473.019353 2.944759 
L 468.35172 6.367672 
L 463.684087 9.790584 
L 459.016453 13.213497 
L 454.34882 16.63641 
L 449.681187 20.059323 
L 445.013554 23.482236 
L 440.345921 26.905148 
L 435.678287 30.328061 
L 431.010654 33.750974 
L 426.343021 37.173887 
L 421.675388 40.5968 
L 417.007755 44.019713 
L 412.340122 47.442625 
L 407.672488 50.865538 
L 403.004855 54.288451 
L 398.337222 57.711364 
L 393.669589 61.134277 
L 389.001956 64.55719 
L 384.334323 67.980102 
L 379.666689 71.403015 
L 374.999056 74.825928 
L 370.331423 78.248841 
L 365.66379 81.671754 
L 360.996157 85.094666 
L 356.328523 88.517579 
L 351.66089 91.940492 
L 346.993257 95.363405 
L 342.325624 98.786318 
L 337.657991 102.209231 
L 332.990358 105.632143 
L 328.322724 109.055056 
L 323.655091 112.477969 
L 318.987458 115.900882 
L 314.319825 119.323795 
L 309.652192 122.746708 
L 304.984558 126.16962 
L 300.316925 129.592533 
L 295.649292 133.015446 
L 290.981659 136.438359 
L 286.314026 139.861272 
L 281.646393 143.284184 
L 276.978759 146.707097 
L 272.311126 150.13001 
L 267.643493 153.552923 
L 262.97586 156.975836 
L 258.308227 160.398749 
L 253.640594 163.821661 
L 248.97296 167.244574 
L 244.305327 170.667487 
L 239.637694 174.0904 
L 234.970061 177.513313 
L 230.302428 180.936226 
L 225.634794 184.359138 
L 220.967161 187.782051 
L 216.299528 191.204964 
L 211.631895 194.627877 
L 206.964262 198.05079 
L 202.296629 201.473702 
L 197.628995 204.896615 
L 192.961362 208.319528 
L 188.293729 211.742441 
L 183.626096 215.165354 
L 178.958463 218.588267 
L 174.290829 222.011179 
L 169.623196 225.434092 
L 164.955563 228.857005 
L 160.28793 232.279918 
L 155.620297 235.702831 
L 150.952664 239.125744 
L 146.28503 242.548656 
L 141.617397 245.971569 
L 136.949764 249.394482 
L 132.282131 252.817395 
L 127.614498 256.240308 
L 122.946865 259.66322 
L 118.279231 263.086133 
L 113.611598 266.509046 
L 108.943965 269.931959 
L 104.276332 273.354872 
L 99.608699 276.777785 
L 94.941065 280.200697 
L 90.273432 283.62361 
L 85.605799 287.046523 
L 80.938166 290.469436 
L 76.270533 293.892349 
L 71.6029 297.315262 
L 66.935266 300.738174 
L 62.267633 304.161087 
L 57.6 307.584 
z
" clip-path="url(#p37b5e31e07)" style="fill: #808080; fill-opacity: 0.3; stroke: #808080; stroke-opacity: 0.3"/>
   </g>
   <g id="PolyCollection_2">
    <path d="M 57.6 307.584 
L 57.6 307.584 
L 62.267633 305.76786 
L 66.935266 303.95172 
L 71.6029 302.13558 
L 76.270533 300.31944 
L 80.938166 298.5033 
L 85.605799 296.68716 
L 90.273432 294.87102 
L 94.941065 293.05488 
L 99.608699 291.23874 
L 104.276332 289.4226 
L 108.943965 287.60646 
L 113.611598 285.79032 
L 118.279231 283.97418 
L 122.946865 282.15804 
L 127.614498 280.341899 
L 132.282131 278.525759 
L 136.949764 276.709619 
L 141.617397 274.893479 
L 146.28503 273.077339 
L 150.952664 271.261199 
L 155.620297 269.445059 
L 160.28793 267.628919 
L 164.955563 265.812779 
L 169.623196 263.996639 
L 174.290829 262.180499 
L 178.958463 260.364359 
L 183.626096 258.548219 
L 188.293729 256.732079 
L 192.961362 254.915939 
L 197.628995 253.099799 
L 202.296629 251.283659 
L 206.964262 249.467519 
L 211.631895 247.651379 
L 216.299528 245.835239 
L 220.967161 244.019099 
L 225.634794 242.202959 
L 230.302428 240.386819 
L 234.970061 238.570679 
L 239.637694 236.754539 
L 244.305327 234.938399 
L 248.97296 233.122259 
L 253.640594 231.306119 
L 258.308227 229.489979 
L 262.97586 227.673838 
L 267.643493 225.857698 
L 272.311126 224.041558 
L 276.978759 222.225418 
L 281.646393 220.409278 
L 286.314026 218.593138 
L 290.981659 216.776998 
L 295.649292 214.960858 
L 300.316925 213.144718 
L 304.984558 211.328578 
L 309.652192 209.512438 
L 314.319825 207.696298 
L 318.987458 205.880158 
L 323.655091 204.064018 
L 328.322724 202.247878 
L 332.990358 200.431738 
L 337.657991 198.615598 
L 342.325624 196.799458 
L 346.993257 194.983318 
L 351.66089 193.167178 
L 356.328523 191.351038 
L 360.996157 189.534898 
L 365.66379 187.718758 
L 370.331423 185.902618 
L 374.999056 184.086478 
L 379.666689 182.270338 
L 384.334323 180.454198 
L 389.001956 178.638058 
L 393.669589 176.821918 
L 398.337222 175.005777 
L 403.004855 173.189637 
L 407.672488 171.373497 
L 412.340122 169.557357 
L 417.007755 167.741217 
L 421.675388 165.925077 
L 426.343021 164.108937 
L 431.010654 162.292797 
L 435.678287 160.476657 
L 440.345921 158.660517 
L 445.013554 156.844377 
L 449.681187 155.028237 
L 454.34882 153.212097 
L 459.016453 151.395957 
L 463.684087 149.579817 
L 468.35172 147.763677 
L 473.019353 145.947537 
L 477.686986 144.131397 
L 482.354619 142.315257 
L 487.022252 140.499117 
L 491.689886 138.682977 
L 496.357519 136.866837 
L 501.025152 135.050697 
L 505.692785 133.234557 
L 510.360418 131.418417 
L 515.028052 129.602277 
L 519.695685 127.786137 
L 519.695685 82.609277 
L 519.695685 82.609277 
L 515.028052 84.881749 
L 510.360418 87.154221 
L 505.692785 89.426693 
L 501.025152 91.699165 
L 496.357519 93.971637 
L 491.689886 96.244109 
L 487.022252 98.516581 
L 482.354619 100.789053 
L 477.686986 103.061525 
L 473.019353 105.333997 
L 468.35172 107.606469 
L 463.684087 109.878941 
L 459.016453 112.151413 
L 454.34882 114.423885 
L 449.681187 116.696357 
L 445.013554 118.968829 
L 440.345921 121.241301 
L 435.678287 123.513772 
L 431.010654 125.786244 
L 426.343021 128.058716 
L 421.675388 130.331188 
L 417.007755 132.60366 
L 412.340122 134.876132 
L 407.672488 137.148604 
L 403.004855 139.421076 
L 398.337222 141.693548 
L 393.669589 143.96602 
L 389.001956 146.238492 
L 384.334323 148.510964 
L 379.666689 150.783436 
L 374.999056 153.055908 
L 370.331423 155.32838 
L 365.66379 157.600852 
L 360.996157 159.873324 
L 356.328523 162.145796 
L 351.66089 164.418267 
L 346.993257 166.690739 
L 342.325624 168.963211 
L 337.657991 171.235683 
L 332.990358 173.508155 
L 328.322724 175.780627 
L 323.655091 178.053099 
L 318.987458 180.325571 
L 314.319825 182.598043 
L 309.652192 184.870515 
L 304.984558 187.142987 
L 300.316925 189.415459 
L 295.649292 191.687931 
L 290.981659 193.960403 
L 286.314026 196.232875 
L 281.646393 198.505347 
L 276.978759 200.777819 
L 272.311126 203.050291 
L 267.643493 205.322762 
L 262.97586 207.595234 
L 258.308227 209.867706 
L 253.640594 212.140178 
L 248.97296 214.41265 
L 244.305327 216.685122 
L 239.637694 218.957594 
L 234.970061 221.230066 
L 230.302428 223.502538 
L 225.634794 225.77501 
L 220.967161 228.047482 
L 216.299528 230.319954 
L 211.631895 232.592426 
L 206.964262 234.864898 
L 202.296629 237.13737 
L 197.628995 239.409842 
L 192.961362 241.682314 
L 188.293729 243.954786 
L 183.626096 246.227257 
L 178.958463 248.499729 
L 174.290829 250.772201 
L 169.623196 253.044673 
L 164.955563 255.317145 
L 160.28793 257.589617 
L 155.620297 259.862089 
L 150.952664 262.134561 
L 146.28503 264.407033 
L 141.617397 266.679505 
L 136.949764 268.951977 
L 132.282131 271.224449 
L 127.614498 273.496921 
L 122.946865 275.769393 
L 118.279231 278.041865 
L 113.611598 280.314337 
L 108.943965 282.586809 
L 104.276332 284.859281 
L 99.608699 287.131752 
L 94.941065 289.404224 
L 90.273432 291.676696 
L 85.605799 293.949168 
L 80.938166 296.22164 
L 76.270533 298.494112 
L 71.6029 300.766584 
L 66.935266 303.039056 
L 62.267633 305.311528 
L 57.6 307.584 
z
" clip-path="url(#p37b5e31e07)" style="fill: #808080; fill-opacity: 0.3; stroke: #808080; stroke-opacity: 0.3"/>
   </g>
   <g id="matplotlib.axis_1">
    <g id="xtick_1">
     <g id="line2d_1">
      <path d="M 57.6 307.584 
L 57.6 41.472 
" clip-path="url(#p37b5e31e07)" style="fill: none; stroke: #b0b0b0; stroke-width: 0.8; stroke-linecap: square"/>
     </g>
     <g id="line2d_2">
      <defs>
       <path id="mb776e64bb0" d="M 0 0 
L 0 3.5 
" style="stroke: #000000; stroke-width: 0.8"/>
      </defs>
      <g>
       <use xlink:href="#mb776e64bb0" x="57.6" y="307.584" style="stroke: #000000; stroke-width: 0.8"/>
      </g>
     </g>
     <g id="text_1">
      <!-- 0 -->
      <g transform="translate(54.41875 322.182437) scale(0.1 -0.1)">
       <defs>
        <path id="DejaVuSans-30" d="M 2034 4250 
Q 1547 4250 1301 3770 
Q 1056 3291 1056 2328 
Q 1056 1369 1301 889 
Q 1547 409 2034 409 
Q 2525 409 2770 889 
Q 3016 1369 3016 2328 
Q 3016 3291 2770 3770 
Q 2525 4250 2034 4250 
z
M 2034 4750 
Q 2819 4750 3233 4129 
Q 3647 3509 3647 2328 
Q 3647 1150 3233 529 
Q 2819 -91 2034 -91 
Q 1250 -91 836 529 
Q 422 1150 422 2328 
Q 422 3509 836 4129 
Q 1250 4750 2034 4750 
z
" transform="scale(0.015625)"/>
       </defs>
       <use xlink:href="#DejaVuSans-30"/>
      </g>
     </g>
    </g>
    <g id="xtick_2">
     <g id="line2d_3">
      <path d="M 117.12 307.584 
L 117.12 41.472 
" clip-path="url(#p37b5e31e07)" style="fill: none; stroke: #b0b0b0; stroke-width: 0.8; stroke-linecap: square"/>
     </g>
     <g id="line2d_4">
      <g>
       <use xlink:href="#mb776e64bb0" x="117.12" y="307.584" style="stroke: #000000; stroke-width: 0.8"/>
      </g>
     </g>
     <g id="text_2">
      <!-- 20 -->
      <g transform="translate(110.7575 322.182437) scale(0.1 -0.1)">
       <defs>
        <path id="DejaVuSans-32" d="M 1228 531 
L 3431 531 
L 3431 0 
L 469 0 
L 469 531 
Q 828 903 1448 1529 
Q 2069 2156 2228 2338 
Q 2531 2678 2651 2914 
Q 2772 3150 2772 3378 
Q 2772 3750 2511 3984 
Q 2250 4219 1831 4219 
Q 1534 4219 1204 4116 
Q 875 4013 500 3803 
L 500 4441 
Q 881 4594 1212 4672 
Q 1544 4750 1819 4750 
Q 2544 4750 2975 4387 
Q 3406 4025 3406 3419 
Q 3406 3131 3298 2873 
Q 3191 2616 2906 2266 
Q 2828 2175 2409 1742 
Q 1991 1309 1228 531 
z
" transform="scale(0.015625)"/>
       </defs>
       <use xlink:href="#DejaVuSans-32"/>
       <use xlink:href="#DejaVuSans-30" x="63.623047"/>
      </g>
     </g>
    </g>
    <g id="xtick_3">
     <g id="line2d_5">
      <path d="M 176.64 307.584 
L 176.64 41.472 
" clip-path="url(#p37b5e31e07)" style="fill: none; stroke: #b0b0b0; stroke-width: 0.8; stroke-linecap: square"/>
     </g>
     <g id="line2d_6">
      <g>
       <use xlink:href="#mb776e64bb0" x="176.64" y="307.584" style="stroke: #000000; stroke-width: 0.8"/>
      </g>
     </g>
     <g id="text_3">
      <!-- 40 -->
      <g transform="translate(170.2775 322.182437) scale(0.1 -0.1)">
       <defs>
        <path id="DejaVuSans-34" d="M 2419 4116 
L 825 1625 
L 2419 1625 
L 2419 4116 
z
M 2253 4666 
L 3047 4666 
L 3047 1625 
L 3713 1625 
L 3713 1100 
L 3047 1100 
L 3047 0 
L 2419 0 
L 2419 1100 
L 313 1100 
L 313 1709 
L 2253 4666 
z
" transform="scale(0.015625)"/>
       </defs>
       <use xlink:href="#DejaVuSans-34"/>
       <use xlink:href="#DejaVuSans-30" x="63.623047"/>
      </g>
     </g>
    </g>
    <g id="xtick_4">
     <g id="line2d_7">
      <path d="M 236.16 307.584 
L 236.16 41.472 
" clip-path="url(#p37b5e31e07)" style="fill: none; stroke: #b0b0b0; stroke-width: 0.8; stroke-linecap: square"/>
     </g>
     <g id="line2d_8">
      <g>
       <use xlink:href="#mb776e64bb0" x="236.16" y="307.584" style="stroke: #000000; stroke-width: 0.8"/>
      </g>
     </g>
     <g id="text_4">
      <!-- 60 -->
      <g transform="translate(229.7975 322.182437) scale(0.1 -0.1)">
       <defs>
        <path id="DejaVuSans-36" d="M 2113 2584 
Q 1688 2584 1439 2293 
Q 1191 2003 1191 1497 
Q 1191 994 1439 701 
Q 1688 409 2113 409 
Q 2538 409 2786 701 
Q 3034 994 3034 1497 
Q 3034 2003 2786 2293 
Q 2538 2584 2113 2584 
z
M 3366 4563 
L 3366 3988 
Q 3128 4100 2886 4159 
Q 2644 4219 2406 4219 
Q 1781 4219 1451 3797 
Q 1122 3375 1075 2522 
Q 1259 2794 1537 2939 
Q 1816 3084 2150 3084 
Q 2853 3084 3261 2657 
Q 3669 2231 3669 1497 
Q 3669 778 3244 343 
Q 2819 -91 2113 -91 
Q 1303 -91 875 529 
Q 447 1150 447 2328 
Q 447 3434 972 4092 
Q 1497 4750 2381 4750 
Q 2619 4750 2861 4703 
Q 3103 4656 3366 4563 
z
" transform="scale(0.015625)"/>
       </defs>
       <use xlink:href="#DejaVuSans-36"/>
       <use xlink:href="#DejaVuSans-30" x="63.623047"/>
      </g>
     </g>
    </g>
    <g id="xtick_5">
     <g id="line2d_9">
      <path d="M 295.68 307.584 
L 295.68 41.472 
" clip-path="url(#p37b5e31e07)" style="fill: none; stroke: #b0b0b0; stroke-width: 0.8; stroke-linecap: square"/>
     </g>
     <g id="line2d_10">
      <g>
       <use xlink:href="#mb776e64bb0" x="295.68" y="307.584" style="stroke: #000000; stroke-width: 0.8"/>
      </g>
     </g>
     <g id="text_5">
      <!-- 80 -->
      <g transform="translate(289.3175 322.182437) scale(0.1 -0.1)">
       <defs>
        <path id="DejaVuSans-38" d="M 2034 2216 
Q 1584 2216 1326 1975 
Q 1069 1734 1069 1313 
Q 1069 891 1326 650 
Q 1584 409 2034 409 
Q 2484 409 2743 651 
Q 3003 894 3003 1313 
Q 3003 1734 2745 1975 
Q 2488 2216 2034 2216 
z
M 1403 2484 
Q 997 2584 770 2862 
Q 544 3141 544 3541 
Q 544 4100 942 4425 
Q 1341 4750 2034 4750 
Q 2731 4750 3128 4425 
Q 3525 4100 3525 3541 
Q 3525 3141 3298 2862 
Q 3072 2584 2669 2484 
Q 3125 2378 3379 2068 
Q 3634 1759 3634 1313 
Q 3634 634 3220 271 
Q 2806 -91 2034 -91 
Q 1263 -91 848 271 
Q 434 634 434 1313 
Q 434 1759 690 2068 
Q 947 2378 1403 2484 
z
M 1172 3481 
Q 1172 3119 1398 2916 
Q 1625 2713 2034 2713 
Q 2441 2713 2670 2916 
Q 2900 3119 2900 3481 
Q 2900 3844 2670 4047 
Q 2441 4250 2034 4250 
Q 1625 4250 1398 4047 
Q 1172 3844 1172 3481 
z
" transform="scale(0.015625)"/>
       </defs>
       <use xlink:href="#DejaVuSans-38"/>
       <use xlink:href="#DejaVuSans-30" x="63.623047"/>
      </g>
     </g>
    </g>
    <g id="xtick_6">
     <g id="line2d_11">
      <path d="M 355.2 307.584 
L 355.2 41.472 
" clip-path="url(#p37b5e31e07)" style="fill: none; stroke: #b0b0b0; stroke-width: 0.8; stroke-linecap: square"/>
     </g>
     <g id="line2d_12">
      <g>
       <use xlink:href="#mb776e64bb0" x="355.2" y="307.584" style="stroke: #000000; stroke-width: 0.8"/>
      </g>
     </g>
     <g id="text_6">
      <!-- 100 -->
      <g transform="translate(345.65625 322.182437) scale(0.1 -0.1)">
       <defs>
        <path id="DejaVuSans-31" d="M 794 531 
L 1825 531 
L 1825 4091 
L 703 3866 
L 703 4441 
L 1819 4666 
L 2450 4666 
L 2450 531 
L 3481 531 
L 3481 0 
L 794 0 
L 794 531 
z
" transform="scale(0.015625)"/>
       </defs>
       <use xlink:href="#DejaVuSans-31"/>
       <use xlink:href="#DejaVuSans-30" x="63.623047"/>
       <use xlink:href="#DejaVuSans-30" x="127.246094"/>
      </g>
     </g>
    </g>
    <g id="xtick_7">
     <g id="line2d_13">
      <path d="M 414.72 307.584 
L 414.72 41.472 
" clip-path="url(#p37b5e31e07)" style="fill: none; stroke: #b0b0b0; stroke-width: 0.8; stroke-linecap: square"/>
     </g>
     <g id="line2d_14">
      <g>
       <use xlink:href="#mb776e64bb0" x="414.72" y="307.584" style="stroke: #000000; stroke-width: 0.8"/>
      </g>
     </g>
     <g id="text_7">
      <!-- 120 -->
      <g transform="translate(405.17625 322.182437) scale(0.1 -0.1)">
       <use xlink:href="#DejaVuSans-31"/>
       <use xlink:href="#DejaVuSans-32" x="63.623047"/>
       <use xlink:href="#DejaVuSans-30" x="127.246094"/>
      </g>
     </g>
    </g>
    <g id="text_8">
     <!-- Force of Gravity (N) -->
     <g transform="translate(187.146719 335.860562) scale(0.1 -0.1)">
      <defs>
       <path id="DejaVuSans-46" d="M 628 4666 
L 3309 4666 
L 3309 4134 
L 1259 4134 
L 1259 2759 
L 3109 2759 
L 3109 2228 
L 1259 2228 
L 1259 0 
L 628 0 
L 628 4666 
z
" transform="scale(0.015625)"/>
       <path id="DejaVuSans-6f" d="M 1959 3097 
Q 1497 3097 1228 2736 
Q 959 2375 959 1747 
Q 959 1119 1226 758 
Q 1494 397 1959 397 
Q 2419 397 2687 759 
Q 2956 1122 2956 1747 
Q 2956 2369 2687 2733 
Q 2419 3097 1959 3097 
z
M 1959 3584 
Q 2709 3584 3137 3096 
Q 3566 2609 3566 1747 
Q 3566 888 3137 398 
Q 2709 -91 1959 -91 
Q 1206 -91 779 398 
Q 353 888 353 1747 
Q 353 2609 779 3096 
Q 1206 3584 1959 3584 
z
" transform="scale(0.015625)"/>
       <path id="DejaVuSans-72" d="M 2631 2963 
Q 2534 3019 2420 3045 
Q 2306 3072 2169 3072 
Q 1681 3072 1420 2755 
Q 1159 2438 1159 1844 
L 1159 0 
L 581 0 
L 581 3500 
L 1159 3500 
L 1159 2956 
Q 1341 3275 1631 3429 
Q 1922 3584 2338 3584 
Q 2397 3584 2469 3576 
Q 2541 3569 2628 3553 
L 2631 2963 
z
" transform="scale(0.015625)"/>
       <path id="DejaVuSans-63" d="M 3122 3366 
L 3122 2828 
Q 2878 2963 2633 3030 
Q 2388 3097 2138 3097 
Q 1578 3097 1268 2742 
Q 959 2388 959 1747 
Q 959 1106 1268 751 
Q 1578 397 2138 397 
Q 2388 397 2633 464 
Q 2878 531 3122 666 
L 3122 134 
Q 2881 22 2623 -34 
Q 2366 -91 2075 -91 
Q 1284 -91 818 406 
Q 353 903 353 1747 
Q 353 2603 823 3093 
Q 1294 3584 2113 3584 
Q 2378 3584 2631 3529 
Q 2884 3475 3122 3366 
z
" transform="scale(0.015625)"/>
       <path id="DejaVuSans-65" d="M 3597 1894 
L 3597 1613 
L 953 1613 
Q 991 1019 1311 708 
Q 1631 397 2203 397 
Q 2534 397 2845 478 
Q 3156 559 3463 722 
L 3463 178 
Q 3153 47 2828 -22 
Q 2503 -91 2169 -91 
Q 1331 -91 842 396 
Q 353 884 353 1716 
Q 353 2575 817 3079 
Q 1281 3584 2069 3584 
Q 2775 3584 3186 3129 
Q 3597 2675 3597 1894 
z
M 3022 2063 
Q 3016 2534 2758 2815 
Q 2500 3097 2075 3097 
Q 1594 3097 1305 2825 
Q 1016 2553 972 2059 
L 3022 2063 
z
" transform="scale(0.015625)"/>
       <path id="DejaVuSans-20" transform="scale(0.015625)"/>
       <path id="DejaVuSans-66" d="M 2375 4863 
L 2375 4384 
L 1825 4384 
Q 1516 4384 1395 4259 
Q 1275 4134 1275 3809 
L 1275 3500 
L 2222 3500 
L 2222 3053 
L 1275 3053 
L 1275 0 
L 697 0 
L 697 3053 
L 147 3053 
L 147 3500 
L 697 3500 
L 697 3744 
Q 697 4328 969 4595 
Q 1241 4863 1831 4863 
L 2375 4863 
z
" transform="scale(0.015625)"/>
       <path id="DejaVuSans-47" d="M 3809 666 
L 3809 1919 
L 2778 1919 
L 2778 2438 
L 4434 2438 
L 4434 434 
Q 4069 175 3628 42 
Q 3188 -91 2688 -91 
Q 1594 -91 976 548 
Q 359 1188 359 2328 
Q 359 3472 976 4111 
Q 1594 4750 2688 4750 
Q 3144 4750 3555 4637 
Q 3966 4525 4313 4306 
L 4313 3634 
Q 3963 3931 3569 4081 
Q 3175 4231 2741 4231 
Q 1884 4231 1454 3753 
Q 1025 3275 1025 2328 
Q 1025 1384 1454 906 
Q 1884 428 2741 428 
Q 3075 428 3337 486 
Q 3600 544 3809 666 
z
" transform="scale(0.015625)"/>
       <path id="DejaVuSans-61" d="M 2194 1759 
Q 1497 1759 1228 1600 
Q 959 1441 959 1056 
Q 959 750 1161 570 
Q 1363 391 1709 391 
Q 2188 391 2477 730 
Q 2766 1069 2766 1631 
L 2766 1759 
L 2194 1759 
z
M 3341 1997 
L 3341 0 
L 2766 0 
L 2766 531 
Q 2569 213 2275 61 
Q 1981 -91 1556 -91 
Q 1019 -91 701 211 
Q 384 513 384 1019 
Q 384 1609 779 1909 
Q 1175 2209 1959 2209 
L 2766 2209 
L 2766 2266 
Q 2766 2663 2505 2880 
Q 2244 3097 1772 3097 
Q 1472 3097 1187 3025 
Q 903 2953 641 2809 
L 641 3341 
Q 956 3463 1253 3523 
Q 1550 3584 1831 3584 
Q 2591 3584 2966 3190 
Q 3341 2797 3341 1997 
z
" transform="scale(0.015625)"/>
       <path id="DejaVuSans-76" d="M 191 3500 
L 800 3500 
L 1894 563 
L 2988 3500 
L 3597 3500 
L 2284 0 
L 1503 0 
L 191 3500 
z
" transform="scale(0.015625)"/>
       <path id="DejaVuSans-69" d="M 603 3500 
L 1178 3500 
L 1178 0 
L 603 0 
L 603 3500 
z
M 603 4863 
L 1178 4863 
L 1178 4134 
L 603 4134 
L 603 4863 
z
" transform="scale(0.015625)"/>
       <path id="DejaVuSans-74" d="M 1172 4494 
L 1172 3500 
L 2356 3500 
L 2356 3053 
L 1172 3053 
L 1172 1153 
Q 1172 725 1289 603 
Q 1406 481 1766 481 
L 2356 481 
L 2356 0 
L 1766 0 
Q 1100 0 847 248 
Q 594 497 594 1153 
L 594 3053 
L 172 3053 
L 172 3500 
L 594 3500 
L 594 4494 
L 1172 4494 
z
" transform="scale(0.015625)"/>
       <path id="DejaVuSans-79" d="M 2059 -325 
Q 1816 -950 1584 -1140 
Q 1353 -1331 966 -1331 
L 506 -1331 
L 506 -850 
L 844 -850 
Q 1081 -850 1212 -737 
Q 1344 -625 1503 -206 
L 1606 56 
L 191 3500 
L 800 3500 
L 1894 763 
L 2988 3500 
L 3597 3500 
L 2059 -325 
z
" transform="scale(0.015625)"/>
       <path id="DejaVuSans-28" d="M 1984 4856 
Q 1566 4138 1362 3434 
Q 1159 2731 1159 2009 
Q 1159 1288 1364 580 
Q 1569 -128 1984 -844 
L 1484 -844 
Q 1016 -109 783 600 
Q 550 1309 550 2009 
Q 550 2706 781 3412 
Q 1013 4119 1484 4856 
L 1984 4856 
z
" transform="scale(0.015625)"/>
       <path id="DejaVuSans-4e" d="M 628 4666 
L 1478 4666 
L 3547 763 
L 3547 4666 
L 4159 4666 
L 4159 0 
L 3309 0 
L 1241 3903 
L 1241 0 
L 628 0 
L 628 4666 
z
" transform="scale(0.015625)"/>
       <path id="DejaVuSans-29" d="M 513 4856 
L 1013 4856 
Q 1481 4119 1714 3412 
Q 1947 2706 1947 2009 
Q 1947 1309 1714 600 
Q 1481 -109 1013 -844 
L 513 -844 
Q 928 -128 1133 580 
Q 1338 1288 1338 2009 
Q 1338 2731 1133 3434 
Q 928 4138 513 4856 
z
" transform="scale(0.015625)"/>
      </defs>
      <use xlink:href="#DejaVuSans-46"/>
      <use xlink:href="#DejaVuSans-6f" x="53.894531"/>
      <use xlink:href="#DejaVuSans-72" x="115.076172"/>
      <use xlink:href="#DejaVuSans-63" x="153.939453"/>
      <use xlink:href="#DejaVuSans-65" x="208.919922"/>
      <use xlink:href="#DejaVuSans-20" x="270.443359"/>
      <use xlink:href="#DejaVuSans-6f" x="302.230469"/>
      <use xlink:href="#DejaVuSans-66" x="363.412109"/>
      <use xlink:href="#DejaVuSans-20" x="398.617188"/>
      <use xlink:href="#DejaVuSans-47" x="430.404297"/>
      <use xlink:href="#DejaVuSans-72" x="507.894531"/>
      <use xlink:href="#DejaVuSans-61" x="549.007812"/>
      <use xlink:href="#DejaVuSans-76" x="610.287109"/>
      <use xlink:href="#DejaVuSans-69" x="669.466797"/>
      <use xlink:href="#DejaVuSans-74" x="697.25"/>
      <use xlink:href="#DejaVuSans-79" x="736.458984"/>
      <use xlink:href="#DejaVuSans-20" x="795.638672"/>
      <use xlink:href="#DejaVuSans-28" x="827.425781"/>
      <use xlink:href="#DejaVuSans-4e" x="866.439453"/>
      <use xlink:href="#DejaVuSans-29" x="941.244141"/>
     </g>
    </g>
   </g>
   <g id="matplotlib.axis_2">
    <g id="ytick_1">
     <g id="line2d_15">
      <path d="M 57.6 307.584 
L 414.72 307.584 
" clip-path="url(#p37b5e31e07)" style="fill: none; stroke: #b0b0b0; stroke-width: 0.8; stroke-linecap: square"/>
     </g>
     <g id="line2d_16">
      <defs>
       <path id="m322bf67f5e" d="M 0 0 
L -3.5 0 
" style="stroke: #000000; stroke-width: 0.8"/>
      </defs>
      <g>
       <use xlink:href="#m322bf67f5e" x="57.6" y="307.584" style="stroke: #000000; stroke-width: 0.8"/>
      </g>
     </g>
     <g id="text_9">
      <!-- 0 -->
      <g transform="translate(44.2375 311.383219) scale(0.1 -0.1)">
       <use xlink:href="#DejaVuSans-30"/>
      </g>
     </g>
    </g>
    <g id="ytick_2">
     <g id="line2d_17">
      <path d="M 57.6 278.016 
L 414.72 278.016 
" clip-path="url(#p37b5e31e07)" style="fill: none; stroke: #b0b0b0; stroke-width: 0.8; stroke-linecap: square"/>
     </g>
     <g id="line2d_18">
      <g>
       <use xlink:href="#m322bf67f5e" x="57.6" y="278.016" style="stroke: #000000; stroke-width: 0.8"/>
      </g>
     </g>
     <g id="text_10">
      <!-- 5 -->
      <g transform="translate(44.2375 281.815219) scale(0.1 -0.1)">
       <defs>
        <path id="DejaVuSans-35" d="M 691 4666 
L 3169 4666 
L 3169 4134 
L 1269 4134 
L 1269 2991 
Q 1406 3038 1543 3061 
Q 1681 3084 1819 3084 
Q 2600 3084 3056 2656 
Q 3513 2228 3513 1497 
Q 3513 744 3044 326 
Q 2575 -91 1722 -91 
Q 1428 -91 1123 -41 
Q 819 9 494 109 
L 494 744 
Q 775 591 1075 516 
Q 1375 441 1709 441 
Q 2250 441 2565 725 
Q 2881 1009 2881 1497 
Q 2881 1984 2565 2268 
Q 2250 2553 1709 2553 
Q 1456 2553 1204 2497 
Q 953 2441 691 2322 
L 691 4666 
z
" transform="scale(0.015625)"/>
       </defs>
       <use xlink:href="#DejaVuSans-35"/>
      </g>
     </g>
    </g>
    <g id="ytick_3">
     <g id="line2d_19">
      <path d="M 57.6 248.448 
L 414.72 248.448 
" clip-path="url(#p37b5e31e07)" style="fill: none; stroke: #b0b0b0; stroke-width: 0.8; stroke-linecap: square"/>
     </g>
     <g id="line2d_20">
      <g>
       <use xlink:href="#m322bf67f5e" x="57.6" y="248.448" style="stroke: #000000; stroke-width: 0.8"/>
      </g>
     </g>
     <g id="text_11">
      <!-- 10 -->
      <g transform="translate(37.875 252.247219) scale(0.1 -0.1)">
       <use xlink:href="#DejaVuSans-31"/>
       <use xlink:href="#DejaVuSans-30" x="63.623047"/>
      </g>
     </g>
    </g>
    <g id="ytick_4">
     <g id="line2d_21">
      <path d="M 57.6 218.88 
L 414.72 218.88 
" clip-path="url(#p37b5e31e07)" style="fill: none; stroke: #b0b0b0; stroke-width: 0.8; stroke-linecap: square"/>
     </g>
     <g id="line2d_22">
      <g>
       <use xlink:href="#m322bf67f5e" x="57.6" y="218.88" style="stroke: #000000; stroke-width: 0.8"/>
      </g>
     </g>
     <g id="text_12">
      <!-- 15 -->
      <g transform="translate(37.875 222.679219) scale(0.1 -0.1)">
       <use xlink:href="#DejaVuSans-31"/>
       <use xlink:href="#DejaVuSans-35" x="63.623047"/>
      </g>
     </g>
    </g>
    <g id="ytick_5">
     <g id="line2d_23">
      <path d="M 57.6 189.312 
L 414.72 189.312 
" clip-path="url(#p37b5e31e07)" style="fill: none; stroke: #b0b0b0; stroke-width: 0.8; stroke-linecap: square"/>
     </g>
     <g id="line2d_24">
      <g>
       <use xlink:href="#m322bf67f5e" x="57.6" y="189.312" style="stroke: #000000; stroke-width: 0.8"/>
      </g>
     </g>
     <g id="text_13">
      <!-- 20 -->
      <g transform="translate(37.875 193.111219) scale(0.1 -0.1)">
       <use xlink:href="#DejaVuSans-32"/>
       <use xlink:href="#DejaVuSans-30" x="63.623047"/>
      </g>
     </g>
    </g>
    <g id="ytick_6">
     <g id="line2d_25">
      <path d="M 57.6 159.744 
L 414.72 159.744 
" clip-path="url(#p37b5e31e07)" style="fill: none; stroke: #b0b0b0; stroke-width: 0.8; stroke-linecap: square"/>
     </g>
     <g id="line2d_26">
      <g>
       <use xlink:href="#m322bf67f5e" x="57.6" y="159.744" style="stroke: #000000; stroke-width: 0.8"/>
      </g>
     </g>
     <g id="text_14">
      <!-- 25 -->
      <g transform="translate(37.875 163.543219) scale(0.1 -0.1)">
       <use xlink:href="#DejaVuSans-32"/>
       <use xlink:href="#DejaVuSans-35" x="63.623047"/>
      </g>
     </g>
    </g>
    <g id="ytick_7">
     <g id="line2d_27">
      <path d="M 57.6 130.176 
L 414.72 130.176 
" clip-path="url(#p37b5e31e07)" style="fill: none; stroke: #b0b0b0; stroke-width: 0.8; stroke-linecap: square"/>
     </g>
     <g id="line2d_28">
      <g>
       <use xlink:href="#m322bf67f5e" x="57.6" y="130.176" style="stroke: #000000; stroke-width: 0.8"/>
      </g>
     </g>
     <g id="text_15">
      <!-- 30 -->
      <g transform="translate(37.875 133.975219) scale(0.1 -0.1)">
       <defs>
        <path id="DejaVuSans-33" d="M 2597 2516 
Q 3050 2419 3304 2112 
Q 3559 1806 3559 1356 
Q 3559 666 3084 287 
Q 2609 -91 1734 -91 
Q 1441 -91 1130 -33 
Q 819 25 488 141 
L 488 750 
Q 750 597 1062 519 
Q 1375 441 1716 441 
Q 2309 441 2620 675 
Q 2931 909 2931 1356 
Q 2931 1769 2642 2001 
Q 2353 2234 1838 2234 
L 1294 2234 
L 1294 2753 
L 1863 2753 
Q 2328 2753 2575 2939 
Q 2822 3125 2822 3475 
Q 2822 3834 2567 4026 
Q 2313 4219 1838 4219 
Q 1578 4219 1281 4162 
Q 984 4106 628 3988 
L 628 4550 
Q 988 4650 1302 4700 
Q 1616 4750 1894 4750 
Q 2613 4750 3031 4423 
Q 3450 4097 3450 3541 
Q 3450 3153 3228 2886 
Q 3006 2619 2597 2516 
z
" transform="scale(0.015625)"/>
       </defs>
       <use xlink:href="#DejaVuSans-33"/>
       <use xlink:href="#DejaVuSans-30" x="63.623047"/>
      </g>
     </g>
    </g>
    <g id="ytick_8">
     <g id="line2d_29">
      <path d="M 57.6 100.608 
L 414.72 100.608 
" clip-path="url(#p37b5e31e07)" style="fill: none; stroke: #b0b0b0; stroke-width: 0.8; stroke-linecap: square"/>
     </g>
     <g id="line2d_30">
      <g>
       <use xlink:href="#m322bf67f5e" x="57.6" y="100.608" style="stroke: #000000; stroke-width: 0.8"/>
      </g>
     </g>
     <g id="text_16">
      <!-- 35 -->
      <g transform="translate(37.875 104.407219) scale(0.1 -0.1)">
       <use xlink:href="#DejaVuSans-33"/>
       <use xlink:href="#DejaVuSans-35" x="63.623047"/>
      </g>
     </g>
    </g>
    <g id="ytick_9">
     <g id="line2d_31">
      <path d="M 57.6 71.04 
L 414.72 71.04 
" clip-path="url(#p37b5e31e07)" style="fill: none; stroke: #b0b0b0; stroke-width: 0.8; stroke-linecap: square"/>
     </g>
     <g id="line2d_32">
      <g>
       <use xlink:href="#m322bf67f5e" x="57.6" y="71.04" style="stroke: #000000; stroke-width: 0.8"/>
      </g>
     </g>
     <g id="text_17">
      <!-- 40 -->
      <g transform="translate(37.875 74.839219) scale(0.1 -0.1)">
       <use xlink:href="#DejaVuSans-34"/>
       <use xlink:href="#DejaVuSans-30" x="63.623047"/>
      </g>
     </g>
    </g>
    <g id="ytick_10">
     <g id="line2d_33">
      <path d="M 57.6 41.472 
L 414.72 41.472 
" clip-path="url(#p37b5e31e07)" style="fill: none; stroke: #b0b0b0; stroke-width: 0.8; stroke-linecap: square"/>
     </g>
     <g id="line2d_34">
      <g>
       <use xlink:href="#m322bf67f5e" x="57.6" y="41.472" style="stroke: #000000; stroke-width: 0.8"/>
      </g>
     </g>
     <g id="text_18">
      <!-- 45 -->
      <g transform="translate(37.875 45.271219) scale(0.1 -0.1)">
       <use xlink:href="#DejaVuSans-34"/>
       <use xlink:href="#DejaVuSans-35" x="63.623047"/>
      </g>
     </g>
    </g>
    <g id="text_19">
     <!-- Pull Force (N) -->
     <g transform="translate(31.795312 207.745187) rotate(-90) scale(0.1 -0.1)">
      <defs>
       <path id="DejaVuSans-50" d="M 1259 4147 
L 1259 2394 
L 2053 2394 
Q 2494 2394 2734 2622 
Q 2975 2850 2975 3272 
Q 2975 3691 2734 3919 
Q 2494 4147 2053 4147 
L 1259 4147 
z
M 628 4666 
L 2053 4666 
Q 2838 4666 3239 4311 
Q 3641 3956 3641 3272 
Q 3641 2581 3239 2228 
Q 2838 1875 2053 1875 
L 1259 1875 
L 1259 0 
L 628 0 
L 628 4666 
z
" transform="scale(0.015625)"/>
       <path id="DejaVuSans-75" d="M 544 1381 
L 544 3500 
L 1119 3500 
L 1119 1403 
Q 1119 906 1312 657 
Q 1506 409 1894 409 
Q 2359 409 2629 706 
Q 2900 1003 2900 1516 
L 2900 3500 
L 3475 3500 
L 3475 0 
L 2900 0 
L 2900 538 
Q 2691 219 2414 64 
Q 2138 -91 1772 -91 
Q 1169 -91 856 284 
Q 544 659 544 1381 
z
M 1991 3584 
L 1991 3584 
z
" transform="scale(0.015625)"/>
       <path id="DejaVuSans-6c" d="M 603 4863 
L 1178 4863 
L 1178 0 
L 603 0 
L 603 4863 
z
" transform="scale(0.015625)"/>
      </defs>
      <use xlink:href="#DejaVuSans-50"/>
      <use xlink:href="#DejaVuSans-75" x="58.552734"/>
      <use xlink:href="#DejaVuSans-6c" x="121.931641"/>
      <use xlink:href="#DejaVuSans-6c" x="149.714844"/>
      <use xlink:href="#DejaVuSans-20" x="177.498047"/>
      <use xlink:href="#DejaVuSans-46" x="209.285156"/>
      <use xlink:href="#DejaVuSans-6f" x="263.179688"/>
      <use xlink:href="#DejaVuSans-72" x="324.361328"/>
      <use xlink:href="#DejaVuSans-63" x="363.224609"/>
      <use xlink:href="#DejaVuSans-65" x="418.205078"/>
      <use xlink:href="#DejaVuSans-20" x="479.728516"/>
      <use xlink:href="#DejaVuSans-28" x="511.515625"/>
      <use xlink:href="#DejaVuSans-4e" x="550.529297"/>
      <use xlink:href="#DejaVuSans-29" x="625.333984"/>
     </g>
    </g>
   </g>
   <g id="LineCollection_1">
    <path d="M 73.83723 298.139978 
L 73.83723 296.206237 
" clip-path="url(#p37b5e31e07)" style="fill: none; stroke: #ff0000; stroke-width: 1.5"/>
    <path d="M 85.510292 291.470751 
L 85.510292 289.176609 
" clip-path="url(#p37b5e31e07)" style="fill: none; stroke: #ff0000; stroke-width: 1.5"/>
    <path d="M 219.75051 228.955563 
L 219.75051 205.587438 
" clip-path="url(#p37b5e31e07)" style="fill: none; stroke: #ff0000; stroke-width: 1.5"/>
    <path d="M 365.66379 92.68232 
L 365.66379 58.26808 
" clip-path="url(#p37b5e31e07)" style="fill: none; stroke: #ff0000; stroke-width: 1.5"/>
   </g>
   <g id="line2d_35">
    <path d="M 57.6 307.584 
L 62.267633 304.269605 
L 66.935266 300.95521 
L 71.6029 297.640815 
L 76.270533 294.326421 
L 80.938166 291.012026 
L 85.605799 287.697631 
L 90.273432 284.383236 
L 94.941065 281.068841 
L 99.608699 277.754446 
L 104.276332 274.440051 
L 108.943965 271.125656 
L 113.611598 267.811262 
L 118.279231 264.496867 
L 122.946865 261.182472 
L 127.614498 257.868077 
L 132.282131 254.553682 
L 136.949764 251.239287 
L 141.617397 247.924892 
L 146.28503 244.610497 
L 150.952664 241.296103 
L 155.620297 237.981708 
L 160.28793 234.667313 
L 164.955563 231.352918 
L 169.623196 228.038523 
L 174.290829 224.724128 
L 178.958463 221.409733 
L 183.626096 218.095339 
L 188.293729 214.780944 
L 192.961362 211.466549 
L 197.628995 208.152154 
L 202.296629 204.837759 
L 206.964262 201.523364 
L 211.631895 198.208969 
L 216.299528 194.894574 
L 220.967161 191.58018 
L 225.634794 188.265785 
L 230.302428 184.95139 
L 234.970061 181.636995 
L 239.637694 178.3226 
L 244.305327 175.008205 
L 248.97296 171.69381 
L 253.640594 168.379416 
L 258.308227 165.065021 
L 262.97586 161.750626 
L 267.643493 158.436231 
L 272.311126 155.121836 
L 276.978759 151.807441 
L 281.646393 148.493046 
L 286.314026 145.178651 
L 290.981659 141.864257 
L 295.649292 138.549862 
L 300.316925 135.235467 
L 304.984558 131.921072 
L 309.652192 128.606677 
L 314.319825 125.292282 
L 318.987458 121.977887 
L 323.655091 118.663492 
L 328.322724 115.349098 
L 332.990358 112.034703 
L 337.657991 108.720308 
L 342.325624 105.405913 
L 346.993257 102.091518 
L 351.66089 98.777123 
L 356.328523 95.462728 
L 360.996157 92.148334 
L 365.66379 88.833939 
L 370.331423 85.519544 
L 374.999056 82.205149 
L 379.666689 78.890754 
L 384.334323 75.576359 
L 389.001956 72.261964 
L 393.669589 68.947569 
L 398.337222 65.633175 
L 403.004855 62.31878 
L 407.672488 59.004385 
L 412.340122 55.68999 
L 417.007755 52.375595 
L 421.675388 49.0612 
L 426.343021 45.746805 
L 431.010654 42.43241 
L 435.678287 39.118016 
L 440.345921 35.803621 
L 445.013554 32.489226 
L 449.681187 29.174831 
L 454.34882 25.860436 
L 459.016453 22.546041 
L 461.8 20.569499 
" clip-path="url(#p37b5e31e07)" style="fill: none; stroke: #ff0000; stroke-width: 1.5; stroke-linecap: square"/>
   </g>
   <g id="line2d_36">
    <path d="M 57.6 307.584 
L 62.267633 304.161087 
L 66.935266 300.738174 
L 71.6029 297.315262 
L 76.270533 293.892349 
L 80.938166 290.469436 
L 85.605799 287.046523 
L 90.273432 283.62361 
L 94.941065 280.200697 
L 99.608699 276.777785 
L 104.276332 273.354872 
L 108.943965 269.931959 
L 113.611598 266.509046 
L 118.279231 263.086133 
L 122.946865 259.66322 
L 127.614498 256.240308 
L 132.282131 252.817395 
L 136.949764 249.394482 
L 141.617397 245.971569 
L 146.28503 242.548656 
L 150.952664 239.125744 
L 155.620297 235.702831 
L 160.28793 232.279918 
L 164.955563 228.857005 
L 169.623196 225.434092 
L 174.290829 222.011179 
L 178.958463 218.588267 
L 183.626096 215.165354 
L 188.293729 211.742441 
L 192.961362 208.319528 
L 197.628995 204.896615 
L 202.296629 201.473702 
L 206.964262 198.05079 
L 211.631895 194.627877 
L 216.299528 191.204964 
L 220.967161 187.782051 
L 225.634794 184.359138 
L 230.302428 180.936226 
L 234.970061 177.513313 
L 239.637694 174.0904 
L 244.305327 170.667487 
L 248.97296 167.244574 
L 253.640594 163.821661 
L 258.308227 160.398749 
L 262.97586 156.975836 
L 267.643493 153.552923 
L 272.311126 150.13001 
L 276.978759 146.707097 
L 281.646393 143.284184 
L 286.314026 139.861272 
L 290.981659 136.438359 
L 295.649292 133.015446 
L 300.316925 129.592533 
L 304.984558 126.16962 
L 309.652192 122.746708 
L 314.319825 119.323795 
L 318.987458 115.900882 
L 323.655091 112.477969 
L 328.322724 109.055056 
L 332.990358 105.632143 
L 337.657991 102.209231 
L 342.325624 98.786318 
L 346.993257 95.363405 
L 351.66089 91.940492 
L 356.328523 88.517579 
L 360.996157 85.094666 
L 365.66379 81.671754 
L 370.331423 78.248841 
L 374.999056 74.825928 
L 379.666689 71.403015 
L 384.334323 67.980102 
L 389.001956 64.55719 
L 393.669589 61.134277 
L 398.337222 57.711364 
L 403.004855 54.288451 
L 407.672488 50.865538 
L 412.340122 47.442625 
L 417.007755 44.019713 
L 421.675388 40.5968 
L 426.343021 37.173887 
L 431.010654 33.750974 
L 435.678287 30.328061 
L 440.345921 26.905148 
L 445.013554 23.482236 
L 449.681187 20.059323 
L 454.34882 16.63641 
L 459.016453 13.213497 
L 461.8 11.172241 
" clip-path="url(#p37b5e31e07)" style="fill: none; stroke-dasharray: 2.96,1.28; stroke-dashoffset: 0; stroke: #0000ff; stroke-width: 0.8"/>
   </g>
   <g id="line2d_37">
    <path d="M 57.6 307.584 
L 62.267633 304.378123 
L 66.935266 301.172246 
L 71.6029 297.966369 
L 76.270533 294.760492 
L 80.938166 291.554615 
L 85.605799 288.348739 
L 90.273432 285.142862 
L 94.941065 281.936985 
L 99.608699 278.731108 
L 104.276332 275.525231 
L 108.943965 272.319354 
L 113.611598 269.113477 
L 118.279231 265.9076 
L 122.946865 262.701723 
L 127.614498 259.495846 
L 132.282131 256.289969 
L 136.949764 253.084092 
L 141.617397 249.878216 
L 146.28503 246.672339 
L 150.952664 243.466462 
L 155.620297 240.260585 
L 160.28793 237.054708 
L 164.955563 233.848831 
L 169.623196 230.642954 
L 174.290829 227.437077 
L 178.958463 224.2312 
L 183.626096 221.025323 
L 188.293729 217.819446 
L 192.961362 214.613569 
L 197.628995 211.407693 
L 202.296629 208.201816 
L 206.964262 204.995939 
L 211.631895 201.790062 
L 216.299528 198.584185 
L 220.967161 195.378308 
L 225.634794 192.172431 
L 230.302428 188.966554 
L 234.970061 185.760677 
L 239.637694 182.5548 
L 244.305327 179.348923 
L 248.97296 176.143047 
L 253.640594 172.93717 
L 258.308227 169.731293 
L 262.97586 166.525416 
L 267.643493 163.319539 
L 272.311126 160.113662 
L 276.978759 156.907785 
L 281.646393 153.701908 
L 286.314026 150.496031 
L 290.981659 147.290154 
L 295.649292 144.084277 
L 300.316925 140.8784 
L 304.984558 137.672524 
L 309.652192 134.466647 
L 314.319825 131.26077 
L 318.987458 128.054893 
L 323.655091 124.849016 
L 328.322724 121.643139 
L 332.990358 118.437262 
L 337.657991 115.231385 
L 342.325624 112.025508 
L 346.993257 108.819631 
L 351.66089 105.613754 
L 356.328523 102.407877 
L 360.996157 99.202001 
L 365.66379 95.996124 
L 370.331423 92.790247 
L 374.999056 89.58437 
L 379.666689 86.378493 
L 384.334323 83.172616 
L 389.001956 79.966739 
L 393.669589 76.760862 
L 398.337222 73.554985 
L 403.004855 70.349108 
L 407.672488 67.143231 
L 412.340122 63.937354 
L 417.007755 60.731478 
L 421.675388 57.525601 
L 426.343021 54.319724 
L 431.010654 51.113847 
L 435.678287 47.90797 
L 440.345921 44.702093 
L 445.013554 41.496216 
L 449.681187 38.290339 
L 454.34882 35.084462 
L 459.016453 31.878585 
L 461.8 29.966758 
" clip-path="url(#p37b5e31e07)" style="fill: none; stroke-dasharray: 2.96,1.28; stroke-dashoffset: 0; stroke: #0000ff; stroke-width: 0.8"/>
   </g>
   <g id="LineCollection_2">
    <path d="M 73.83723 302.375096 
L 73.83723 301.630984 
" clip-path="url(#p37b5e31e07)" style="fill: none; stroke: #008000; stroke-width: 1.5"/>
    <path d="M 85.510292 299.265416 
L 85.510292 298.457464 
" clip-path="url(#p37b5e31e07)" style="fill: none; stroke: #008000; stroke-width: 1.5"/>
    <path d="M 219.75051 255.983875 
L 219.75051 246.456125 
" clip-path="url(#p37b5e31e07)" style="fill: none; stroke: #008000; stroke-width: 1.5"/>
    <path d="M 365.66379 169.933641 
L 365.66379 159.163959 
" clip-path="url(#p37b5e31e07)" style="fill: none; stroke: #008000; stroke-width: 1.5"/>
   </g>
   <g id="line2d_38">
    <path d="M 57.6 307.584 
L 62.267633 305.539694 
L 66.935266 303.495388 
L 71.6029 301.451082 
L 76.270533 299.406776 
L 80.938166 297.36247 
L 85.605799 295.318164 
L 90.273432 293.273858 
L 94.941065 291.229552 
L 99.608699 289.185246 
L 104.276332 287.14094 
L 108.943965 285.096634 
L 113.611598 283.052328 
L 118.279231 281.008022 
L 122.946865 278.963716 
L 127.614498 276.91941 
L 132.282131 274.875104 
L 136.949764 272.830798 
L 141.617397 270.786492 
L 146.28503 268.742186 
L 150.952664 266.69788 
L 155.620297 264.653574 
L 160.28793 262.609268 
L 164.955563 260.564962 
L 169.623196 258.520656 
L 174.290829 256.47635 
L 178.958463 254.432044 
L 183.626096 252.387738 
L 188.293729 250.343432 
L 192.961362 248.299126 
L 197.628995 246.25482 
L 202.296629 244.210514 
L 206.964262 242.166208 
L 211.631895 240.121902 
L 216.299528 238.077596 
L 220.967161 236.03329 
L 225.634794 233.988984 
L 230.302428 231.944678 
L 234.970061 229.900372 
L 239.637694 227.856066 
L 244.305327 225.81176 
L 248.97296 223.767454 
L 253.640594 221.723148 
L 258.308227 219.678842 
L 262.97586 217.634536 
L 267.643493 215.59023 
L 272.311126 213.545924 
L 276.978759 211.501618 
L 281.646393 209.457312 
L 286.314026 207.413006 
L 290.981659 205.368701 
L 295.649292 203.324395 
L 300.316925 201.280089 
L 304.984558 199.235783 
L 309.652192 197.191477 
L 314.319825 195.147171 
L 318.987458 193.102865 
L 323.655091 191.058559 
L 328.322724 189.014253 
L 332.990358 186.969947 
L 337.657991 184.925641 
L 342.325624 182.881335 
L 346.993257 180.837029 
L 351.66089 178.792723 
L 356.328523 176.748417 
L 360.996157 174.704111 
L 365.66379 172.659805 
L 370.331423 170.615499 
L 374.999056 168.571193 
L 379.666689 166.526887 
L 384.334323 164.482581 
L 389.001956 162.438275 
L 393.669589 160.393969 
L 398.337222 158.349663 
L 403.004855 156.305357 
L 407.672488 154.261051 
L 412.340122 152.216745 
L 417.007755 150.172439 
L 421.675388 148.128133 
L 426.343021 146.083827 
L 431.010654 144.039521 
L 435.678287 141.995215 
L 440.345921 139.950909 
L 445.013554 137.906603 
L 449.681187 135.862297 
L 454.34882 133.817991 
L 459.016453 131.773685 
L 461.8 130.554561 
" clip-path="url(#p37b5e31e07)" style="fill: none; stroke: #008000; stroke-width: 1.5; stroke-linecap: square"/>
   </g>
   <g id="line2d_39">
    <path d="M 57.6 307.584 
L 62.267633 305.311528 
L 66.935266 303.039056 
L 71.6029 300.766584 
L 76.270533 298.494112 
L 80.938166 296.22164 
L 85.605799 293.949168 
L 90.273432 291.676696 
L 94.941065 289.404224 
L 99.608699 287.131752 
L 104.276332 284.859281 
L 108.943965 282.586809 
L 113.611598 280.314337 
L 118.279231 278.041865 
L 122.946865 275.769393 
L 127.614498 273.496921 
L 132.282131 271.224449 
L 136.949764 268.951977 
L 141.617397 266.679505 
L 146.28503 264.407033 
L 150.952664 262.134561 
L 155.620297 259.862089 
L 160.28793 257.589617 
L 164.955563 255.317145 
L 169.623196 253.044673 
L 174.290829 250.772201 
L 178.958463 248.499729 
L 183.626096 246.227257 
L 188.293729 243.954786 
L 192.961362 241.682314 
L 197.628995 239.409842 
L 202.296629 237.13737 
L 206.964262 234.864898 
L 211.631895 232.592426 
L 216.299528 230.319954 
L 220.967161 228.047482 
L 225.634794 225.77501 
L 230.302428 223.502538 
L 234.970061 221.230066 
L 239.637694 218.957594 
L 244.305327 216.685122 
L 248.97296 214.41265 
L 253.640594 212.140178 
L 258.308227 209.867706 
L 262.97586 207.595234 
L 267.643493 205.322762 
L 272.311126 203.050291 
L 276.978759 200.777819 
L 281.646393 198.505347 
L 286.314026 196.232875 
L 290.981659 193.960403 
L 295.649292 191.687931 
L 300.316925 189.415459 
L 304.984558 187.142987 
L 309.652192 184.870515 
L 314.319825 182.598043 
L 318.987458 180.325571 
L 323.655091 178.053099 
L 328.322724 175.780627 
L 332.990358 173.508155 
L 337.657991 171.235683 
L 342.325624 168.963211 
L 346.993257 166.690739 
L 351.66089 164.418267 
L 356.328523 162.145796 
L 360.996157 159.873324 
L 365.66379 157.600852 
L 370.331423 155.32838 
L 374.999056 153.055908 
L 379.666689 150.783436 
L 384.334323 148.510964 
L 389.001956 146.238492 
L 393.669589 143.96602 
L 398.337222 141.693548 
L 403.004855 139.421076 
L 407.672488 137.148604 
L 412.340122 134.876132 
L 417.007755 132.60366 
L 421.675388 130.331188 
L 426.343021 128.058716 
L 431.010654 125.786244 
L 435.678287 123.513772 
L 440.345921 121.241301 
L 445.013554 118.968829 
L 449.681187 116.696357 
L 454.34882 114.423885 
L 459.016453 112.151413 
L 461.8 110.796222 
" clip-path="url(#p37b5e31e07)" style="fill: none; stroke-dasharray: 2.96,1.28; stroke-dashoffset: 0; stroke: #0000ff; stroke-width: 0.8"/>
   </g>
   <g id="line2d_40">
    <path d="M 57.6 307.584 
L 62.267633 305.76786 
L 66.935266 303.95172 
L 71.6029 302.13558 
L 76.270533 300.31944 
L 80.938166 298.5033 
L 85.605799 296.68716 
L 90.273432 294.87102 
L 94.941065 293.05488 
L 99.608699 291.23874 
L 104.276332 289.4226 
L 108.943965 287.60646 
L 113.611598 285.79032 
L 118.279231 283.97418 
L 122.946865 282.15804 
L 127.614498 280.341899 
L 132.282131 278.525759 
L 136.949764 276.709619 
L 141.617397 274.893479 
L 146.28503 273.077339 
L 150.952664 271.261199 
L 155.620297 269.445059 
L 160.28793 267.628919 
L 164.955563 265.812779 
L 169.623196 263.996639 
L 174.290829 262.180499 
L 178.958463 260.364359 
L 183.626096 258.548219 
L 188.293729 256.732079 
L 192.961362 254.915939 
L 197.628995 253.099799 
L 202.296629 251.283659 
L 206.964262 249.467519 
L 211.631895 247.651379 
L 216.299528 245.835239 
L 220.967161 244.019099 
L 225.634794 242.202959 
L 230.302428 240.386819 
L 234.970061 238.570679 
L 239.637694 236.754539 
L 244.305327 234.938399 
L 248.97296 233.122259 
L 253.640594 231.306119 
L 258.308227 229.489979 
L 262.97586 227.673838 
L 267.643493 225.857698 
L 272.311126 224.041558 
L 276.978759 222.225418 
L 281.646393 220.409278 
L 286.314026 218.593138 
L 290.981659 216.776998 
L 295.649292 214.960858 
L 300.316925 213.144718 
L 304.984558 211.328578 
L 309.652192 209.512438 
L 314.319825 207.696298 
L 318.987458 205.880158 
L 323.655091 204.064018 
L 328.322724 202.247878 
L 332.990358 200.431738 
L 337.657991 198.615598 
L 342.325624 196.799458 
L 346.993257 194.983318 
L 351.66089 193.167178 
L 356.328523 191.351038 
L 360.996157 189.534898 
L 365.66379 187.718758 
L 370.331423 185.902618 
L 374.999056 184.086478 
L 379.666689 182.270338 
L 384.334323 180.454198 
L 389.001956 178.638058 
L 393.669589 176.821918 
L 398.337222 175.005777 
L 403.004855 173.189637 
L 407.672488 171.373497 
L 412.340122 169.557357 
L 417.007755 167.741217 
L 421.675388 165.925077 
L 426.343021 164.108937 
L 431.010654 162.292797 
L 435.678287 160.476657 
L 440.345921 158.660517 
L 445.013554 156.844377 
L 449.681187 155.028237 
L 454.34882 153.212097 
L 459.016453 151.395957 
L 461.8 150.312901 
" clip-path="url(#p37b5e31e07)" style="fill: none; stroke-dasharray: 2.96,1.28; stroke-dashoffset: 0; stroke: #0000ff; stroke-width: 0.8"/>
   </g>
   <g id="line2d_41">
    <defs>
     <path id="m6d22f8fc6d" d="M 0 1.5 
C 0.397805 1.5 0.77937 1.341951 1.06066 1.06066 
C 1.341951 0.77937 1.5 0.397805 1.5 0 
C 1.5 -0.397805 1.341951 -0.77937 1.06066 -1.06066 
C 0.77937 -1.341951 0.397805 -1.5 0 -1.5 
C -0.397805 -1.5 -0.77937 -1.341951 -1.06066 -1.06066 
C -1.341951 -0.77937 -1.5 -0.397805 -1.5 0 
C -1.5 0.397805 -1.341951 0.77937 -1.06066 1.06066 
C -0.77937 1.341951 -0.397805 1.5 0 1.5 
z
" style="stroke: #ff0000"/>
    </defs>
    <g clip-path="url(#p37b5e31e07)">
     <use xlink:href="#m6d22f8fc6d" x="73.83723" y="297.173107" style="fill: #ff0000; stroke: #ff0000"/>
     <use xlink:href="#m6d22f8fc6d" x="85.510292" y="290.32368" style="fill: #ff0000; stroke: #ff0000"/>
     <use xlink:href="#m6d22f8fc6d" x="219.75051" y="217.271501" style="fill: #ff0000; stroke: #ff0000"/>
     <use xlink:href="#m6d22f8fc6d" x="365.66379" y="75.4752" style="fill: #ff0000; stroke: #ff0000"/>
    </g>
   </g>
   <g id="line2d_42">
    <defs>
     <path id="m9edf3891aa" d="M 0 1.5 
C 0.397805 1.5 0.77937 1.341951 1.06066 1.06066 
C 1.341951 0.77937 1.5 0.397805 1.5 0 
C 1.5 -0.397805 1.341951 -0.77937 1.06066 -1.06066 
C 0.77937 -1.341951 0.397805 -1.5 0 -1.5 
C -0.397805 -1.5 -0.77937 -1.341951 -1.06066 -1.06066 
C -1.341951 -0.77937 -1.5 -0.397805 -1.5 0 
C -1.5 0.397805 -1.341951 0.77937 -1.06066 1.06066 
C -0.77937 1.341951 -0.397805 1.5 0 1.5 
z
" style="stroke: #008000"/>
    </defs>
    <g clip-path="url(#p37b5e31e07)">
     <use xlink:href="#m9edf3891aa" x="73.83723" y="302.00304" style="fill: #008000; stroke: #008000"/>
     <use xlink:href="#m9edf3891aa" x="85.510292" y="298.86144" style="fill: #008000; stroke: #008000"/>
     <use xlink:href="#m9edf3891aa" x="219.75051" y="251.22" style="fill: #008000; stroke: #008000"/>
     <use xlink:href="#m9edf3891aa" x="365.66379" y="164.5488" style="fill: #008000; stroke: #008000"/>
    </g>
   </g>
   <g id="patch_3">
    <path d="M 57.6 307.584 
L 57.6 41.472 
" style="fill: none; stroke: #000000; stroke-width: 0.8; stroke-linejoin: miter; stroke-linecap: square"/>
   </g>
   <g id="patch_4">
    <path d="M 414.72 307.584 
L 414.72 41.472 
" style="fill: none; stroke: #000000; stroke-width: 0.8; stroke-linejoin: miter; stroke-linecap: square"/>
   </g>
   <g id="patch_5">
    <path d="M 57.6 307.584 
L 414.72 307.584 
" style="fill: none; stroke: #000000; stroke-width: 0.8; stroke-linejoin: miter; stroke-linecap: square"/>
   </g>
   <g id="patch_6">
    <path d="M 57.6 41.472 
L 414.72 41.472 
" style="fill: none; stroke: #000000; stroke-width: 0.8; stroke-linejoin: miter; stroke-linecap: square"/>
   </g>
   <g id="legend_1">
    <g id="patch_7">
     <path d="M 63.431 97.043512 
L 166.141202 97.043512 
Q 167.807202 97.043512 167.807202 95.377512 
L 167.807202 47.303 
Q 167.807202 45.637 166.141202 45.637 
L 63.431 45.637 
Q 61.765 45.637 61.765 47.303 
L 61.765 95.377512 
Q 61.765 97.043512 63.431 97.043512 
z
" style="fill: #ffffff; opacity: 0.8; stroke: #cccccc; stroke-linejoin: miter"/>
    </g>
    <g id="line2d_43">
     <path d="M 65.097 52.382998 
L 73.427 52.382998 
L 81.757 52.382998 
" style="fill: none; stroke: #ff0000; stroke-width: 1.5; stroke-linecap: square"/>
    </g>
    <g id="text_20">
     <!-- Static Force Fit -->
     <g transform="translate(88.421 55.298498) scale(0.0833 -0.0833)">
      <defs>
       <path id="DejaVuSans-53" d="M 3425 4513 
L 3425 3897 
Q 3066 4069 2747 4153 
Q 2428 4238 2131 4238 
Q 1616 4238 1336 4038 
Q 1056 3838 1056 3469 
Q 1056 3159 1242 3001 
Q 1428 2844 1947 2747 
L 2328 2669 
Q 3034 2534 3370 2195 
Q 3706 1856 3706 1288 
Q 3706 609 3251 259 
Q 2797 -91 1919 -91 
Q 1588 -91 1214 -16 
Q 841 59 441 206 
L 441 856 
Q 825 641 1194 531 
Q 1563 422 1919 422 
Q 2459 422 2753 634 
Q 3047 847 3047 1241 
Q 3047 1584 2836 1778 
Q 2625 1972 2144 2069 
L 1759 2144 
Q 1053 2284 737 2584 
Q 422 2884 422 3419 
Q 422 4038 858 4394 
Q 1294 4750 2059 4750 
Q 2388 4750 2728 4690 
Q 3069 4631 3425 4513 
z
" transform="scale(0.015625)"/>
      </defs>
      <use xlink:href="#DejaVuSans-53"/>
      <use xlink:href="#DejaVuSans-74" x="63.476562"/>
      <use xlink:href="#DejaVuSans-61" x="102.685547"/>
      <use xlink:href="#DejaVuSans-74" x="163.964844"/>
      <use xlink:href="#DejaVuSans-69" x="203.173828"/>
      <use xlink:href="#DejaVuSans-63" x="230.957031"/>
      <use xlink:href="#DejaVuSans-20" x="285.9375"/>
      <use xlink:href="#DejaVuSans-46" x="317.724609"/>
      <use xlink:href="#DejaVuSans-6f" x="371.619141"/>
      <use xlink:href="#DejaVuSans-72" x="432.800781"/>
      <use xlink:href="#DejaVuSans-63" x="471.664062"/>
      <use xlink:href="#DejaVuSans-65" x="526.644531"/>
      <use xlink:href="#DejaVuSans-20" x="588.167969"/>
      <use xlink:href="#DejaVuSans-46" x="619.955078"/>
      <use xlink:href="#DejaVuSans-69" x="670.224609"/>
      <use xlink:href="#DejaVuSans-74" x="698.007812"/>
     </g>
    </g>
    <g id="line2d_44">
     <path d="M 65.097 64.609877 
L 73.427 64.609877 
L 81.757 64.609877 
" style="fill: none; stroke: #008000; stroke-width: 1.5; stroke-linecap: square"/>
    </g>
    <g id="text_21">
     <!-- Kinetic Force Fit -->
     <g transform="translate(88.421 67.525377) scale(0.0833 -0.0833)">
      <defs>
       <path id="DejaVuSans-4b" d="M 628 4666 
L 1259 4666 
L 1259 2694 
L 3353 4666 
L 4166 4666 
L 1850 2491 
L 4331 0 
L 3500 0 
L 1259 2247 
L 1259 0 
L 628 0 
L 628 4666 
z
" transform="scale(0.015625)"/>
       <path id="DejaVuSans-6e" d="M 3513 2113 
L 3513 0 
L 2938 0 
L 2938 2094 
Q 2938 2591 2744 2837 
Q 2550 3084 2163 3084 
Q 1697 3084 1428 2787 
Q 1159 2491 1159 1978 
L 1159 0 
L 581 0 
L 581 3500 
L 1159 3500 
L 1159 2956 
Q 1366 3272 1645 3428 
Q 1925 3584 2291 3584 
Q 2894 3584 3203 3211 
Q 3513 2838 3513 2113 
z
" transform="scale(0.015625)"/>
      </defs>
      <use xlink:href="#DejaVuSans-4b"/>
      <use xlink:href="#DejaVuSans-69" x="65.576172"/>
      <use xlink:href="#DejaVuSans-6e" x="93.359375"/>
      <use xlink:href="#DejaVuSans-65" x="156.738281"/>
      <use xlink:href="#DejaVuSans-74" x="218.261719"/>
      <use xlink:href="#DejaVuSans-69" x="257.470703"/>
      <use xlink:href="#DejaVuSans-63" x="285.253906"/>
      <use xlink:href="#DejaVuSans-20" x="340.234375"/>
      <use xlink:href="#DejaVuSans-46" x="372.021484"/>
      <use xlink:href="#DejaVuSans-6f" x="425.916016"/>
      <use xlink:href="#DejaVuSans-72" x="487.097656"/>
      <use xlink:href="#DejaVuSans-63" x="525.960938"/>
      <use xlink:href="#DejaVuSans-65" x="580.941406"/>
      <use xlink:href="#DejaVuSans-20" x="642.464844"/>
      <use xlink:href="#DejaVuSans-46" x="674.251953"/>
      <use xlink:href="#DejaVuSans-69" x="724.521484"/>
      <use xlink:href="#DejaVuSans-74" x="752.304688"/>
     </g>
    </g>
    <g id="LineCollection_3">
     <path d="M 73.427 81.001755 
L 73.427 72.671755 
" style="fill: none; stroke: #ff0000; stroke-width: 1.5"/>
    </g>
    <g id="line2d_45"/>
    <g id="line2d_46">
     <g>
      <use xlink:href="#m6d22f8fc6d" x="73.427" y="76.836755" style="fill: #ff0000; stroke: #ff0000"/>
     </g>
    </g>
    <g id="text_22">
     <!-- Static Force Data -->
     <g transform="translate(88.421 79.752255) scale(0.0833 -0.0833)">
      <defs>
       <path id="DejaVuSans-44" d="M 1259 4147 
L 1259 519 
L 2022 519 
Q 2988 519 3436 956 
Q 3884 1394 3884 2338 
Q 3884 3275 3436 3711 
Q 2988 4147 2022 4147 
L 1259 4147 
z
M 628 4666 
L 1925 4666 
Q 3281 4666 3915 4102 
Q 4550 3538 4550 2338 
Q 4550 1131 3912 565 
Q 3275 0 1925 0 
L 628 0 
L 628 4666 
z
" transform="scale(0.015625)"/>
      </defs>
      <use xlink:href="#DejaVuSans-53"/>
      <use xlink:href="#DejaVuSans-74" x="63.476562"/>
      <use xlink:href="#DejaVuSans-61" x="102.685547"/>
      <use xlink:href="#DejaVuSans-74" x="163.964844"/>
      <use xlink:href="#DejaVuSans-69" x="203.173828"/>
      <use xlink:href="#DejaVuSans-63" x="230.957031"/>
      <use xlink:href="#DejaVuSans-20" x="285.9375"/>
      <use xlink:href="#DejaVuSans-46" x="317.724609"/>
      <use xlink:href="#DejaVuSans-6f" x="371.619141"/>
      <use xlink:href="#DejaVuSans-72" x="432.800781"/>
      <use xlink:href="#DejaVuSans-63" x="471.664062"/>
      <use xlink:href="#DejaVuSans-65" x="526.644531"/>
      <use xlink:href="#DejaVuSans-20" x="588.167969"/>
      <use xlink:href="#DejaVuSans-44" x="619.955078"/>
      <use xlink:href="#DejaVuSans-61" x="696.957031"/>
      <use xlink:href="#DejaVuSans-74" x="758.236328"/>
      <use xlink:href="#DejaVuSans-61" x="797.445312"/>
     </g>
    </g>
    <g id="LineCollection_4">
     <path d="M 73.427 93.228633 
L 73.427 84.898633 
" style="fill: none; stroke: #008000; stroke-width: 1.5"/>
    </g>
    <g id="line2d_47"/>
    <g id="line2d_48">
     <g>
      <use xlink:href="#m9edf3891aa" x="73.427" y="89.063633" style="fill: #008000; stroke: #008000"/>
     </g>
    </g>
    <g id="text_23">
     <!-- Kinetic Force Data -->
     <g transform="translate(88.421 91.979133) scale(0.0833 -0.0833)">
      <use xlink:href="#DejaVuSans-4b"/>
      <use xlink:href="#DejaVuSans-69" x="65.576172"/>
      <use xlink:href="#DejaVuSans-6e" x="93.359375"/>
      <use xlink:href="#DejaVuSans-65" x="156.738281"/>
      <use xlink:href="#DejaVuSans-74" x="218.261719"/>
      <use xlink:href="#DejaVuSans-69" x="257.470703"/>
      <use xlink:href="#DejaVuSans-63" x="285.253906"/>
      <use xlink:href="#DejaVuSans-20" x="340.234375"/>
      <use xlink:href="#DejaVuSans-46" x="372.021484"/>
      <use xlink:href="#DejaVuSans-6f" x="425.916016"/>
      <use xlink:href="#DejaVuSans-72" x="487.097656"/>
      <use xlink:href="#DejaVuSans-63" x="525.960938"/>
      <use xlink:href="#DejaVuSans-65" x="580.941406"/>
      <use xlink:href="#DejaVuSans-20" x="642.464844"/>
      <use xlink:href="#DejaVuSans-44" x="674.251953"/>
      <use xlink:href="#DejaVuSans-61" x="751.253906"/>
      <use xlink:href="#DejaVuSans-74" x="812.533203"/>
      <use xlink:href="#DejaVuSans-61" x="851.742188"/>
     </g>
    </g>
   </g>
  </g>
 </g>
 <defs>
  <clipPath id="p37b5e31e07">
   <rect x="57.6" y="41.472" width="357.12" height="266.112"/>
  </clipPath>
 </defs>
</svg>
