<?xml version="1.0" encoding="utf-8" standalone="no"?>
<!DOCTYPE svg PUBLIC "-//W3C//DTD SVG 1.1//EN"
  "http://www.w3.org/Graphics/SVG/1.1/DTD/svg11.dtd">
<svg xmlns:xlink="http://www.w3.org/1999/xlink" width="460.8pt" height="345.6pt" viewBox="0 0 460.8 345.6" xmlns="http://www.w3.org/2000/svg" version="1.1">
 <metadata>
  <rdf:RDF xmlns:dc="http://purl.org/dc/elements/1.1/" xmlns:cc="http://creativecommons.org/ns#" xmlns:rdf="http://www.w3.org/1999/02/22-rdf-syntax-ns#">
   <cc:Work>
    <dc:type rdf:resource="http://purl.org/dc/dcmitype/StillImage"/>
    <dc:date>2024-11-18T14:36:49.621636</dc:date>
    <dc:format>image/svg+xml</dc:format>
    <dc:creator>
     <cc:Agent>
      <dc:title>Matplotlib v3.9.2, https://matplotlib.org/</dc:title>
     </cc:Agent>
    </dc:creator>
   </cc:Work>
  </rdf:RDF>
 </metadata>
 <defs>
  <style type="text/css">*{stroke-linejoin: round; stroke-linecap: butt}</style>
 </defs>
 <g id="figure_1">
  <g id="patch_1">
   <path d="M 0 345.6 
L 460.8 345.6 
L 460.8 0 
L 0 0 
z
" style="fill: #ffffff"/>
  </g>
  <g id="axes_1">
   <g id="patch_2">
    <path d="M 57.6 307.584 
L 414.72 307.584 
L 414.72 41.472 
L 57.6 41.472 
z
" style="fill: #ffffff"/>
   </g>
   <g id="PolyCollection_1">
    <defs>
     <path id="ma51e55cafc" d="M 57.6 -38.016 
L 57.6 -38.016 
L 62.223782 -39.815078 
L 66.847563 -41.614155 
L 71.471345 -43.413233 
L 76.095126 -45.212311 
L 80.718908 -47.011389 
L 85.34269 -48.810466 
L 89.966471 -50.609544 
L 94.590253 -52.408622 
L 99.214034 -54.207699 
L 103.837816 -56.006777 
L 108.461597 -57.805855 
L 113.085379 -59.604933 
L 117.709161 -61.40401 
L 122.332942 -63.203088 
L 126.956724 -65.002166 
L 131.580505 -66.801244 
L 136.204287 -68.600321 
L 140.828069 -70.399399 
L 145.45185 -72.198477 
L 150.075632 -73.997554 
L 154.699413 -75.796632 
L 159.323195 -77.59571 
L 163.946977 -79.394788 
L 168.570758 -81.193865 
L 173.19454 -82.992943 
L 177.818321 -84.792021 
L 182.442103 -86.591098 
L 187.065884 -88.390176 
L 191.689666 -90.189254 
L 196.313448 -91.988332 
L 200.937229 -93.787409 
L 205.561011 -95.586487 
L 210.184792 -97.385565 
L 214.808574 -99.184642 
L 219.432356 -100.98372 
L 224.056137 -102.782798 
L 228.679919 -104.581876 
L 233.3037 -106.380953 
L 237.927482 -108.180031 
L 242.551264 -109.979109 
L 247.175045 -111.778186 
L 251.798827 -113.577264 
L 256.422608 -115.376342 
L 261.04639 -117.17542 
L 265.670171 -118.974497 
L 270.293953 -120.773575 
L 274.917735 -122.572653 
L 279.541516 -124.371731 
L 284.165298 -126.170808 
L 288.789079 -127.969886 
L 293.412861 -129.768964 
L 298.036643 -131.568041 
L 302.660424 -133.367119 
L 307.284206 -135.166197 
L 311.907987 -136.965275 
L 316.531769 -138.764352 
L 321.15555 -140.56343 
L 325.779332 -142.362508 
L 330.403114 -144.161585 
L 335.026895 -145.960663 
L 339.650677 -147.759741 
L 344.274458 -149.558819 
L 348.89824 -151.357896 
L 353.522022 -153.156974 
L 358.145803 -154.956052 
L 362.769585 -156.755129 
L 367.393366 -158.554207 
L 372.017148 -160.353285 
L 376.64093 -162.152363 
L 381.264711 -163.95144 
L 385.888493 -165.750518 
L 390.512274 -167.549596 
L 395.136056 -169.348673 
L 399.759837 -171.147751 
L 404.383619 -172.946829 
L 409.007401 -174.745907 
L 413.631182 -176.544984 
L 418.254964 -178.344062 
L 422.878745 -180.14314 
L 427.502527 -181.942218 
L 432.126309 -183.741295 
L 436.75009 -185.540373 
L 441.373872 -187.339451 
L 445.997653 -189.138528 
L 450.621435 -190.937606 
L 455.245217 -192.736684 
L 459.868998 -194.535762 
L 464.49278 -196.334839 
L 469.116561 -198.133917 
L 473.740343 -199.932995 
L 478.364124 -201.732072 
L 482.987906 -203.53115 
L 487.611688 -205.330228 
L 492.235469 -207.129306 
L 496.859251 -208.928383 
L 501.483032 -210.727461 
L 506.106814 -212.526539 
L 510.730596 -214.325616 
L 515.354377 -216.124694 
L 515.354377 -260.877125 
L 515.354377 -260.877125 
L 510.730596 -258.626002 
L 506.106814 -256.37488 
L 501.483032 -254.123757 
L 496.859251 -251.872635 
L 492.235469 -249.621512 
L 487.611688 -247.37039 
L 482.987906 -245.119267 
L 478.364124 -242.868145 
L 473.740343 -240.617022 
L 469.116561 -238.3659 
L 464.49278 -236.114778 
L 459.868998 -233.863655 
L 455.245217 -231.612533 
L 450.621435 -229.36141 
L 445.997653 -227.110288 
L 441.373872 -224.859165 
L 436.75009 -222.608043 
L 432.126309 -220.35692 
L 427.502527 -218.105798 
L 422.878745 -215.854675 
L 418.254964 -213.603553 
L 413.631182 -211.35243 
L 409.007401 -209.101308 
L 404.383619 -206.850185 
L 399.759837 -204.599063 
L 395.136056 -202.34794 
L 390.512274 -200.096818 
L 385.888493 -197.845695 
L 381.264711 -195.594573 
L 376.64093 -193.343451 
L 372.017148 -191.092328 
L 367.393366 -188.841206 
L 362.769585 -186.590083 
L 358.145803 -184.338961 
L 353.522022 -182.087838 
L 348.89824 -179.836716 
L 344.274458 -177.585593 
L 339.650677 -175.334471 
L 335.026895 -173.083348 
L 330.403114 -170.832226 
L 325.779332 -168.581103 
L 321.15555 -166.329981 
L 316.531769 -164.078858 
L 311.907987 -161.827736 
L 307.284206 -159.576613 
L 302.660424 -157.325491 
L 298.036643 -155.074369 
L 293.412861 -152.823246 
L 288.789079 -150.572124 
L 284.165298 -148.321001 
L 279.541516 -146.069879 
L 274.917735 -143.818756 
L 270.293953 -141.567634 
L 265.670171 -139.316511 
L 261.04639 -137.065389 
L 256.422608 -134.814266 
L 251.798827 -132.563144 
L 247.175045 -130.312021 
L 242.551264 -128.060899 
L 237.927482 -125.809776 
L 233.3037 -123.558654 
L 228.679919 -121.307531 
L 224.056137 -119.056409 
L 219.432356 -116.805287 
L 214.808574 -114.554164 
L 210.184792 -112.303042 
L 205.561011 -110.051919 
L 200.937229 -107.800797 
L 196.313448 -105.549674 
L 191.689666 -103.298552 
L 187.065884 -101.047429 
L 182.442103 -98.796307 
L 177.818321 -96.545184 
L 173.19454 -94.294062 
L 168.570758 -92.042939 
L 163.946977 -89.791817 
L 159.323195 -87.540694 
L 154.699413 -85.289572 
L 150.075632 -83.038449 
L 145.45185 -80.787327 
L 140.828069 -78.536204 
L 136.204287 -76.285082 
L 131.580505 -74.03396 
L 126.956724 -71.782837 
L 122.332942 -69.531715 
L 117.709161 -67.280592 
L 113.085379 -65.02947 
L 108.461597 -62.778347 
L 103.837816 -60.527225 
L 99.214034 -58.276102 
L 94.590253 -56.02498 
L 89.966471 -53.773857 
L 85.34269 -51.522735 
L 80.718908 -49.271612 
L 76.095126 -47.02049 
L 71.471345 -44.769367 
L 66.847563 -42.518245 
L 62.223782 -40.267122 
L 57.6 -38.016 
z
" style="stroke: #808080; stroke-opacity: 0.3"/>
    </defs>
    <g clip-path="url(#pc29d5de012)">
     <use xlink:href="#ma51e55cafc" x="0" y="345.6" style="fill: #808080; fill-opacity: 0.3; stroke: #808080; stroke-opacity: 0.3"/>
    </g>
   </g>
   <g id="PolyCollection_2">
    <defs>
     <path id="m763eba92a0" d="M 57.6 -38.016 
L 57.6 -38.016 
L 62.223782 -39.518308 
L 66.847563 -41.020615 
L 71.471345 -42.522923 
L 76.095126 -44.025231 
L 80.718908 -45.527538 
L 85.34269 -47.029846 
L 89.966471 -48.532153 
L 94.590253 -50.034461 
L 99.214034 -51.536769 
L 103.837816 -53.039076 
L 108.461597 -54.541384 
L 113.085379 -56.043692 
L 117.709161 -57.545999 
L 122.332942 -59.048307 
L 126.956724 -60.550615 
L 131.580505 -62.052922 
L 136.204287 -63.55523 
L 140.828069 -65.057537 
L 145.45185 -66.559845 
L 150.075632 -68.062153 
L 154.699413 -69.56446 
L 159.323195 -71.066768 
L 163.946977 -72.569076 
L 168.570758 -74.071383 
L 173.19454 -75.573691 
L 177.818321 -77.075998 
L 182.442103 -78.578306 
L 187.065884 -80.080614 
L 191.689666 -81.582921 
L 196.313448 -83.085229 
L 200.937229 -84.587537 
L 205.561011 -86.089844 
L 210.184792 -87.592152 
L 214.808574 -89.09446 
L 219.432356 -90.596767 
L 224.056137 -92.099075 
L 228.679919 -93.601382 
L 233.3037 -95.10369 
L 237.927482 -96.605998 
L 242.551264 -98.108305 
L 247.175045 -99.610613 
L 251.798827 -101.112921 
L 256.422608 -102.615228 
L 261.04639 -104.117536 
L 265.670171 -105.619844 
L 270.293953 -107.122151 
L 274.917735 -108.624459 
L 279.541516 -110.126766 
L 284.165298 -111.629074 
L 288.789079 -113.131382 
L 293.412861 -114.633689 
L 298.036643 -116.135997 
L 302.660424 -117.638305 
L 307.284206 -119.140612 
L 311.907987 -120.64292 
L 316.531769 -122.145227 
L 321.15555 -123.647535 
L 325.779332 -125.149843 
L 330.403114 -126.65215 
L 335.026895 -128.154458 
L 339.650677 -129.656766 
L 344.274458 -131.159073 
L 348.89824 -132.661381 
L 353.522022 -134.163689 
L 358.145803 -135.665996 
L 362.769585 -137.168304 
L 367.393366 -138.670611 
L 372.017148 -140.172919 
L 376.64093 -141.675227 
L 381.264711 -143.177534 
L 385.888493 -144.679842 
L 390.512274 -146.18215 
L 395.136056 -147.684457 
L 399.759837 -149.186765 
L 404.383619 -150.689073 
L 409.007401 -152.19138 
L 413.631182 -153.693688 
L 418.254964 -155.195995 
L 422.878745 -156.698303 
L 427.502527 -158.200611 
L 432.126309 -159.702918 
L 436.75009 -161.205226 
L 441.373872 -162.707534 
L 445.997653 -164.209841 
L 450.621435 -165.712149 
L 455.245217 -167.214456 
L 459.868998 -168.716764 
L 464.49278 -170.219072 
L 469.116561 -171.721379 
L 473.740343 -173.223687 
L 478.364124 -174.725995 
L 482.987906 -176.228302 
L 487.611688 -177.73061 
L 492.235469 -179.232918 
L 496.859251 -180.735225 
L 501.483032 -182.237533 
L 506.106814 -183.73984 
L 510.730596 -185.242148 
L 515.354377 -186.744456 
L 515.354377 -226.948875 
L 515.354377 -226.948875 
L 510.730596 -225.040462 
L 506.106814 -223.132049 
L 501.483032 -221.223636 
L 496.859251 -219.315223 
L 492.235469 -217.406811 
L 487.611688 -215.498398 
L 482.987906 -213.589985 
L 478.364124 -211.681572 
L 473.740343 -209.773159 
L 469.116561 -207.864746 
L 464.49278 -205.956333 
L 459.868998 -204.04792 
L 455.245217 -202.139508 
L 450.621435 -200.231095 
L 445.997653 -198.322682 
L 441.373872 -196.414269 
L 436.75009 -194.505856 
L 432.126309 -192.597443 
L 427.502527 -190.68903 
L 422.878745 -188.780617 
L 418.254964 -186.872205 
L 413.631182 -184.963792 
L 409.007401 -183.055379 
L 404.383619 -181.146966 
L 399.759837 -179.238553 
L 395.136056 -177.33014 
L 390.512274 -175.421727 
L 385.888493 -173.513314 
L 381.264711 -171.604902 
L 376.64093 -169.696489 
L 372.017148 -167.788076 
L 367.393366 -165.879663 
L 362.769585 -163.97125 
L 358.145803 -162.062837 
L 353.522022 -160.154424 
L 348.89824 -158.246011 
L 344.274458 -156.337598 
L 339.650677 -154.429186 
L 335.026895 -152.520773 
L 330.403114 -150.61236 
L 325.779332 -148.703947 
L 321.15555 -146.795534 
L 316.531769 -144.887121 
L 311.907987 -142.978708 
L 307.284206 -141.070295 
L 302.660424 -139.161883 
L 298.036643 -137.25347 
L 293.412861 -135.345057 
L 288.789079 -133.436644 
L 284.165298 -131.528231 
L 279.541516 -129.619818 
L 274.917735 -127.711405 
L 270.293953 -125.802992 
L 265.670171 -123.89458 
L 261.04639 -121.986167 
L 256.422608 -120.077754 
L 251.798827 -118.169341 
L 247.175045 -116.260928 
L 242.551264 -114.352515 
L 237.927482 -112.444102 
L 233.3037 -110.535689 
L 228.679919 -108.627277 
L 224.056137 -106.718864 
L 219.432356 -104.810451 
L 214.808574 -102.902038 
L 210.184792 -100.993625 
L 205.561011 -99.085212 
L 200.937229 -97.176799 
L 196.313448 -95.268386 
L 191.689666 -93.359973 
L 187.065884 -91.451561 
L 182.442103 -89.543148 
L 177.818321 -87.634735 
L 173.19454 -85.726322 
L 168.570758 -83.817909 
L 163.946977 -81.909496 
L 159.323195 -80.001083 
L 154.699413 -78.09267 
L 150.075632 -76.184258 
L 145.45185 -74.275845 
L 140.828069 -72.367432 
L 136.204287 -70.459019 
L 131.580505 -68.550606 
L 126.956724 -66.642193 
L 122.332942 -64.73378 
L 117.709161 -62.825367 
L 113.085379 -60.916955 
L 108.461597 -59.008542 
L 103.837816 -57.100129 
L 99.214034 -55.191716 
L 94.590253 -53.283303 
L 89.966471 -51.37489 
L 85.34269 -49.466477 
L 80.718908 -47.558064 
L 76.095126 -45.649652 
L 71.471345 -43.741239 
L 66.847563 -41.832826 
L 62.223782 -39.924413 
L 57.6 -38.016 
z
" style="stroke: #808080; stroke-opacity: 0.3"/>
    </defs>
    <g clip-path="url(#pc29d5de012)">
     <use xlink:href="#m763eba92a0" x="0" y="345.6" style="fill: #808080; fill-opacity: 0.3; stroke: #808080; stroke-opacity: 0.3"/>
    </g>
   </g>
   <g id="matplotlib.axis_1">
    <g id="xtick_1">
     <g id="line2d_1">
      <path d="M 57.6 307.584 
L 57.6 41.472 
" clip-path="url(#pc29d5de012)" style="fill: none; stroke: #b0b0b0; stroke-width: 0.8; stroke-linecap: square"/>
     </g>
     <g id="line2d_2">
      <defs>
       <path id="m6f379e90ee" d="M 0 0 
L 0 3.5 
" style="stroke: #000000; stroke-width: 0.8"/>
      </defs>
      <g>
       <use xlink:href="#m6f379e90ee" x="57.6" y="307.584" style="stroke: #000000; stroke-width: 0.8"/>
      </g>
     </g>
     <g id="text_1">
      <!-- 0 -->
      <g transform="translate(54.41875 322.182437) scale(0.1 -0.1)">
       <defs>
        <path id="DejaVuSans-30" d="M 2034 4250 
Q 1547 4250 1301 3770 
Q 1056 3291 1056 2328 
Q 1056 1369 1301 889 
Q 1547 409 2034 409 
Q 2525 409 2770 889 
Q 3016 1369 3016 2328 
Q 3016 3291 2770 3770 
Q 2525 4250 2034 4250 
z
M 2034 4750 
Q 2819 4750 3233 4129 
Q 3647 3509 3647 2328 
Q 3647 1150 3233 529 
Q 2819 -91 2034 -91 
Q 1250 -91 836 529 
Q 422 1150 422 2328 
Q 422 3509 836 4129 
Q 1250 4750 2034 4750 
z
" transform="scale(0.015625)"/>
       </defs>
       <use xlink:href="#DejaVuSans-30"/>
      </g>
     </g>
    </g>
    <g id="xtick_2">
     <g id="line2d_3">
      <path d="M 117.12 307.584 
L 117.12 41.472 
" clip-path="url(#pc29d5de012)" style="fill: none; stroke: #b0b0b0; stroke-width: 0.8; stroke-linecap: square"/>
     </g>
     <g id="line2d_4">
      <g>
       <use xlink:href="#m6f379e90ee" x="117.12" y="307.584" style="stroke: #000000; stroke-width: 0.8"/>
      </g>
     </g>
     <g id="text_2">
      <!-- 20 -->
      <g transform="translate(110.7575 322.182437) scale(0.1 -0.1)">
       <defs>
        <path id="DejaVuSans-32" d="M 1228 531 
L 3431 531 
L 3431 0 
L 469 0 
L 469 531 
Q 828 903 1448 1529 
Q 2069 2156 2228 2338 
Q 2531 2678 2651 2914 
Q 2772 3150 2772 3378 
Q 2772 3750 2511 3984 
Q 2250 4219 1831 4219 
Q 1534 4219 1204 4116 
Q 875 4013 500 3803 
L 500 4441 
Q 881 4594 1212 4672 
Q 1544 4750 1819 4750 
Q 2544 4750 2975 4387 
Q 3406 4025 3406 3419 
Q 3406 3131 3298 2873 
Q 3191 2616 2906 2266 
Q 2828 2175 2409 1742 
Q 1991 1309 1228 531 
z
" transform="scale(0.015625)"/>
       </defs>
       <use xlink:href="#DejaVuSans-32"/>
       <use xlink:href="#DejaVuSans-30" x="63.623047"/>
      </g>
     </g>
    </g>
    <g id="xtick_3">
     <g id="line2d_5">
      <path d="M 176.64 307.584 
L 176.64 41.472 
" clip-path="url(#pc29d5de012)" style="fill: none; stroke: #b0b0b0; stroke-width: 0.8; stroke-linecap: square"/>
     </g>
     <g id="line2d_6">
      <g>
       <use xlink:href="#m6f379e90ee" x="176.64" y="307.584" style="stroke: #000000; stroke-width: 0.8"/>
      </g>
     </g>
     <g id="text_3">
      <!-- 40 -->
      <g transform="translate(170.2775 322.182437) scale(0.1 -0.1)">
       <defs>
        <path id="DejaVuSans-34" d="M 2419 4116 
L 825 1625 
L 2419 1625 
L 2419 4116 
z
M 2253 4666 
L 3047 4666 
L 3047 1625 
L 3713 1625 
L 3713 1100 
L 3047 1100 
L 3047 0 
L 2419 0 
L 2419 1100 
L 313 1100 
L 313 1709 
L 2253 4666 
z
" transform="scale(0.015625)"/>
       </defs>
       <use xlink:href="#DejaVuSans-34"/>
       <use xlink:href="#DejaVuSans-30" x="63.623047"/>
      </g>
     </g>
    </g>
    <g id="xtick_4">
     <g id="line2d_7">
      <path d="M 236.16 307.584 
L 236.16 41.472 
" clip-path="url(#pc29d5de012)" style="fill: none; stroke: #b0b0b0; stroke-width: 0.8; stroke-linecap: square"/>
     </g>
     <g id="line2d_8">
      <g>
       <use xlink:href="#m6f379e90ee" x="236.16" y="307.584" style="stroke: #000000; stroke-width: 0.8"/>
      </g>
     </g>
     <g id="text_4">
      <!-- 60 -->
      <g transform="translate(229.7975 322.182437) scale(0.1 -0.1)">
       <defs>
        <path id="DejaVuSans-36" d="M 2113 2584 
Q 1688 2584 1439 2293 
Q 1191 2003 1191 1497 
Q 1191 994 1439 701 
Q 1688 409 2113 409 
Q 2538 409 2786 701 
Q 3034 994 3034 1497 
Q 3034 2003 2786 2293 
Q 2538 2584 2113 2584 
z
M 3366 4563 
L 3366 3988 
Q 3128 4100 2886 4159 
Q 2644 4219 2406 4219 
Q 1781 4219 1451 3797 
Q 1122 3375 1075 2522 
Q 1259 2794 1537 2939 
Q 1816 3084 2150 3084 
Q 2853 3084 3261 2657 
Q 3669 2231 3669 1497 
Q 3669 778 3244 343 
Q 2819 -91 2113 -91 
Q 1303 -91 875 529 
Q 447 1150 447 2328 
Q 447 3434 972 4092 
Q 1497 4750 2381 4750 
Q 2619 4750 2861 4703 
Q 3103 4656 3366 4563 
z
" transform="scale(0.015625)"/>
       </defs>
       <use xlink:href="#DejaVuSans-36"/>
       <use xlink:href="#DejaVuSans-30" x="63.623047"/>
      </g>
     </g>
    </g>
    <g id="xtick_5">
     <g id="line2d_9">
      <path d="M 295.68 307.584 
L 295.68 41.472 
" clip-path="url(#pc29d5de012)" style="fill: none; stroke: #b0b0b0; stroke-width: 0.8; stroke-linecap: square"/>
     </g>
     <g id="line2d_10">
      <g>
       <use xlink:href="#m6f379e90ee" x="295.68" y="307.584" style="stroke: #000000; stroke-width: 0.8"/>
      </g>
     </g>
     <g id="text_5">
      <!-- 80 -->
      <g transform="translate(289.3175 322.182437) scale(0.1 -0.1)">
       <defs>
        <path id="DejaVuSans-38" d="M 2034 2216 
Q 1584 2216 1326 1975 
Q 1069 1734 1069 1313 
Q 1069 891 1326 650 
Q 1584 409 2034 409 
Q 2484 409 2743 651 
Q 3003 894 3003 1313 
Q 3003 1734 2745 1975 
Q 2488 2216 2034 2216 
z
M 1403 2484 
Q 997 2584 770 2862 
Q 544 3141 544 3541 
Q 544 4100 942 4425 
Q 1341 4750 2034 4750 
Q 2731 4750 3128 4425 
Q 3525 4100 3525 3541 
Q 3525 3141 3298 2862 
Q 3072 2584 2669 2484 
Q 3125 2378 3379 2068 
Q 3634 1759 3634 1313 
Q 3634 634 3220 271 
Q 2806 -91 2034 -91 
Q 1263 -91 848 271 
Q 434 634 434 1313 
Q 434 1759 690 2068 
Q 947 2378 1403 2484 
z
M 1172 3481 
Q 1172 3119 1398 2916 
Q 1625 2713 2034 2713 
Q 2441 2713 2670 2916 
Q 2900 3119 2900 3481 
Q 2900 3844 2670 4047 
Q 2441 4250 2034 4250 
Q 1625 4250 1398 4047 
Q 1172 3844 1172 3481 
z
" transform="scale(0.015625)"/>
       </defs>
       <use xlink:href="#DejaVuSans-38"/>
       <use xlink:href="#DejaVuSans-30" x="63.623047"/>
      </g>
     </g>
    </g>
    <g id="xtick_6">
     <g id="line2d_11">
      <path d="M 355.2 307.584 
L 355.2 41.472 
" clip-path="url(#pc29d5de012)" style="fill: none; stroke: #b0b0b0; stroke-width: 0.8; stroke-linecap: square"/>
     </g>
     <g id="line2d_12">
      <g>
       <use xlink:href="#m6f379e90ee" x="355.2" y="307.584" style="stroke: #000000; stroke-width: 0.8"/>
      </g>
     </g>
     <g id="text_6">
      <!-- 100 -->
      <g transform="translate(345.65625 322.182437) scale(0.1 -0.1)">
       <defs>
        <path id="DejaVuSans-31" d="M 794 531 
L 1825 531 
L 1825 4091 
L 703 3866 
L 703 4441 
L 1819 4666 
L 2450 4666 
L 2450 531 
L 3481 531 
L 3481 0 
L 794 0 
L 794 531 
z
" transform="scale(0.015625)"/>
       </defs>
       <use xlink:href="#DejaVuSans-31"/>
       <use xlink:href="#DejaVuSans-30" x="63.623047"/>
       <use xlink:href="#DejaVuSans-30" x="127.246094"/>
      </g>
     </g>
    </g>
    <g id="xtick_7">
     <g id="line2d_13">
      <path d="M 414.72 307.584 
L 414.72 41.472 
" clip-path="url(#pc29d5de012)" style="fill: none; stroke: #b0b0b0; stroke-width: 0.8; stroke-linecap: square"/>
     </g>
     <g id="line2d_14">
      <g>
       <use xlink:href="#m6f379e90ee" x="414.72" y="307.584" style="stroke: #000000; stroke-width: 0.8"/>
      </g>
     </g>
     <g id="text_7">
      <!-- 120 -->
      <g transform="translate(405.17625 322.182437) scale(0.1 -0.1)">
       <use xlink:href="#DejaVuSans-31"/>
       <use xlink:href="#DejaVuSans-32" x="63.623047"/>
       <use xlink:href="#DejaVuSans-30" x="127.246094"/>
      </g>
     </g>
    </g>
    <g id="text_8">
     <!-- Normal Force (N) -->
     <g transform="translate(193.725625 335.860562) scale(0.1 -0.1)">
      <defs>
       <path id="DejaVuSans-4e" d="M 628 4666 
L 1478 4666 
L 3547 763 
L 3547 4666 
L 4159 4666 
L 4159 0 
L 3309 0 
L 1241 3903 
L 1241 0 
L 628 0 
L 628 4666 
z
" transform="scale(0.015625)"/>
       <path id="DejaVuSans-6f" d="M 1959 3097 
Q 1497 3097 1228 2736 
Q 959 2375 959 1747 
Q 959 1119 1226 758 
Q 1494 397 1959 397 
Q 2419 397 2687 759 
Q 2956 1122 2956 1747 
Q 2956 2369 2687 2733 
Q 2419 3097 1959 3097 
z
M 1959 3584 
Q 2709 3584 3137 3096 
Q 3566 2609 3566 1747 
Q 3566 888 3137 398 
Q 2709 -91 1959 -91 
Q 1206 -91 779 398 
Q 353 888 353 1747 
Q 353 2609 779 3096 
Q 1206 3584 1959 3584 
z
" transform="scale(0.015625)"/>
       <path id="DejaVuSans-72" d="M 2631 2963 
Q 2534 3019 2420 3045 
Q 2306 3072 2169 3072 
Q 1681 3072 1420 2755 
Q 1159 2438 1159 1844 
L 1159 0 
L 581 0 
L 581 3500 
L 1159 3500 
L 1159 2956 
Q 1341 3275 1631 3429 
Q 1922 3584 2338 3584 
Q 2397 3584 2469 3576 
Q 2541 3569 2628 3553 
L 2631 2963 
z
" transform="scale(0.015625)"/>
       <path id="DejaVuSans-6d" d="M 3328 2828 
Q 3544 3216 3844 3400 
Q 4144 3584 4550 3584 
Q 5097 3584 5394 3201 
Q 5691 2819 5691 2113 
L 5691 0 
L 5113 0 
L 5113 2094 
Q 5113 2597 4934 2840 
Q 4756 3084 4391 3084 
Q 3944 3084 3684 2787 
Q 3425 2491 3425 1978 
L 3425 0 
L 2847 0 
L 2847 2094 
Q 2847 2600 2669 2842 
Q 2491 3084 2119 3084 
Q 1678 3084 1418 2786 
Q 1159 2488 1159 1978 
L 1159 0 
L 581 0 
L 581 3500 
L 1159 3500 
L 1159 2956 
Q 1356 3278 1631 3431 
Q 1906 3584 2284 3584 
Q 2666 3584 2933 3390 
Q 3200 3197 3328 2828 
z
" transform="scale(0.015625)"/>
       <path id="DejaVuSans-61" d="M 2194 1759 
Q 1497 1759 1228 1600 
Q 959 1441 959 1056 
Q 959 750 1161 570 
Q 1363 391 1709 391 
Q 2188 391 2477 730 
Q 2766 1069 2766 1631 
L 2766 1759 
L 2194 1759 
z
M 3341 1997 
L 3341 0 
L 2766 0 
L 2766 531 
Q 2569 213 2275 61 
Q 1981 -91 1556 -91 
Q 1019 -91 701 211 
Q 384 513 384 1019 
Q 384 1609 779 1909 
Q 1175 2209 1959 2209 
L 2766 2209 
L 2766 2266 
Q 2766 2663 2505 2880 
Q 2244 3097 1772 3097 
Q 1472 3097 1187 3025 
Q 903 2953 641 2809 
L 641 3341 
Q 956 3463 1253 3523 
Q 1550 3584 1831 3584 
Q 2591 3584 2966 3190 
Q 3341 2797 3341 1997 
z
" transform="scale(0.015625)"/>
       <path id="DejaVuSans-6c" d="M 603 4863 
L 1178 4863 
L 1178 0 
L 603 0 
L 603 4863 
z
" transform="scale(0.015625)"/>
       <path id="DejaVuSans-20" transform="scale(0.015625)"/>
       <path id="DejaVuSans-46" d="M 628 4666 
L 3309 4666 
L 3309 4134 
L 1259 4134 
L 1259 2759 
L 3109 2759 
L 3109 2228 
L 1259 2228 
L 1259 0 
L 628 0 
L 628 4666 
z
" transform="scale(0.015625)"/>
       <path id="DejaVuSans-63" d="M 3122 3366 
L 3122 2828 
Q 2878 2963 2633 3030 
Q 2388 3097 2138 3097 
Q 1578 3097 1268 2742 
Q 959 2388 959 1747 
Q 959 1106 1268 751 
Q 1578 397 2138 397 
Q 2388 397 2633 464 
Q 2878 531 3122 666 
L 3122 134 
Q 2881 22 2623 -34 
Q 2366 -91 2075 -91 
Q 1284 -91 818 406 
Q 353 903 353 1747 
Q 353 2603 823 3093 
Q 1294 3584 2113 3584 
Q 2378 3584 2631 3529 
Q 2884 3475 3122 3366 
z
" transform="scale(0.015625)"/>
       <path id="DejaVuSans-65" d="M 3597 1894 
L 3597 1613 
L 953 1613 
Q 991 1019 1311 708 
Q 1631 397 2203 397 
Q 2534 397 2845 478 
Q 3156 559 3463 722 
L 3463 178 
Q 3153 47 2828 -22 
Q 2503 -91 2169 -91 
Q 1331 -91 842 396 
Q 353 884 353 1716 
Q 353 2575 817 3079 
Q 1281 3584 2069 3584 
Q 2775 3584 3186 3129 
Q 3597 2675 3597 1894 
z
M 3022 2063 
Q 3016 2534 2758 2815 
Q 2500 3097 2075 3097 
Q 1594 3097 1305 2825 
Q 1016 2553 972 2059 
L 3022 2063 
z
" transform="scale(0.015625)"/>
       <path id="DejaVuSans-28" d="M 1984 4856 
Q 1566 4138 1362 3434 
Q 1159 2731 1159 2009 
Q 1159 1288 1364 580 
Q 1569 -128 1984 -844 
L 1484 -844 
Q 1016 -109 783 600 
Q 550 1309 550 2009 
Q 550 2706 781 3412 
Q 1013 4119 1484 4856 
L 1984 4856 
z
" transform="scale(0.015625)"/>
       <path id="DejaVuSans-29" d="M 513 4856 
L 1013 4856 
Q 1481 4119 1714 3412 
Q 1947 2706 1947 2009 
Q 1947 1309 1714 600 
Q 1481 -109 1013 -844 
L 513 -844 
Q 928 -128 1133 580 
Q 1338 1288 1338 2009 
Q 1338 2731 1133 3434 
Q 928 4138 513 4856 
z
" transform="scale(0.015625)"/>
      </defs>
      <use xlink:href="#DejaVuSans-4e"/>
      <use xlink:href="#DejaVuSans-6f" x="74.804688"/>
      <use xlink:href="#DejaVuSans-72" x="135.986328"/>
      <use xlink:href="#DejaVuSans-6d" x="175.349609"/>
      <use xlink:href="#DejaVuSans-61" x="272.761719"/>
      <use xlink:href="#DejaVuSans-6c" x="334.041016"/>
      <use xlink:href="#DejaVuSans-20" x="361.824219"/>
      <use xlink:href="#DejaVuSans-46" x="393.611328"/>
      <use xlink:href="#DejaVuSans-6f" x="447.505859"/>
      <use xlink:href="#DejaVuSans-72" x="508.6875"/>
      <use xlink:href="#DejaVuSans-63" x="547.550781"/>
      <use xlink:href="#DejaVuSans-65" x="602.53125"/>
      <use xlink:href="#DejaVuSans-20" x="664.054688"/>
      <use xlink:href="#DejaVuSans-28" x="695.841797"/>
      <use xlink:href="#DejaVuSans-4e" x="734.855469"/>
      <use xlink:href="#DejaVuSans-29" x="809.660156"/>
     </g>
    </g>
   </g>
   <g id="matplotlib.axis_2">
    <g id="ytick_1">
     <g id="line2d_15">
      <path d="M 57.6 307.584 
L 414.72 307.584 
" clip-path="url(#pc29d5de012)" style="fill: none; stroke: #b0b0b0; stroke-width: 0.8; stroke-linecap: square"/>
     </g>
     <g id="line2d_16">
      <defs>
       <path id="m84f96f8bce" d="M 0 0 
L -3.5 0 
" style="stroke: #000000; stroke-width: 0.8"/>
      </defs>
      <g>
       <use xlink:href="#m84f96f8bce" x="57.6" y="307.584" style="stroke: #000000; stroke-width: 0.8"/>
      </g>
     </g>
     <g id="text_9">
      <!-- 0 -->
      <g transform="translate(44.2375 311.383219) scale(0.1 -0.1)">
       <use xlink:href="#DejaVuSans-30"/>
      </g>
     </g>
    </g>
    <g id="ytick_2">
     <g id="line2d_17">
      <path d="M 57.6 278.016 
L 414.72 278.016 
" clip-path="url(#pc29d5de012)" style="fill: none; stroke: #b0b0b0; stroke-width: 0.8; stroke-linecap: square"/>
     </g>
     <g id="line2d_18">
      <g>
       <use xlink:href="#m84f96f8bce" x="57.6" y="278.016" style="stroke: #000000; stroke-width: 0.8"/>
      </g>
     </g>
     <g id="text_10">
      <!-- 5 -->
      <g transform="translate(44.2375 281.815219) scale(0.1 -0.1)">
       <defs>
        <path id="DejaVuSans-35" d="M 691 4666 
L 3169 4666 
L 3169 4134 
L 1269 4134 
L 1269 2991 
Q 1406 3038 1543 3061 
Q 1681 3084 1819 3084 
Q 2600 3084 3056 2656 
Q 3513 2228 3513 1497 
Q 3513 744 3044 326 
Q 2575 -91 1722 -91 
Q 1428 -91 1123 -41 
Q 819 9 494 109 
L 494 744 
Q 775 591 1075 516 
Q 1375 441 1709 441 
Q 2250 441 2565 725 
Q 2881 1009 2881 1497 
Q 2881 1984 2565 2268 
Q 2250 2553 1709 2553 
Q 1456 2553 1204 2497 
Q 953 2441 691 2322 
L 691 4666 
z
" transform="scale(0.015625)"/>
       </defs>
       <use xlink:href="#DejaVuSans-35"/>
      </g>
     </g>
    </g>
    <g id="ytick_3">
     <g id="line2d_19">
      <path d="M 57.6 248.448 
L 414.72 248.448 
" clip-path="url(#pc29d5de012)" style="fill: none; stroke: #b0b0b0; stroke-width: 0.8; stroke-linecap: square"/>
     </g>
     <g id="line2d_20">
      <g>
       <use xlink:href="#m84f96f8bce" x="57.6" y="248.448" style="stroke: #000000; stroke-width: 0.8"/>
      </g>
     </g>
     <g id="text_11">
      <!-- 10 -->
      <g transform="translate(37.875 252.247219) scale(0.1 -0.1)">
       <use xlink:href="#DejaVuSans-31"/>
       <use xlink:href="#DejaVuSans-30" x="63.623047"/>
      </g>
     </g>
    </g>
    <g id="ytick_4">
     <g id="line2d_21">
      <path d="M 57.6 218.88 
L 414.72 218.88 
" clip-path="url(#pc29d5de012)" style="fill: none; stroke: #b0b0b0; stroke-width: 0.8; stroke-linecap: square"/>
     </g>
     <g id="line2d_22">
      <g>
       <use xlink:href="#m84f96f8bce" x="57.6" y="218.88" style="stroke: #000000; stroke-width: 0.8"/>
      </g>
     </g>
     <g id="text_12">
      <!-- 15 -->
      <g transform="translate(37.875 222.679219) scale(0.1 -0.1)">
       <use xlink:href="#DejaVuSans-31"/>
       <use xlink:href="#DejaVuSans-35" x="63.623047"/>
      </g>
     </g>
    </g>
    <g id="ytick_5">
     <g id="line2d_23">
      <path d="M 57.6 189.312 
L 414.72 189.312 
" clip-path="url(#pc29d5de012)" style="fill: none; stroke: #b0b0b0; stroke-width: 0.8; stroke-linecap: square"/>
     </g>
     <g id="line2d_24">
      <g>
       <use xlink:href="#m84f96f8bce" x="57.6" y="189.312" style="stroke: #000000; stroke-width: 0.8"/>
      </g>
     </g>
     <g id="text_13">
      <!-- 20 -->
      <g transform="translate(37.875 193.111219) scale(0.1 -0.1)">
       <use xlink:href="#DejaVuSans-32"/>
       <use xlink:href="#DejaVuSans-30" x="63.623047"/>
      </g>
     </g>
    </g>
    <g id="ytick_6">
     <g id="line2d_25">
      <path d="M 57.6 159.744 
L 414.72 159.744 
" clip-path="url(#pc29d5de012)" style="fill: none; stroke: #b0b0b0; stroke-width: 0.8; stroke-linecap: square"/>
     </g>
     <g id="line2d_26">
      <g>
       <use xlink:href="#m84f96f8bce" x="57.6" y="159.744" style="stroke: #000000; stroke-width: 0.8"/>
      </g>
     </g>
     <g id="text_14">
      <!-- 25 -->
      <g transform="translate(37.875 163.543219) scale(0.1 -0.1)">
       <use xlink:href="#DejaVuSans-32"/>
       <use xlink:href="#DejaVuSans-35" x="63.623047"/>
      </g>
     </g>
    </g>
    <g id="ytick_7">
     <g id="line2d_27">
      <path d="M 57.6 130.176 
L 414.72 130.176 
" clip-path="url(#pc29d5de012)" style="fill: none; stroke: #b0b0b0; stroke-width: 0.8; stroke-linecap: square"/>
     </g>
     <g id="line2d_28">
      <g>
       <use xlink:href="#m84f96f8bce" x="57.6" y="130.176" style="stroke: #000000; stroke-width: 0.8"/>
      </g>
     </g>
     <g id="text_15">
      <!-- 30 -->
      <g transform="translate(37.875 133.975219) scale(0.1 -0.1)">
       <defs>
        <path id="DejaVuSans-33" d="M 2597 2516 
Q 3050 2419 3304 2112 
Q 3559 1806 3559 1356 
Q 3559 666 3084 287 
Q 2609 -91 1734 -91 
Q 1441 -91 1130 -33 
Q 819 25 488 141 
L 488 750 
Q 750 597 1062 519 
Q 1375 441 1716 441 
Q 2309 441 2620 675 
Q 2931 909 2931 1356 
Q 2931 1769 2642 2001 
Q 2353 2234 1838 2234 
L 1294 2234 
L 1294 2753 
L 1863 2753 
Q 2328 2753 2575 2939 
Q 2822 3125 2822 3475 
Q 2822 3834 2567 4026 
Q 2313 4219 1838 4219 
Q 1578 4219 1281 4162 
Q 984 4106 628 3988 
L 628 4550 
Q 988 4650 1302 4700 
Q 1616 4750 1894 4750 
Q 2613 4750 3031 4423 
Q 3450 4097 3450 3541 
Q 3450 3153 3228 2886 
Q 3006 2619 2597 2516 
z
" transform="scale(0.015625)"/>
       </defs>
       <use xlink:href="#DejaVuSans-33"/>
       <use xlink:href="#DejaVuSans-30" x="63.623047"/>
      </g>
     </g>
    </g>
    <g id="ytick_8">
     <g id="line2d_29">
      <path d="M 57.6 100.608 
L 414.72 100.608 
" clip-path="url(#pc29d5de012)" style="fill: none; stroke: #b0b0b0; stroke-width: 0.8; stroke-linecap: square"/>
     </g>
     <g id="line2d_30">
      <g>
       <use xlink:href="#m84f96f8bce" x="57.6" y="100.608" style="stroke: #000000; stroke-width: 0.8"/>
      </g>
     </g>
     <g id="text_16">
      <!-- 35 -->
      <g transform="translate(37.875 104.407219) scale(0.1 -0.1)">
       <use xlink:href="#DejaVuSans-33"/>
       <use xlink:href="#DejaVuSans-35" x="63.623047"/>
      </g>
     </g>
    </g>
    <g id="ytick_9">
     <g id="line2d_31">
      <path d="M 57.6 71.04 
L 414.72 71.04 
" clip-path="url(#pc29d5de012)" style="fill: none; stroke: #b0b0b0; stroke-width: 0.8; stroke-linecap: square"/>
     </g>
     <g id="line2d_32">
      <g>
       <use xlink:href="#m84f96f8bce" x="57.6" y="71.04" style="stroke: #000000; stroke-width: 0.8"/>
      </g>
     </g>
     <g id="text_17">
      <!-- 40 -->
      <g transform="translate(37.875 74.839219) scale(0.1 -0.1)">
       <use xlink:href="#DejaVuSans-34"/>
       <use xlink:href="#DejaVuSans-30" x="63.623047"/>
      </g>
     </g>
    </g>
    <g id="ytick_10">
     <g id="line2d_33">
      <path d="M 57.6 41.472 
L 414.72 41.472 
" clip-path="url(#pc29d5de012)" style="fill: none; stroke: #b0b0b0; stroke-width: 0.8; stroke-linecap: square"/>
     </g>
     <g id="line2d_34">
      <g>
       <use xlink:href="#m84f96f8bce" x="57.6" y="41.472" style="stroke: #000000; stroke-width: 0.8"/>
      </g>
     </g>
     <g id="text_18">
      <!-- 45 -->
      <g transform="translate(37.875 45.271219) scale(0.1 -0.1)">
       <use xlink:href="#DejaVuSans-34"/>
       <use xlink:href="#DejaVuSans-35" x="63.623047"/>
      </g>
     </g>
    </g>
    <g id="text_19">
     <!-- Friction Force (N) -->
     <g transform="translate(31.795312 217.155344) rotate(-90) scale(0.1 -0.1)">
      <defs>
       <path id="DejaVuSans-69" d="M 603 3500 
L 1178 3500 
L 1178 0 
L 603 0 
L 603 3500 
z
M 603 4863 
L 1178 4863 
L 1178 4134 
L 603 4134 
L 603 4863 
z
" transform="scale(0.015625)"/>
       <path id="DejaVuSans-74" d="M 1172 4494 
L 1172 3500 
L 2356 3500 
L 2356 3053 
L 1172 3053 
L 1172 1153 
Q 1172 725 1289 603 
Q 1406 481 1766 481 
L 2356 481 
L 2356 0 
L 1766 0 
Q 1100 0 847 248 
Q 594 497 594 1153 
L 594 3053 
L 172 3053 
L 172 3500 
L 594 3500 
L 594 4494 
L 1172 4494 
z
" transform="scale(0.015625)"/>
       <path id="DejaVuSans-6e" d="M 3513 2113 
L 3513 0 
L 2938 0 
L 2938 2094 
Q 2938 2591 2744 2837 
Q 2550 3084 2163 3084 
Q 1697 3084 1428 2787 
Q 1159 2491 1159 1978 
L 1159 0 
L 581 0 
L 581 3500 
L 1159 3500 
L 1159 2956 
Q 1366 3272 1645 3428 
Q 1925 3584 2291 3584 
Q 2894 3584 3203 3211 
Q 3513 2838 3513 2113 
z
" transform="scale(0.015625)"/>
      </defs>
      <use xlink:href="#DejaVuSans-46"/>
      <use xlink:href="#DejaVuSans-72" x="50.269531"/>
      <use xlink:href="#DejaVuSans-69" x="91.382812"/>
      <use xlink:href="#DejaVuSans-63" x="119.166016"/>
      <use xlink:href="#DejaVuSans-74" x="174.146484"/>
      <use xlink:href="#DejaVuSans-69" x="213.355469"/>
      <use xlink:href="#DejaVuSans-6f" x="241.138672"/>
      <use xlink:href="#DejaVuSans-6e" x="302.320312"/>
      <use xlink:href="#DejaVuSans-20" x="365.699219"/>
      <use xlink:href="#DejaVuSans-46" x="397.486328"/>
      <use xlink:href="#DejaVuSans-6f" x="451.380859"/>
      <use xlink:href="#DejaVuSans-72" x="512.5625"/>
      <use xlink:href="#DejaVuSans-63" x="551.425781"/>
      <use xlink:href="#DejaVuSans-65" x="606.40625"/>
      <use xlink:href="#DejaVuSans-20" x="667.929688"/>
      <use xlink:href="#DejaVuSans-28" x="699.716797"/>
      <use xlink:href="#DejaVuSans-4e" x="738.730469"/>
      <use xlink:href="#DejaVuSans-29" x="813.535156"/>
     </g>
    </g>
   </g>
   <g id="LineCollection_1">
    <path d="M 73.684684 302.375096 
L 73.684684 301.630984 
" clip-path="url(#pc29d5de012)" style="fill: none; stroke: #ff0000; stroke-width: 1.5"/>
    <path d="M 85.24808 299.265416 
L 85.24808 298.457464 
" clip-path="url(#pc29d5de012)" style="fill: none; stroke: #ff0000; stroke-width: 1.5"/>
    <path d="M 218.227134 255.983875 
L 218.227134 246.456125 
" clip-path="url(#pc29d5de012)" style="fill: none; stroke: #ff0000; stroke-width: 1.5"/>
    <path d="M 362.769585 169.933641 
L 362.769585 159.163959 
" clip-path="url(#pc29d5de012)" style="fill: none; stroke: #ff0000; stroke-width: 1.5"/>
   </g>
   <g id="line2d_35">
    <path d="M 57.6 307.584 
L 62.223782 305.5589 
L 66.847563 303.5338 
L 71.471345 301.5087 
L 76.095126 299.4836 
L 80.718908 297.4585 
L 85.34269 295.433399 
L 89.966471 293.408299 
L 94.590253 291.383199 
L 99.214034 289.358099 
L 103.837816 287.332999 
L 108.461597 285.307899 
L 113.085379 283.282799 
L 117.709161 281.257699 
L 122.332942 279.232599 
L 126.956724 277.207499 
L 131.580505 275.182398 
L 136.204287 273.157298 
L 140.828069 271.132198 
L 145.45185 269.107098 
L 150.075632 267.081998 
L 154.699413 265.056898 
L 159.323195 263.031798 
L 163.946977 261.006698 
L 168.570758 258.981598 
L 173.19454 256.956498 
L 177.818321 254.931398 
L 182.442103 252.906297 
L 187.065884 250.881197 
L 191.689666 248.856097 
L 196.313448 246.830997 
L 200.937229 244.805897 
L 205.561011 242.780797 
L 210.184792 240.755697 
L 214.808574 238.730597 
L 219.432356 236.705497 
L 224.056137 234.680397 
L 228.679919 232.655296 
L 233.3037 230.630196 
L 237.927482 228.605096 
L 242.551264 226.579996 
L 247.175045 224.554896 
L 251.798827 222.529796 
L 256.422608 220.504696 
L 261.04639 218.479596 
L 265.670171 216.454496 
L 270.293953 214.429396 
L 274.917735 212.404296 
L 279.541516 210.379195 
L 284.165298 208.354095 
L 288.789079 206.328995 
L 293.412861 204.303895 
L 298.036643 202.278795 
L 302.660424 200.253695 
L 307.284206 198.228595 
L 311.907987 196.203495 
L 316.531769 194.178395 
L 321.15555 192.153295 
L 325.779332 190.128194 
L 330.403114 188.103094 
L 335.026895 186.077994 
L 339.650677 184.052894 
L 344.274458 182.027794 
L 348.89824 180.002694 
L 353.522022 177.977594 
L 358.145803 175.952494 
L 362.769585 173.927394 
L 367.393366 171.902294 
L 372.017148 169.877194 
L 376.64093 167.852093 
L 381.264711 165.826993 
L 385.888493 163.801893 
L 390.512274 161.776793 
L 395.136056 159.751693 
L 399.759837 157.726593 
L 404.383619 155.701493 
L 409.007401 153.676393 
L 413.631182 151.651293 
L 418.254964 149.626193 
L 422.878745 147.601092 
L 427.502527 145.575992 
L 432.126309 143.550892 
L 436.75009 141.525792 
L 441.373872 139.500692 
L 445.997653 137.475592 
L 450.621435 135.450492 
L 455.245217 133.425392 
L 459.868998 131.400292 
L 461.8 130.554561 
" clip-path="url(#pc29d5de012)" style="fill: none; stroke: #ff0000; stroke-width: 1.5; stroke-linecap: square"/>
   </g>
   <g id="line2d_36">
    <path d="M 57.6 307.584 
L 62.223782 305.332878 
L 66.847563 303.081755 
L 71.471345 300.830633 
L 76.095126 298.57951 
L 80.718908 296.328388 
L 85.34269 294.077265 
L 89.966471 291.826143 
L 94.590253 289.57502 
L 99.214034 287.323898 
L 103.837816 285.072775 
L 108.461597 282.821653 
L 113.085379 280.57053 
L 117.709161 278.319408 
L 122.332942 276.068285 
L 126.956724 273.817163 
L 131.580505 271.56604 
L 136.204287 269.314918 
L 140.828069 267.063796 
L 145.45185 264.812673 
L 150.075632 262.561551 
L 154.699413 260.310428 
L 159.323195 258.059306 
L 163.946977 255.808183 
L 168.570758 253.557061 
L 173.19454 251.305938 
L 177.818321 249.054816 
L 182.442103 246.803693 
L 187.065884 244.552571 
L 191.689666 242.301448 
L 196.313448 240.050326 
L 200.937229 237.799203 
L 205.561011 235.548081 
L 210.184792 233.296958 
L 214.808574 231.045836 
L 219.432356 228.794713 
L 224.056137 226.543591 
L 228.679919 224.292469 
L 233.3037 222.041346 
L 237.927482 219.790224 
L 242.551264 217.539101 
L 247.175045 215.287979 
L 251.798827 213.036856 
L 256.422608 210.785734 
L 261.04639 208.534611 
L 265.670171 206.283489 
L 270.293953 204.032366 
L 274.917735 201.781244 
L 279.541516 199.530121 
L 284.165298 197.278999 
L 288.789079 195.027876 
L 293.412861 192.776754 
L 298.036643 190.525631 
L 302.660424 188.274509 
L 307.284206 186.023387 
L 311.907987 183.772264 
L 316.531769 181.521142 
L 321.15555 179.270019 
L 325.779332 177.018897 
L 330.403114 174.767774 
L 335.026895 172.516652 
L 339.650677 170.265529 
L 344.274458 168.014407 
L 348.89824 165.763284 
L 353.522022 163.512162 
L 358.145803 161.261039 
L 362.769585 159.009917 
L 367.393366 156.758794 
L 372.017148 154.507672 
L 376.64093 152.256549 
L 381.264711 150.005427 
L 385.888493 147.754305 
L 390.512274 145.503182 
L 395.136056 143.25206 
L 399.759837 141.000937 
L 404.383619 138.749815 
L 409.007401 136.498692 
L 413.631182 134.24757 
L 418.254964 131.996447 
L 422.878745 129.745325 
L 427.502527 127.494202 
L 432.126309 125.24308 
L 436.75009 122.991957 
L 441.373872 120.740835 
L 445.997653 118.489712 
L 450.621435 116.23859 
L 455.245217 113.987467 
L 459.868998 111.736345 
L 461.8 110.796222 
" clip-path="url(#pc29d5de012)" style="fill: none; stroke-dasharray: 2.96,1.28; stroke-dashoffset: 0; stroke: #ff0000; stroke-width: 0.8"/>
   </g>
   <g id="line2d_37">
    <path d="M 57.6 307.584 
L 62.223782 305.784922 
L 66.847563 303.985845 
L 71.471345 302.186767 
L 76.095126 300.387689 
L 80.718908 298.588611 
L 85.34269 296.789534 
L 89.966471 294.990456 
L 94.590253 293.191378 
L 99.214034 291.392301 
L 103.837816 289.593223 
L 108.461597 287.794145 
L 113.085379 285.995067 
L 117.709161 284.19599 
L 122.332942 282.396912 
L 126.956724 280.597834 
L 131.580505 278.798756 
L 136.204287 276.999679 
L 140.828069 275.200601 
L 145.45185 273.401523 
L 150.075632 271.602446 
L 154.699413 269.803368 
L 159.323195 268.00429 
L 163.946977 266.205212 
L 168.570758 264.406135 
L 173.19454 262.607057 
L 177.818321 260.807979 
L 182.442103 259.008902 
L 187.065884 257.209824 
L 191.689666 255.410746 
L 196.313448 253.611668 
L 200.937229 251.812591 
L 205.561011 250.013513 
L 210.184792 248.214435 
L 214.808574 246.415358 
L 219.432356 244.61628 
L 224.056137 242.817202 
L 228.679919 241.018124 
L 233.3037 239.219047 
L 237.927482 237.419969 
L 242.551264 235.620891 
L 247.175045 233.821814 
L 251.798827 232.022736 
L 256.422608 230.223658 
L 261.04639 228.42458 
L 265.670171 226.625503 
L 270.293953 224.826425 
L 274.917735 223.027347 
L 279.541516 221.228269 
L 284.165298 219.429192 
L 288.789079 217.630114 
L 293.412861 215.831036 
L 298.036643 214.031959 
L 302.660424 212.232881 
L 307.284206 210.433803 
L 311.907987 208.634725 
L 316.531769 206.835648 
L 321.15555 205.03657 
L 325.779332 203.237492 
L 330.403114 201.438415 
L 335.026895 199.639337 
L 339.650677 197.840259 
L 344.274458 196.041181 
L 348.89824 194.242104 
L 353.522022 192.443026 
L 358.145803 190.643948 
L 362.769585 188.844871 
L 367.393366 187.045793 
L 372.017148 185.246715 
L 376.64093 183.447637 
L 381.264711 181.64856 
L 385.888493 179.849482 
L 390.512274 178.050404 
L 395.136056 176.251327 
L 399.759837 174.452249 
L 404.383619 172.653171 
L 409.007401 170.854093 
L 413.631182 169.055016 
L 418.254964 167.255938 
L 422.878745 165.45686 
L 427.502527 163.657782 
L 432.126309 161.858705 
L 436.75009 160.059627 
L 441.373872 158.260549 
L 445.997653 156.461472 
L 450.621435 154.662394 
L 455.245217 152.863316 
L 459.868998 151.064238 
L 461.8 150.312901 
" clip-path="url(#pc29d5de012)" style="fill: none; stroke-dasharray: 2.96,1.28; stroke-dashoffset: 0; stroke: #ff0000; stroke-width: 0.8"/>
   </g>
   <g id="LineCollection_2">
    <path d="M 73.684684 302.651193 
L 73.684684 302.122264 
" clip-path="url(#pc29d5de012)" style="fill: none; stroke: #008000; stroke-width: 1.5"/>
    <path d="M 85.24808 299.946177 
L 85.24808 298.82675 
" clip-path="url(#pc29d5de012)" style="fill: none; stroke: #008000; stroke-width: 1.5"/>
    <path d="M 218.227134 230.452985 
L 218.227134 219.01114 
" clip-path="url(#pc29d5de012)" style="fill: none; stroke: #008000; stroke-width: 1.5"/>
    <path d="M 362.769585 213.29654 
L 362.769585 201.177267 
" clip-path="url(#pc29d5de012)" style="fill: none; stroke: #008000; stroke-width: 1.5"/>
   </g>
   <g id="line2d_38">
    <path d="M 57.6 307.584 
L 62.223782 305.87864 
L 66.847563 304.173279 
L 71.471345 302.467919 
L 76.095126 300.762559 
L 80.718908 299.057199 
L 85.34269 297.351838 
L 89.966471 295.646478 
L 94.590253 293.941118 
L 99.214034 292.235758 
L 103.837816 290.530397 
L 108.461597 288.825037 
L 113.085379 287.119677 
L 117.709161 285.414317 
L 122.332942 283.708956 
L 126.956724 282.003596 
L 131.580505 280.298236 
L 136.204287 278.592876 
L 140.828069 276.887515 
L 145.45185 275.182155 
L 150.075632 273.476795 
L 154.699413 271.771435 
L 159.323195 270.066074 
L 163.946977 268.360714 
L 168.570758 266.655354 
L 173.19454 264.949994 
L 177.818321 263.244633 
L 182.442103 261.539273 
L 187.065884 259.833913 
L 191.689666 258.128553 
L 196.313448 256.423192 
L 200.937229 254.717832 
L 205.561011 253.012472 
L 210.184792 251.307112 
L 214.808574 249.601751 
L 219.432356 247.896391 
L 224.056137 246.191031 
L 228.679919 244.485671 
L 233.3037 242.78031 
L 237.927482 241.07495 
L 242.551264 239.36959 
L 247.175045 237.664229 
L 251.798827 235.958869 
L 256.422608 234.253509 
L 261.04639 232.548149 
L 265.670171 230.842788 
L 270.293953 229.137428 
L 274.917735 227.432068 
L 279.541516 225.726708 
L 284.165298 224.021347 
L 288.789079 222.315987 
L 293.412861 220.610627 
L 298.036643 218.905267 
L 302.660424 217.199906 
L 307.284206 215.494546 
L 311.907987 213.789186 
L 316.531769 212.083826 
L 321.15555 210.378465 
L 325.779332 208.673105 
L 330.403114 206.967745 
L 335.026895 205.262385 
L 339.650677 203.557024 
L 344.274458 201.851664 
L 348.89824 200.146304 
L 353.522022 198.440944 
L 358.145803 196.735583 
L 362.769585 195.030223 
L 367.393366 193.324863 
L 372.017148 191.619503 
L 376.64093 189.914142 
L 381.264711 188.208782 
L 385.888493 186.503422 
L 390.512274 184.798062 
L 395.136056 183.092701 
L 399.759837 181.387341 
L 404.383619 179.681981 
L 409.007401 177.976621 
L 413.631182 176.27126 
L 418.254964 174.5659 
L 422.878745 172.86054 
L 427.502527 171.15518 
L 432.126309 169.449819 
L 436.75009 167.744459 
L 441.373872 166.039099 
L 445.997653 164.333738 
L 450.621435 162.628378 
L 455.245217 160.923018 
L 459.868998 159.217658 
L 461.8 158.505458 
" clip-path="url(#pc29d5de012)" style="fill: none; stroke: #008000; stroke-width: 1.5; stroke-linecap: square"/>
   </g>
   <g id="line2d_39">
    <path d="M 57.6 307.584 
L 62.223782 305.675587 
L 66.847563 303.767174 
L 71.471345 301.858761 
L 76.095126 299.950348 
L 80.718908 298.041936 
L 85.34269 296.133523 
L 89.966471 294.22511 
L 94.590253 292.316697 
L 99.214034 290.408284 
L 103.837816 288.499871 
L 108.461597 286.591458 
L 113.085379 284.683045 
L 117.709161 282.774633 
L 122.332942 280.86622 
L 126.956724 278.957807 
L 131.580505 277.049394 
L 136.204287 275.140981 
L 140.828069 273.232568 
L 145.45185 271.324155 
L 150.075632 269.415742 
L 154.699413 267.50733 
L 159.323195 265.598917 
L 163.946977 263.690504 
L 168.570758 261.782091 
L 173.19454 259.873678 
L 177.818321 257.965265 
L 182.442103 256.056852 
L 187.065884 254.148439 
L 191.689666 252.240027 
L 196.313448 250.331614 
L 200.937229 248.423201 
L 205.561011 246.514788 
L 210.184792 244.606375 
L 214.808574 242.697962 
L 219.432356 240.789549 
L 224.056137 238.881136 
L 228.679919 236.972723 
L 233.3037 235.064311 
L 237.927482 233.155898 
L 242.551264 231.247485 
L 247.175045 229.339072 
L 251.798827 227.430659 
L 256.422608 225.522246 
L 261.04639 223.613833 
L 265.670171 221.70542 
L 270.293953 219.797008 
L 274.917735 217.888595 
L 279.541516 215.980182 
L 284.165298 214.071769 
L 288.789079 212.163356 
L 293.412861 210.254943 
L 298.036643 208.34653 
L 302.660424 206.438117 
L 307.284206 204.529705 
L 311.907987 202.621292 
L 316.531769 200.712879 
L 321.15555 198.804466 
L 325.779332 196.896053 
L 330.403114 194.98764 
L 335.026895 193.079227 
L 339.650677 191.170814 
L 344.274458 189.262402 
L 348.89824 187.353989 
L 353.522022 185.445576 
L 358.145803 183.537163 
L 362.769585 181.62875 
L 367.393366 179.720337 
L 372.017148 177.811924 
L 376.64093 175.903511 
L 381.264711 173.995098 
L 385.888493 172.086686 
L 390.512274 170.178273 
L 395.136056 168.26986 
L 399.759837 166.361447 
L 404.383619 164.453034 
L 409.007401 162.544621 
L 413.631182 160.636208 
L 418.254964 158.727795 
L 422.878745 156.819383 
L 427.502527 154.91097 
L 432.126309 153.002557 
L 436.75009 151.094144 
L 441.373872 149.185731 
L 445.997653 147.277318 
L 450.621435 145.368905 
L 455.245217 143.460492 
L 459.868998 141.55208 
L 461.8 140.755081 
" clip-path="url(#pc29d5de012)" style="fill: none; stroke-dasharray: 2.96,1.28; stroke-dashoffset: 0; stroke: #008000; stroke-width: 0.8"/>
   </g>
   <g id="line2d_40">
    <path d="M 57.6 307.584 
L 62.223782 306.081692 
L 66.847563 304.579385 
L 71.471345 303.077077 
L 76.095126 301.574769 
L 80.718908 300.072462 
L 85.34269 298.570154 
L 89.966471 297.067847 
L 94.590253 295.565539 
L 99.214034 294.063231 
L 103.837816 292.560924 
L 108.461597 291.058616 
L 113.085379 289.556308 
L 117.709161 288.054001 
L 122.332942 286.551693 
L 126.956724 285.049385 
L 131.580505 283.547078 
L 136.204287 282.04477 
L 140.828069 280.542463 
L 145.45185 279.040155 
L 150.075632 277.537847 
L 154.699413 276.03554 
L 159.323195 274.533232 
L 163.946977 273.030924 
L 168.570758 271.528617 
L 173.19454 270.026309 
L 177.818321 268.524002 
L 182.442103 267.021694 
L 187.065884 265.519386 
L 191.689666 264.017079 
L 196.313448 262.514771 
L 200.937229 261.012463 
L 205.561011 259.510156 
L 210.184792 258.007848 
L 214.808574 256.50554 
L 219.432356 255.003233 
L 224.056137 253.500925 
L 228.679919 251.998618 
L 233.3037 250.49631 
L 237.927482 248.994002 
L 242.551264 247.491695 
L 247.175045 245.989387 
L 251.798827 244.487079 
L 256.422608 242.984772 
L 261.04639 241.482464 
L 265.670171 239.980156 
L 270.293953 238.477849 
L 274.917735 236.975541 
L 279.541516 235.473234 
L 284.165298 233.970926 
L 288.789079 232.468618 
L 293.412861 230.966311 
L 298.036643 229.464003 
L 302.660424 227.961695 
L 307.284206 226.459388 
L 311.907987 224.95708 
L 316.531769 223.454773 
L 321.15555 221.952465 
L 325.779332 220.450157 
L 330.403114 218.94785 
L 335.026895 217.445542 
L 339.650677 215.943234 
L 344.274458 214.440927 
L 348.89824 212.938619 
L 353.522022 211.436311 
L 358.145803 209.934004 
L 362.769585 208.431696 
L 367.393366 206.929389 
L 372.017148 205.427081 
L 376.64093 203.924773 
L 381.264711 202.422466 
L 385.888493 200.920158 
L 390.512274 199.41785 
L 395.136056 197.915543 
L 399.759837 196.413235 
L 404.383619 194.910927 
L 409.007401 193.40862 
L 413.631182 191.906312 
L 418.254964 190.404005 
L 422.878745 188.901697 
L 427.502527 187.399389 
L 432.126309 185.897082 
L 436.75009 184.394774 
L 441.373872 182.892466 
L 445.997653 181.390159 
L 450.621435 179.887851 
L 455.245217 178.385544 
L 459.868998 176.883236 
L 461.8 176.255836 
" clip-path="url(#pc29d5de012)" style="fill: none; stroke-dasharray: 2.96,1.28; stroke-dashoffset: 0; stroke: #008000; stroke-width: 0.8"/>
   </g>
   <g id="line2d_41">
    <defs>
     <path id="m54ea2a3307" d="M 0 1.5 
C 0.397805 1.5 0.77937 1.341951 1.06066 1.06066 
C 1.341951 0.77937 1.5 0.397805 1.5 0 
C 1.5 -0.397805 1.341951 -0.77937 1.06066 -1.06066 
C 0.77937 -1.341951 0.397805 -1.5 0 -1.5 
C -0.397805 -1.5 -0.77937 -1.341951 -1.06066 -1.06066 
C -1.341951 -0.77937 -1.5 -0.397805 -1.5 0 
C -1.5 0.397805 -1.341951 0.77937 -1.06066 1.06066 
C -0.77937 1.341951 -0.397805 1.5 0 1.5 
z
" style="stroke: #ff0000"/>
    </defs>
    <g clip-path="url(#pc29d5de012)">
     <use xlink:href="#m54ea2a3307" x="73.684684" y="302.00304" style="fill: #ff0000; stroke: #ff0000"/>
     <use xlink:href="#m54ea2a3307" x="85.24808" y="298.86144" style="fill: #ff0000; stroke: #ff0000"/>
     <use xlink:href="#m54ea2a3307" x="218.227134" y="251.22" style="fill: #ff0000; stroke: #ff0000"/>
     <use xlink:href="#m54ea2a3307" x="362.769585" y="164.5488" style="fill: #ff0000; stroke: #ff0000"/>
    </g>
   </g>
   <g id="line2d_42">
    <defs>
     <path id="m08be38dc4d" d="M 0 1.5 
C 0.397805 1.5 0.77937 1.341951 1.06066 1.06066 
C 1.341951 0.77937 1.5 0.397805 1.5 0 
C 1.5 -0.397805 1.341951 -0.77937 1.06066 -1.06066 
C 0.77937 -1.341951 0.397805 -1.5 0 -1.5 
C -0.397805 -1.5 -0.77937 -1.341951 -1.06066 -1.06066 
C -1.341951 -0.77937 -1.5 -0.397805 -1.5 0 
C -1.5 0.397805 -1.341951 0.77937 -1.06066 1.06066 
C -0.77937 1.341951 -0.397805 1.5 0 1.5 
z
" style="stroke: #008000"/>
    </defs>
    <g clip-path="url(#pc29d5de012)">
     <use xlink:href="#m08be38dc4d" x="73.684684" y="302.386729" style="fill: #008000; stroke: #008000"/>
     <use xlink:href="#m08be38dc4d" x="85.24808" y="299.386463" style="fill: #008000; stroke: #008000"/>
     <use xlink:href="#m08be38dc4d" x="218.227134" y="224.732062" style="fill: #008000; stroke: #008000"/>
     <use xlink:href="#m08be38dc4d" x="362.769585" y="207.236903" style="fill: #008000; stroke: #008000"/>
    </g>
   </g>
   <g id="patch_3">
    <path d="M 57.6 307.584 
L 57.6 41.472 
" style="fill: none; stroke: #000000; stroke-width: 0.8; stroke-linejoin: miter; stroke-linecap: square"/>
   </g>
   <g id="patch_4">
    <path d="M 414.72 307.584 
L 414.72 41.472 
" style="fill: none; stroke: #000000; stroke-width: 0.8; stroke-linejoin: miter; stroke-linecap: square"/>
   </g>
   <g id="patch_5">
    <path d="M 57.6 307.584 
L 414.72 307.584 
" style="fill: none; stroke: #000000; stroke-width: 0.8; stroke-linejoin: miter; stroke-linecap: square"/>
   </g>
   <g id="patch_6">
    <path d="M 57.6 41.472 
L 414.72 41.472 
" style="fill: none; stroke: #000000; stroke-width: 0.8; stroke-linejoin: miter; stroke-linecap: square"/>
   </g>
   <g id="legend_1">
    <g id="patch_7">
     <path d="M 63.431 115.699068 
L 166.897409 115.699068 
Q 168.563409 115.699068 168.563409 114.033068 
L 168.563409 47.303 
Q 168.563409 45.637 166.897409 45.637 
L 63.431 45.637 
Q 61.765 45.637 61.765 47.303 
L 61.765 114.033068 
Q 61.765 115.699068 63.431 115.699068 
z
" style="fill: #ffffff; opacity: 0.8; stroke: #cccccc; stroke-linejoin: miter"/>
    </g>
    <g id="line2d_43">
     <path d="M 65.097 57.913077 
L 73.427 57.913077 
L 81.757 57.913077 
" style="fill: none; stroke: #ff0000; stroke-width: 1.5; stroke-linecap: square"/>
    </g>
    <g id="text_20">
     <!-- 0 Degree Fit  -->
     <g transform="translate(88.421 55.298498) scale(0.0833 -0.0833)">
      <defs>
       <path id="DejaVuSans-44" d="M 1259 4147 
L 1259 519 
L 2022 519 
Q 2988 519 3436 956 
Q 3884 1394 3884 2338 
Q 3884 3275 3436 3711 
Q 2988 4147 2022 4147 
L 1259 4147 
z
M 628 4666 
L 1925 4666 
Q 3281 4666 3915 4102 
Q 4550 3538 4550 2338 
Q 4550 1131 3912 565 
Q 3275 0 1925 0 
L 628 0 
L 628 4666 
z
" transform="scale(0.015625)"/>
       <path id="DejaVuSans-67" d="M 2906 1791 
Q 2906 2416 2648 2759 
Q 2391 3103 1925 3103 
Q 1463 3103 1205 2759 
Q 947 2416 947 1791 
Q 947 1169 1205 825 
Q 1463 481 1925 481 
Q 2391 481 2648 825 
Q 2906 1169 2906 1791 
z
M 3481 434 
Q 3481 -459 3084 -895 
Q 2688 -1331 1869 -1331 
Q 1566 -1331 1297 -1286 
Q 1028 -1241 775 -1147 
L 775 -588 
Q 1028 -725 1275 -790 
Q 1522 -856 1778 -856 
Q 2344 -856 2625 -561 
Q 2906 -266 2906 331 
L 2906 616 
Q 2728 306 2450 153 
Q 2172 0 1784 0 
Q 1141 0 747 490 
Q 353 981 353 1791 
Q 353 2603 747 3093 
Q 1141 3584 1784 3584 
Q 2172 3584 2450 3431 
Q 2728 3278 2906 2969 
L 2906 3500 
L 3481 3500 
L 3481 434 
z
" transform="scale(0.015625)"/>
      </defs>
      <use xlink:href="#DejaVuSans-30"/>
      <use xlink:href="#DejaVuSans-20" x="63.623047"/>
      <use xlink:href="#DejaVuSans-44" x="95.410156"/>
      <use xlink:href="#DejaVuSans-65" x="172.412109"/>
      <use xlink:href="#DejaVuSans-67" x="233.935547"/>
      <use xlink:href="#DejaVuSans-72" x="297.412109"/>
      <use xlink:href="#DejaVuSans-65" x="336.275391"/>
      <use xlink:href="#DejaVuSans-65" x="397.798828"/>
      <use xlink:href="#DejaVuSans-20" x="459.322266"/>
      <use xlink:href="#DejaVuSans-46" x="491.109375"/>
      <use xlink:href="#DejaVuSans-69" x="541.378906"/>
      <use xlink:href="#DejaVuSans-74" x="569.162109"/>
      <use xlink:href="#DejaVuSans-20" x="608.371094"/>
     </g>
     <!-- y=0.22  0.0246x -->
     <g transform="translate(88.421 64.626276) scale(0.0833 -0.0833)">
      <defs>
       <path id="DejaVuSans-79" d="M 2059 -325 
Q 1816 -950 1584 -1140 
Q 1353 -1331 966 -1331 
L 506 -1331 
L 506 -850 
L 844 -850 
Q 1081 -850 1212 -737 
Q 1344 -625 1503 -206 
L 1606 56 
L 191 3500 
L 800 3500 
L 1894 763 
L 2988 3500 
L 3597 3500 
L 2059 -325 
z
" transform="scale(0.015625)"/>
       <path id="DejaVuSans-3d" d="M 678 2906 
L 4684 2906 
L 4684 2381 
L 678 2381 
L 678 2906 
z
M 678 1631 
L 4684 1631 
L 4684 1100 
L 678 1100 
L 678 1631 
z
" transform="scale(0.015625)"/>
       <path id="DejaVuSans-2e" d="M 684 794 
L 1344 794 
L 1344 0 
L 684 0 
L 684 794 
z
" transform="scale(0.015625)"/>
       <path id="DejaVuSans-b1" d="M 2944 4013 
L 2944 2803 
L 4684 2803 
L 4684 2272 
L 2944 2272 
L 2944 1063 
L 2419 1063 
L 2419 2272 
L 678 2272 
L 678 2803 
L 2419 2803 
L 2419 4013 
L 2944 4013 
z
M 678 531 
L 4684 531 
L 4684 0 
L 678 0 
L 678 531 
z
" transform="scale(0.015625)"/>
       <path id="DejaVuSans-78" d="M 3513 3500 
L 2247 1797 
L 3578 0 
L 2900 0 
L 1881 1375 
L 863 0 
L 184 0 
L 1544 1831 
L 300 3500 
L 978 3500 
L 1906 2253 
L 2834 3500 
L 3513 3500 
z
" transform="scale(0.015625)"/>
      </defs>
      <use xlink:href="#DejaVuSans-79"/>
      <use xlink:href="#DejaVuSans-3d" x="59.179688"/>
      <use xlink:href="#DejaVuSans-30" x="142.96875"/>
      <use xlink:href="#DejaVuSans-2e" x="206.591797"/>
      <use xlink:href="#DejaVuSans-32" x="238.378906"/>
      <use xlink:href="#DejaVuSans-32" x="302.001953"/>
      <use xlink:href="#DejaVuSans-20" x="365.625"/>
      <use xlink:href="#DejaVuSans-b1" x="397.412109"/>
      <use xlink:href="#DejaVuSans-20" x="481.201172"/>
      <use xlink:href="#DejaVuSans-30" x="512.988281"/>
      <use xlink:href="#DejaVuSans-2e" x="576.611328"/>
      <use xlink:href="#DejaVuSans-30" x="608.398438"/>
      <use xlink:href="#DejaVuSans-32" x="672.021484"/>
      <use xlink:href="#DejaVuSans-34" x="735.644531"/>
      <use xlink:href="#DejaVuSans-36" x="799.267578"/>
      <use xlink:href="#DejaVuSans-78" x="862.890625"/>
     </g>
    </g>
    <g id="line2d_44">
     <path d="M 65.097 79.467733 
L 73.427 79.467733 
L 81.757 79.467733 
" style="fill: none; stroke: #008000; stroke-width: 1.5; stroke-linecap: square"/>
    </g>
    <g id="text_21">
     <!-- 7.86 Degree Fit -->
     <g transform="translate(88.421 76.853154) scale(0.0833 -0.0833)">
      <defs>
       <path id="DejaVuSans-37" d="M 525 4666 
L 3525 4666 
L 3525 4397 
L 1831 0 
L 1172 0 
L 2766 4134 
L 525 4134 
L 525 4666 
z
" transform="scale(0.015625)"/>
      </defs>
      <use xlink:href="#DejaVuSans-37"/>
      <use xlink:href="#DejaVuSans-2e" x="63.623047"/>
      <use xlink:href="#DejaVuSans-38" x="95.410156"/>
      <use xlink:href="#DejaVuSans-36" x="159.033203"/>
      <use xlink:href="#DejaVuSans-20" x="222.65625"/>
      <use xlink:href="#DejaVuSans-44" x="254.443359"/>
      <use xlink:href="#DejaVuSans-65" x="331.445312"/>
      <use xlink:href="#DejaVuSans-67" x="392.96875"/>
      <use xlink:href="#DejaVuSans-72" x="456.445312"/>
      <use xlink:href="#DejaVuSans-65" x="495.308594"/>
      <use xlink:href="#DejaVuSans-65" x="556.832031"/>
      <use xlink:href="#DejaVuSans-20" x="618.355469"/>
      <use xlink:href="#DejaVuSans-46" x="650.142578"/>
      <use xlink:href="#DejaVuSans-69" x="700.412109"/>
      <use xlink:href="#DejaVuSans-74" x="728.195312"/>
     </g>
     <!-- y=0.19  0.0221x -->
     <g transform="translate(88.421 86.180932) scale(0.0833 -0.0833)">
      <defs>
       <path id="DejaVuSans-39" d="M 703 97 
L 703 672 
Q 941 559 1184 500 
Q 1428 441 1663 441 
Q 2288 441 2617 861 
Q 2947 1281 2994 2138 
Q 2813 1869 2534 1725 
Q 2256 1581 1919 1581 
Q 1219 1581 811 2004 
Q 403 2428 403 3163 
Q 403 3881 828 4315 
Q 1253 4750 1959 4750 
Q 2769 4750 3195 4129 
Q 3622 3509 3622 2328 
Q 3622 1225 3098 567 
Q 2575 -91 1691 -91 
Q 1453 -91 1209 -44 
Q 966 3 703 97 
z
M 1959 2075 
Q 2384 2075 2632 2365 
Q 2881 2656 2881 3163 
Q 2881 3666 2632 3958 
Q 2384 4250 1959 4250 
Q 1534 4250 1286 3958 
Q 1038 3666 1038 3163 
Q 1038 2656 1286 2365 
Q 1534 2075 1959 2075 
z
" transform="scale(0.015625)"/>
      </defs>
      <use xlink:href="#DejaVuSans-79"/>
      <use xlink:href="#DejaVuSans-3d" x="59.179688"/>
      <use xlink:href="#DejaVuSans-30" x="142.96875"/>
      <use xlink:href="#DejaVuSans-2e" x="206.591797"/>
      <use xlink:href="#DejaVuSans-31" x="238.378906"/>
      <use xlink:href="#DejaVuSans-39" x="302.001953"/>
      <use xlink:href="#DejaVuSans-20" x="365.625"/>
      <use xlink:href="#DejaVuSans-b1" x="397.412109"/>
      <use xlink:href="#DejaVuSans-20" x="481.201172"/>
      <use xlink:href="#DejaVuSans-30" x="512.988281"/>
      <use xlink:href="#DejaVuSans-2e" x="576.611328"/>
      <use xlink:href="#DejaVuSans-30" x="608.398438"/>
      <use xlink:href="#DejaVuSans-32" x="672.021484"/>
      <use xlink:href="#DejaVuSans-32" x="735.644531"/>
      <use xlink:href="#DejaVuSans-31" x="799.267578"/>
      <use xlink:href="#DejaVuSans-78" x="862.890625"/>
     </g>
    </g>
    <g id="LineCollection_3">
     <path d="M 73.427 99.65731 
L 73.427 91.32731 
" style="fill: none; stroke: #ff0000; stroke-width: 1.5"/>
    </g>
    <g id="line2d_45"/>
    <g id="line2d_46">
     <g>
      <use xlink:href="#m54ea2a3307" x="73.427" y="95.49231" style="fill: #ff0000; stroke: #ff0000"/>
     </g>
    </g>
    <g id="text_22">
     <!-- 0 Degree Data -->
     <g transform="translate(88.421 98.40781) scale(0.0833 -0.0833)">
      <use xlink:href="#DejaVuSans-30"/>
      <use xlink:href="#DejaVuSans-20" x="63.623047"/>
      <use xlink:href="#DejaVuSans-44" x="95.410156"/>
      <use xlink:href="#DejaVuSans-65" x="172.412109"/>
      <use xlink:href="#DejaVuSans-67" x="233.935547"/>
      <use xlink:href="#DejaVuSans-72" x="297.412109"/>
      <use xlink:href="#DejaVuSans-65" x="336.275391"/>
      <use xlink:href="#DejaVuSans-65" x="397.798828"/>
      <use xlink:href="#DejaVuSans-20" x="459.322266"/>
      <use xlink:href="#DejaVuSans-44" x="491.109375"/>
      <use xlink:href="#DejaVuSans-61" x="568.111328"/>
      <use xlink:href="#DejaVuSans-74" x="629.390625"/>
      <use xlink:href="#DejaVuSans-61" x="668.599609"/>
     </g>
    </g>
    <g id="LineCollection_4">
     <path d="M 73.427 111.884188 
L 73.427 103.554188 
" style="fill: none; stroke: #008000; stroke-width: 1.5"/>
    </g>
    <g id="line2d_47"/>
    <g id="line2d_48">
     <g>
      <use xlink:href="#m08be38dc4d" x="73.427" y="107.719188" style="fill: #008000; stroke: #008000"/>
     </g>
    </g>
    <g id="text_23">
     <!-- 7.86 Degree Data -->
     <g transform="translate(88.421 110.634688) scale(0.0833 -0.0833)">
      <use xlink:href="#DejaVuSans-37"/>
      <use xlink:href="#DejaVuSans-2e" x="63.623047"/>
      <use xlink:href="#DejaVuSans-38" x="95.410156"/>
      <use xlink:href="#DejaVuSans-36" x="159.033203"/>
      <use xlink:href="#DejaVuSans-20" x="222.65625"/>
      <use xlink:href="#DejaVuSans-44" x="254.443359"/>
      <use xlink:href="#DejaVuSans-65" x="331.445312"/>
      <use xlink:href="#DejaVuSans-67" x="392.96875"/>
      <use xlink:href="#DejaVuSans-72" x="456.445312"/>
      <use xlink:href="#DejaVuSans-65" x="495.308594"/>
      <use xlink:href="#DejaVuSans-65" x="556.832031"/>
      <use xlink:href="#DejaVuSans-20" x="618.355469"/>
      <use xlink:href="#DejaVuSans-44" x="650.142578"/>
      <use xlink:href="#DejaVuSans-61" x="727.144531"/>
      <use xlink:href="#DejaVuSans-74" x="788.423828"/>
      <use xlink:href="#DejaVuSans-61" x="827.632812"/>
     </g>
    </g>
   </g>
  </g>
 </g>
 <defs>
  <clipPath id="pc29d5de012">
   <rect x="57.6" y="41.472" width="357.12" height="266.112"/>
  </clipPath>
 </defs>
</svg>
