<?xml version="1.0" encoding="utf-8" standalone="no"?>
<!DOCTYPE svg PUBLIC "-//W3C//DTD SVG 1.1//EN"
  "http://www.w3.org/Graphics/SVG/1.1/DTD/svg11.dtd">
<svg xmlns:xlink="http://www.w3.org/1999/xlink" width="460.8pt" height="345.6pt" viewBox="0 0 460.8 345.6" xmlns="http://www.w3.org/2000/svg" version="1.1">
 <metadata>
  <rdf:RDF xmlns:dc="http://purl.org/dc/elements/1.1/" xmlns:cc="http://creativecommons.org/ns#" xmlns:rdf="http://www.w3.org/1999/02/22-rdf-syntax-ns#">
   <cc:Work>
    <dc:type rdf:resource="http://purl.org/dc/dcmitype/StillImage"/>
    <dc:date>2024-11-18T14:19:37.601764</dc:date>
    <dc:format>image/svg+xml</dc:format>
    <dc:creator>
     <cc:Agent>
      <dc:title>Matplotlib v3.9.2, https://matplotlib.org/</dc:title>
     </cc:Agent>
    </dc:creator>
   </cc:Work>
  </rdf:RDF>
 </metadata>
 <defs>
  <style type="text/css">*{stroke-linejoin: round; stroke-linecap: butt}</style>
 </defs>
 <g id="figure_1">
  <g id="patch_1">
   <path d="M 0 345.6 
L 460.8 345.6 
L 460.8 0 
L 0 0 
z
" style="fill: #ffffff"/>
  </g>
  <g id="axes_1">
   <g id="patch_2">
    <path d="M 57.6 307.584 
L 414.72 307.584 
L 414.72 41.472 
L 57.6 41.472 
z
" style="fill: #ffffff"/>
   </g>
   <g id="PolyCollection_1">
    <defs>
     <path id="m02ce62f26e" d="M 57.6 -38.016 
L 57.6 -38.016 
L 62.223782 -39.933602 
L 66.847563 -41.851203 
L 71.471345 -43.768805 
L 76.095126 -45.686407 
L 80.718908 -47.604008 
L 85.34269 -49.52161 
L 89.966471 -51.439212 
L 94.590253 -53.356813 
L 99.214034 -55.274415 
L 103.837816 -57.192016 
L 108.461597 -59.109618 
L 113.085379 -61.02722 
L 117.709161 -62.944821 
L 122.332942 -64.862423 
L 126.956724 -66.780025 
L 131.580505 -68.697626 
L 136.204287 -70.615228 
L 140.828069 -72.53283 
L 145.45185 -74.450431 
L 150.075632 -76.368033 
L 154.699413 -78.285635 
L 159.323195 -80.203236 
L 163.946977 -82.120838 
L 168.570758 -84.03844 
L 173.19454 -85.956041 
L 177.818321 -87.873643 
L 182.442103 -89.791244 
L 187.065884 -91.708846 
L 191.689666 -93.626448 
L 196.313448 -95.544049 
L 200.937229 -97.461651 
L 205.561011 -99.379253 
L 210.184792 -101.296854 
L 214.808574 -103.214456 
L 219.432356 -105.132058 
L 224.056137 -107.049659 
L 228.679919 -108.967261 
L 233.3037 -110.884863 
L 237.927482 -112.802464 
L 242.551264 -114.720066 
L 247.175045 -116.637668 
L 251.798827 -118.555269 
L 256.422608 -120.472871 
L 261.04639 -122.390473 
L 265.670171 -124.308074 
L 270.293953 -126.225676 
L 274.917735 -128.143277 
L 279.541516 -130.060879 
L 284.165298 -131.978481 
L 288.789079 -133.896082 
L 293.412861 -135.813684 
L 298.036643 -137.731286 
L 302.660424 -139.648887 
L 307.284206 -141.566489 
L 311.907987 -143.484091 
L 316.531769 -145.401692 
L 321.15555 -147.319294 
L 325.779332 -149.236896 
L 330.403114 -151.154497 
L 335.026895 -153.072099 
L 339.650677 -154.989701 
L 344.274458 -156.907302 
L 348.89824 -158.824904 
L 353.522022 -160.742505 
L 358.145803 -162.660107 
L 362.769585 -164.577709 
L 367.393366 -166.49531 
L 372.017148 -168.412912 
L 376.64093 -170.330514 
L 381.264711 -172.248115 
L 385.888493 -174.165717 
L 390.512274 -176.083319 
L 395.136056 -178.00092 
L 399.759837 -179.918522 
L 404.383619 -181.836124 
L 409.007401 -183.753725 
L 413.631182 -185.671327 
L 418.254964 -187.588929 
L 422.878745 -189.50653 
L 427.502527 -191.424132 
L 432.126309 -193.341733 
L 436.75009 -195.259335 
L 441.373872 -197.176937 
L 445.997653 -199.094538 
L 450.621435 -201.01214 
L 455.245217 -202.929742 
L 459.868998 -204.847343 
L 464.49278 -206.764945 
L 469.116561 -208.682547 
L 473.740343 -210.600148 
L 478.364124 -212.51775 
L 482.987906 -214.435352 
L 487.611688 -216.352953 
L 492.235469 -218.270555 
L 496.859251 -220.188157 
L 501.483032 -222.105758 
L 506.106814 -224.02336 
L 510.730596 -225.940962 
L 515.354377 -227.858563 
L 515.354377 -249.143256 
L 515.354377 -249.143256 
L 510.730596 -247.010657 
L 506.106814 -244.878059 
L 501.483032 -242.74546 
L 496.859251 -240.612862 
L 492.235469 -238.480263 
L 487.611688 -236.347664 
L 482.987906 -234.215066 
L 478.364124 -232.082467 
L 473.740343 -229.949869 
L 469.116561 -227.81727 
L 464.49278 -225.684672 
L 459.868998 -223.552073 
L 455.245217 -221.419475 
L 450.621435 -219.286876 
L 445.997653 -217.154278 
L 441.373872 -215.021679 
L 436.75009 -212.88908 
L 432.126309 -210.756482 
L 427.502527 -208.623883 
L 422.878745 -206.491285 
L 418.254964 -204.358686 
L 413.631182 -202.226088 
L 409.007401 -200.093489 
L 404.383619 -197.960891 
L 399.759837 -195.828292 
L 395.136056 -193.695694 
L 390.512274 -191.563095 
L 385.888493 -189.430497 
L 381.264711 -187.297898 
L 376.64093 -185.165299 
L 372.017148 -183.032701 
L 367.393366 -180.900102 
L 362.769585 -178.767504 
L 358.145803 -176.634905 
L 353.522022 -174.502307 
L 348.89824 -172.369708 
L 344.274458 -170.23711 
L 339.650677 -168.104511 
L 335.026895 -165.971913 
L 330.403114 -163.839314 
L 325.779332 -161.706715 
L 321.15555 -159.574117 
L 316.531769 -157.441518 
L 311.907987 -155.30892 
L 307.284206 -153.176321 
L 302.660424 -151.043723 
L 298.036643 -148.911124 
L 293.412861 -146.778526 
L 288.789079 -144.645927 
L 284.165298 -142.513329 
L 279.541516 -140.38073 
L 274.917735 -138.248132 
L 270.293953 -136.115533 
L 265.670171 -133.982934 
L 261.04639 -131.850336 
L 256.422608 -129.717737 
L 251.798827 -127.585139 
L 247.175045 -125.45254 
L 242.551264 -123.319942 
L 237.927482 -121.187343 
L 233.3037 -119.054745 
L 228.679919 -116.922146 
L 224.056137 -114.789548 
L 219.432356 -112.656949 
L 214.808574 -110.52435 
L 210.184792 -108.391752 
L 205.561011 -106.259153 
L 200.937229 -104.126555 
L 196.313448 -101.993956 
L 191.689666 -99.861358 
L 187.065884 -97.728759 
L 182.442103 -95.596161 
L 177.818321 -93.463562 
L 173.19454 -91.330964 
L 168.570758 -89.198365 
L 163.946977 -87.065766 
L 159.323195 -84.933168 
L 154.699413 -82.800569 
L 150.075632 -80.667971 
L 145.45185 -78.535372 
L 140.828069 -76.402774 
L 136.204287 -74.270175 
L 131.580505 -72.137577 
L 126.956724 -70.004978 
L 122.332942 -67.87238 
L 117.709161 -65.739781 
L 113.085379 -63.607183 
L 108.461597 -61.474584 
L 103.837816 -59.341985 
L 99.214034 -57.209387 
L 94.590253 -55.076788 
L 89.966471 -52.94419 
L 85.34269 -50.811591 
L 80.718908 -48.678993 
L 76.095126 -46.546394 
L 71.471345 -44.413796 
L 66.847563 -42.281197 
L 62.223782 -40.148599 
L 57.6 -38.016 
z
" style="stroke: #808080; stroke-opacity: 0.3"/>
    </defs>
    <g clip-path="url(#p0a94328ccd)">
     <use xlink:href="#m02ce62f26e" x="0" y="345.6" style="fill: #808080; fill-opacity: 0.3; stroke: #808080; stroke-opacity: 0.3"/>
    </g>
   </g>
   <g id="PolyCollection_2">
    <defs>
     <path id="m4847271c99" d="M 57.6 -38.016 
L 57.6 -38.016 
L 62.223782 -39.403459 
L 66.847563 -40.790918 
L 71.471345 -42.178377 
L 76.095126 -43.565835 
L 80.718908 -44.953294 
L 85.34269 -46.340753 
L 89.966471 -47.728212 
L 94.590253 -49.115671 
L 99.214034 -50.50313 
L 103.837816 -51.890589 
L 108.461597 -53.278048 
L 113.085379 -54.665506 
L 117.709161 -56.052965 
L 122.332942 -57.440424 
L 126.956724 -58.827883 
L 131.580505 -60.215342 
L 136.204287 -61.602801 
L 140.828069 -62.99026 
L 145.45185 -64.377718 
L 150.075632 -65.765177 
L 154.699413 -67.152636 
L 159.323195 -68.540095 
L 163.946977 -69.927554 
L 168.570758 -71.315013 
L 173.19454 -72.702472 
L 177.818321 -74.08993 
L 182.442103 -75.477389 
L 187.065884 -76.864848 
L 191.689666 -78.252307 
L 196.313448 -79.639766 
L 200.937229 -81.027225 
L 205.561011 -82.414684 
L 210.184792 -83.802143 
L 214.808574 -85.189601 
L 219.432356 -86.57706 
L 224.056137 -87.964519 
L 228.679919 -89.351978 
L 233.3037 -90.739437 
L 237.927482 -92.126896 
L 242.551264 -93.514355 
L 247.175045 -94.901813 
L 251.798827 -96.289272 
L 256.422608 -97.676731 
L 261.04639 -99.06419 
L 265.670171 -100.451649 
L 270.293953 -101.839108 
L 274.917735 -103.226567 
L 279.541516 -104.614026 
L 284.165298 -106.001484 
L 288.789079 -107.388943 
L 293.412861 -108.776402 
L 298.036643 -110.163861 
L 302.660424 -111.55132 
L 307.284206 -112.938779 
L 311.907987 -114.326238 
L 316.531769 -115.713696 
L 321.15555 -117.101155 
L 325.779332 -118.488614 
L 330.403114 -119.876073 
L 335.026895 -121.263532 
L 339.650677 -122.650991 
L 344.274458 -124.03845 
L 348.89824 -125.425909 
L 353.522022 -126.813367 
L 358.145803 -128.200826 
L 362.769585 -129.588285 
L 367.393366 -130.975744 
L 372.017148 -132.363203 
L 376.64093 -133.750662 
L 381.264711 -135.138121 
L 385.888493 -136.525579 
L 390.512274 -137.913038 
L 395.136056 -139.300497 
L 399.759837 -140.687956 
L 404.383619 -142.075415 
L 409.007401 -143.462874 
L 413.631182 -144.850333 
L 418.254964 -146.237791 
L 422.878745 -147.62525 
L 427.502527 -149.012709 
L 432.126309 -150.400168 
L 436.75009 -151.787627 
L 441.373872 -153.175086 
L 445.997653 -154.562545 
L 450.621435 -155.950004 
L 455.245217 -157.337462 
L 459.868998 -158.724921 
L 464.49278 -160.11238 
L 469.116561 -161.499839 
L 473.740343 -162.887298 
L 478.364124 -164.274757 
L 482.987906 -165.662216 
L 487.611688 -167.049674 
L 492.235469 -168.437133 
L 496.859251 -169.824592 
L 501.483032 -171.212051 
L 506.106814 -172.59951 
L 510.730596 -173.986969 
L 515.354377 -175.374428 
L 515.354377 -238.318903 
L 515.354377 -238.318903 
L 510.730596 -236.295641 
L 506.106814 -234.27238 
L 501.483032 -232.249118 
L 496.859251 -230.225856 
L 492.235469 -228.202595 
L 487.611688 -226.179333 
L 482.987906 -224.156072 
L 478.364124 -222.13281 
L 473.740343 -220.109548 
L 469.116561 -218.086287 
L 464.49278 -216.063025 
L 459.868998 -214.039763 
L 455.245217 -212.016502 
L 450.621435 -209.99324 
L 445.997653 -207.969978 
L 441.373872 -205.946717 
L 436.75009 -203.923455 
L 432.126309 -201.900193 
L 427.502527 -199.876932 
L 422.878745 -197.85367 
L 418.254964 -195.830408 
L 413.631182 -193.807147 
L 409.007401 -191.783885 
L 404.383619 -189.760624 
L 399.759837 -187.737362 
L 395.136056 -185.7141 
L 390.512274 -183.690839 
L 385.888493 -181.667577 
L 381.264711 -179.644315 
L 376.64093 -177.621054 
L 372.017148 -175.597792 
L 367.393366 -173.57453 
L 362.769585 -171.551269 
L 358.145803 -169.528007 
L 353.522022 -167.504745 
L 348.89824 -165.481484 
L 344.274458 -163.458222 
L 339.650677 -161.43496 
L 335.026895 -159.411699 
L 330.403114 -157.388437 
L 325.779332 -155.365176 
L 321.15555 -153.341914 
L 316.531769 -151.318652 
L 311.907987 -149.295391 
L 307.284206 -147.272129 
L 302.660424 -145.248867 
L 298.036643 -143.225606 
L 293.412861 -141.202344 
L 288.789079 -139.179082 
L 284.165298 -137.155821 
L 279.541516 -135.132559 
L 274.917735 -133.109297 
L 270.293953 -131.086036 
L 265.670171 -129.062774 
L 261.04639 -127.039512 
L 256.422608 -125.016251 
L 251.798827 -122.992989 
L 247.175045 -120.969728 
L 242.551264 -118.946466 
L 237.927482 -116.923204 
L 233.3037 -114.899943 
L 228.679919 -112.876681 
L 224.056137 -110.853419 
L 219.432356 -108.830158 
L 214.808574 -106.806896 
L 210.184792 -104.783634 
L 205.561011 -102.760373 
L 200.937229 -100.737111 
L 196.313448 -98.713849 
L 191.689666 -96.690588 
L 187.065884 -94.667326 
L 182.442103 -92.644064 
L 177.818321 -90.620803 
L 173.19454 -88.597541 
L 168.570758 -86.57428 
L 163.946977 -84.551018 
L 159.323195 -82.527756 
L 154.699413 -80.504495 
L 150.075632 -78.481233 
L 145.45185 -76.457971 
L 140.828069 -74.43471 
L 136.204287 -72.411448 
L 131.580505 -70.388186 
L 126.956724 -68.364925 
L 122.332942 -66.341663 
L 117.709161 -64.318401 
L 113.085379 -62.29514 
L 108.461597 -60.271878 
L 103.837816 -58.248616 
L 99.214034 -56.225355 
L 94.590253 -54.202093 
L 89.966471 -52.178832 
L 85.34269 -50.15557 
L 80.718908 -48.132308 
L 76.095126 -46.109047 
L 71.471345 -44.085785 
L 66.847563 -42.062523 
L 62.223782 -40.039262 
L 57.6 -38.016 
z
" style="stroke: #808080; stroke-opacity: 0.3"/>
    </defs>
    <g clip-path="url(#p0a94328ccd)">
     <use xlink:href="#m4847271c99" x="0" y="345.6" style="fill: #808080; fill-opacity: 0.3; stroke: #808080; stroke-opacity: 0.3"/>
    </g>
   </g>
   <g id="matplotlib.axis_1">
    <g id="xtick_1">
     <g id="line2d_1">
      <path d="M 57.6 307.584 
L 57.6 41.472 
" clip-path="url(#p0a94328ccd)" style="fill: none; stroke: #b0b0b0; stroke-width: 0.8; stroke-linecap: square"/>
     </g>
     <g id="line2d_2">
      <defs>
       <path id="m43c4e78835" d="M 0 0 
L 0 3.5 
" style="stroke: #000000; stroke-width: 0.8"/>
      </defs>
      <g>
       <use xlink:href="#m43c4e78835" x="57.6" y="307.584" style="stroke: #000000; stroke-width: 0.8"/>
      </g>
     </g>
     <g id="text_1">
      <!-- 0 -->
      <g transform="translate(54.41875 322.182437) scale(0.1 -0.1)">
       <defs>
        <path id="DejaVuSans-30" d="M 2034 4250 
Q 1547 4250 1301 3770 
Q 1056 3291 1056 2328 
Q 1056 1369 1301 889 
Q 1547 409 2034 409 
Q 2525 409 2770 889 
Q 3016 1369 3016 2328 
Q 3016 3291 2770 3770 
Q 2525 4250 2034 4250 
z
M 2034 4750 
Q 2819 4750 3233 4129 
Q 3647 3509 3647 2328 
Q 3647 1150 3233 529 
Q 2819 -91 2034 -91 
Q 1250 -91 836 529 
Q 422 1150 422 2328 
Q 422 3509 836 4129 
Q 1250 4750 2034 4750 
z
" transform="scale(0.015625)"/>
       </defs>
       <use xlink:href="#DejaVuSans-30"/>
      </g>
     </g>
    </g>
    <g id="xtick_2">
     <g id="line2d_3">
      <path d="M 117.12 307.584 
L 117.12 41.472 
" clip-path="url(#p0a94328ccd)" style="fill: none; stroke: #b0b0b0; stroke-width: 0.8; stroke-linecap: square"/>
     </g>
     <g id="line2d_4">
      <g>
       <use xlink:href="#m43c4e78835" x="117.12" y="307.584" style="stroke: #000000; stroke-width: 0.8"/>
      </g>
     </g>
     <g id="text_2">
      <!-- 20 -->
      <g transform="translate(110.7575 322.182437) scale(0.1 -0.1)">
       <defs>
        <path id="DejaVuSans-32" d="M 1228 531 
L 3431 531 
L 3431 0 
L 469 0 
L 469 531 
Q 828 903 1448 1529 
Q 2069 2156 2228 2338 
Q 2531 2678 2651 2914 
Q 2772 3150 2772 3378 
Q 2772 3750 2511 3984 
Q 2250 4219 1831 4219 
Q 1534 4219 1204 4116 
Q 875 4013 500 3803 
L 500 4441 
Q 881 4594 1212 4672 
Q 1544 4750 1819 4750 
Q 2544 4750 2975 4387 
Q 3406 4025 3406 3419 
Q 3406 3131 3298 2873 
Q 3191 2616 2906 2266 
Q 2828 2175 2409 1742 
Q 1991 1309 1228 531 
z
" transform="scale(0.015625)"/>
       </defs>
       <use xlink:href="#DejaVuSans-32"/>
       <use xlink:href="#DejaVuSans-30" x="63.623047"/>
      </g>
     </g>
    </g>
    <g id="xtick_3">
     <g id="line2d_5">
      <path d="M 176.64 307.584 
L 176.64 41.472 
" clip-path="url(#p0a94328ccd)" style="fill: none; stroke: #b0b0b0; stroke-width: 0.8; stroke-linecap: square"/>
     </g>
     <g id="line2d_6">
      <g>
       <use xlink:href="#m43c4e78835" x="176.64" y="307.584" style="stroke: #000000; stroke-width: 0.8"/>
      </g>
     </g>
     <g id="text_3">
      <!-- 40 -->
      <g transform="translate(170.2775 322.182437) scale(0.1 -0.1)">
       <defs>
        <path id="DejaVuSans-34" d="M 2419 4116 
L 825 1625 
L 2419 1625 
L 2419 4116 
z
M 2253 4666 
L 3047 4666 
L 3047 1625 
L 3713 1625 
L 3713 1100 
L 3047 1100 
L 3047 0 
L 2419 0 
L 2419 1100 
L 313 1100 
L 313 1709 
L 2253 4666 
z
" transform="scale(0.015625)"/>
       </defs>
       <use xlink:href="#DejaVuSans-34"/>
       <use xlink:href="#DejaVuSans-30" x="63.623047"/>
      </g>
     </g>
    </g>
    <g id="xtick_4">
     <g id="line2d_7">
      <path d="M 236.16 307.584 
L 236.16 41.472 
" clip-path="url(#p0a94328ccd)" style="fill: none; stroke: #b0b0b0; stroke-width: 0.8; stroke-linecap: square"/>
     </g>
     <g id="line2d_8">
      <g>
       <use xlink:href="#m43c4e78835" x="236.16" y="307.584" style="stroke: #000000; stroke-width: 0.8"/>
      </g>
     </g>
     <g id="text_4">
      <!-- 60 -->
      <g transform="translate(229.7975 322.182437) scale(0.1 -0.1)">
       <defs>
        <path id="DejaVuSans-36" d="M 2113 2584 
Q 1688 2584 1439 2293 
Q 1191 2003 1191 1497 
Q 1191 994 1439 701 
Q 1688 409 2113 409 
Q 2538 409 2786 701 
Q 3034 994 3034 1497 
Q 3034 2003 2786 2293 
Q 2538 2584 2113 2584 
z
M 3366 4563 
L 3366 3988 
Q 3128 4100 2886 4159 
Q 2644 4219 2406 4219 
Q 1781 4219 1451 3797 
Q 1122 3375 1075 2522 
Q 1259 2794 1537 2939 
Q 1816 3084 2150 3084 
Q 2853 3084 3261 2657 
Q 3669 2231 3669 1497 
Q 3669 778 3244 343 
Q 2819 -91 2113 -91 
Q 1303 -91 875 529 
Q 447 1150 447 2328 
Q 447 3434 972 4092 
Q 1497 4750 2381 4750 
Q 2619 4750 2861 4703 
Q 3103 4656 3366 4563 
z
" transform="scale(0.015625)"/>
       </defs>
       <use xlink:href="#DejaVuSans-36"/>
       <use xlink:href="#DejaVuSans-30" x="63.623047"/>
      </g>
     </g>
    </g>
    <g id="xtick_5">
     <g id="line2d_9">
      <path d="M 295.68 307.584 
L 295.68 41.472 
" clip-path="url(#p0a94328ccd)" style="fill: none; stroke: #b0b0b0; stroke-width: 0.8; stroke-linecap: square"/>
     </g>
     <g id="line2d_10">
      <g>
       <use xlink:href="#m43c4e78835" x="295.68" y="307.584" style="stroke: #000000; stroke-width: 0.8"/>
      </g>
     </g>
     <g id="text_5">
      <!-- 80 -->
      <g transform="translate(289.3175 322.182437) scale(0.1 -0.1)">
       <defs>
        <path id="DejaVuSans-38" d="M 2034 2216 
Q 1584 2216 1326 1975 
Q 1069 1734 1069 1313 
Q 1069 891 1326 650 
Q 1584 409 2034 409 
Q 2484 409 2743 651 
Q 3003 894 3003 1313 
Q 3003 1734 2745 1975 
Q 2488 2216 2034 2216 
z
M 1403 2484 
Q 997 2584 770 2862 
Q 544 3141 544 3541 
Q 544 4100 942 4425 
Q 1341 4750 2034 4750 
Q 2731 4750 3128 4425 
Q 3525 4100 3525 3541 
Q 3525 3141 3298 2862 
Q 3072 2584 2669 2484 
Q 3125 2378 3379 2068 
Q 3634 1759 3634 1313 
Q 3634 634 3220 271 
Q 2806 -91 2034 -91 
Q 1263 -91 848 271 
Q 434 634 434 1313 
Q 434 1759 690 2068 
Q 947 2378 1403 2484 
z
M 1172 3481 
Q 1172 3119 1398 2916 
Q 1625 2713 2034 2713 
Q 2441 2713 2670 2916 
Q 2900 3119 2900 3481 
Q 2900 3844 2670 4047 
Q 2441 4250 2034 4250 
Q 1625 4250 1398 4047 
Q 1172 3844 1172 3481 
z
" transform="scale(0.015625)"/>
       </defs>
       <use xlink:href="#DejaVuSans-38"/>
       <use xlink:href="#DejaVuSans-30" x="63.623047"/>
      </g>
     </g>
    </g>
    <g id="xtick_6">
     <g id="line2d_11">
      <path d="M 355.2 307.584 
L 355.2 41.472 
" clip-path="url(#p0a94328ccd)" style="fill: none; stroke: #b0b0b0; stroke-width: 0.8; stroke-linecap: square"/>
     </g>
     <g id="line2d_12">
      <g>
       <use xlink:href="#m43c4e78835" x="355.2" y="307.584" style="stroke: #000000; stroke-width: 0.8"/>
      </g>
     </g>
     <g id="text_6">
      <!-- 100 -->
      <g transform="translate(345.65625 322.182437) scale(0.1 -0.1)">
       <defs>
        <path id="DejaVuSans-31" d="M 794 531 
L 1825 531 
L 1825 4091 
L 703 3866 
L 703 4441 
L 1819 4666 
L 2450 4666 
L 2450 531 
L 3481 531 
L 3481 0 
L 794 0 
L 794 531 
z
" transform="scale(0.015625)"/>
       </defs>
       <use xlink:href="#DejaVuSans-31"/>
       <use xlink:href="#DejaVuSans-30" x="63.623047"/>
       <use xlink:href="#DejaVuSans-30" x="127.246094"/>
      </g>
     </g>
    </g>
    <g id="xtick_7">
     <g id="line2d_13">
      <path d="M 414.72 307.584 
L 414.72 41.472 
" clip-path="url(#p0a94328ccd)" style="fill: none; stroke: #b0b0b0; stroke-width: 0.8; stroke-linecap: square"/>
     </g>
     <g id="line2d_14">
      <g>
       <use xlink:href="#m43c4e78835" x="414.72" y="307.584" style="stroke: #000000; stroke-width: 0.8"/>
      </g>
     </g>
     <g id="text_7">
      <!-- 120 -->
      <g transform="translate(405.17625 322.182437) scale(0.1 -0.1)">
       <use xlink:href="#DejaVuSans-31"/>
       <use xlink:href="#DejaVuSans-32" x="63.623047"/>
       <use xlink:href="#DejaVuSans-30" x="127.246094"/>
      </g>
     </g>
    </g>
    <g id="text_8">
     <!-- Force of Gravity (N) -->
     <g transform="translate(187.146719 335.860562) scale(0.1 -0.1)">
      <defs>
       <path id="DejaVuSans-46" d="M 628 4666 
L 3309 4666 
L 3309 4134 
L 1259 4134 
L 1259 2759 
L 3109 2759 
L 3109 2228 
L 1259 2228 
L 1259 0 
L 628 0 
L 628 4666 
z
" transform="scale(0.015625)"/>
       <path id="DejaVuSans-6f" d="M 1959 3097 
Q 1497 3097 1228 2736 
Q 959 2375 959 1747 
Q 959 1119 1226 758 
Q 1494 397 1959 397 
Q 2419 397 2687 759 
Q 2956 1122 2956 1747 
Q 2956 2369 2687 2733 
Q 2419 3097 1959 3097 
z
M 1959 3584 
Q 2709 3584 3137 3096 
Q 3566 2609 3566 1747 
Q 3566 888 3137 398 
Q 2709 -91 1959 -91 
Q 1206 -91 779 398 
Q 353 888 353 1747 
Q 353 2609 779 3096 
Q 1206 3584 1959 3584 
z
" transform="scale(0.015625)"/>
       <path id="DejaVuSans-72" d="M 2631 2963 
Q 2534 3019 2420 3045 
Q 2306 3072 2169 3072 
Q 1681 3072 1420 2755 
Q 1159 2438 1159 1844 
L 1159 0 
L 581 0 
L 581 3500 
L 1159 3500 
L 1159 2956 
Q 1341 3275 1631 3429 
Q 1922 3584 2338 3584 
Q 2397 3584 2469 3576 
Q 2541 3569 2628 3553 
L 2631 2963 
z
" transform="scale(0.015625)"/>
       <path id="DejaVuSans-63" d="M 3122 3366 
L 3122 2828 
Q 2878 2963 2633 3030 
Q 2388 3097 2138 3097 
Q 1578 3097 1268 2742 
Q 959 2388 959 1747 
Q 959 1106 1268 751 
Q 1578 397 2138 397 
Q 2388 397 2633 464 
Q 2878 531 3122 666 
L 3122 134 
Q 2881 22 2623 -34 
Q 2366 -91 2075 -91 
Q 1284 -91 818 406 
Q 353 903 353 1747 
Q 353 2603 823 3093 
Q 1294 3584 2113 3584 
Q 2378 3584 2631 3529 
Q 2884 3475 3122 3366 
z
" transform="scale(0.015625)"/>
       <path id="DejaVuSans-65" d="M 3597 1894 
L 3597 1613 
L 953 1613 
Q 991 1019 1311 708 
Q 1631 397 2203 397 
Q 2534 397 2845 478 
Q 3156 559 3463 722 
L 3463 178 
Q 3153 47 2828 -22 
Q 2503 -91 2169 -91 
Q 1331 -91 842 396 
Q 353 884 353 1716 
Q 353 2575 817 3079 
Q 1281 3584 2069 3584 
Q 2775 3584 3186 3129 
Q 3597 2675 3597 1894 
z
M 3022 2063 
Q 3016 2534 2758 2815 
Q 2500 3097 2075 3097 
Q 1594 3097 1305 2825 
Q 1016 2553 972 2059 
L 3022 2063 
z
" transform="scale(0.015625)"/>
       <path id="DejaVuSans-20" transform="scale(0.015625)"/>
       <path id="DejaVuSans-66" d="M 2375 4863 
L 2375 4384 
L 1825 4384 
Q 1516 4384 1395 4259 
Q 1275 4134 1275 3809 
L 1275 3500 
L 2222 3500 
L 2222 3053 
L 1275 3053 
L 1275 0 
L 697 0 
L 697 3053 
L 147 3053 
L 147 3500 
L 697 3500 
L 697 3744 
Q 697 4328 969 4595 
Q 1241 4863 1831 4863 
L 2375 4863 
z
" transform="scale(0.015625)"/>
       <path id="DejaVuSans-47" d="M 3809 666 
L 3809 1919 
L 2778 1919 
L 2778 2438 
L 4434 2438 
L 4434 434 
Q 4069 175 3628 42 
Q 3188 -91 2688 -91 
Q 1594 -91 976 548 
Q 359 1188 359 2328 
Q 359 3472 976 4111 
Q 1594 4750 2688 4750 
Q 3144 4750 3555 4637 
Q 3966 4525 4313 4306 
L 4313 3634 
Q 3963 3931 3569 4081 
Q 3175 4231 2741 4231 
Q 1884 4231 1454 3753 
Q 1025 3275 1025 2328 
Q 1025 1384 1454 906 
Q 1884 428 2741 428 
Q 3075 428 3337 486 
Q 3600 544 3809 666 
z
" transform="scale(0.015625)"/>
       <path id="DejaVuSans-61" d="M 2194 1759 
Q 1497 1759 1228 1600 
Q 959 1441 959 1056 
Q 959 750 1161 570 
Q 1363 391 1709 391 
Q 2188 391 2477 730 
Q 2766 1069 2766 1631 
L 2766 1759 
L 2194 1759 
z
M 3341 1997 
L 3341 0 
L 2766 0 
L 2766 531 
Q 2569 213 2275 61 
Q 1981 -91 1556 -91 
Q 1019 -91 701 211 
Q 384 513 384 1019 
Q 384 1609 779 1909 
Q 1175 2209 1959 2209 
L 2766 2209 
L 2766 2266 
Q 2766 2663 2505 2880 
Q 2244 3097 1772 3097 
Q 1472 3097 1187 3025 
Q 903 2953 641 2809 
L 641 3341 
Q 956 3463 1253 3523 
Q 1550 3584 1831 3584 
Q 2591 3584 2966 3190 
Q 3341 2797 3341 1997 
z
" transform="scale(0.015625)"/>
       <path id="DejaVuSans-76" d="M 191 3500 
L 800 3500 
L 1894 563 
L 2988 3500 
L 3597 3500 
L 2284 0 
L 1503 0 
L 191 3500 
z
" transform="scale(0.015625)"/>
       <path id="DejaVuSans-69" d="M 603 3500 
L 1178 3500 
L 1178 0 
L 603 0 
L 603 3500 
z
M 603 4863 
L 1178 4863 
L 1178 4134 
L 603 4134 
L 603 4863 
z
" transform="scale(0.015625)"/>
       <path id="DejaVuSans-74" d="M 1172 4494 
L 1172 3500 
L 2356 3500 
L 2356 3053 
L 1172 3053 
L 1172 1153 
Q 1172 725 1289 603 
Q 1406 481 1766 481 
L 2356 481 
L 2356 0 
L 1766 0 
Q 1100 0 847 248 
Q 594 497 594 1153 
L 594 3053 
L 172 3053 
L 172 3500 
L 594 3500 
L 594 4494 
L 1172 4494 
z
" transform="scale(0.015625)"/>
       <path id="DejaVuSans-79" d="M 2059 -325 
Q 1816 -950 1584 -1140 
Q 1353 -1331 966 -1331 
L 506 -1331 
L 506 -850 
L 844 -850 
Q 1081 -850 1212 -737 
Q 1344 -625 1503 -206 
L 1606 56 
L 191 3500 
L 800 3500 
L 1894 763 
L 2988 3500 
L 3597 3500 
L 2059 -325 
z
" transform="scale(0.015625)"/>
       <path id="DejaVuSans-28" d="M 1984 4856 
Q 1566 4138 1362 3434 
Q 1159 2731 1159 2009 
Q 1159 1288 1364 580 
Q 1569 -128 1984 -844 
L 1484 -844 
Q 1016 -109 783 600 
Q 550 1309 550 2009 
Q 550 2706 781 3412 
Q 1013 4119 1484 4856 
L 1984 4856 
z
" transform="scale(0.015625)"/>
       <path id="DejaVuSans-4e" d="M 628 4666 
L 1478 4666 
L 3547 763 
L 3547 4666 
L 4159 4666 
L 4159 0 
L 3309 0 
L 1241 3903 
L 1241 0 
L 628 0 
L 628 4666 
z
" transform="scale(0.015625)"/>
       <path id="DejaVuSans-29" d="M 513 4856 
L 1013 4856 
Q 1481 4119 1714 3412 
Q 1947 2706 1947 2009 
Q 1947 1309 1714 600 
Q 1481 -109 1013 -844 
L 513 -844 
Q 928 -128 1133 580 
Q 1338 1288 1338 2009 
Q 1338 2731 1133 3434 
Q 928 4138 513 4856 
z
" transform="scale(0.015625)"/>
      </defs>
      <use xlink:href="#DejaVuSans-46"/>
      <use xlink:href="#DejaVuSans-6f" x="53.894531"/>
      <use xlink:href="#DejaVuSans-72" x="115.076172"/>
      <use xlink:href="#DejaVuSans-63" x="153.939453"/>
      <use xlink:href="#DejaVuSans-65" x="208.919922"/>
      <use xlink:href="#DejaVuSans-20" x="270.443359"/>
      <use xlink:href="#DejaVuSans-6f" x="302.230469"/>
      <use xlink:href="#DejaVuSans-66" x="363.412109"/>
      <use xlink:href="#DejaVuSans-20" x="398.617188"/>
      <use xlink:href="#DejaVuSans-47" x="430.404297"/>
      <use xlink:href="#DejaVuSans-72" x="507.894531"/>
      <use xlink:href="#DejaVuSans-61" x="549.007812"/>
      <use xlink:href="#DejaVuSans-76" x="610.287109"/>
      <use xlink:href="#DejaVuSans-69" x="669.466797"/>
      <use xlink:href="#DejaVuSans-74" x="697.25"/>
      <use xlink:href="#DejaVuSans-79" x="736.458984"/>
      <use xlink:href="#DejaVuSans-20" x="795.638672"/>
      <use xlink:href="#DejaVuSans-28" x="827.425781"/>
      <use xlink:href="#DejaVuSans-4e" x="866.439453"/>
      <use xlink:href="#DejaVuSans-29" x="941.244141"/>
     </g>
    </g>
   </g>
   <g id="matplotlib.axis_2">
    <g id="ytick_1">
     <g id="line2d_15">
      <path d="M 57.6 307.584 
L 414.72 307.584 
" clip-path="url(#p0a94328ccd)" style="fill: none; stroke: #b0b0b0; stroke-width: 0.8; stroke-linecap: square"/>
     </g>
     <g id="line2d_16">
      <defs>
       <path id="m86eb088521" d="M 0 0 
L -3.5 0 
" style="stroke: #000000; stroke-width: 0.8"/>
      </defs>
      <g>
       <use xlink:href="#m86eb088521" x="57.6" y="307.584" style="stroke: #000000; stroke-width: 0.8"/>
      </g>
     </g>
     <g id="text_9">
      <!-- 0 -->
      <g transform="translate(44.2375 311.383219) scale(0.1 -0.1)">
       <use xlink:href="#DejaVuSans-30"/>
      </g>
     </g>
    </g>
    <g id="ytick_2">
     <g id="line2d_17">
      <path d="M 57.6 278.016 
L 414.72 278.016 
" clip-path="url(#p0a94328ccd)" style="fill: none; stroke: #b0b0b0; stroke-width: 0.8; stroke-linecap: square"/>
     </g>
     <g id="line2d_18">
      <g>
       <use xlink:href="#m86eb088521" x="57.6" y="278.016" style="stroke: #000000; stroke-width: 0.8"/>
      </g>
     </g>
     <g id="text_10">
      <!-- 5 -->
      <g transform="translate(44.2375 281.815219) scale(0.1 -0.1)">
       <defs>
        <path id="DejaVuSans-35" d="M 691 4666 
L 3169 4666 
L 3169 4134 
L 1269 4134 
L 1269 2991 
Q 1406 3038 1543 3061 
Q 1681 3084 1819 3084 
Q 2600 3084 3056 2656 
Q 3513 2228 3513 1497 
Q 3513 744 3044 326 
Q 2575 -91 1722 -91 
Q 1428 -91 1123 -41 
Q 819 9 494 109 
L 494 744 
Q 775 591 1075 516 
Q 1375 441 1709 441 
Q 2250 441 2565 725 
Q 2881 1009 2881 1497 
Q 2881 1984 2565 2268 
Q 2250 2553 1709 2553 
Q 1456 2553 1204 2497 
Q 953 2441 691 2322 
L 691 4666 
z
" transform="scale(0.015625)"/>
       </defs>
       <use xlink:href="#DejaVuSans-35"/>
      </g>
     </g>
    </g>
    <g id="ytick_3">
     <g id="line2d_19">
      <path d="M 57.6 248.448 
L 414.72 248.448 
" clip-path="url(#p0a94328ccd)" style="fill: none; stroke: #b0b0b0; stroke-width: 0.8; stroke-linecap: square"/>
     </g>
     <g id="line2d_20">
      <g>
       <use xlink:href="#m86eb088521" x="57.6" y="248.448" style="stroke: #000000; stroke-width: 0.8"/>
      </g>
     </g>
     <g id="text_11">
      <!-- 10 -->
      <g transform="translate(37.875 252.247219) scale(0.1 -0.1)">
       <use xlink:href="#DejaVuSans-31"/>
       <use xlink:href="#DejaVuSans-30" x="63.623047"/>
      </g>
     </g>
    </g>
    <g id="ytick_4">
     <g id="line2d_21">
      <path d="M 57.6 218.88 
L 414.72 218.88 
" clip-path="url(#p0a94328ccd)" style="fill: none; stroke: #b0b0b0; stroke-width: 0.8; stroke-linecap: square"/>
     </g>
     <g id="line2d_22">
      <g>
       <use xlink:href="#m86eb088521" x="57.6" y="218.88" style="stroke: #000000; stroke-width: 0.8"/>
      </g>
     </g>
     <g id="text_12">
      <!-- 15 -->
      <g transform="translate(37.875 222.679219) scale(0.1 -0.1)">
       <use xlink:href="#DejaVuSans-31"/>
       <use xlink:href="#DejaVuSans-35" x="63.623047"/>
      </g>
     </g>
    </g>
    <g id="ytick_5">
     <g id="line2d_23">
      <path d="M 57.6 189.312 
L 414.72 189.312 
" clip-path="url(#p0a94328ccd)" style="fill: none; stroke: #b0b0b0; stroke-width: 0.8; stroke-linecap: square"/>
     </g>
     <g id="line2d_24">
      <g>
       <use xlink:href="#m86eb088521" x="57.6" y="189.312" style="stroke: #000000; stroke-width: 0.8"/>
      </g>
     </g>
     <g id="text_13">
      <!-- 20 -->
      <g transform="translate(37.875 193.111219) scale(0.1 -0.1)">
       <use xlink:href="#DejaVuSans-32"/>
       <use xlink:href="#DejaVuSans-30" x="63.623047"/>
      </g>
     </g>
    </g>
    <g id="ytick_6">
     <g id="line2d_25">
      <path d="M 57.6 159.744 
L 414.72 159.744 
" clip-path="url(#p0a94328ccd)" style="fill: none; stroke: #b0b0b0; stroke-width: 0.8; stroke-linecap: square"/>
     </g>
     <g id="line2d_26">
      <g>
       <use xlink:href="#m86eb088521" x="57.6" y="159.744" style="stroke: #000000; stroke-width: 0.8"/>
      </g>
     </g>
     <g id="text_14">
      <!-- 25 -->
      <g transform="translate(37.875 163.543219) scale(0.1 -0.1)">
       <use xlink:href="#DejaVuSans-32"/>
       <use xlink:href="#DejaVuSans-35" x="63.623047"/>
      </g>
     </g>
    </g>
    <g id="ytick_7">
     <g id="line2d_27">
      <path d="M 57.6 130.176 
L 414.72 130.176 
" clip-path="url(#p0a94328ccd)" style="fill: none; stroke: #b0b0b0; stroke-width: 0.8; stroke-linecap: square"/>
     </g>
     <g id="line2d_28">
      <g>
       <use xlink:href="#m86eb088521" x="57.6" y="130.176" style="stroke: #000000; stroke-width: 0.8"/>
      </g>
     </g>
     <g id="text_15">
      <!-- 30 -->
      <g transform="translate(37.875 133.975219) scale(0.1 -0.1)">
       <defs>
        <path id="DejaVuSans-33" d="M 2597 2516 
Q 3050 2419 3304 2112 
Q 3559 1806 3559 1356 
Q 3559 666 3084 287 
Q 2609 -91 1734 -91 
Q 1441 -91 1130 -33 
Q 819 25 488 141 
L 488 750 
Q 750 597 1062 519 
Q 1375 441 1716 441 
Q 2309 441 2620 675 
Q 2931 909 2931 1356 
Q 2931 1769 2642 2001 
Q 2353 2234 1838 2234 
L 1294 2234 
L 1294 2753 
L 1863 2753 
Q 2328 2753 2575 2939 
Q 2822 3125 2822 3475 
Q 2822 3834 2567 4026 
Q 2313 4219 1838 4219 
Q 1578 4219 1281 4162 
Q 984 4106 628 3988 
L 628 4550 
Q 988 4650 1302 4700 
Q 1616 4750 1894 4750 
Q 2613 4750 3031 4423 
Q 3450 4097 3450 3541 
Q 3450 3153 3228 2886 
Q 3006 2619 2597 2516 
z
" transform="scale(0.015625)"/>
       </defs>
       <use xlink:href="#DejaVuSans-33"/>
       <use xlink:href="#DejaVuSans-30" x="63.623047"/>
      </g>
     </g>
    </g>
    <g id="ytick_8">
     <g id="line2d_29">
      <path d="M 57.6 100.608 
L 414.72 100.608 
" clip-path="url(#p0a94328ccd)" style="fill: none; stroke: #b0b0b0; stroke-width: 0.8; stroke-linecap: square"/>
     </g>
     <g id="line2d_30">
      <g>
       <use xlink:href="#m86eb088521" x="57.6" y="100.608" style="stroke: #000000; stroke-width: 0.8"/>
      </g>
     </g>
     <g id="text_16">
      <!-- 35 -->
      <g transform="translate(37.875 104.407219) scale(0.1 -0.1)">
       <use xlink:href="#DejaVuSans-33"/>
       <use xlink:href="#DejaVuSans-35" x="63.623047"/>
      </g>
     </g>
    </g>
    <g id="ytick_9">
     <g id="line2d_31">
      <path d="M 57.6 71.04 
L 414.72 71.04 
" clip-path="url(#p0a94328ccd)" style="fill: none; stroke: #b0b0b0; stroke-width: 0.8; stroke-linecap: square"/>
     </g>
     <g id="line2d_32">
      <g>
       <use xlink:href="#m86eb088521" x="57.6" y="71.04" style="stroke: #000000; stroke-width: 0.8"/>
      </g>
     </g>
     <g id="text_17">
      <!-- 40 -->
      <g transform="translate(37.875 74.839219) scale(0.1 -0.1)">
       <use xlink:href="#DejaVuSans-34"/>
       <use xlink:href="#DejaVuSans-30" x="63.623047"/>
      </g>
     </g>
    </g>
    <g id="ytick_10">
     <g id="line2d_33">
      <path d="M 57.6 41.472 
L 414.72 41.472 
" clip-path="url(#p0a94328ccd)" style="fill: none; stroke: #b0b0b0; stroke-width: 0.8; stroke-linecap: square"/>
     </g>
     <g id="line2d_34">
      <g>
       <use xlink:href="#m86eb088521" x="57.6" y="41.472" style="stroke: #000000; stroke-width: 0.8"/>
      </g>
     </g>
     <g id="text_18">
      <!-- 45 -->
      <g transform="translate(37.875 45.271219) scale(0.1 -0.1)">
       <use xlink:href="#DejaVuSans-34"/>
       <use xlink:href="#DejaVuSans-35" x="63.623047"/>
      </g>
     </g>
    </g>
    <g id="text_19">
     <!-- Pull Force (N) -->
     <g transform="translate(31.795312 207.745187) rotate(-90) scale(0.1 -0.1)">
      <defs>
       <path id="DejaVuSans-50" d="M 1259 4147 
L 1259 2394 
L 2053 2394 
Q 2494 2394 2734 2622 
Q 2975 2850 2975 3272 
Q 2975 3691 2734 3919 
Q 2494 4147 2053 4147 
L 1259 4147 
z
M 628 4666 
L 2053 4666 
Q 2838 4666 3239 4311 
Q 3641 3956 3641 3272 
Q 3641 2581 3239 2228 
Q 2838 1875 2053 1875 
L 1259 1875 
L 1259 0 
L 628 0 
L 628 4666 
z
" transform="scale(0.015625)"/>
       <path id="DejaVuSans-75" d="M 544 1381 
L 544 3500 
L 1119 3500 
L 1119 1403 
Q 1119 906 1312 657 
Q 1506 409 1894 409 
Q 2359 409 2629 706 
Q 2900 1003 2900 1516 
L 2900 3500 
L 3475 3500 
L 3475 0 
L 2900 0 
L 2900 538 
Q 2691 219 2414 64 
Q 2138 -91 1772 -91 
Q 1169 -91 856 284 
Q 544 659 544 1381 
z
M 1991 3584 
L 1991 3584 
z
" transform="scale(0.015625)"/>
       <path id="DejaVuSans-6c" d="M 603 4863 
L 1178 4863 
L 1178 0 
L 603 0 
L 603 4863 
z
" transform="scale(0.015625)"/>
      </defs>
      <use xlink:href="#DejaVuSans-50"/>
      <use xlink:href="#DejaVuSans-75" x="58.552734"/>
      <use xlink:href="#DejaVuSans-6c" x="121.931641"/>
      <use xlink:href="#DejaVuSans-6c" x="149.714844"/>
      <use xlink:href="#DejaVuSans-20" x="177.498047"/>
      <use xlink:href="#DejaVuSans-46" x="209.285156"/>
      <use xlink:href="#DejaVuSans-6f" x="263.179688"/>
      <use xlink:href="#DejaVuSans-72" x="324.361328"/>
      <use xlink:href="#DejaVuSans-63" x="363.224609"/>
      <use xlink:href="#DejaVuSans-65" x="418.205078"/>
      <use xlink:href="#DejaVuSans-20" x="479.728516"/>
      <use xlink:href="#DejaVuSans-28" x="511.515625"/>
      <use xlink:href="#DejaVuSans-4e" x="550.529297"/>
      <use xlink:href="#DejaVuSans-29" x="625.333984"/>
     </g>
    </g>
   </g>
   <g id="LineCollection_1">
    <path d="M 73.684684 302.375096 
L 73.684684 301.630984 
" clip-path="url(#p0a94328ccd)" style="fill: none; stroke: #ff0000; stroke-width: 1.5"/>
    <path d="M 85.24808 299.265416 
L 85.24808 298.457464 
" clip-path="url(#p0a94328ccd)" style="fill: none; stroke: #ff0000; stroke-width: 1.5"/>
    <path d="M 218.227134 255.983875 
L 218.227134 246.456125 
" clip-path="url(#p0a94328ccd)" style="fill: none; stroke: #ff0000; stroke-width: 1.5"/>
    <path d="M 362.769585 169.933641 
L 362.769585 159.163959 
" clip-path="url(#p0a94328ccd)" style="fill: none; stroke: #ff0000; stroke-width: 1.5"/>
   </g>
   <g id="line2d_35">
    <path d="M 57.6 307.584 
L 62.223782 305.5589 
L 66.847563 303.5338 
L 71.471345 301.5087 
L 76.095126 299.4836 
L 80.718908 297.4585 
L 85.34269 295.433399 
L 89.966471 293.408299 
L 94.590253 291.383199 
L 99.214034 289.358099 
L 103.837816 287.332999 
L 108.461597 285.307899 
L 113.085379 283.282799 
L 117.709161 281.257699 
L 122.332942 279.232599 
L 126.956724 277.207499 
L 131.580505 275.182398 
L 136.204287 273.157298 
L 140.828069 271.132198 
L 145.45185 269.107098 
L 150.075632 267.081998 
L 154.699413 265.056898 
L 159.323195 263.031798 
L 163.946977 261.006698 
L 168.570758 258.981598 
L 173.19454 256.956498 
L 177.818321 254.931398 
L 182.442103 252.906297 
L 187.065884 250.881197 
L 191.689666 248.856097 
L 196.313448 246.830997 
L 200.937229 244.805897 
L 205.561011 242.780797 
L 210.184792 240.755697 
L 214.808574 238.730597 
L 219.432356 236.705497 
L 224.056137 234.680397 
L 228.679919 232.655296 
L 233.3037 230.630196 
L 237.927482 228.605096 
L 242.551264 226.579996 
L 247.175045 224.554896 
L 251.798827 222.529796 
L 256.422608 220.504696 
L 261.04639 218.479596 
L 265.670171 216.454496 
L 270.293953 214.429396 
L 274.917735 212.404296 
L 279.541516 210.379195 
L 284.165298 208.354095 
L 288.789079 206.328995 
L 293.412861 204.303895 
L 298.036643 202.278795 
L 302.660424 200.253695 
L 307.284206 198.228595 
L 311.907987 196.203495 
L 316.531769 194.178395 
L 321.15555 192.153295 
L 325.779332 190.128194 
L 330.403114 188.103094 
L 335.026895 186.077994 
L 339.650677 184.052894 
L 344.274458 182.027794 
L 348.89824 180.002694 
L 353.522022 177.977594 
L 358.145803 175.952494 
L 362.769585 173.927394 
L 367.393366 171.902294 
L 372.017148 169.877194 
L 376.64093 167.852093 
L 381.264711 165.826993 
L 385.888493 163.801893 
L 390.512274 161.776793 
L 395.136056 159.751693 
L 399.759837 157.726593 
L 404.383619 155.701493 
L 409.007401 153.676393 
L 413.631182 151.651293 
L 418.254964 149.626193 
L 422.878745 147.601092 
L 427.502527 145.575992 
L 432.126309 143.550892 
L 436.75009 141.525792 
L 441.373872 139.500692 
L 445.997653 137.475592 
L 450.621435 135.450492 
L 455.245217 133.425392 
L 459.868998 131.400292 
L 461.8 130.554561 
" clip-path="url(#p0a94328ccd)" style="fill: none; stroke: #ff0000; stroke-width: 1.5; stroke-linecap: square"/>
   </g>
   <g id="line2d_36">
    <path d="M 57.6 307.584 
L 62.223782 305.451401 
L 66.847563 303.318803 
L 71.471345 301.186204 
L 76.095126 299.053606 
L 80.718908 296.921007 
L 85.34269 294.788409 
L 89.966471 292.65581 
L 94.590253 290.523212 
L 99.214034 288.390613 
L 103.837816 286.258015 
L 108.461597 284.125416 
L 113.085379 281.992817 
L 117.709161 279.860219 
L 122.332942 277.72762 
L 126.956724 275.595022 
L 131.580505 273.462423 
L 136.204287 271.329825 
L 140.828069 269.197226 
L 145.45185 267.064628 
L 150.075632 264.932029 
L 154.699413 262.799431 
L 159.323195 260.666832 
L 163.946977 258.534234 
L 168.570758 256.401635 
L 173.19454 254.269036 
L 177.818321 252.136438 
L 182.442103 250.003839 
L 187.065884 247.871241 
L 191.689666 245.738642 
L 196.313448 243.606044 
L 200.937229 241.473445 
L 205.561011 239.340847 
L 210.184792 237.208248 
L 214.808574 235.07565 
L 219.432356 232.943051 
L 224.056137 230.810452 
L 228.679919 228.677854 
L 233.3037 226.545255 
L 237.927482 224.412657 
L 242.551264 222.280058 
L 247.175045 220.14746 
L 251.798827 218.014861 
L 256.422608 215.882263 
L 261.04639 213.749664 
L 265.670171 211.617066 
L 270.293953 209.484467 
L 274.917735 207.351868 
L 279.541516 205.21927 
L 284.165298 203.086671 
L 288.789079 200.954073 
L 293.412861 198.821474 
L 298.036643 196.688876 
L 302.660424 194.556277 
L 307.284206 192.423679 
L 311.907987 190.29108 
L 316.531769 188.158482 
L 321.15555 186.025883 
L 325.779332 183.893285 
L 330.403114 181.760686 
L 335.026895 179.628087 
L 339.650677 177.495489 
L 344.274458 175.36289 
L 348.89824 173.230292 
L 353.522022 171.097693 
L 358.145803 168.965095 
L 362.769585 166.832496 
L 367.393366 164.699898 
L 372.017148 162.567299 
L 376.64093 160.434701 
L 381.264711 158.302102 
L 385.888493 156.169503 
L 390.512274 154.036905 
L 395.136056 151.904306 
L 399.759837 149.771708 
L 404.383619 147.639109 
L 409.007401 145.506511 
L 413.631182 143.373912 
L 418.254964 141.241314 
L 422.878745 139.108715 
L 427.502527 136.976117 
L 432.126309 134.843518 
L 436.75009 132.71092 
L 441.373872 130.578321 
L 445.997653 128.445722 
L 450.621435 126.313124 
L 455.245217 124.180525 
L 459.868998 122.047927 
L 461.8 121.157303 
" clip-path="url(#p0a94328ccd)" style="fill: none; stroke-dasharray: 2.96,1.28; stroke-dashoffset: 0; stroke: #ff0000; stroke-width: 0.8"/>
   </g>
   <g id="line2d_37">
    <path d="M 57.6 307.584 
L 62.223782 305.666398 
L 66.847563 303.748797 
L 71.471345 301.831195 
L 76.095126 299.913593 
L 80.718908 297.995992 
L 85.34269 296.07839 
L 89.966471 294.160788 
L 94.590253 292.243187 
L 99.214034 290.325585 
L 103.837816 288.407984 
L 108.461597 286.490382 
L 113.085379 284.57278 
L 117.709161 282.655179 
L 122.332942 280.737577 
L 126.956724 278.819975 
L 131.580505 276.902374 
L 136.204287 274.984772 
L 140.828069 273.06717 
L 145.45185 271.149569 
L 150.075632 269.231967 
L 154.699413 267.314365 
L 159.323195 265.396764 
L 163.946977 263.479162 
L 168.570758 261.56156 
L 173.19454 259.643959 
L 177.818321 257.726357 
L 182.442103 255.808756 
L 187.065884 253.891154 
L 191.689666 251.973552 
L 196.313448 250.055951 
L 200.937229 248.138349 
L 205.561011 246.220747 
L 210.184792 244.303146 
L 214.808574 242.385544 
L 219.432356 240.467942 
L 224.056137 238.550341 
L 228.679919 236.632739 
L 233.3037 234.715137 
L 237.927482 232.797536 
L 242.551264 230.879934 
L 247.175045 228.962332 
L 251.798827 227.044731 
L 256.422608 225.127129 
L 261.04639 223.209527 
L 265.670171 221.291926 
L 270.293953 219.374324 
L 274.917735 217.456723 
L 279.541516 215.539121 
L 284.165298 213.621519 
L 288.789079 211.703918 
L 293.412861 209.786316 
L 298.036643 207.868714 
L 302.660424 205.951113 
L 307.284206 204.033511 
L 311.907987 202.115909 
L 316.531769 200.198308 
L 321.15555 198.280706 
L 325.779332 196.363104 
L 330.403114 194.445503 
L 335.026895 192.527901 
L 339.650677 190.610299 
L 344.274458 188.692698 
L 348.89824 186.775096 
L 353.522022 184.857495 
L 358.145803 182.939893 
L 362.769585 181.022291 
L 367.393366 179.10469 
L 372.017148 177.187088 
L 376.64093 175.269486 
L 381.264711 173.351885 
L 385.888493 171.434283 
L 390.512274 169.516681 
L 395.136056 167.59908 
L 399.759837 165.681478 
L 404.383619 163.763876 
L 409.007401 161.846275 
L 413.631182 159.928673 
L 418.254964 158.011071 
L 422.878745 156.09347 
L 427.502527 154.175868 
L 432.126309 152.258267 
L 436.75009 150.340665 
L 441.373872 148.423063 
L 445.997653 146.505462 
L 450.621435 144.58786 
L 455.245217 142.670258 
L 459.868998 140.752657 
L 461.8 139.95182 
" clip-path="url(#p0a94328ccd)" style="fill: none; stroke-dasharray: 2.96,1.28; stroke-dashoffset: 0; stroke: #ff0000; stroke-width: 0.8"/>
   </g>
   <g id="LineCollection_2">
    <path d="M 73.684684 302.651193 
L 73.684684 302.122264 
" clip-path="url(#p0a94328ccd)" style="fill: none; stroke: #008000; stroke-width: 1.5"/>
    <path d="M 85.24808 299.946177 
L 85.24808 298.82675 
" clip-path="url(#p0a94328ccd)" style="fill: none; stroke: #008000; stroke-width: 1.5"/>
    <path d="M 218.227134 230.452985 
L 218.227134 219.01114 
" clip-path="url(#p0a94328ccd)" style="fill: none; stroke: #008000; stroke-width: 1.5"/>
    <path d="M 362.769585 213.29654 
L 362.769585 201.177267 
" clip-path="url(#p0a94328ccd)" style="fill: none; stroke: #008000; stroke-width: 1.5"/>
   </g>
   <g id="line2d_38">
    <path d="M 57.6 307.584 
L 62.223782 305.87864 
L 66.847563 304.173279 
L 71.471345 302.467919 
L 76.095126 300.762559 
L 80.718908 299.057199 
L 85.34269 297.351838 
L 89.966471 295.646478 
L 94.590253 293.941118 
L 99.214034 292.235758 
L 103.837816 290.530397 
L 108.461597 288.825037 
L 113.085379 287.119677 
L 117.709161 285.414317 
L 122.332942 283.708956 
L 126.956724 282.003596 
L 131.580505 280.298236 
L 136.204287 278.592876 
L 140.828069 276.887515 
L 145.45185 275.182155 
L 150.075632 273.476795 
L 154.699413 271.771435 
L 159.323195 270.066074 
L 163.946977 268.360714 
L 168.570758 266.655354 
L 173.19454 264.949994 
L 177.818321 263.244633 
L 182.442103 261.539273 
L 187.065884 259.833913 
L 191.689666 258.128553 
L 196.313448 256.423192 
L 200.937229 254.717832 
L 205.561011 253.012472 
L 210.184792 251.307112 
L 214.808574 249.601751 
L 219.432356 247.896391 
L 224.056137 246.191031 
L 228.679919 244.485671 
L 233.3037 242.78031 
L 237.927482 241.07495 
L 242.551264 239.36959 
L 247.175045 237.664229 
L 251.798827 235.958869 
L 256.422608 234.253509 
L 261.04639 232.548149 
L 265.670171 230.842788 
L 270.293953 229.137428 
L 274.917735 227.432068 
L 279.541516 225.726708 
L 284.165298 224.021347 
L 288.789079 222.315987 
L 293.412861 220.610627 
L 298.036643 218.905267 
L 302.660424 217.199906 
L 307.284206 215.494546 
L 311.907987 213.789186 
L 316.531769 212.083826 
L 321.15555 210.378465 
L 325.779332 208.673105 
L 330.403114 206.967745 
L 335.026895 205.262385 
L 339.650677 203.557024 
L 344.274458 201.851664 
L 348.89824 200.146304 
L 353.522022 198.440944 
L 358.145803 196.735583 
L 362.769585 195.030223 
L 367.393366 193.324863 
L 372.017148 191.619503 
L 376.64093 189.914142 
L 381.264711 188.208782 
L 385.888493 186.503422 
L 390.512274 184.798062 
L 395.136056 183.092701 
L 399.759837 181.387341 
L 404.383619 179.681981 
L 409.007401 177.976621 
L 413.631182 176.27126 
L 418.254964 174.5659 
L 422.878745 172.86054 
L 427.502527 171.15518 
L 432.126309 169.449819 
L 436.75009 167.744459 
L 441.373872 166.039099 
L 445.997653 164.333738 
L 450.621435 162.628378 
L 455.245217 160.923018 
L 459.868998 159.217658 
L 461.8 158.505458 
" clip-path="url(#p0a94328ccd)" style="fill: none; stroke: #008000; stroke-width: 1.5; stroke-linecap: square"/>
   </g>
   <g id="line2d_39">
    <path d="M 57.6 307.584 
L 62.223782 305.560738 
L 66.847563 303.537477 
L 71.471345 301.514215 
L 76.095126 299.490953 
L 80.718908 297.467692 
L 85.34269 295.44443 
L 89.966471 293.421168 
L 94.590253 291.397907 
L 99.214034 289.374645 
L 103.837816 287.351384 
L 108.461597 285.328122 
L 113.085379 283.30486 
L 117.709161 281.281599 
L 122.332942 279.258337 
L 126.956724 277.235075 
L 131.580505 275.211814 
L 136.204287 273.188552 
L 140.828069 271.16529 
L 145.45185 269.142029 
L 150.075632 267.118767 
L 154.699413 265.095505 
L 159.323195 263.072244 
L 163.946977 261.048982 
L 168.570758 259.02572 
L 173.19454 257.002459 
L 177.818321 254.979197 
L 182.442103 252.955936 
L 187.065884 250.932674 
L 191.689666 248.909412 
L 196.313448 246.886151 
L 200.937229 244.862889 
L 205.561011 242.839627 
L 210.184792 240.816366 
L 214.808574 238.793104 
L 219.432356 236.769842 
L 224.056137 234.746581 
L 228.679919 232.723319 
L 233.3037 230.700057 
L 237.927482 228.676796 
L 242.551264 226.653534 
L 247.175045 224.630272 
L 251.798827 222.607011 
L 256.422608 220.583749 
L 261.04639 218.560488 
L 265.670171 216.537226 
L 270.293953 214.513964 
L 274.917735 212.490703 
L 279.541516 210.467441 
L 284.165298 208.444179 
L 288.789079 206.420918 
L 293.412861 204.397656 
L 298.036643 202.374394 
L 302.660424 200.351133 
L 307.284206 198.327871 
L 311.907987 196.304609 
L 316.531769 194.281348 
L 321.15555 192.258086 
L 325.779332 190.234824 
L 330.403114 188.211563 
L 335.026895 186.188301 
L 339.650677 184.16504 
L 344.274458 182.141778 
L 348.89824 180.118516 
L 353.522022 178.095255 
L 358.145803 176.071993 
L 362.769585 174.048731 
L 367.393366 172.02547 
L 372.017148 170.002208 
L 376.64093 167.978946 
L 381.264711 165.955685 
L 385.888493 163.932423 
L 390.512274 161.909161 
L 395.136056 159.8859 
L 399.759837 157.862638 
L 404.383619 155.839376 
L 409.007401 153.816115 
L 413.631182 151.792853 
L 418.254964 149.769592 
L 422.878745 147.74633 
L 427.502527 145.723068 
L 432.126309 143.699807 
L 436.75009 141.676545 
L 441.373872 139.653283 
L 445.997653 137.630022 
L 450.621435 135.60676 
L 455.245217 133.583498 
L 459.868998 131.560237 
L 461.8 130.715274 
" clip-path="url(#p0a94328ccd)" style="fill: none; stroke-dasharray: 2.96,1.28; stroke-dashoffset: 0; stroke: #008000; stroke-width: 0.8"/>
   </g>
   <g id="line2d_40">
    <path d="M 57.6 307.584 
L 62.223782 306.196541 
L 66.847563 304.809082 
L 71.471345 303.421623 
L 76.095126 302.034165 
L 80.718908 300.646706 
L 85.34269 299.259247 
L 89.966471 297.871788 
L 94.590253 296.484329 
L 99.214034 295.09687 
L 103.837816 293.709411 
L 108.461597 292.321952 
L 113.085379 290.934494 
L 117.709161 289.547035 
L 122.332942 288.159576 
L 126.956724 286.772117 
L 131.580505 285.384658 
L 136.204287 283.997199 
L 140.828069 282.60974 
L 145.45185 281.222282 
L 150.075632 279.834823 
L 154.699413 278.447364 
L 159.323195 277.059905 
L 163.946977 275.672446 
L 168.570758 274.284987 
L 173.19454 272.897528 
L 177.818321 271.51007 
L 182.442103 270.122611 
L 187.065884 268.735152 
L 191.689666 267.347693 
L 196.313448 265.960234 
L 200.937229 264.572775 
L 205.561011 263.185316 
L 210.184792 261.797857 
L 214.808574 260.410399 
L 219.432356 259.02294 
L 224.056137 257.635481 
L 228.679919 256.248022 
L 233.3037 254.860563 
L 237.927482 253.473104 
L 242.551264 252.085645 
L 247.175045 250.698187 
L 251.798827 249.310728 
L 256.422608 247.923269 
L 261.04639 246.53581 
L 265.670171 245.148351 
L 270.293953 243.760892 
L 274.917735 242.373433 
L 279.541516 240.985974 
L 284.165298 239.598516 
L 288.789079 238.211057 
L 293.412861 236.823598 
L 298.036643 235.436139 
L 302.660424 234.04868 
L 307.284206 232.661221 
L 311.907987 231.273762 
L 316.531769 229.886304 
L 321.15555 228.498845 
L 325.779332 227.111386 
L 330.403114 225.723927 
L 335.026895 224.336468 
L 339.650677 222.949009 
L 344.274458 221.56155 
L 348.89824 220.174091 
L 353.522022 218.786633 
L 358.145803 217.399174 
L 362.769585 216.011715 
L 367.393366 214.624256 
L 372.017148 213.236797 
L 376.64093 211.849338 
L 381.264711 210.461879 
L 385.888493 209.074421 
L 390.512274 207.686962 
L 395.136056 206.299503 
L 399.759837 204.912044 
L 404.383619 203.524585 
L 409.007401 202.137126 
L 413.631182 200.749667 
L 418.254964 199.362209 
L 422.878745 197.97475 
L 427.502527 196.587291 
L 432.126309 195.199832 
L 436.75009 193.812373 
L 441.373872 192.424914 
L 445.997653 191.037455 
L 450.621435 189.649996 
L 455.245217 188.262538 
L 459.868998 186.875079 
L 461.8 186.295643 
" clip-path="url(#p0a94328ccd)" style="fill: none; stroke-dasharray: 2.96,1.28; stroke-dashoffset: 0; stroke: #008000; stroke-width: 0.8"/>
   </g>
   <g id="line2d_41">
    <defs>
     <path id="m8d56bf9c20" d="M 0 1.5 
C 0.397805 1.5 0.77937 1.341951 1.06066 1.06066 
C 1.341951 0.77937 1.5 0.397805 1.5 0 
C 1.5 -0.397805 1.341951 -0.77937 1.06066 -1.06066 
C 0.77937 -1.341951 0.397805 -1.5 0 -1.5 
C -0.397805 -1.5 -0.77937 -1.341951 -1.06066 -1.06066 
C -1.341951 -0.77937 -1.5 -0.397805 -1.5 0 
C -1.5 0.397805 -1.341951 0.77937 -1.06066 1.06066 
C -0.77937 1.341951 -0.397805 1.5 0 1.5 
z
" style="stroke: #ff0000"/>
    </defs>
    <g clip-path="url(#p0a94328ccd)">
     <use xlink:href="#m8d56bf9c20" x="73.684684" y="302.00304" style="fill: #ff0000; stroke: #ff0000"/>
     <use xlink:href="#m8d56bf9c20" x="85.24808" y="298.86144" style="fill: #ff0000; stroke: #ff0000"/>
     <use xlink:href="#m8d56bf9c20" x="218.227134" y="251.22" style="fill: #ff0000; stroke: #ff0000"/>
     <use xlink:href="#m8d56bf9c20" x="362.769585" y="164.5488" style="fill: #ff0000; stroke: #ff0000"/>
    </g>
   </g>
   <g id="line2d_42">
    <defs>
     <path id="m853263e969" d="M 0 1.5 
C 0.397805 1.5 0.77937 1.341951 1.06066 1.06066 
C 1.341951 0.77937 1.5 0.397805 1.5 0 
C 1.5 -0.397805 1.341951 -0.77937 1.06066 -1.06066 
C 0.77937 -1.341951 0.397805 -1.5 0 -1.5 
C -0.397805 -1.5 -0.77937 -1.341951 -1.06066 -1.06066 
C -1.341951 -0.77937 -1.5 -0.397805 -1.5 0 
C -1.5 0.397805 -1.341951 0.77937 -1.06066 1.06066 
C -0.77937 1.341951 -0.397805 1.5 0 1.5 
z
" style="stroke: #008000"/>
    </defs>
    <g clip-path="url(#p0a94328ccd)">
     <use xlink:href="#m853263e969" x="73.684684" y="302.386729" style="fill: #008000; stroke: #008000"/>
     <use xlink:href="#m853263e969" x="85.24808" y="299.386463" style="fill: #008000; stroke: #008000"/>
     <use xlink:href="#m853263e969" x="218.227134" y="224.732062" style="fill: #008000; stroke: #008000"/>
     <use xlink:href="#m853263e969" x="362.769585" y="207.236903" style="fill: #008000; stroke: #008000"/>
    </g>
   </g>
   <g id="patch_3">
    <path d="M 57.6 307.584 
L 57.6 41.472 
" style="fill: none; stroke: #000000; stroke-width: 0.8; stroke-linejoin: miter; stroke-linecap: square"/>
   </g>
   <g id="patch_4">
    <path d="M 414.72 307.584 
L 414.72 41.472 
" style="fill: none; stroke: #000000; stroke-width: 0.8; stroke-linejoin: miter; stroke-linecap: square"/>
   </g>
   <g id="patch_5">
    <path d="M 57.6 307.584 
L 414.72 307.584 
" style="fill: none; stroke: #000000; stroke-width: 0.8; stroke-linejoin: miter; stroke-linecap: square"/>
   </g>
   <g id="patch_6">
    <path d="M 57.6 41.472 
L 414.72 41.472 
" style="fill: none; stroke: #000000; stroke-width: 0.8; stroke-linejoin: miter; stroke-linecap: square"/>
   </g>
   <g id="legend_1">
    <g id="patch_7">
     <path d="M 63.431 115.699068 
L 166.897409 115.699068 
Q 168.563409 115.699068 168.563409 114.033068 
L 168.563409 47.303 
Q 168.563409 45.637 166.897409 45.637 
L 63.431 45.637 
Q 61.765 45.637 61.765 47.303 
L 61.765 114.033068 
Q 61.765 115.699068 63.431 115.699068 
z
" style="fill: #ffffff; opacity: 0.8; stroke: #cccccc; stroke-linejoin: miter"/>
    </g>
    <g id="line2d_43">
     <path d="M 65.097 57.913077 
L 73.427 57.913077 
L 81.757 57.913077 
" style="fill: none; stroke: #ff0000; stroke-width: 1.5; stroke-linecap: square"/>
    </g>
    <g id="text_20">
     <!-- Static Force Fit  -->
     <g transform="translate(88.421 55.298498) scale(0.0833 -0.0833)">
      <defs>
       <path id="DejaVuSans-53" d="M 3425 4513 
L 3425 3897 
Q 3066 4069 2747 4153 
Q 2428 4238 2131 4238 
Q 1616 4238 1336 4038 
Q 1056 3838 1056 3469 
Q 1056 3159 1242 3001 
Q 1428 2844 1947 2747 
L 2328 2669 
Q 3034 2534 3370 2195 
Q 3706 1856 3706 1288 
Q 3706 609 3251 259 
Q 2797 -91 1919 -91 
Q 1588 -91 1214 -16 
Q 841 59 441 206 
L 441 856 
Q 825 641 1194 531 
Q 1563 422 1919 422 
Q 2459 422 2753 634 
Q 3047 847 3047 1241 
Q 3047 1584 2836 1778 
Q 2625 1972 2144 2069 
L 1759 2144 
Q 1053 2284 737 2584 
Q 422 2884 422 3419 
Q 422 4038 858 4394 
Q 1294 4750 2059 4750 
Q 2388 4750 2728 4690 
Q 3069 4631 3425 4513 
z
" transform="scale(0.015625)"/>
      </defs>
      <use xlink:href="#DejaVuSans-53"/>
      <use xlink:href="#DejaVuSans-74" x="63.476562"/>
      <use xlink:href="#DejaVuSans-61" x="102.685547"/>
      <use xlink:href="#DejaVuSans-74" x="163.964844"/>
      <use xlink:href="#DejaVuSans-69" x="203.173828"/>
      <use xlink:href="#DejaVuSans-63" x="230.957031"/>
      <use xlink:href="#DejaVuSans-20" x="285.9375"/>
      <use xlink:href="#DejaVuSans-46" x="317.724609"/>
      <use xlink:href="#DejaVuSans-6f" x="371.619141"/>
      <use xlink:href="#DejaVuSans-72" x="432.800781"/>
      <use xlink:href="#DejaVuSans-63" x="471.664062"/>
      <use xlink:href="#DejaVuSans-65" x="526.644531"/>
      <use xlink:href="#DejaVuSans-20" x="588.167969"/>
      <use xlink:href="#DejaVuSans-46" x="619.955078"/>
      <use xlink:href="#DejaVuSans-69" x="670.224609"/>
      <use xlink:href="#DejaVuSans-74" x="698.007812"/>
      <use xlink:href="#DejaVuSans-20" x="737.216797"/>
     </g>
     <!-- y=0.22  0.0117x -->
     <g transform="translate(88.421 64.626276) scale(0.0833 -0.0833)">
      <defs>
       <path id="DejaVuSans-3d" d="M 678 2906 
L 4684 2906 
L 4684 2381 
L 678 2381 
L 678 2906 
z
M 678 1631 
L 4684 1631 
L 4684 1100 
L 678 1100 
L 678 1631 
z
" transform="scale(0.015625)"/>
       <path id="DejaVuSans-2e" d="M 684 794 
L 1344 794 
L 1344 0 
L 684 0 
L 684 794 
z
" transform="scale(0.015625)"/>
       <path id="DejaVuSans-b1" d="M 2944 4013 
L 2944 2803 
L 4684 2803 
L 4684 2272 
L 2944 2272 
L 2944 1063 
L 2419 1063 
L 2419 2272 
L 678 2272 
L 678 2803 
L 2419 2803 
L 2419 4013 
L 2944 4013 
z
M 678 531 
L 4684 531 
L 4684 0 
L 678 0 
L 678 531 
z
" transform="scale(0.015625)"/>
       <path id="DejaVuSans-37" d="M 525 4666 
L 3525 4666 
L 3525 4397 
L 1831 0 
L 1172 0 
L 2766 4134 
L 525 4134 
L 525 4666 
z
" transform="scale(0.015625)"/>
       <path id="DejaVuSans-78" d="M 3513 3500 
L 2247 1797 
L 3578 0 
L 2900 0 
L 1881 1375 
L 863 0 
L 184 0 
L 1544 1831 
L 300 3500 
L 978 3500 
L 1906 2253 
L 2834 3500 
L 3513 3500 
z
" transform="scale(0.015625)"/>
      </defs>
      <use xlink:href="#DejaVuSans-79"/>
      <use xlink:href="#DejaVuSans-3d" x="59.179688"/>
      <use xlink:href="#DejaVuSans-30" x="142.96875"/>
      <use xlink:href="#DejaVuSans-2e" x="206.591797"/>
      <use xlink:href="#DejaVuSans-32" x="238.378906"/>
      <use xlink:href="#DejaVuSans-32" x="302.001953"/>
      <use xlink:href="#DejaVuSans-20" x="365.625"/>
      <use xlink:href="#DejaVuSans-b1" x="397.412109"/>
      <use xlink:href="#DejaVuSans-20" x="481.201172"/>
      <use xlink:href="#DejaVuSans-30" x="512.988281"/>
      <use xlink:href="#DejaVuSans-2e" x="576.611328"/>
      <use xlink:href="#DejaVuSans-30" x="608.398438"/>
      <use xlink:href="#DejaVuSans-31" x="672.021484"/>
      <use xlink:href="#DejaVuSans-31" x="735.644531"/>
      <use xlink:href="#DejaVuSans-37" x="799.267578"/>
      <use xlink:href="#DejaVuSans-78" x="862.890625"/>
     </g>
    </g>
    <g id="line2d_44">
     <path d="M 65.097 79.467733 
L 73.427 79.467733 
L 81.757 79.467733 
" style="fill: none; stroke: #008000; stroke-width: 1.5; stroke-linecap: square"/>
    </g>
    <g id="text_21">
     <!-- Kinetic Force Fit -->
     <g transform="translate(88.421 76.853154) scale(0.0833 -0.0833)">
      <defs>
       <path id="DejaVuSans-4b" d="M 628 4666 
L 1259 4666 
L 1259 2694 
L 3353 4666 
L 4166 4666 
L 1850 2491 
L 4331 0 
L 3500 0 
L 1259 2247 
L 1259 0 
L 628 0 
L 628 4666 
z
" transform="scale(0.015625)"/>
       <path id="DejaVuSans-6e" d="M 3513 2113 
L 3513 0 
L 2938 0 
L 2938 2094 
Q 2938 2591 2744 2837 
Q 2550 3084 2163 3084 
Q 1697 3084 1428 2787 
Q 1159 2491 1159 1978 
L 1159 0 
L 581 0 
L 581 3500 
L 1159 3500 
L 1159 2956 
Q 1366 3272 1645 3428 
Q 1925 3584 2291 3584 
Q 2894 3584 3203 3211 
Q 3513 2838 3513 2113 
z
" transform="scale(0.015625)"/>
      </defs>
      <use xlink:href="#DejaVuSans-4b"/>
      <use xlink:href="#DejaVuSans-69" x="65.576172"/>
      <use xlink:href="#DejaVuSans-6e" x="93.359375"/>
      <use xlink:href="#DejaVuSans-65" x="156.738281"/>
      <use xlink:href="#DejaVuSans-74" x="218.261719"/>
      <use xlink:href="#DejaVuSans-69" x="257.470703"/>
      <use xlink:href="#DejaVuSans-63" x="285.253906"/>
      <use xlink:href="#DejaVuSans-20" x="340.234375"/>
      <use xlink:href="#DejaVuSans-46" x="372.021484"/>
      <use xlink:href="#DejaVuSans-6f" x="425.916016"/>
      <use xlink:href="#DejaVuSans-72" x="487.097656"/>
      <use xlink:href="#DejaVuSans-63" x="525.960938"/>
      <use xlink:href="#DejaVuSans-65" x="580.941406"/>
      <use xlink:href="#DejaVuSans-20" x="642.464844"/>
      <use xlink:href="#DejaVuSans-46" x="674.251953"/>
      <use xlink:href="#DejaVuSans-69" x="724.521484"/>
      <use xlink:href="#DejaVuSans-74" x="752.304688"/>
     </g>
     <!-- y=0.19  0.0346x -->
     <g transform="translate(88.421 86.180932) scale(0.0833 -0.0833)">
      <defs>
       <path id="DejaVuSans-39" d="M 703 97 
L 703 672 
Q 941 559 1184 500 
Q 1428 441 1663 441 
Q 2288 441 2617 861 
Q 2947 1281 2994 2138 
Q 2813 1869 2534 1725 
Q 2256 1581 1919 1581 
Q 1219 1581 811 2004 
Q 403 2428 403 3163 
Q 403 3881 828 4315 
Q 1253 4750 1959 4750 
Q 2769 4750 3195 4129 
Q 3622 3509 3622 2328 
Q 3622 1225 3098 567 
Q 2575 -91 1691 -91 
Q 1453 -91 1209 -44 
Q 966 3 703 97 
z
M 1959 2075 
Q 2384 2075 2632 2365 
Q 2881 2656 2881 3163 
Q 2881 3666 2632 3958 
Q 2384 4250 1959 4250 
Q 1534 4250 1286 3958 
Q 1038 3666 1038 3163 
Q 1038 2656 1286 2365 
Q 1534 2075 1959 2075 
z
" transform="scale(0.015625)"/>
      </defs>
      <use xlink:href="#DejaVuSans-79"/>
      <use xlink:href="#DejaVuSans-3d" x="59.179688"/>
      <use xlink:href="#DejaVuSans-30" x="142.96875"/>
      <use xlink:href="#DejaVuSans-2e" x="206.591797"/>
      <use xlink:href="#DejaVuSans-31" x="238.378906"/>
      <use xlink:href="#DejaVuSans-39" x="302.001953"/>
      <use xlink:href="#DejaVuSans-20" x="365.625"/>
      <use xlink:href="#DejaVuSans-b1" x="397.412109"/>
      <use xlink:href="#DejaVuSans-20" x="481.201172"/>
      <use xlink:href="#DejaVuSans-30" x="512.988281"/>
      <use xlink:href="#DejaVuSans-2e" x="576.611328"/>
      <use xlink:href="#DejaVuSans-30" x="608.398438"/>
      <use xlink:href="#DejaVuSans-33" x="672.021484"/>
      <use xlink:href="#DejaVuSans-34" x="735.644531"/>
      <use xlink:href="#DejaVuSans-36" x="799.267578"/>
      <use xlink:href="#DejaVuSans-78" x="862.890625"/>
     </g>
    </g>
    <g id="LineCollection_3">
     <path d="M 73.427 99.65731 
L 73.427 91.32731 
" style="fill: none; stroke: #ff0000; stroke-width: 1.5"/>
    </g>
    <g id="line2d_45"/>
    <g id="line2d_46">
     <g>
      <use xlink:href="#m8d56bf9c20" x="73.427" y="95.49231" style="fill: #ff0000; stroke: #ff0000"/>
     </g>
    </g>
    <g id="text_22">
     <!-- Static Force Data -->
     <g transform="translate(88.421 98.40781) scale(0.0833 -0.0833)">
      <defs>
       <path id="DejaVuSans-44" d="M 1259 4147 
L 1259 519 
L 2022 519 
Q 2988 519 3436 956 
Q 3884 1394 3884 2338 
Q 3884 3275 3436 3711 
Q 2988 4147 2022 4147 
L 1259 4147 
z
M 628 4666 
L 1925 4666 
Q 3281 4666 3915 4102 
Q 4550 3538 4550 2338 
Q 4550 1131 3912 565 
Q 3275 0 1925 0 
L 628 0 
L 628 4666 
z
" transform="scale(0.015625)"/>
      </defs>
      <use xlink:href="#DejaVuSans-53"/>
      <use xlink:href="#DejaVuSans-74" x="63.476562"/>
      <use xlink:href="#DejaVuSans-61" x="102.685547"/>
      <use xlink:href="#DejaVuSans-74" x="163.964844"/>
      <use xlink:href="#DejaVuSans-69" x="203.173828"/>
      <use xlink:href="#DejaVuSans-63" x="230.957031"/>
      <use xlink:href="#DejaVuSans-20" x="285.9375"/>
      <use xlink:href="#DejaVuSans-46" x="317.724609"/>
      <use xlink:href="#DejaVuSans-6f" x="371.619141"/>
      <use xlink:href="#DejaVuSans-72" x="432.800781"/>
      <use xlink:href="#DejaVuSans-63" x="471.664062"/>
      <use xlink:href="#DejaVuSans-65" x="526.644531"/>
      <use xlink:href="#DejaVuSans-20" x="588.167969"/>
      <use xlink:href="#DejaVuSans-44" x="619.955078"/>
      <use xlink:href="#DejaVuSans-61" x="696.957031"/>
      <use xlink:href="#DejaVuSans-74" x="758.236328"/>
      <use xlink:href="#DejaVuSans-61" x="797.445312"/>
     </g>
    </g>
    <g id="LineCollection_4">
     <path d="M 73.427 111.884188 
L 73.427 103.554188 
" style="fill: none; stroke: #008000; stroke-width: 1.5"/>
    </g>
    <g id="line2d_47"/>
    <g id="line2d_48">
     <g>
      <use xlink:href="#m853263e969" x="73.427" y="107.719188" style="fill: #008000; stroke: #008000"/>
     </g>
    </g>
    <g id="text_23">
     <!-- Kinetic Force Data -->
     <g transform="translate(88.421 110.634688) scale(0.0833 -0.0833)">
      <use xlink:href="#DejaVuSans-4b"/>
      <use xlink:href="#DejaVuSans-69" x="65.576172"/>
      <use xlink:href="#DejaVuSans-6e" x="93.359375"/>
      <use xlink:href="#DejaVuSans-65" x="156.738281"/>
      <use xlink:href="#DejaVuSans-74" x="218.261719"/>
      <use xlink:href="#DejaVuSans-69" x="257.470703"/>
      <use xlink:href="#DejaVuSans-63" x="285.253906"/>
      <use xlink:href="#DejaVuSans-20" x="340.234375"/>
      <use xlink:href="#DejaVuSans-46" x="372.021484"/>
      <use xlink:href="#DejaVuSans-6f" x="425.916016"/>
      <use xlink:href="#DejaVuSans-72" x="487.097656"/>
      <use xlink:href="#DejaVuSans-63" x="525.960938"/>
      <use xlink:href="#DejaVuSans-65" x="580.941406"/>
      <use xlink:href="#DejaVuSans-20" x="642.464844"/>
      <use xlink:href="#DejaVuSans-44" x="674.251953"/>
      <use xlink:href="#DejaVuSans-61" x="751.253906"/>
      <use xlink:href="#DejaVuSans-74" x="812.533203"/>
      <use xlink:href="#DejaVuSans-61" x="851.742188"/>
     </g>
    </g>
   </g>
  </g>
 </g>
 <defs>
  <clipPath id="p0a94328ccd">
   <rect x="57.6" y="41.472" width="357.12" height="266.112"/>
  </clipPath>
 </defs>
</svg>
