<?xml version="1.0" encoding="utf-8" standalone="no"?>
<!DOCTYPE svg PUBLIC "-//W3C//DTD SVG 1.1//EN"
  "http://www.w3.org/Graphics/SVG/1.1/DTD/svg11.dtd">
<svg xmlns:xlink="http://www.w3.org/1999/xlink" width="460.8pt" height="345.6pt" viewBox="0 0 460.8 345.6" xmlns="http://www.w3.org/2000/svg" version="1.1">
 <metadata>
  <rdf:RDF xmlns:dc="http://purl.org/dc/elements/1.1/" xmlns:cc="http://creativecommons.org/ns#" xmlns:rdf="http://www.w3.org/1999/02/22-rdf-syntax-ns#">
   <cc:Work>
    <dc:type rdf:resource="http://purl.org/dc/dcmitype/StillImage"/>
    <dc:date>2024-11-18T14:17:22.549526</dc:date>
    <dc:format>image/svg+xml</dc:format>
    <dc:creator>
     <cc:Agent>
      <dc:title>Matplotlib v3.9.2, https://matplotlib.org/</dc:title>
     </cc:Agent>
    </dc:creator>
   </cc:Work>
  </rdf:RDF>
 </metadata>
 <defs>
  <style type="text/css">*{stroke-linejoin: round; stroke-linecap: butt}</style>
 </defs>
 <g id="figure_1">
  <g id="patch_1">
   <path d="M 0 345.6 
L 460.8 345.6 
L 460.8 0 
L 0 0 
z
" style="fill: #ffffff"/>
  </g>
  <g id="axes_1">
   <g id="patch_2">
    <path d="M 57.6 307.584 
L 414.72 307.584 
L 414.72 41.472 
L 57.6 41.472 
z
" style="fill: #ffffff"/>
   </g>
   <g id="PolyCollection_1">
    <defs>
     <path id="m20057e1e52" d="M 57.6 -38.016 
L 57.6 -38.016 
L 62.223782 -41.191758 
L 66.847563 -44.367517 
L 71.471345 -47.543275 
L 76.095126 -50.719033 
L 80.718908 -53.894791 
L 85.34269 -57.07055 
L 89.966471 -60.246308 
L 94.590253 -63.422066 
L 99.214034 -66.597824 
L 103.837816 -69.773583 
L 108.461597 -72.949341 
L 113.085379 -76.125099 
L 117.709161 -79.300857 
L 122.332942 -82.476616 
L 126.956724 -85.652374 
L 131.580505 -88.828132 
L 136.204287 -92.003891 
L 140.828069 -95.179649 
L 145.45185 -98.355407 
L 150.075632 -101.531165 
L 154.699413 -104.706924 
L 159.323195 -107.882682 
L 163.946977 -111.05844 
L 168.570758 -114.234198 
L 173.19454 -117.409957 
L 177.818321 -120.585715 
L 182.442103 -123.761473 
L 187.065884 -126.937231 
L 191.689666 -130.11299 
L 196.313448 -133.288748 
L 200.937229 -136.464506 
L 205.561011 -139.640265 
L 210.184792 -142.816023 
L 214.808574 -145.991781 
L 219.432356 -149.167539 
L 224.056137 -152.343298 
L 228.679919 -155.519056 
L 233.3037 -158.694814 
L 237.927482 -161.870572 
L 242.551264 -165.046331 
L 247.175045 -168.222089 
L 251.798827 -171.397847 
L 256.422608 -174.573605 
L 261.04639 -177.749364 
L 265.670171 -180.925122 
L 270.293953 -184.10088 
L 274.917735 -187.276639 
L 279.541516 -190.452397 
L 284.165298 -193.628155 
L 288.789079 -196.803913 
L 293.412861 -199.979672 
L 298.036643 -203.15543 
L 302.660424 -206.331188 
L 307.284206 -209.506946 
L 311.907987 -212.682705 
L 316.531769 -215.858463 
L 321.15555 -219.034221 
L 325.779332 -222.209979 
L 330.403114 -225.385738 
L 335.026895 -228.561496 
L 339.650677 -231.737254 
L 344.274458 -234.913012 
L 348.89824 -238.088771 
L 353.522022 -241.264529 
L 358.145803 -244.440287 
L 362.769585 -247.616046 
L 367.393366 -250.791804 
L 372.017148 -253.967562 
L 376.64093 -257.14332 
L 381.264711 -260.319079 
L 385.888493 -263.494837 
L 390.512274 -266.670595 
L 395.136056 -269.846353 
L 399.759837 -273.022112 
L 404.383619 -276.19787 
L 409.007401 -279.373628 
L 413.631182 -282.549386 
L 418.254964 -285.725145 
L 422.878745 -288.900903 
L 427.502527 -292.076661 
L 432.126309 -295.25242 
L 436.75009 -298.428178 
L 441.373872 -301.603936 
L 445.997653 -304.779694 
L 450.621435 -307.955453 
L 455.245217 -311.131211 
L 459.868998 -314.306969 
L 464.49278 -317.482727 
L 469.116561 -320.658486 
L 473.740343 -323.834244 
L 478.364124 -327.010002 
L 482.987906 -330.18576 
L 487.611688 -333.361519 
L 492.235469 -336.537277 
L 496.859251 -339.713035 
L 501.483032 -342.888794 
L 506.106814 -346.064552 
L 510.730596 -349.24031 
L 515.354377 -352.416068 
L 515.354377 -373.700761 
L 515.354377 -373.700761 
L 510.730596 -370.310006 
L 506.106814 -366.919251 
L 501.483032 -363.528495 
L 496.859251 -360.13774 
L 492.235469 -356.746985 
L 487.611688 -353.35623 
L 482.987906 -349.965475 
L 478.364124 -346.57472 
L 473.740343 -343.183964 
L 469.116561 -339.793209 
L 464.49278 -336.402454 
L 459.868998 -333.011699 
L 455.245217 -329.620944 
L 450.621435 -326.230189 
L 445.997653 -322.839433 
L 441.373872 -319.448678 
L 436.75009 -316.057923 
L 432.126309 -312.667168 
L 427.502527 -309.276413 
L 422.878745 -305.885658 
L 418.254964 -302.494903 
L 413.631182 -299.104147 
L 409.007401 -295.713392 
L 404.383619 -292.322637 
L 399.759837 -288.931882 
L 395.136056 -285.541127 
L 390.512274 -282.150372 
L 385.888493 -278.759616 
L 381.264711 -275.368861 
L 376.64093 -271.978106 
L 372.017148 -268.587351 
L 367.393366 -265.196596 
L 362.769585 -261.805841 
L 358.145803 -258.415085 
L 353.522022 -255.02433 
L 348.89824 -251.633575 
L 344.274458 -248.24282 
L 339.650677 -244.852065 
L 335.026895 -241.46131 
L 330.403114 -238.070554 
L 325.779332 -234.679799 
L 321.15555 -231.289044 
L 316.531769 -227.898289 
L 311.907987 -224.507534 
L 307.284206 -221.116779 
L 302.660424 -217.726024 
L 298.036643 -214.335268 
L 293.412861 -210.944513 
L 288.789079 -207.553758 
L 284.165298 -204.163003 
L 279.541516 -200.772248 
L 274.917735 -197.381493 
L 270.293953 -193.990737 
L 265.670171 -190.599982 
L 261.04639 -187.209227 
L 256.422608 -183.818472 
L 251.798827 -180.427717 
L 247.175045 -177.036962 
L 242.551264 -173.646206 
L 237.927482 -170.255451 
L 233.3037 -166.864696 
L 228.679919 -163.473941 
L 224.056137 -160.083186 
L 219.432356 -156.692431 
L 214.808574 -153.301675 
L 210.184792 -149.91092 
L 205.561011 -146.520165 
L 200.937229 -143.12941 
L 196.313448 -139.738655 
L 191.689666 -136.3479 
L 187.065884 -132.957144 
L 182.442103 -129.566389 
L 177.818321 -126.175634 
L 173.19454 -122.784879 
L 168.570758 -119.394124 
L 163.946977 -116.003369 
L 159.323195 -112.612614 
L 154.699413 -109.221858 
L 150.075632 -105.831103 
L 145.45185 -102.440348 
L 140.828069 -99.049593 
L 136.204287 -95.658838 
L 131.580505 -92.268083 
L 126.956724 -88.877327 
L 122.332942 -85.486572 
L 117.709161 -82.095817 
L 113.085379 -78.705062 
L 108.461597 -75.314307 
L 103.837816 -71.923552 
L 99.214034 -68.532796 
L 94.590253 -65.142041 
L 89.966471 -61.751286 
L 85.34269 -58.360531 
L 80.718908 -54.969776 
L 76.095126 -51.579021 
L 71.471345 -48.188265 
L 66.847563 -44.79751 
L 62.223782 -41.406755 
L 57.6 -38.016 
z
" style="stroke: #808080; stroke-opacity: 0.3"/>
    </defs>
    <g clip-path="url(#p06a238709d)">
     <use xlink:href="#m20057e1e52" x="0" y="345.6" style="fill: #808080; fill-opacity: 0.3; stroke: #808080; stroke-opacity: 0.3"/>
    </g>
   </g>
   <g id="PolyCollection_2">
    <defs>
     <path id="ma45b696d11" d="M 57.6 -38.016 
L 57.6 -38.016 
L 62.223782 -40.660252 
L 66.847563 -43.304504 
L 71.471345 -45.948756 
L 76.095126 -48.593008 
L 80.718908 -51.23726 
L 85.34269 -53.881512 
L 89.966471 -56.525764 
L 94.590253 -59.170016 
L 99.214034 -61.814268 
L 103.837816 -64.45852 
L 108.461597 -67.102772 
L 113.085379 -69.747024 
L 117.709161 -72.391276 
L 122.332942 -75.035528 
L 126.956724 -77.67978 
L 131.580505 -80.324032 
L 136.204287 -82.968284 
L 140.828069 -85.612536 
L 145.45185 -88.256788 
L 150.075632 -90.90104 
L 154.699413 -93.545292 
L 159.323195 -96.189544 
L 163.946977 -98.833795 
L 168.570758 -101.478047 
L 173.19454 -104.122299 
L 177.818321 -106.766551 
L 182.442103 -109.410803 
L 187.065884 -112.055055 
L 191.689666 -114.699307 
L 196.313448 -117.343559 
L 200.937229 -119.987811 
L 205.561011 -122.632063 
L 210.184792 -125.276315 
L 214.808574 -127.920567 
L 219.432356 -130.564819 
L 224.056137 -133.209071 
L 228.679919 -135.853323 
L 233.3037 -138.497575 
L 237.927482 -141.141827 
L 242.551264 -143.786079 
L 247.175045 -146.430331 
L 251.798827 -149.074583 
L 256.422608 -151.718835 
L 261.04639 -154.363087 
L 265.670171 -157.007339 
L 270.293953 -159.651591 
L 274.917735 -162.295843 
L 279.541516 -164.940095 
L 284.165298 -167.584347 
L 288.789079 -170.228599 
L 293.412861 -172.872851 
L 298.036643 -175.517103 
L 302.660424 -178.161355 
L 307.284206 -180.805607 
L 311.907987 -183.449859 
L 316.531769 -186.094111 
L 321.15555 -188.738363 
L 325.779332 -191.382615 
L 330.403114 -194.026867 
L 335.026895 -196.671119 
L 339.650677 -199.315371 
L 344.274458 -201.959623 
L 348.89824 -204.603875 
L 353.522022 -207.248127 
L 358.145803 -209.892379 
L 362.769585 -212.536631 
L 367.393366 -215.180883 
L 372.017148 -217.825134 
L 376.64093 -220.469386 
L 381.264711 -223.113638 
L 385.888493 -225.75789 
L 390.512274 -228.402142 
L 395.136056 -231.046394 
L 399.759837 -233.690646 
L 404.383619 -236.334898 
L 409.007401 -238.97915 
L 413.631182 -241.623402 
L 418.254964 -244.267654 
L 422.878745 -246.911906 
L 427.502527 -249.556158 
L 432.126309 -252.20041 
L 436.75009 -254.844662 
L 441.373872 -257.488914 
L 445.997653 -260.133166 
L 450.621435 -262.777418 
L 455.245217 -265.42167 
L 459.868998 -268.065922 
L 464.49278 -270.710174 
L 469.116561 -273.354426 
L 473.740343 -275.998678 
L 478.364124 -278.64293 
L 482.987906 -281.287182 
L 487.611688 -283.931434 
L 492.235469 -286.575686 
L 496.859251 -289.219938 
L 501.483032 -291.86419 
L 506.106814 -294.508442 
L 510.730596 -297.152694 
L 515.354377 -299.796946 
L 515.354377 -362.741421 
L 515.354377 -362.741421 
L 510.730596 -359.461366 
L 506.106814 -356.181312 
L 501.483032 -352.901257 
L 496.859251 -349.621202 
L 492.235469 -346.341147 
L 487.611688 -343.061093 
L 482.987906 -339.781038 
L 478.364124 -336.500983 
L 473.740343 -333.220928 
L 469.116561 -329.940874 
L 464.49278 -326.660819 
L 459.868998 -323.380764 
L 455.245217 -320.100709 
L 450.621435 -316.820655 
L 445.997653 -313.5406 
L 441.373872 -310.260545 
L 436.75009 -306.98049 
L 432.126309 -303.700436 
L 427.502527 -300.420381 
L 422.878745 -297.140326 
L 418.254964 -293.860271 
L 413.631182 -290.580217 
L 409.007401 -287.300162 
L 404.383619 -284.020107 
L 399.759837 -280.740052 
L 395.136056 -277.459997 
L 390.512274 -274.179943 
L 385.888493 -270.899888 
L 381.264711 -267.619833 
L 376.64093 -264.339778 
L 372.017148 -261.059724 
L 367.393366 -257.779669 
L 362.769585 -254.499614 
L 358.145803 -251.219559 
L 353.522022 -247.939505 
L 348.89824 -244.65945 
L 344.274458 -241.379395 
L 339.650677 -238.09934 
L 335.026895 -234.819286 
L 330.403114 -231.539231 
L 325.779332 -228.259176 
L 321.15555 -224.979121 
L 316.531769 -221.699067 
L 311.907987 -218.419012 
L 307.284206 -215.138957 
L 302.660424 -211.858902 
L 298.036643 -208.578848 
L 293.412861 -205.298793 
L 288.789079 -202.018738 
L 284.165298 -198.738683 
L 279.541516 -195.458628 
L 274.917735 -192.178574 
L 270.293953 -188.898519 
L 265.670171 -185.618464 
L 261.04639 -182.338409 
L 256.422608 -179.058355 
L 251.798827 -175.7783 
L 247.175045 -172.498245 
L 242.551264 -169.21819 
L 237.927482 -165.938136 
L 233.3037 -162.658081 
L 228.679919 -159.378026 
L 224.056137 -156.097971 
L 219.432356 -152.817917 
L 214.808574 -149.537862 
L 210.184792 -146.257807 
L 205.561011 -142.977752 
L 200.937229 -139.697698 
L 196.313448 -136.417643 
L 191.689666 -133.137588 
L 187.065884 -129.857533 
L 182.442103 -126.577479 
L 177.818321 -123.297424 
L 173.19454 -120.017369 
L 168.570758 -116.737314 
L 163.946977 -113.457259 
L 159.323195 -110.177205 
L 154.699413 -106.89715 
L 150.075632 -103.617095 
L 145.45185 -100.33704 
L 140.828069 -97.056986 
L 136.204287 -93.776931 
L 131.580505 -90.496876 
L 126.956724 -87.216821 
L 122.332942 -83.936767 
L 117.709161 -80.656712 
L 113.085379 -77.376657 
L 108.461597 -74.096602 
L 103.837816 -70.816548 
L 99.214034 -67.536493 
L 94.590253 -64.256438 
L 89.966471 -60.976383 
L 85.34269 -57.696329 
L 80.718908 -54.416274 
L 76.095126 -51.136219 
L 71.471345 -47.856164 
L 66.847563 -44.57611 
L 62.223782 -41.296055 
L 57.6 -38.016 
z
" style="stroke: #808080; stroke-opacity: 0.3"/>
    </defs>
    <g clip-path="url(#p06a238709d)">
     <use xlink:href="#ma45b696d11" x="0" y="345.6" style="fill: #808080; fill-opacity: 0.3; stroke: #808080; stroke-opacity: 0.3"/>
    </g>
   </g>
   <g id="matplotlib.axis_1">
    <g id="xtick_1">
     <g id="line2d_1">
      <path d="M 57.6 307.584 
L 57.6 41.472 
" clip-path="url(#p06a238709d)" style="fill: none; stroke: #b0b0b0; stroke-width: 0.8; stroke-linecap: square"/>
     </g>
     <g id="line2d_2">
      <defs>
       <path id="mfcb6848461" d="M 0 0 
L 0 3.5 
" style="stroke: #000000; stroke-width: 0.8"/>
      </defs>
      <g>
       <use xlink:href="#mfcb6848461" x="57.6" y="307.584" style="stroke: #000000; stroke-width: 0.8"/>
      </g>
     </g>
     <g id="text_1">
      <!-- 0 -->
      <g transform="translate(54.41875 322.182437) scale(0.1 -0.1)">
       <defs>
        <path id="DejaVuSans-30" d="M 2034 4250 
Q 1547 4250 1301 3770 
Q 1056 3291 1056 2328 
Q 1056 1369 1301 889 
Q 1547 409 2034 409 
Q 2525 409 2770 889 
Q 3016 1369 3016 2328 
Q 3016 3291 2770 3770 
Q 2525 4250 2034 4250 
z
M 2034 4750 
Q 2819 4750 3233 4129 
Q 3647 3509 3647 2328 
Q 3647 1150 3233 529 
Q 2819 -91 2034 -91 
Q 1250 -91 836 529 
Q 422 1150 422 2328 
Q 422 3509 836 4129 
Q 1250 4750 2034 4750 
z
" transform="scale(0.015625)"/>
       </defs>
       <use xlink:href="#DejaVuSans-30"/>
      </g>
     </g>
    </g>
    <g id="xtick_2">
     <g id="line2d_3">
      <path d="M 117.12 307.584 
L 117.12 41.472 
" clip-path="url(#p06a238709d)" style="fill: none; stroke: #b0b0b0; stroke-width: 0.8; stroke-linecap: square"/>
     </g>
     <g id="line2d_4">
      <g>
       <use xlink:href="#mfcb6848461" x="117.12" y="307.584" style="stroke: #000000; stroke-width: 0.8"/>
      </g>
     </g>
     <g id="text_2">
      <!-- 20 -->
      <g transform="translate(110.7575 322.182437) scale(0.1 -0.1)">
       <defs>
        <path id="DejaVuSans-32" d="M 1228 531 
L 3431 531 
L 3431 0 
L 469 0 
L 469 531 
Q 828 903 1448 1529 
Q 2069 2156 2228 2338 
Q 2531 2678 2651 2914 
Q 2772 3150 2772 3378 
Q 2772 3750 2511 3984 
Q 2250 4219 1831 4219 
Q 1534 4219 1204 4116 
Q 875 4013 500 3803 
L 500 4441 
Q 881 4594 1212 4672 
Q 1544 4750 1819 4750 
Q 2544 4750 2975 4387 
Q 3406 4025 3406 3419 
Q 3406 3131 3298 2873 
Q 3191 2616 2906 2266 
Q 2828 2175 2409 1742 
Q 1991 1309 1228 531 
z
" transform="scale(0.015625)"/>
       </defs>
       <use xlink:href="#DejaVuSans-32"/>
       <use xlink:href="#DejaVuSans-30" x="63.623047"/>
      </g>
     </g>
    </g>
    <g id="xtick_3">
     <g id="line2d_5">
      <path d="M 176.64 307.584 
L 176.64 41.472 
" clip-path="url(#p06a238709d)" style="fill: none; stroke: #b0b0b0; stroke-width: 0.8; stroke-linecap: square"/>
     </g>
     <g id="line2d_6">
      <g>
       <use xlink:href="#mfcb6848461" x="176.64" y="307.584" style="stroke: #000000; stroke-width: 0.8"/>
      </g>
     </g>
     <g id="text_3">
      <!-- 40 -->
      <g transform="translate(170.2775 322.182437) scale(0.1 -0.1)">
       <defs>
        <path id="DejaVuSans-34" d="M 2419 4116 
L 825 1625 
L 2419 1625 
L 2419 4116 
z
M 2253 4666 
L 3047 4666 
L 3047 1625 
L 3713 1625 
L 3713 1100 
L 3047 1100 
L 3047 0 
L 2419 0 
L 2419 1100 
L 313 1100 
L 313 1709 
L 2253 4666 
z
" transform="scale(0.015625)"/>
       </defs>
       <use xlink:href="#DejaVuSans-34"/>
       <use xlink:href="#DejaVuSans-30" x="63.623047"/>
      </g>
     </g>
    </g>
    <g id="xtick_4">
     <g id="line2d_7">
      <path d="M 236.16 307.584 
L 236.16 41.472 
" clip-path="url(#p06a238709d)" style="fill: none; stroke: #b0b0b0; stroke-width: 0.8; stroke-linecap: square"/>
     </g>
     <g id="line2d_8">
      <g>
       <use xlink:href="#mfcb6848461" x="236.16" y="307.584" style="stroke: #000000; stroke-width: 0.8"/>
      </g>
     </g>
     <g id="text_4">
      <!-- 60 -->
      <g transform="translate(229.7975 322.182437) scale(0.1 -0.1)">
       <defs>
        <path id="DejaVuSans-36" d="M 2113 2584 
Q 1688 2584 1439 2293 
Q 1191 2003 1191 1497 
Q 1191 994 1439 701 
Q 1688 409 2113 409 
Q 2538 409 2786 701 
Q 3034 994 3034 1497 
Q 3034 2003 2786 2293 
Q 2538 2584 2113 2584 
z
M 3366 4563 
L 3366 3988 
Q 3128 4100 2886 4159 
Q 2644 4219 2406 4219 
Q 1781 4219 1451 3797 
Q 1122 3375 1075 2522 
Q 1259 2794 1537 2939 
Q 1816 3084 2150 3084 
Q 2853 3084 3261 2657 
Q 3669 2231 3669 1497 
Q 3669 778 3244 343 
Q 2819 -91 2113 -91 
Q 1303 -91 875 529 
Q 447 1150 447 2328 
Q 447 3434 972 4092 
Q 1497 4750 2381 4750 
Q 2619 4750 2861 4703 
Q 3103 4656 3366 4563 
z
" transform="scale(0.015625)"/>
       </defs>
       <use xlink:href="#DejaVuSans-36"/>
       <use xlink:href="#DejaVuSans-30" x="63.623047"/>
      </g>
     </g>
    </g>
    <g id="xtick_5">
     <g id="line2d_9">
      <path d="M 295.68 307.584 
L 295.68 41.472 
" clip-path="url(#p06a238709d)" style="fill: none; stroke: #b0b0b0; stroke-width: 0.8; stroke-linecap: square"/>
     </g>
     <g id="line2d_10">
      <g>
       <use xlink:href="#mfcb6848461" x="295.68" y="307.584" style="stroke: #000000; stroke-width: 0.8"/>
      </g>
     </g>
     <g id="text_5">
      <!-- 80 -->
      <g transform="translate(289.3175 322.182437) scale(0.1 -0.1)">
       <defs>
        <path id="DejaVuSans-38" d="M 2034 2216 
Q 1584 2216 1326 1975 
Q 1069 1734 1069 1313 
Q 1069 891 1326 650 
Q 1584 409 2034 409 
Q 2484 409 2743 651 
Q 3003 894 3003 1313 
Q 3003 1734 2745 1975 
Q 2488 2216 2034 2216 
z
M 1403 2484 
Q 997 2584 770 2862 
Q 544 3141 544 3541 
Q 544 4100 942 4425 
Q 1341 4750 2034 4750 
Q 2731 4750 3128 4425 
Q 3525 4100 3525 3541 
Q 3525 3141 3298 2862 
Q 3072 2584 2669 2484 
Q 3125 2378 3379 2068 
Q 3634 1759 3634 1313 
Q 3634 634 3220 271 
Q 2806 -91 2034 -91 
Q 1263 -91 848 271 
Q 434 634 434 1313 
Q 434 1759 690 2068 
Q 947 2378 1403 2484 
z
M 1172 3481 
Q 1172 3119 1398 2916 
Q 1625 2713 2034 2713 
Q 2441 2713 2670 2916 
Q 2900 3119 2900 3481 
Q 2900 3844 2670 4047 
Q 2441 4250 2034 4250 
Q 1625 4250 1398 4047 
Q 1172 3844 1172 3481 
z
" transform="scale(0.015625)"/>
       </defs>
       <use xlink:href="#DejaVuSans-38"/>
       <use xlink:href="#DejaVuSans-30" x="63.623047"/>
      </g>
     </g>
    </g>
    <g id="xtick_6">
     <g id="line2d_11">
      <path d="M 355.2 307.584 
L 355.2 41.472 
" clip-path="url(#p06a238709d)" style="fill: none; stroke: #b0b0b0; stroke-width: 0.8; stroke-linecap: square"/>
     </g>
     <g id="line2d_12">
      <g>
       <use xlink:href="#mfcb6848461" x="355.2" y="307.584" style="stroke: #000000; stroke-width: 0.8"/>
      </g>
     </g>
     <g id="text_6">
      <!-- 100 -->
      <g transform="translate(345.65625 322.182437) scale(0.1 -0.1)">
       <defs>
        <path id="DejaVuSans-31" d="M 794 531 
L 1825 531 
L 1825 4091 
L 703 3866 
L 703 4441 
L 1819 4666 
L 2450 4666 
L 2450 531 
L 3481 531 
L 3481 0 
L 794 0 
L 794 531 
z
" transform="scale(0.015625)"/>
       </defs>
       <use xlink:href="#DejaVuSans-31"/>
       <use xlink:href="#DejaVuSans-30" x="63.623047"/>
       <use xlink:href="#DejaVuSans-30" x="127.246094"/>
      </g>
     </g>
    </g>
    <g id="xtick_7">
     <g id="line2d_13">
      <path d="M 414.72 307.584 
L 414.72 41.472 
" clip-path="url(#p06a238709d)" style="fill: none; stroke: #b0b0b0; stroke-width: 0.8; stroke-linecap: square"/>
     </g>
     <g id="line2d_14">
      <g>
       <use xlink:href="#mfcb6848461" x="414.72" y="307.584" style="stroke: #000000; stroke-width: 0.8"/>
      </g>
     </g>
     <g id="text_7">
      <!-- 120 -->
      <g transform="translate(405.17625 322.182437) scale(0.1 -0.1)">
       <use xlink:href="#DejaVuSans-31"/>
       <use xlink:href="#DejaVuSans-32" x="63.623047"/>
       <use xlink:href="#DejaVuSans-30" x="127.246094"/>
      </g>
     </g>
    </g>
    <g id="text_8">
     <!-- Force of Gravity (N) -->
     <g transform="translate(187.146719 335.860562) scale(0.1 -0.1)">
      <defs>
       <path id="DejaVuSans-46" d="M 628 4666 
L 3309 4666 
L 3309 4134 
L 1259 4134 
L 1259 2759 
L 3109 2759 
L 3109 2228 
L 1259 2228 
L 1259 0 
L 628 0 
L 628 4666 
z
" transform="scale(0.015625)"/>
       <path id="DejaVuSans-6f" d="M 1959 3097 
Q 1497 3097 1228 2736 
Q 959 2375 959 1747 
Q 959 1119 1226 758 
Q 1494 397 1959 397 
Q 2419 397 2687 759 
Q 2956 1122 2956 1747 
Q 2956 2369 2687 2733 
Q 2419 3097 1959 3097 
z
M 1959 3584 
Q 2709 3584 3137 3096 
Q 3566 2609 3566 1747 
Q 3566 888 3137 398 
Q 2709 -91 1959 -91 
Q 1206 -91 779 398 
Q 353 888 353 1747 
Q 353 2609 779 3096 
Q 1206 3584 1959 3584 
z
" transform="scale(0.015625)"/>
       <path id="DejaVuSans-72" d="M 2631 2963 
Q 2534 3019 2420 3045 
Q 2306 3072 2169 3072 
Q 1681 3072 1420 2755 
Q 1159 2438 1159 1844 
L 1159 0 
L 581 0 
L 581 3500 
L 1159 3500 
L 1159 2956 
Q 1341 3275 1631 3429 
Q 1922 3584 2338 3584 
Q 2397 3584 2469 3576 
Q 2541 3569 2628 3553 
L 2631 2963 
z
" transform="scale(0.015625)"/>
       <path id="DejaVuSans-63" d="M 3122 3366 
L 3122 2828 
Q 2878 2963 2633 3030 
Q 2388 3097 2138 3097 
Q 1578 3097 1268 2742 
Q 959 2388 959 1747 
Q 959 1106 1268 751 
Q 1578 397 2138 397 
Q 2388 397 2633 464 
Q 2878 531 3122 666 
L 3122 134 
Q 2881 22 2623 -34 
Q 2366 -91 2075 -91 
Q 1284 -91 818 406 
Q 353 903 353 1747 
Q 353 2603 823 3093 
Q 1294 3584 2113 3584 
Q 2378 3584 2631 3529 
Q 2884 3475 3122 3366 
z
" transform="scale(0.015625)"/>
       <path id="DejaVuSans-65" d="M 3597 1894 
L 3597 1613 
L 953 1613 
Q 991 1019 1311 708 
Q 1631 397 2203 397 
Q 2534 397 2845 478 
Q 3156 559 3463 722 
L 3463 178 
Q 3153 47 2828 -22 
Q 2503 -91 2169 -91 
Q 1331 -91 842 396 
Q 353 884 353 1716 
Q 353 2575 817 3079 
Q 1281 3584 2069 3584 
Q 2775 3584 3186 3129 
Q 3597 2675 3597 1894 
z
M 3022 2063 
Q 3016 2534 2758 2815 
Q 2500 3097 2075 3097 
Q 1594 3097 1305 2825 
Q 1016 2553 972 2059 
L 3022 2063 
z
" transform="scale(0.015625)"/>
       <path id="DejaVuSans-20" transform="scale(0.015625)"/>
       <path id="DejaVuSans-66" d="M 2375 4863 
L 2375 4384 
L 1825 4384 
Q 1516 4384 1395 4259 
Q 1275 4134 1275 3809 
L 1275 3500 
L 2222 3500 
L 2222 3053 
L 1275 3053 
L 1275 0 
L 697 0 
L 697 3053 
L 147 3053 
L 147 3500 
L 697 3500 
L 697 3744 
Q 697 4328 969 4595 
Q 1241 4863 1831 4863 
L 2375 4863 
z
" transform="scale(0.015625)"/>
       <path id="DejaVuSans-47" d="M 3809 666 
L 3809 1919 
L 2778 1919 
L 2778 2438 
L 4434 2438 
L 4434 434 
Q 4069 175 3628 42 
Q 3188 -91 2688 -91 
Q 1594 -91 976 548 
Q 359 1188 359 2328 
Q 359 3472 976 4111 
Q 1594 4750 2688 4750 
Q 3144 4750 3555 4637 
Q 3966 4525 4313 4306 
L 4313 3634 
Q 3963 3931 3569 4081 
Q 3175 4231 2741 4231 
Q 1884 4231 1454 3753 
Q 1025 3275 1025 2328 
Q 1025 1384 1454 906 
Q 1884 428 2741 428 
Q 3075 428 3337 486 
Q 3600 544 3809 666 
z
" transform="scale(0.015625)"/>
       <path id="DejaVuSans-61" d="M 2194 1759 
Q 1497 1759 1228 1600 
Q 959 1441 959 1056 
Q 959 750 1161 570 
Q 1363 391 1709 391 
Q 2188 391 2477 730 
Q 2766 1069 2766 1631 
L 2766 1759 
L 2194 1759 
z
M 3341 1997 
L 3341 0 
L 2766 0 
L 2766 531 
Q 2569 213 2275 61 
Q 1981 -91 1556 -91 
Q 1019 -91 701 211 
Q 384 513 384 1019 
Q 384 1609 779 1909 
Q 1175 2209 1959 2209 
L 2766 2209 
L 2766 2266 
Q 2766 2663 2505 2880 
Q 2244 3097 1772 3097 
Q 1472 3097 1187 3025 
Q 903 2953 641 2809 
L 641 3341 
Q 956 3463 1253 3523 
Q 1550 3584 1831 3584 
Q 2591 3584 2966 3190 
Q 3341 2797 3341 1997 
z
" transform="scale(0.015625)"/>
       <path id="DejaVuSans-76" d="M 191 3500 
L 800 3500 
L 1894 563 
L 2988 3500 
L 3597 3500 
L 2284 0 
L 1503 0 
L 191 3500 
z
" transform="scale(0.015625)"/>
       <path id="DejaVuSans-69" d="M 603 3500 
L 1178 3500 
L 1178 0 
L 603 0 
L 603 3500 
z
M 603 4863 
L 1178 4863 
L 1178 4134 
L 603 4134 
L 603 4863 
z
" transform="scale(0.015625)"/>
       <path id="DejaVuSans-74" d="M 1172 4494 
L 1172 3500 
L 2356 3500 
L 2356 3053 
L 1172 3053 
L 1172 1153 
Q 1172 725 1289 603 
Q 1406 481 1766 481 
L 2356 481 
L 2356 0 
L 1766 0 
Q 1100 0 847 248 
Q 594 497 594 1153 
L 594 3053 
L 172 3053 
L 172 3500 
L 594 3500 
L 594 4494 
L 1172 4494 
z
" transform="scale(0.015625)"/>
       <path id="DejaVuSans-79" d="M 2059 -325 
Q 1816 -950 1584 -1140 
Q 1353 -1331 966 -1331 
L 506 -1331 
L 506 -850 
L 844 -850 
Q 1081 -850 1212 -737 
Q 1344 -625 1503 -206 
L 1606 56 
L 191 3500 
L 800 3500 
L 1894 763 
L 2988 3500 
L 3597 3500 
L 2059 -325 
z
" transform="scale(0.015625)"/>
       <path id="DejaVuSans-28" d="M 1984 4856 
Q 1566 4138 1362 3434 
Q 1159 2731 1159 2009 
Q 1159 1288 1364 580 
Q 1569 -128 1984 -844 
L 1484 -844 
Q 1016 -109 783 600 
Q 550 1309 550 2009 
Q 550 2706 781 3412 
Q 1013 4119 1484 4856 
L 1984 4856 
z
" transform="scale(0.015625)"/>
       <path id="DejaVuSans-4e" d="M 628 4666 
L 1478 4666 
L 3547 763 
L 3547 4666 
L 4159 4666 
L 4159 0 
L 3309 0 
L 1241 3903 
L 1241 0 
L 628 0 
L 628 4666 
z
" transform="scale(0.015625)"/>
       <path id="DejaVuSans-29" d="M 513 4856 
L 1013 4856 
Q 1481 4119 1714 3412 
Q 1947 2706 1947 2009 
Q 1947 1309 1714 600 
Q 1481 -109 1013 -844 
L 513 -844 
Q 928 -128 1133 580 
Q 1338 1288 1338 2009 
Q 1338 2731 1133 3434 
Q 928 4138 513 4856 
z
" transform="scale(0.015625)"/>
      </defs>
      <use xlink:href="#DejaVuSans-46"/>
      <use xlink:href="#DejaVuSans-6f" x="53.894531"/>
      <use xlink:href="#DejaVuSans-72" x="115.076172"/>
      <use xlink:href="#DejaVuSans-63" x="153.939453"/>
      <use xlink:href="#DejaVuSans-65" x="208.919922"/>
      <use xlink:href="#DejaVuSans-20" x="270.443359"/>
      <use xlink:href="#DejaVuSans-6f" x="302.230469"/>
      <use xlink:href="#DejaVuSans-66" x="363.412109"/>
      <use xlink:href="#DejaVuSans-20" x="398.617188"/>
      <use xlink:href="#DejaVuSans-47" x="430.404297"/>
      <use xlink:href="#DejaVuSans-72" x="507.894531"/>
      <use xlink:href="#DejaVuSans-61" x="549.007812"/>
      <use xlink:href="#DejaVuSans-76" x="610.287109"/>
      <use xlink:href="#DejaVuSans-69" x="669.466797"/>
      <use xlink:href="#DejaVuSans-74" x="697.25"/>
      <use xlink:href="#DejaVuSans-79" x="736.458984"/>
      <use xlink:href="#DejaVuSans-20" x="795.638672"/>
      <use xlink:href="#DejaVuSans-28" x="827.425781"/>
      <use xlink:href="#DejaVuSans-4e" x="866.439453"/>
      <use xlink:href="#DejaVuSans-29" x="941.244141"/>
     </g>
    </g>
   </g>
   <g id="matplotlib.axis_2">
    <g id="ytick_1">
     <g id="line2d_15">
      <path d="M 57.6 307.584 
L 414.72 307.584 
" clip-path="url(#p06a238709d)" style="fill: none; stroke: #b0b0b0; stroke-width: 0.8; stroke-linecap: square"/>
     </g>
     <g id="line2d_16">
      <defs>
       <path id="m08d45c8152" d="M 0 0 
L -3.5 0 
" style="stroke: #000000; stroke-width: 0.8"/>
      </defs>
      <g>
       <use xlink:href="#m08d45c8152" x="57.6" y="307.584" style="stroke: #000000; stroke-width: 0.8"/>
      </g>
     </g>
     <g id="text_9">
      <!-- 0 -->
      <g transform="translate(44.2375 311.383219) scale(0.1 -0.1)">
       <use xlink:href="#DejaVuSans-30"/>
      </g>
     </g>
    </g>
    <g id="ytick_2">
     <g id="line2d_17">
      <path d="M 57.6 278.016 
L 414.72 278.016 
" clip-path="url(#p06a238709d)" style="fill: none; stroke: #b0b0b0; stroke-width: 0.8; stroke-linecap: square"/>
     </g>
     <g id="line2d_18">
      <g>
       <use xlink:href="#m08d45c8152" x="57.6" y="278.016" style="stroke: #000000; stroke-width: 0.8"/>
      </g>
     </g>
     <g id="text_10">
      <!-- 5 -->
      <g transform="translate(44.2375 281.815219) scale(0.1 -0.1)">
       <defs>
        <path id="DejaVuSans-35" d="M 691 4666 
L 3169 4666 
L 3169 4134 
L 1269 4134 
L 1269 2991 
Q 1406 3038 1543 3061 
Q 1681 3084 1819 3084 
Q 2600 3084 3056 2656 
Q 3513 2228 3513 1497 
Q 3513 744 3044 326 
Q 2575 -91 1722 -91 
Q 1428 -91 1123 -41 
Q 819 9 494 109 
L 494 744 
Q 775 591 1075 516 
Q 1375 441 1709 441 
Q 2250 441 2565 725 
Q 2881 1009 2881 1497 
Q 2881 1984 2565 2268 
Q 2250 2553 1709 2553 
Q 1456 2553 1204 2497 
Q 953 2441 691 2322 
L 691 4666 
z
" transform="scale(0.015625)"/>
       </defs>
       <use xlink:href="#DejaVuSans-35"/>
      </g>
     </g>
    </g>
    <g id="ytick_3">
     <g id="line2d_19">
      <path d="M 57.6 248.448 
L 414.72 248.448 
" clip-path="url(#p06a238709d)" style="fill: none; stroke: #b0b0b0; stroke-width: 0.8; stroke-linecap: square"/>
     </g>
     <g id="line2d_20">
      <g>
       <use xlink:href="#m08d45c8152" x="57.6" y="248.448" style="stroke: #000000; stroke-width: 0.8"/>
      </g>
     </g>
     <g id="text_11">
      <!-- 10 -->
      <g transform="translate(37.875 252.247219) scale(0.1 -0.1)">
       <use xlink:href="#DejaVuSans-31"/>
       <use xlink:href="#DejaVuSans-30" x="63.623047"/>
      </g>
     </g>
    </g>
    <g id="ytick_4">
     <g id="line2d_21">
      <path d="M 57.6 218.88 
L 414.72 218.88 
" clip-path="url(#p06a238709d)" style="fill: none; stroke: #b0b0b0; stroke-width: 0.8; stroke-linecap: square"/>
     </g>
     <g id="line2d_22">
      <g>
       <use xlink:href="#m08d45c8152" x="57.6" y="218.88" style="stroke: #000000; stroke-width: 0.8"/>
      </g>
     </g>
     <g id="text_12">
      <!-- 15 -->
      <g transform="translate(37.875 222.679219) scale(0.1 -0.1)">
       <use xlink:href="#DejaVuSans-31"/>
       <use xlink:href="#DejaVuSans-35" x="63.623047"/>
      </g>
     </g>
    </g>
    <g id="ytick_5">
     <g id="line2d_23">
      <path d="M 57.6 189.312 
L 414.72 189.312 
" clip-path="url(#p06a238709d)" style="fill: none; stroke: #b0b0b0; stroke-width: 0.8; stroke-linecap: square"/>
     </g>
     <g id="line2d_24">
      <g>
       <use xlink:href="#m08d45c8152" x="57.6" y="189.312" style="stroke: #000000; stroke-width: 0.8"/>
      </g>
     </g>
     <g id="text_13">
      <!-- 20 -->
      <g transform="translate(37.875 193.111219) scale(0.1 -0.1)">
       <use xlink:href="#DejaVuSans-32"/>
       <use xlink:href="#DejaVuSans-30" x="63.623047"/>
      </g>
     </g>
    </g>
    <g id="ytick_6">
     <g id="line2d_25">
      <path d="M 57.6 159.744 
L 414.72 159.744 
" clip-path="url(#p06a238709d)" style="fill: none; stroke: #b0b0b0; stroke-width: 0.8; stroke-linecap: square"/>
     </g>
     <g id="line2d_26">
      <g>
       <use xlink:href="#m08d45c8152" x="57.6" y="159.744" style="stroke: #000000; stroke-width: 0.8"/>
      </g>
     </g>
     <g id="text_14">
      <!-- 25 -->
      <g transform="translate(37.875 163.543219) scale(0.1 -0.1)">
       <use xlink:href="#DejaVuSans-32"/>
       <use xlink:href="#DejaVuSans-35" x="63.623047"/>
      </g>
     </g>
    </g>
    <g id="ytick_7">
     <g id="line2d_27">
      <path d="M 57.6 130.176 
L 414.72 130.176 
" clip-path="url(#p06a238709d)" style="fill: none; stroke: #b0b0b0; stroke-width: 0.8; stroke-linecap: square"/>
     </g>
     <g id="line2d_28">
      <g>
       <use xlink:href="#m08d45c8152" x="57.6" y="130.176" style="stroke: #000000; stroke-width: 0.8"/>
      </g>
     </g>
     <g id="text_15">
      <!-- 30 -->
      <g transform="translate(37.875 133.975219) scale(0.1 -0.1)">
       <defs>
        <path id="DejaVuSans-33" d="M 2597 2516 
Q 3050 2419 3304 2112 
Q 3559 1806 3559 1356 
Q 3559 666 3084 287 
Q 2609 -91 1734 -91 
Q 1441 -91 1130 -33 
Q 819 25 488 141 
L 488 750 
Q 750 597 1062 519 
Q 1375 441 1716 441 
Q 2309 441 2620 675 
Q 2931 909 2931 1356 
Q 2931 1769 2642 2001 
Q 2353 2234 1838 2234 
L 1294 2234 
L 1294 2753 
L 1863 2753 
Q 2328 2753 2575 2939 
Q 2822 3125 2822 3475 
Q 2822 3834 2567 4026 
Q 2313 4219 1838 4219 
Q 1578 4219 1281 4162 
Q 984 4106 628 3988 
L 628 4550 
Q 988 4650 1302 4700 
Q 1616 4750 1894 4750 
Q 2613 4750 3031 4423 
Q 3450 4097 3450 3541 
Q 3450 3153 3228 2886 
Q 3006 2619 2597 2516 
z
" transform="scale(0.015625)"/>
       </defs>
       <use xlink:href="#DejaVuSans-33"/>
       <use xlink:href="#DejaVuSans-30" x="63.623047"/>
      </g>
     </g>
    </g>
    <g id="ytick_8">
     <g id="line2d_29">
      <path d="M 57.6 100.608 
L 414.72 100.608 
" clip-path="url(#p06a238709d)" style="fill: none; stroke: #b0b0b0; stroke-width: 0.8; stroke-linecap: square"/>
     </g>
     <g id="line2d_30">
      <g>
       <use xlink:href="#m08d45c8152" x="57.6" y="100.608" style="stroke: #000000; stroke-width: 0.8"/>
      </g>
     </g>
     <g id="text_16">
      <!-- 35 -->
      <g transform="translate(37.875 104.407219) scale(0.1 -0.1)">
       <use xlink:href="#DejaVuSans-33"/>
       <use xlink:href="#DejaVuSans-35" x="63.623047"/>
      </g>
     </g>
    </g>
    <g id="ytick_9">
     <g id="line2d_31">
      <path d="M 57.6 71.04 
L 414.72 71.04 
" clip-path="url(#p06a238709d)" style="fill: none; stroke: #b0b0b0; stroke-width: 0.8; stroke-linecap: square"/>
     </g>
     <g id="line2d_32">
      <g>
       <use xlink:href="#m08d45c8152" x="57.6" y="71.04" style="stroke: #000000; stroke-width: 0.8"/>
      </g>
     </g>
     <g id="text_17">
      <!-- 40 -->
      <g transform="translate(37.875 74.839219) scale(0.1 -0.1)">
       <use xlink:href="#DejaVuSans-34"/>
       <use xlink:href="#DejaVuSans-30" x="63.623047"/>
      </g>
     </g>
    </g>
    <g id="ytick_10">
     <g id="line2d_33">
      <path d="M 57.6 41.472 
L 414.72 41.472 
" clip-path="url(#p06a238709d)" style="fill: none; stroke: #b0b0b0; stroke-width: 0.8; stroke-linecap: square"/>
     </g>
     <g id="line2d_34">
      <g>
       <use xlink:href="#m08d45c8152" x="57.6" y="41.472" style="stroke: #000000; stroke-width: 0.8"/>
      </g>
     </g>
     <g id="text_18">
      <!-- 45 -->
      <g transform="translate(37.875 45.271219) scale(0.1 -0.1)">
       <use xlink:href="#DejaVuSans-34"/>
       <use xlink:href="#DejaVuSans-35" x="63.623047"/>
      </g>
     </g>
    </g>
    <g id="text_19">
     <!-- Pull Force (N) -->
     <g transform="translate(31.795312 207.745187) rotate(-90) scale(0.1 -0.1)">
      <defs>
       <path id="DejaVuSans-50" d="M 1259 4147 
L 1259 2394 
L 2053 2394 
Q 2494 2394 2734 2622 
Q 2975 2850 2975 3272 
Q 2975 3691 2734 3919 
Q 2494 4147 2053 4147 
L 1259 4147 
z
M 628 4666 
L 2053 4666 
Q 2838 4666 3239 4311 
Q 3641 3956 3641 3272 
Q 3641 2581 3239 2228 
Q 2838 1875 2053 1875 
L 1259 1875 
L 1259 0 
L 628 0 
L 628 4666 
z
" transform="scale(0.015625)"/>
       <path id="DejaVuSans-75" d="M 544 1381 
L 544 3500 
L 1119 3500 
L 1119 1403 
Q 1119 906 1312 657 
Q 1506 409 1894 409 
Q 2359 409 2629 706 
Q 2900 1003 2900 1516 
L 2900 3500 
L 3475 3500 
L 3475 0 
L 2900 0 
L 2900 538 
Q 2691 219 2414 64 
Q 2138 -91 1772 -91 
Q 1169 -91 856 284 
Q 544 659 544 1381 
z
M 1991 3584 
L 1991 3584 
z
" transform="scale(0.015625)"/>
       <path id="DejaVuSans-6c" d="M 603 4863 
L 1178 4863 
L 1178 0 
L 603 0 
L 603 4863 
z
" transform="scale(0.015625)"/>
      </defs>
      <use xlink:href="#DejaVuSans-50"/>
      <use xlink:href="#DejaVuSans-75" x="58.552734"/>
      <use xlink:href="#DejaVuSans-6c" x="121.931641"/>
      <use xlink:href="#DejaVuSans-6c" x="149.714844"/>
      <use xlink:href="#DejaVuSans-20" x="177.498047"/>
      <use xlink:href="#DejaVuSans-46" x="209.285156"/>
      <use xlink:href="#DejaVuSans-6f" x="263.179688"/>
      <use xlink:href="#DejaVuSans-72" x="324.361328"/>
      <use xlink:href="#DejaVuSans-63" x="363.224609"/>
      <use xlink:href="#DejaVuSans-65" x="418.205078"/>
      <use xlink:href="#DejaVuSans-20" x="479.728516"/>
      <use xlink:href="#DejaVuSans-28" x="511.515625"/>
      <use xlink:href="#DejaVuSans-4e" x="550.529297"/>
      <use xlink:href="#DejaVuSans-29" x="625.333984"/>
     </g>
    </g>
   </g>
   <g id="LineCollection_1">
    <path d="M 73.684684 298.139978 
L 73.684684 296.206237 
" clip-path="url(#p06a238709d)" style="fill: none; stroke: #ff0000; stroke-width: 1.5"/>
    <path d="M 85.24808 291.470751 
L 85.24808 289.176609 
" clip-path="url(#p06a238709d)" style="fill: none; stroke: #ff0000; stroke-width: 1.5"/>
    <path d="M 218.227134 228.955563 
L 218.227134 205.587438 
" clip-path="url(#p06a238709d)" style="fill: none; stroke: #ff0000; stroke-width: 1.5"/>
    <path d="M 362.769585 92.68232 
L 362.769585 58.26808 
" clip-path="url(#p06a238709d)" style="fill: none; stroke: #ff0000; stroke-width: 1.5"/>
   </g>
   <g id="line2d_35">
    <path d="M 57.6 307.584 
L 62.223782 304.300743 
L 66.847563 301.017487 
L 71.471345 297.73423 
L 76.095126 294.450973 
L 80.718908 291.167716 
L 85.34269 287.88446 
L 89.966471 284.601203 
L 94.590253 281.317946 
L 99.214034 278.03469 
L 103.837816 274.751433 
L 108.461597 271.468176 
L 113.085379 268.184919 
L 117.709161 264.901663 
L 122.332942 261.618406 
L 126.956724 258.335149 
L 131.580505 255.051893 
L 136.204287 251.768636 
L 140.828069 248.485379 
L 145.45185 245.202122 
L 150.075632 241.918866 
L 154.699413 238.635609 
L 159.323195 235.352352 
L 163.946977 232.069096 
L 168.570758 228.785839 
L 173.19454 225.502582 
L 177.818321 222.219325 
L 182.442103 218.936069 
L 187.065884 215.652812 
L 191.689666 212.369555 
L 196.313448 209.086299 
L 200.937229 205.803042 
L 205.561011 202.519785 
L 210.184792 199.236528 
L 214.808574 195.953272 
L 219.432356 192.670015 
L 224.056137 189.386758 
L 228.679919 186.103502 
L 233.3037 182.820245 
L 237.927482 179.536988 
L 242.551264 176.253731 
L 247.175045 172.970475 
L 251.798827 169.687218 
L 256.422608 166.403961 
L 261.04639 163.120705 
L 265.670171 159.837448 
L 270.293953 156.554191 
L 274.917735 153.270934 
L 279.541516 149.987678 
L 284.165298 146.704421 
L 288.789079 143.421164 
L 293.412861 140.137908 
L 298.036643 136.854651 
L 302.660424 133.571394 
L 307.284206 130.288137 
L 311.907987 127.004881 
L 316.531769 123.721624 
L 321.15555 120.438367 
L 325.779332 117.155111 
L 330.403114 113.871854 
L 335.026895 110.588597 
L 339.650677 107.30534 
L 344.274458 104.022084 
L 348.89824 100.738827 
L 353.522022 97.45557 
L 358.145803 94.172314 
L 362.769585 90.889057 
L 367.393366 87.6058 
L 372.017148 84.322543 
L 376.64093 81.039287 
L 381.264711 77.75603 
L 385.888493 74.472773 
L 390.512274 71.189517 
L 395.136056 67.90626 
L 399.759837 64.623003 
L 404.383619 61.339747 
L 409.007401 58.05649 
L 413.631182 54.773233 
L 418.254964 51.489976 
L 422.878745 48.20672 
L 427.502527 44.923463 
L 432.126309 41.640206 
L 436.75009 38.35695 
L 441.373872 35.073693 
L 445.997653 31.790436 
L 450.621435 28.507179 
L 455.245217 25.223923 
L 459.868998 21.940666 
L 461.8 20.569499 
" clip-path="url(#p06a238709d)" style="fill: none; stroke: #ff0000; stroke-width: 1.5; stroke-linecap: square"/>
   </g>
   <g id="line2d_36">
    <path d="M 57.6 307.584 
L 62.223782 304.193245 
L 66.847563 300.80249 
L 71.471345 297.411735 
L 76.095126 294.020979 
L 80.718908 290.630224 
L 85.34269 287.239469 
L 89.966471 283.848714 
L 94.590253 280.457959 
L 99.214034 277.067204 
L 103.837816 273.676448 
L 108.461597 270.285693 
L 113.085379 266.894938 
L 117.709161 263.504183 
L 122.332942 260.113428 
L 126.956724 256.722673 
L 131.580505 253.331917 
L 136.204287 249.941162 
L 140.828069 246.550407 
L 145.45185 243.159652 
L 150.075632 239.768897 
L 154.699413 236.378142 
L 159.323195 232.987386 
L 163.946977 229.596631 
L 168.570758 226.205876 
L 173.19454 222.815121 
L 177.818321 219.424366 
L 182.442103 216.033611 
L 187.065884 212.642856 
L 191.689666 209.2521 
L 196.313448 205.861345 
L 200.937229 202.47059 
L 205.561011 199.079835 
L 210.184792 195.68908 
L 214.808574 192.298325 
L 219.432356 188.907569 
L 224.056137 185.516814 
L 228.679919 182.126059 
L 233.3037 178.735304 
L 237.927482 175.344549 
L 242.551264 171.953794 
L 247.175045 168.563038 
L 251.798827 165.172283 
L 256.422608 161.781528 
L 261.04639 158.390773 
L 265.670171 155.000018 
L 270.293953 151.609263 
L 274.917735 148.218507 
L 279.541516 144.827752 
L 284.165298 141.436997 
L 288.789079 138.046242 
L 293.412861 134.655487 
L 298.036643 131.264732 
L 302.660424 127.873976 
L 307.284206 124.483221 
L 311.907987 121.092466 
L 316.531769 117.701711 
L 321.15555 114.310956 
L 325.779332 110.920201 
L 330.403114 107.529446 
L 335.026895 104.13869 
L 339.650677 100.747935 
L 344.274458 97.35718 
L 348.89824 93.966425 
L 353.522022 90.57567 
L 358.145803 87.184915 
L 362.769585 83.794159 
L 367.393366 80.403404 
L 372.017148 77.012649 
L 376.64093 73.621894 
L 381.264711 70.231139 
L 385.888493 66.840384 
L 390.512274 63.449628 
L 395.136056 60.058873 
L 399.759837 56.668118 
L 404.383619 53.277363 
L 409.007401 49.886608 
L 413.631182 46.495853 
L 418.254964 43.105097 
L 422.878745 39.714342 
L 427.502527 36.323587 
L 432.126309 32.932832 
L 436.75009 29.542077 
L 441.373872 26.151322 
L 445.997653 22.760567 
L 450.621435 19.369811 
L 455.245217 15.979056 
L 459.868998 12.588301 
L 461.8 11.172241 
" clip-path="url(#p06a238709d)" style="fill: none; stroke-dasharray: 2.96,1.28; stroke-dashoffset: 0; stroke: #ff0000; stroke-width: 0.8"/>
   </g>
   <g id="line2d_37">
    <path d="M 57.6 307.584 
L 62.223782 304.408242 
L 66.847563 301.232483 
L 71.471345 298.056725 
L 76.095126 294.880967 
L 80.718908 291.705209 
L 85.34269 288.52945 
L 89.966471 285.353692 
L 94.590253 282.177934 
L 99.214034 279.002176 
L 103.837816 275.826417 
L 108.461597 272.650659 
L 113.085379 269.474901 
L 117.709161 266.299143 
L 122.332942 263.123384 
L 126.956724 259.947626 
L 131.580505 256.771868 
L 136.204287 253.596109 
L 140.828069 250.420351 
L 145.45185 247.244593 
L 150.075632 244.068835 
L 154.699413 240.893076 
L 159.323195 237.717318 
L 163.946977 234.54156 
L 168.570758 231.365802 
L 173.19454 228.190043 
L 177.818321 225.014285 
L 182.442103 221.838527 
L 187.065884 218.662769 
L 191.689666 215.48701 
L 196.313448 212.311252 
L 200.937229 209.135494 
L 205.561011 205.959735 
L 210.184792 202.783977 
L 214.808574 199.608219 
L 219.432356 196.432461 
L 224.056137 193.256702 
L 228.679919 190.080944 
L 233.3037 186.905186 
L 237.927482 183.729428 
L 242.551264 180.553669 
L 247.175045 177.377911 
L 251.798827 174.202153 
L 256.422608 171.026395 
L 261.04639 167.850636 
L 265.670171 164.674878 
L 270.293953 161.49912 
L 274.917735 158.323361 
L 279.541516 155.147603 
L 284.165298 151.971845 
L 288.789079 148.796087 
L 293.412861 145.620328 
L 298.036643 142.44457 
L 302.660424 139.268812 
L 307.284206 136.093054 
L 311.907987 132.917295 
L 316.531769 129.741537 
L 321.15555 126.565779 
L 325.779332 123.390021 
L 330.403114 120.214262 
L 335.026895 117.038504 
L 339.650677 113.862746 
L 344.274458 110.686988 
L 348.89824 107.511229 
L 353.522022 104.335471 
L 358.145803 101.159713 
L 362.769585 97.983954 
L 367.393366 94.808196 
L 372.017148 91.632438 
L 376.64093 88.45668 
L 381.264711 85.280921 
L 385.888493 82.105163 
L 390.512274 78.929405 
L 395.136056 75.753647 
L 399.759837 72.577888 
L 404.383619 69.40213 
L 409.007401 66.226372 
L 413.631182 63.050614 
L 418.254964 59.874855 
L 422.878745 56.699097 
L 427.502527 53.523339 
L 432.126309 50.34758 
L 436.75009 47.171822 
L 441.373872 43.996064 
L 445.997653 40.820306 
L 450.621435 37.644547 
L 455.245217 34.468789 
L 459.868998 31.293031 
L 461.8 29.966758 
" clip-path="url(#p06a238709d)" style="fill: none; stroke-dasharray: 2.96,1.28; stroke-dashoffset: 0; stroke: #ff0000; stroke-width: 0.8"/>
   </g>
   <g id="LineCollection_2">
    <path d="M 73.684684 299.197237 
L 73.684684 296.48406 
" clip-path="url(#p06a238709d)" style="fill: none; stroke: #008000; stroke-width: 1.5"/>
    <path d="M 85.24808 294.98658 
L 85.24808 292.328747 
" clip-path="url(#p06a238709d)" style="fill: none; stroke: #008000; stroke-width: 1.5"/>
    <path d="M 218.227134 189.178684 
L 218.227134 168.976148 
" clip-path="url(#p06a238709d)" style="fill: none; stroke: #008000; stroke-width: 1.5"/>
    <path d="M 362.769585 141.77192 
L 362.769585 108.599487 
" clip-path="url(#p06a238709d)" style="fill: none; stroke: #008000; stroke-width: 1.5"/>
   </g>
   <g id="line2d_38">
    <path d="M 57.6 307.584 
L 62.223782 304.621847 
L 66.847563 301.659693 
L 71.471345 298.69754 
L 76.095126 295.735387 
L 80.718908 292.773233 
L 85.34269 289.81108 
L 89.966471 286.848926 
L 94.590253 283.886773 
L 99.214034 280.92462 
L 103.837816 277.962466 
L 108.461597 275.000313 
L 113.085379 272.03816 
L 117.709161 269.076006 
L 122.332942 266.113853 
L 126.956724 263.151699 
L 131.580505 260.189546 
L 136.204287 257.227393 
L 140.828069 254.265239 
L 145.45185 251.303086 
L 150.075632 248.340933 
L 154.699413 245.378779 
L 159.323195 242.416626 
L 163.946977 239.454473 
L 168.570758 236.492319 
L 173.19454 233.530166 
L 177.818321 230.568012 
L 182.442103 227.605859 
L 187.065884 224.643706 
L 191.689666 221.681552 
L 196.313448 218.719399 
L 200.937229 215.757246 
L 205.561011 212.795092 
L 210.184792 209.832939 
L 214.808574 206.870785 
L 219.432356 203.908632 
L 224.056137 200.946479 
L 228.679919 197.984325 
L 233.3037 195.022172 
L 237.927482 192.060019 
L 242.551264 189.097865 
L 247.175045 186.135712 
L 251.798827 183.173559 
L 256.422608 180.211405 
L 261.04639 177.249252 
L 265.670171 174.287098 
L 270.293953 171.324945 
L 274.917735 168.362792 
L 279.541516 165.400638 
L 284.165298 162.438485 
L 288.789079 159.476332 
L 293.412861 156.514178 
L 298.036643 153.552025 
L 302.660424 150.589871 
L 307.284206 147.627718 
L 311.907987 144.665565 
L 316.531769 141.703411 
L 321.15555 138.741258 
L 325.779332 135.779105 
L 330.403114 132.816951 
L 335.026895 129.854798 
L 339.650677 126.892644 
L 344.274458 123.930491 
L 348.89824 120.968338 
L 353.522022 118.006184 
L 358.145803 115.044031 
L 362.769585 112.081878 
L 367.393366 109.119724 
L 372.017148 106.157571 
L 376.64093 103.195418 
L 381.264711 100.233264 
L 385.888493 97.271111 
L 390.512274 94.308957 
L 395.136056 91.346804 
L 399.759837 88.384651 
L 404.383619 85.422497 
L 409.007401 82.460344 
L 413.631182 79.498191 
L 418.254964 76.536037 
L 422.878745 73.573884 
L 427.502527 70.61173 
L 432.126309 67.649577 
L 436.75009 64.687424 
L 441.373872 61.72527 
L 445.997653 58.763117 
L 450.621435 55.800964 
L 455.245217 52.83881 
L 459.868998 49.876657 
L 461.8 48.639591 
" clip-path="url(#p06a238709d)" style="fill: none; stroke: #008000; stroke-width: 1.5; stroke-linecap: square"/>
   </g>
   <g id="line2d_39">
    <path d="M 57.6 307.584 
L 62.223782 304.303945 
L 66.847563 301.02389 
L 71.471345 297.743836 
L 76.095126 294.463781 
L 80.718908 291.183726 
L 85.34269 287.903671 
L 89.966471 284.623617 
L 94.590253 281.343562 
L 99.214034 278.063507 
L 103.837816 274.783452 
L 108.461597 271.503398 
L 113.085379 268.223343 
L 117.709161 264.943288 
L 122.332942 261.663233 
L 126.956724 258.383179 
L 131.580505 255.103124 
L 136.204287 251.823069 
L 140.828069 248.543014 
L 145.45185 245.26296 
L 150.075632 241.982905 
L 154.699413 238.70285 
L 159.323195 235.422795 
L 163.946977 232.142741 
L 168.570758 228.862686 
L 173.19454 225.582631 
L 177.818321 222.302576 
L 182.442103 219.022521 
L 187.065884 215.742467 
L 191.689666 212.462412 
L 196.313448 209.182357 
L 200.937229 205.902302 
L 205.561011 202.622248 
L 210.184792 199.342193 
L 214.808574 196.062138 
L 219.432356 192.782083 
L 224.056137 189.502029 
L 228.679919 186.221974 
L 233.3037 182.941919 
L 237.927482 179.661864 
L 242.551264 176.38181 
L 247.175045 173.101755 
L 251.798827 169.8217 
L 256.422608 166.541645 
L 261.04639 163.261591 
L 265.670171 159.981536 
L 270.293953 156.701481 
L 274.917735 153.421426 
L 279.541516 150.141372 
L 284.165298 146.861317 
L 288.789079 143.581262 
L 293.412861 140.301207 
L 298.036643 137.021152 
L 302.660424 133.741098 
L 307.284206 130.461043 
L 311.907987 127.180988 
L 316.531769 123.900933 
L 321.15555 120.620879 
L 325.779332 117.340824 
L 330.403114 114.060769 
L 335.026895 110.780714 
L 339.650677 107.50066 
L 344.274458 104.220605 
L 348.89824 100.94055 
L 353.522022 97.660495 
L 358.145803 94.380441 
L 362.769585 91.100386 
L 367.393366 87.820331 
L 372.017148 84.540276 
L 376.64093 81.260222 
L 381.264711 77.980167 
L 385.888493 74.700112 
L 390.512274 71.420057 
L 395.136056 68.140003 
L 399.759837 64.859948 
L 404.383619 61.579893 
L 409.007401 58.299838 
L 413.631182 55.019783 
L 418.254964 51.739729 
L 422.878745 48.459674 
L 427.502527 45.179619 
L 432.126309 41.899564 
L 436.75009 38.61951 
L 441.373872 35.339455 
L 445.997653 32.0594 
L 450.621435 28.779345 
L 455.245217 25.499291 
L 459.868998 22.219236 
L 461.8 20.849406 
" clip-path="url(#p06a238709d)" style="fill: none; stroke-dasharray: 2.96,1.28; stroke-dashoffset: 0; stroke: #008000; stroke-width: 0.8"/>
   </g>
   <g id="line2d_40">
    <path d="M 57.6 307.584 
L 62.223782 304.939748 
L 66.847563 302.295496 
L 71.471345 299.651244 
L 76.095126 297.006992 
L 80.718908 294.36274 
L 85.34269 291.718488 
L 89.966471 289.074236 
L 94.590253 286.429984 
L 99.214034 283.785732 
L 103.837816 281.14148 
L 108.461597 278.497228 
L 113.085379 275.852976 
L 117.709161 273.208724 
L 122.332942 270.564472 
L 126.956724 267.92022 
L 131.580505 265.275968 
L 136.204287 262.631716 
L 140.828069 259.987464 
L 145.45185 257.343212 
L 150.075632 254.69896 
L 154.699413 252.054708 
L 159.323195 249.410456 
L 163.946977 246.766205 
L 168.570758 244.121953 
L 173.19454 241.477701 
L 177.818321 238.833449 
L 182.442103 236.189197 
L 187.065884 233.544945 
L 191.689666 230.900693 
L 196.313448 228.256441 
L 200.937229 225.612189 
L 205.561011 222.967937 
L 210.184792 220.323685 
L 214.808574 217.679433 
L 219.432356 215.035181 
L 224.056137 212.390929 
L 228.679919 209.746677 
L 233.3037 207.102425 
L 237.927482 204.458173 
L 242.551264 201.813921 
L 247.175045 199.169669 
L 251.798827 196.525417 
L 256.422608 193.881165 
L 261.04639 191.236913 
L 265.670171 188.592661 
L 270.293953 185.948409 
L 274.917735 183.304157 
L 279.541516 180.659905 
L 284.165298 178.015653 
L 288.789079 175.371401 
L 293.412861 172.727149 
L 298.036643 170.082897 
L 302.660424 167.438645 
L 307.284206 164.794393 
L 311.907987 162.150141 
L 316.531769 159.505889 
L 321.15555 156.861637 
L 325.779332 154.217385 
L 330.403114 151.573133 
L 335.026895 148.928881 
L 339.650677 146.284629 
L 344.274458 143.640377 
L 348.89824 140.996125 
L 353.522022 138.351873 
L 358.145803 135.707621 
L 362.769585 133.063369 
L 367.393366 130.419117 
L 372.017148 127.774866 
L 376.64093 125.130614 
L 381.264711 122.486362 
L 385.888493 119.84211 
L 390.512274 117.197858 
L 395.136056 114.553606 
L 399.759837 111.909354 
L 404.383619 109.265102 
L 409.007401 106.62085 
L 413.631182 103.976598 
L 418.254964 101.332346 
L 422.878745 98.688094 
L 427.502527 96.043842 
L 432.126309 93.39959 
L 436.75009 90.755338 
L 441.373872 88.111086 
L 445.997653 85.466834 
L 450.621435 82.822582 
L 455.245217 80.17833 
L 459.868998 77.534078 
L 461.8 76.429775 
" clip-path="url(#p06a238709d)" style="fill: none; stroke-dasharray: 2.96,1.28; stroke-dashoffset: 0; stroke: #008000; stroke-width: 0.8"/>
   </g>
   <g id="line2d_41">
    <defs>
     <path id="m3a51b50c4c" d="M 0 1.5 
C 0.397805 1.5 0.77937 1.341951 1.06066 1.06066 
C 1.341951 0.77937 1.5 0.397805 1.5 0 
C 1.5 -0.397805 1.341951 -0.77937 1.06066 -1.06066 
C 0.77937 -1.341951 0.397805 -1.5 0 -1.5 
C -0.397805 -1.5 -0.77937 -1.341951 -1.06066 -1.06066 
C -1.341951 -0.77937 -1.5 -0.397805 -1.5 0 
C -1.5 0.397805 -1.341951 0.77937 -1.06066 1.06066 
C -0.77937 1.341951 -0.397805 1.5 0 1.5 
z
" style="stroke: #ff0000"/>
    </defs>
    <g clip-path="url(#p06a238709d)">
     <use xlink:href="#m3a51b50c4c" x="73.684684" y="297.173107" style="fill: #ff0000; stroke: #ff0000"/>
     <use xlink:href="#m3a51b50c4c" x="85.24808" y="290.32368" style="fill: #ff0000; stroke: #ff0000"/>
     <use xlink:href="#m3a51b50c4c" x="218.227134" y="217.271501" style="fill: #ff0000; stroke: #ff0000"/>
     <use xlink:href="#m3a51b50c4c" x="362.769585" y="75.4752" style="fill: #ff0000; stroke: #ff0000"/>
    </g>
   </g>
   <g id="line2d_42">
    <defs>
     <path id="m26eef28a98" d="M 0 1.5 
C 0.397805 1.5 0.77937 1.341951 1.06066 1.06066 
C 1.341951 0.77937 1.5 0.397805 1.5 0 
C 1.5 -0.397805 1.341951 -0.77937 1.06066 -1.06066 
C 0.77937 -1.341951 0.397805 -1.5 0 -1.5 
C -0.397805 -1.5 -0.77937 -1.341951 -1.06066 -1.06066 
C -1.341951 -0.77937 -1.5 -0.397805 -1.5 0 
C -1.5 0.397805 -1.341951 0.77937 -1.06066 1.06066 
C -0.77937 1.341951 -0.397805 1.5 0 1.5 
z
" style="stroke: #008000"/>
    </defs>
    <g clip-path="url(#p06a238709d)">
     <use xlink:href="#m26eef28a98" x="73.684684" y="297.840649" style="fill: #008000; stroke: #008000"/>
     <use xlink:href="#m26eef28a98" x="85.24808" y="293.657663" style="fill: #008000; stroke: #008000"/>
     <use xlink:href="#m26eef28a98" x="218.227134" y="179.077416" style="fill: #008000; stroke: #008000"/>
     <use xlink:href="#m26eef28a98" x="362.769585" y="125.185703" style="fill: #008000; stroke: #008000"/>
    </g>
   </g>
   <g id="patch_3">
    <path d="M 57.6 307.584 
L 57.6 41.472 
" style="fill: none; stroke: #000000; stroke-width: 0.8; stroke-linejoin: miter; stroke-linecap: square"/>
   </g>
   <g id="patch_4">
    <path d="M 414.72 307.584 
L 414.72 41.472 
" style="fill: none; stroke: #000000; stroke-width: 0.8; stroke-linejoin: miter; stroke-linecap: square"/>
   </g>
   <g id="patch_5">
    <path d="M 57.6 307.584 
L 414.72 307.584 
" style="fill: none; stroke: #000000; stroke-width: 0.8; stroke-linejoin: miter; stroke-linecap: square"/>
   </g>
   <g id="patch_6">
    <path d="M 57.6 41.472 
L 414.72 41.472 
" style="fill: none; stroke: #000000; stroke-width: 0.8; stroke-linejoin: miter; stroke-linecap: square"/>
   </g>
   <g id="legend_1">
    <g id="patch_7">
     <path d="M 63.431 115.699068 
L 166.897409 115.699068 
Q 168.563409 115.699068 168.563409 114.033068 
L 168.563409 47.303 
Q 168.563409 45.637 166.897409 45.637 
L 63.431 45.637 
Q 61.765 45.637 61.765 47.303 
L 61.765 114.033068 
Q 61.765 115.699068 63.431 115.699068 
z
" style="fill: #ffffff; opacity: 0.8; stroke: #cccccc; stroke-linejoin: miter"/>
    </g>
    <g id="line2d_43">
     <path d="M 65.097 57.913077 
L 73.427 57.913077 
L 81.757 57.913077 
" style="fill: none; stroke: #ff0000; stroke-width: 1.5; stroke-linecap: square"/>
    </g>
    <g id="text_20">
     <!-- Static Force Fit  -->
     <g transform="translate(88.421 55.298498) scale(0.0833 -0.0833)">
      <defs>
       <path id="DejaVuSans-53" d="M 3425 4513 
L 3425 3897 
Q 3066 4069 2747 4153 
Q 2428 4238 2131 4238 
Q 1616 4238 1336 4038 
Q 1056 3838 1056 3469 
Q 1056 3159 1242 3001 
Q 1428 2844 1947 2747 
L 2328 2669 
Q 3034 2534 3370 2195 
Q 3706 1856 3706 1288 
Q 3706 609 3251 259 
Q 2797 -91 1919 -91 
Q 1588 -91 1214 -16 
Q 841 59 441 206 
L 441 856 
Q 825 641 1194 531 
Q 1563 422 1919 422 
Q 2459 422 2753 634 
Q 3047 847 3047 1241 
Q 3047 1584 2836 1778 
Q 2625 1972 2144 2069 
L 1759 2144 
Q 1053 2284 737 2584 
Q 422 2884 422 3419 
Q 422 4038 858 4394 
Q 1294 4750 2059 4750 
Q 2388 4750 2728 4690 
Q 3069 4631 3425 4513 
z
" transform="scale(0.015625)"/>
      </defs>
      <use xlink:href="#DejaVuSans-53"/>
      <use xlink:href="#DejaVuSans-74" x="63.476562"/>
      <use xlink:href="#DejaVuSans-61" x="102.685547"/>
      <use xlink:href="#DejaVuSans-74" x="163.964844"/>
      <use xlink:href="#DejaVuSans-69" x="203.173828"/>
      <use xlink:href="#DejaVuSans-63" x="230.957031"/>
      <use xlink:href="#DejaVuSans-20" x="285.9375"/>
      <use xlink:href="#DejaVuSans-46" x="317.724609"/>
      <use xlink:href="#DejaVuSans-6f" x="371.619141"/>
      <use xlink:href="#DejaVuSans-72" x="432.800781"/>
      <use xlink:href="#DejaVuSans-63" x="471.664062"/>
      <use xlink:href="#DejaVuSans-65" x="526.644531"/>
      <use xlink:href="#DejaVuSans-20" x="588.167969"/>
      <use xlink:href="#DejaVuSans-46" x="619.955078"/>
      <use xlink:href="#DejaVuSans-69" x="670.224609"/>
      <use xlink:href="#DejaVuSans-74" x="698.007812"/>
      <use xlink:href="#DejaVuSans-20" x="737.216797"/>
     </g>
     <!-- y=0.36  0.0117x -->
     <g transform="translate(88.421 64.626276) scale(0.0833 -0.0833)">
      <defs>
       <path id="DejaVuSans-3d" d="M 678 2906 
L 4684 2906 
L 4684 2381 
L 678 2381 
L 678 2906 
z
M 678 1631 
L 4684 1631 
L 4684 1100 
L 678 1100 
L 678 1631 
z
" transform="scale(0.015625)"/>
       <path id="DejaVuSans-2e" d="M 684 794 
L 1344 794 
L 1344 0 
L 684 0 
L 684 794 
z
" transform="scale(0.015625)"/>
       <path id="DejaVuSans-b1" d="M 2944 4013 
L 2944 2803 
L 4684 2803 
L 4684 2272 
L 2944 2272 
L 2944 1063 
L 2419 1063 
L 2419 2272 
L 678 2272 
L 678 2803 
L 2419 2803 
L 2419 4013 
L 2944 4013 
z
M 678 531 
L 4684 531 
L 4684 0 
L 678 0 
L 678 531 
z
" transform="scale(0.015625)"/>
       <path id="DejaVuSans-37" d="M 525 4666 
L 3525 4666 
L 3525 4397 
L 1831 0 
L 1172 0 
L 2766 4134 
L 525 4134 
L 525 4666 
z
" transform="scale(0.015625)"/>
       <path id="DejaVuSans-78" d="M 3513 3500 
L 2247 1797 
L 3578 0 
L 2900 0 
L 1881 1375 
L 863 0 
L 184 0 
L 1544 1831 
L 300 3500 
L 978 3500 
L 1906 2253 
L 2834 3500 
L 3513 3500 
z
" transform="scale(0.015625)"/>
      </defs>
      <use xlink:href="#DejaVuSans-79"/>
      <use xlink:href="#DejaVuSans-3d" x="59.179688"/>
      <use xlink:href="#DejaVuSans-30" x="142.96875"/>
      <use xlink:href="#DejaVuSans-2e" x="206.591797"/>
      <use xlink:href="#DejaVuSans-33" x="238.378906"/>
      <use xlink:href="#DejaVuSans-36" x="302.001953"/>
      <use xlink:href="#DejaVuSans-20" x="365.625"/>
      <use xlink:href="#DejaVuSans-b1" x="397.412109"/>
      <use xlink:href="#DejaVuSans-20" x="481.201172"/>
      <use xlink:href="#DejaVuSans-30" x="512.988281"/>
      <use xlink:href="#DejaVuSans-2e" x="576.611328"/>
      <use xlink:href="#DejaVuSans-30" x="608.398438"/>
      <use xlink:href="#DejaVuSans-31" x="672.021484"/>
      <use xlink:href="#DejaVuSans-31" x="735.644531"/>
      <use xlink:href="#DejaVuSans-37" x="799.267578"/>
      <use xlink:href="#DejaVuSans-78" x="862.890625"/>
     </g>
    </g>
    <g id="line2d_44">
     <path d="M 65.097 79.467733 
L 73.427 79.467733 
L 81.757 79.467733 
" style="fill: none; stroke: #008000; stroke-width: 1.5; stroke-linecap: square"/>
    </g>
    <g id="text_21">
     <!-- Kinetic Force Fit -->
     <g transform="translate(88.421 76.853154) scale(0.0833 -0.0833)">
      <defs>
       <path id="DejaVuSans-4b" d="M 628 4666 
L 1259 4666 
L 1259 2694 
L 3353 4666 
L 4166 4666 
L 1850 2491 
L 4331 0 
L 3500 0 
L 1259 2247 
L 1259 0 
L 628 0 
L 628 4666 
z
" transform="scale(0.015625)"/>
       <path id="DejaVuSans-6e" d="M 3513 2113 
L 3513 0 
L 2938 0 
L 2938 2094 
Q 2938 2591 2744 2837 
Q 2550 3084 2163 3084 
Q 1697 3084 1428 2787 
Q 1159 2491 1159 1978 
L 1159 0 
L 581 0 
L 581 3500 
L 1159 3500 
L 1159 2956 
Q 1366 3272 1645 3428 
Q 1925 3584 2291 3584 
Q 2894 3584 3203 3211 
Q 3513 2838 3513 2113 
z
" transform="scale(0.015625)"/>
      </defs>
      <use xlink:href="#DejaVuSans-4b"/>
      <use xlink:href="#DejaVuSans-69" x="65.576172"/>
      <use xlink:href="#DejaVuSans-6e" x="93.359375"/>
      <use xlink:href="#DejaVuSans-65" x="156.738281"/>
      <use xlink:href="#DejaVuSans-74" x="218.261719"/>
      <use xlink:href="#DejaVuSans-69" x="257.470703"/>
      <use xlink:href="#DejaVuSans-63" x="285.253906"/>
      <use xlink:href="#DejaVuSans-20" x="340.234375"/>
      <use xlink:href="#DejaVuSans-46" x="372.021484"/>
      <use xlink:href="#DejaVuSans-6f" x="425.916016"/>
      <use xlink:href="#DejaVuSans-72" x="487.097656"/>
      <use xlink:href="#DejaVuSans-63" x="525.960938"/>
      <use xlink:href="#DejaVuSans-65" x="580.941406"/>
      <use xlink:href="#DejaVuSans-20" x="642.464844"/>
      <use xlink:href="#DejaVuSans-46" x="674.251953"/>
      <use xlink:href="#DejaVuSans-69" x="724.521484"/>
      <use xlink:href="#DejaVuSans-74" x="752.304688"/>
     </g>
     <!-- y=0.32  0.0346x -->
     <g transform="translate(88.421 86.180932) scale(0.0833 -0.0833)">
      <use xlink:href="#DejaVuSans-79"/>
      <use xlink:href="#DejaVuSans-3d" x="59.179688"/>
      <use xlink:href="#DejaVuSans-30" x="142.96875"/>
      <use xlink:href="#DejaVuSans-2e" x="206.591797"/>
      <use xlink:href="#DejaVuSans-33" x="238.378906"/>
      <use xlink:href="#DejaVuSans-32" x="302.001953"/>
      <use xlink:href="#DejaVuSans-20" x="365.625"/>
      <use xlink:href="#DejaVuSans-b1" x="397.412109"/>
      <use xlink:href="#DejaVuSans-20" x="481.201172"/>
      <use xlink:href="#DejaVuSans-30" x="512.988281"/>
      <use xlink:href="#DejaVuSans-2e" x="576.611328"/>
      <use xlink:href="#DejaVuSans-30" x="608.398438"/>
      <use xlink:href="#DejaVuSans-33" x="672.021484"/>
      <use xlink:href="#DejaVuSans-34" x="735.644531"/>
      <use xlink:href="#DejaVuSans-36" x="799.267578"/>
      <use xlink:href="#DejaVuSans-78" x="862.890625"/>
     </g>
    </g>
    <g id="LineCollection_3">
     <path d="M 73.427 99.65731 
L 73.427 91.32731 
" style="fill: none; stroke: #ff0000; stroke-width: 1.5"/>
    </g>
    <g id="line2d_45"/>
    <g id="line2d_46">
     <g>
      <use xlink:href="#m3a51b50c4c" x="73.427" y="95.49231" style="fill: #ff0000; stroke: #ff0000"/>
     </g>
    </g>
    <g id="text_22">
     <!-- Static Force Data -->
     <g transform="translate(88.421 98.40781) scale(0.0833 -0.0833)">
      <defs>
       <path id="DejaVuSans-44" d="M 1259 4147 
L 1259 519 
L 2022 519 
Q 2988 519 3436 956 
Q 3884 1394 3884 2338 
Q 3884 3275 3436 3711 
Q 2988 4147 2022 4147 
L 1259 4147 
z
M 628 4666 
L 1925 4666 
Q 3281 4666 3915 4102 
Q 4550 3538 4550 2338 
Q 4550 1131 3912 565 
Q 3275 0 1925 0 
L 628 0 
L 628 4666 
z
" transform="scale(0.015625)"/>
      </defs>
      <use xlink:href="#DejaVuSans-53"/>
      <use xlink:href="#DejaVuSans-74" x="63.476562"/>
      <use xlink:href="#DejaVuSans-61" x="102.685547"/>
      <use xlink:href="#DejaVuSans-74" x="163.964844"/>
      <use xlink:href="#DejaVuSans-69" x="203.173828"/>
      <use xlink:href="#DejaVuSans-63" x="230.957031"/>
      <use xlink:href="#DejaVuSans-20" x="285.9375"/>
      <use xlink:href="#DejaVuSans-46" x="317.724609"/>
      <use xlink:href="#DejaVuSans-6f" x="371.619141"/>
      <use xlink:href="#DejaVuSans-72" x="432.800781"/>
      <use xlink:href="#DejaVuSans-63" x="471.664062"/>
      <use xlink:href="#DejaVuSans-65" x="526.644531"/>
      <use xlink:href="#DejaVuSans-20" x="588.167969"/>
      <use xlink:href="#DejaVuSans-44" x="619.955078"/>
      <use xlink:href="#DejaVuSans-61" x="696.957031"/>
      <use xlink:href="#DejaVuSans-74" x="758.236328"/>
      <use xlink:href="#DejaVuSans-61" x="797.445312"/>
     </g>
    </g>
    <g id="LineCollection_4">
     <path d="M 73.427 111.884188 
L 73.427 103.554188 
" style="fill: none; stroke: #008000; stroke-width: 1.5"/>
    </g>
    <g id="line2d_47"/>
    <g id="line2d_48">
     <g>
      <use xlink:href="#m26eef28a98" x="73.427" y="107.719188" style="fill: #008000; stroke: #008000"/>
     </g>
    </g>
    <g id="text_23">
     <!-- Kinetic Force Data -->
     <g transform="translate(88.421 110.634688) scale(0.0833 -0.0833)">
      <use xlink:href="#DejaVuSans-4b"/>
      <use xlink:href="#DejaVuSans-69" x="65.576172"/>
      <use xlink:href="#DejaVuSans-6e" x="93.359375"/>
      <use xlink:href="#DejaVuSans-65" x="156.738281"/>
      <use xlink:href="#DejaVuSans-74" x="218.261719"/>
      <use xlink:href="#DejaVuSans-69" x="257.470703"/>
      <use xlink:href="#DejaVuSans-63" x="285.253906"/>
      <use xlink:href="#DejaVuSans-20" x="340.234375"/>
      <use xlink:href="#DejaVuSans-46" x="372.021484"/>
      <use xlink:href="#DejaVuSans-6f" x="425.916016"/>
      <use xlink:href="#DejaVuSans-72" x="487.097656"/>
      <use xlink:href="#DejaVuSans-63" x="525.960938"/>
      <use xlink:href="#DejaVuSans-65" x="580.941406"/>
      <use xlink:href="#DejaVuSans-20" x="642.464844"/>
      <use xlink:href="#DejaVuSans-44" x="674.251953"/>
      <use xlink:href="#DejaVuSans-61" x="751.253906"/>
      <use xlink:href="#DejaVuSans-74" x="812.533203"/>
      <use xlink:href="#DejaVuSans-61" x="851.742188"/>
     </g>
    </g>
   </g>
  </g>
 </g>
 <defs>
  <clipPath id="p06a238709d">
   <rect x="57.6" y="41.472" width="357.12" height="266.112"/>
  </clipPath>
 </defs>
</svg>
